<?xml version="1.0" standalone="no"?>
<!DOCTYPE svg PUBLIC "-//W3C//DTD SVG 1.1//EN" "http://www.w3.org/Graphics/SVG/1.1/DTD/svg11.dtd" >
<svg xmlns="http://www.w3.org/2000/svg" xmlns:xlink="http://www.w3.org/1999/xlink" version="1.1">
<metadata>
Created by FontForge 20160407 at Thu May 19 23:32:33 2016
 By Jimmy Wärting
Copyright (C) 2002, 2007 Hoefler &#38; Frere-Jones. http://www.typography.com
</metadata>
<defs>
<font id="ChronicleDisplay-Light" horiz-adv-x="767" >
  <font-face 
    font-family="Chronicle Display Light"
    font-weight="300"
    font-stretch="normal"
    units-per-em="1000"
    panose-1="0 0 0 0 0 0 0 0 0 0"
    ascent="800"
    descent="-200"
    x-height="456"
    cap-height="697"
    bbox="-65 -262 1080 1112"
    underline-thickness="50"
    underline-position="-100"
    stemh="9"
    stemv="76"
    unicode-range="U+0020-FB04"
  />
<missing-glyph horiz-adv-x="500" 
d="M0 -200v1000h500v-1000h-500zM71 750l179 -390l179 390h-358zM50 -76l172 376l-172 376v-752zM450 676l-172 -376l172 -376v752zM250 240l-179 -390h358z" />
    <glyph glyph-name="f_b" unicode="fb" horiz-adv-x="823" 
d="M372 578c-25 2 -43 18 -43 48c0 19 12 39 26 47c-9 18 -32 37 -72 37c-31 0 -53 -10 -72 -28c-20 -21 -34 -54 -34 -124v-103h195v123zM570 6c87 0 132 91 132 227c0 113 -53 198 -140 198c-43 0 -81 -22 -114 -59v-283c21 -55 69 -83 122 -83zM274 0h-250v9
c58 1 77 6 77 40v386h-87v9l87 14v47c0 78 21 131 57 167s83 51 128 51c32 0 58 -5 78 -14l84 11v-332c43 47 90 76 152 76c112 0 186 -95 186 -225c0 -140 -90 -247 -211 -247c-52 0 -106 16 -154 47l-45 -53h-8l4 89v360h-195v-386c0 -34 23 -40 97 -40v-9z" />
    <glyph glyph-name="f_f" unicode="ff" horiz-adv-x="570" 
d="M287 722c73 0 112 -26 130 -54l7 8c31 31 68 47 107 47c71 0 112 -34 112 -72c0 -31 -22 -50 -47 -50c-26 0 -49 17 -49 49c0 18 8 35 19 45c-10 9 -26 15 -44 15c-21 0 -35 -6 -48 -19c-18 -18 -31 -54 -31 -132v-104h133v-20h-133v-386c0 -34 23 -40 97 -40v-9h-241v9
c49 1 68 6 68 40v386h-190v-386c0 -34 18 -40 76 -40v-9h-229v9c58 1 77 6 77 40v386h-87v9l87 14v47c0 78 21 130 57 166c37 37 84 51 129 51zM367 498c0 29 2 55 6 77c-20 4 -37 18 -37 48c0 20 11 38 25 47c-10 19 -33 39 -76 39c-31 0 -55 -9 -75 -30
c-19 -20 -33 -51 -33 -122v-102h190v43z" />
    <glyph glyph-name="f_h" unicode="fh" horiz-adv-x="820" 
d="M372 578c-25 2 -43 18 -43 48c0 19 12 39 26 47c-9 18 -32 37 -72 37c-31 0 -53 -10 -72 -28c-20 -21 -34 -54 -34 -124v-103h195v123zM520 0h-218v9c52 1 70 6 70 40v386h-195v-386c0 -34 18 -40 77 -40v-9h-230v9c58 1 77 6 77 40v386h-87v9l87 14v47
c0 78 21 131 57 167s83 51 128 51c32 0 58 -5 78 -14l84 11v-375c43 71 102 119 171 119c77 0 121 -48 121 -137v-278c0 -34 18 -39 74 -40v-9h-217v9c52 1 67 6 67 40v255c0 76 -23 120 -88 120c-50 0 -98 -42 -128 -102v-273c0 -34 16 -39 72 -40v-9z" />
    <glyph glyph-name="fi" unicode="fi" horiz-adv-x="539" 
d="M24 0v9c58 1 77 6 77 40v386h-87v9l87 14v48c0 79 21 130 57 166c37 37 85 51 133 51c114 0 160 -64 160 -107c0 -33 -19 -54 -47 -54c-24 0 -50 13 -50 51c0 19 12 40 29 47c-10 25 -42 50 -94 50c-32 0 -58 -10 -77 -29c-22 -21 -35 -54 -35 -131v-95h154l117 5v-411
c0 -34 17 -39 76 -40v-9h-221v9c50 1 69 6 69 40v386h-195v-386c0 -34 18 -40 77 -40v-9h-230z" />
    <glyph glyph-name="f_j" unicode="fj" horiz-adv-x="529" 
d="M274 0h-250v9c58 1 77 6 77 40v386h-87v9l87 14v48c0 79 21 130 57 166c37 37 85 51 133 51c114 0 160 -64 160 -107c0 -33 -19 -54 -47 -54c-24 0 -50 13 -50 51c0 19 12 40 29 47c-10 25 -42 50 -94 50c-32 0 -58 -10 -77 -29c-22 -21 -35 -54 -35 -131v-95h154l117 5
v-456c0 -83 -4 -129 -41 -166c-29 -29 -64 -36 -94 -36c-54 0 -100 25 -100 66c0 27 20 49 47 49c28 0 44 -20 44 -46c0 -18 -11 -34 -23 -41c6 -8 21 -15 38 -15c39 0 53 27 53 82v538h-195v-386c0 -34 23 -40 97 -40v-9z" />
    <glyph glyph-name="f_k" unicode="fk" horiz-adv-x="786" 
d="M372 578c-25 2 -43 18 -43 48c0 19 12 39 26 47c-9 18 -32 37 -72 37c-31 0 -53 -10 -72 -28c-20 -21 -34 -54 -34 -124v-103h195v123zM524 0h-221v9c50 1 69 6 69 40v386h-195v-386c0 -34 18 -40 77 -40v-9h-230v9c58 1 77 6 77 40v386h-87v9l87 14v47
c0 78 21 131 57 167s83 51 128 51c32 0 58 -5 78 -14l84 11v-513l158 159c47 48 42 75 -33 82v8h198v-8c-53 -6 -79 -21 -149 -90l-71 -69l152 -206c45 -61 54 -69 101 -74v-9h-215v9c60 5 63 23 37 58l-124 174l-54 -53v-139c0 -34 17 -39 76 -40v-9z" />
    <glyph glyph-name="fl" unicode="fl" horiz-adv-x="539" 
d="M372 435h-195v-386c0 -34 18 -40 77 -40v-9h-230v9c58 1 77 6 77 40v386h-87v9l87 14v47c0 78 21 131 57 167s83 51 128 51c32 0 58 -5 78 -14l84 11v-671c0 -34 17 -39 76 -40v-9h-221v9c50 1 69 6 69 40v386zM372 578c-25 2 -43 18 -43 48c0 19 12 39 26 47
c-9 18 -32 37 -72 37c-31 0 -53 -10 -72 -28c-20 -21 -34 -54 -34 -124v-103h195v123z" />
    <glyph glyph-name="f_f_b" unicode="ffb" horiz-adv-x="1089" 
d="M540 0h-241v9c49 1 68 6 68 40v386h-190v-386c0 -34 18 -40 76 -40v-9h-229v9c58 1 77 6 77 40v386h-87v9l87 14v47c0 78 21 130 57 166c37 37 84 51 129 51c75 0 114 -27 131 -56l6 6c36 36 83 51 128 51c32 0 58 -5 78 -14l84 11v-332c43 47 90 76 152 76
c112 0 186 -95 186 -225c0 -140 -90 -247 -211 -247c-52 0 -106 16 -154 47l-45 -53h-8l4 89v360h-195v-386c0 -34 23 -40 97 -40v-9zM836 6c87 0 132 91 132 227c0 113 -53 198 -140 198c-43 0 -81 -22 -114 -59v-283c21 -55 69 -83 122 -83zM367 505c0 26 2 49 7 69
c-21 4 -38 19 -38 49c0 20 11 38 25 47c-10 19 -33 39 -76 39c-31 0 -55 -9 -75 -30c-19 -20 -33 -51 -33 -122v-102h190v50zM638 455v123c-25 2 -43 18 -43 48c0 19 12 39 26 47c-9 18 -32 37 -72 37c-31 0 -53 -10 -72 -28c-20 -21 -34 -54 -34 -124v-103h195z" />
    <glyph glyph-name="f_f_h" unicode="ffh" horiz-adv-x="1086" 
d="M299 0v9c49 1 68 6 68 40v386h-190v-386c0 -34 18 -40 76 -40v-9h-229v9c58 1 77 6 77 40v386h-87v9l87 14v47c0 78 21 130 57 166c37 37 84 51 129 51c75 0 114 -27 131 -56l6 6c36 36 83 51 128 51c32 0 58 -5 78 -14l84 11v-375c43 71 102 119 171 119
c77 0 121 -48 121 -137v-278c0 -34 18 -39 74 -40v-9h-217v9c52 1 67 6 67 40v255c0 76 -23 120 -88 120c-50 0 -98 -42 -128 -102v-273c0 -34 17 -39 76 -40v-9h-221v9c50 1 69 6 69 40v386h-195v-386c0 -34 18 -40 77 -40v-9h-221zM367 505c0 26 2 49 7 69
c-21 4 -38 19 -38 49c0 20 11 38 25 47c-10 19 -33 39 -76 39c-31 0 -55 -9 -75 -30c-19 -20 -33 -51 -33 -122v-102h190v50zM638 455v123c-25 2 -43 18 -43 48c0 19 12 39 26 47c-9 18 -32 37 -72 37c-31 0 -53 -10 -72 -28c-20 -21 -34 -54 -34 -124v-103h195z" />
    <glyph glyph-name="f_f_i" unicode="ffi" horiz-adv-x="805" 
d="M287 722c75 0 114 -27 131 -56l6 6c37 37 85 51 133 51c114 0 160 -64 160 -107c0 -33 -19 -54 -48 -54c-23 0 -49 13 -49 50c0 20 12 41 29 48c-10 25 -42 50 -94 50c-32 0 -58 -10 -77 -29c-22 -21 -35 -54 -35 -131v-95h154l117 5v-411c0 -34 17 -39 76 -40v-9h-221v9
c50 1 69 6 69 40v386h-195v-386c0 -34 18 -40 77 -40v-9h-221v9c49 1 68 6 68 40v386h-190v-386c0 -34 18 -40 76 -40v-9h-229v9c58 1 77 6 77 40v386h-87v9l87 14v47c0 78 21 130 57 166c37 37 84 51 129 51zM367 455v51c0 25 2 48 6 68c-24 4 -39 20 -39 49
c0 19 12 39 27 47c-10 19 -33 39 -76 39c-31 0 -55 -9 -75 -30c-19 -20 -33 -51 -33 -122v-102h190z" />
    <glyph glyph-name="f_f_j" unicode="ffj" horiz-adv-x="795" 
d="M540 0h-241v9c49 1 68 6 68 40v386h-190v-386c0 -34 18 -40 76 -40v-9h-229v9c58 1 77 6 77 40v386h-87v9l87 14v47c0 78 21 130 57 166c37 37 84 51 129 51c75 0 114 -27 131 -56l6 6c37 37 85 51 133 51c114 0 160 -64 160 -107c0 -33 -19 -54 -48 -54
c-23 0 -49 13 -49 50c0 20 12 41 29 48c-10 25 -42 50 -94 50c-32 0 -58 -10 -77 -29c-22 -21 -35 -54 -35 -131v-95h154l117 5v-456c0 -83 -4 -129 -41 -166c-29 -29 -64 -36 -94 -36c-54 0 -100 25 -100 66c0 27 20 49 47 49c28 0 44 -20 44 -46c0 -18 -11 -34 -23 -41
c6 -8 21 -15 38 -15c39 0 53 27 53 82v538h-195v-386c0 -34 23 -40 97 -40v-9zM367 506c0 25 2 48 6 68c-24 4 -39 20 -39 49c0 19 12 39 27 47c-10 19 -33 39 -76 39c-31 0 -55 -9 -75 -30c-19 -20 -33 -51 -33 -122v-102h190v51z" />
    <glyph glyph-name="f_f_k" unicode="ffk" horiz-adv-x="1052" 
d="M299 0v9c49 1 68 6 68 40v386h-190v-386c0 -34 18 -40 76 -40v-9h-229v9c58 1 77 6 77 40v386h-87v9l87 14v47c0 78 21 130 57 166c37 37 84 51 129 51c75 0 114 -27 131 -56l6 6c36 36 83 51 128 51c32 0 58 -5 78 -14l84 11v-513l158 159c47 48 42 75 -33 82v8h198v-8
c-53 -6 -79 -21 -149 -90l-71 -69l152 -206c45 -61 54 -69 101 -74v-9h-215v9c60 5 63 23 37 58l-124 174l-54 -53v-139c0 -34 17 -39 76 -40v-9h-221v9c50 1 69 6 69 40v386h-195v-386c0 -34 18 -40 77 -40v-9h-221zM367 505c0 26 2 49 7 69c-21 4 -38 19 -38 49
c0 20 11 38 25 47c-10 19 -33 39 -76 39c-31 0 -55 -9 -75 -30c-19 -20 -33 -51 -33 -122v-102h190v50zM638 455v123c-25 2 -43 18 -43 48c0 19 12 39 26 47c-9 18 -32 37 -72 37c-31 0 -53 -10 -72 -28c-20 -21 -34 -54 -34 -124v-103h195z" />
    <glyph glyph-name="f_f_l" unicode="ffl" horiz-adv-x="805" 
d="M299 0v9c49 1 68 6 68 40v386h-190v-386c0 -34 18 -40 76 -40v-9h-229v9c58 1 77 6 77 40v386h-87v9l87 14v47c0 78 21 130 57 166c37 37 84 51 129 51c75 0 114 -27 131 -56l6 6c36 36 83 51 128 51c32 0 58 -5 78 -14l84 11v-671c0 -34 17 -39 76 -40v-9h-221v9
c50 1 69 6 69 40v386h-195v-386c0 -34 18 -40 77 -40v-9h-221zM367 505c0 26 2 49 7 69c-21 4 -38 19 -38 49c0 20 11 38 25 47c-10 19 -33 39 -76 39c-31 0 -55 -9 -75 -30c-19 -20 -33 -51 -33 -122v-102h190v50zM638 455v123c-25 2 -43 18 -43 48c0 19 12 39 26 47
c-9 18 -32 37 -72 37c-31 0 -53 -10 -72 -28c-20 -21 -34 -54 -34 -124v-103h195z" />
    <glyph glyph-name=".notdef" horiz-adv-x="500" 
d="M0 -200v1000h500v-1000h-500zM71 750l179 -390l179 390h-358zM50 -76l172 376l-172 376v-752zM450 676l-172 -376l172 -376v752zM250 240l-179 -390h358z" />
    <glyph glyph-name="A" unicode="A" horiz-adv-x="680" 
d="M492 98l-63 173h-249l-41 -107c-46 -119 -35 -145 66 -155v-9h-229v9c69 12 95 39 142 157l220 553h14l226 -602c32 -86 44 -101 123 -108v-9h-297v9c103 4 111 25 88 89zM186 287h238l-113 313h-3z" />
    <glyph glyph-name="B" unicode="B" horiz-adv-x="662" 
d="M27 0v9c102 3 118 20 118 69v542c0 48 -16 66 -118 69v8h299c186 0 264 -76 264 -165c0 -80 -65 -145 -193 -161v-3c142 -13 223 -70 223 -171c0 -100 -81 -197 -288 -197h-305zM230 377h106c113 0 161 47 161 152c0 98 -39 153 -168 153h-99v-305zM230 15h112
c133 0 183 53 183 180c0 100 -51 167 -182 167h-113v-347z" />
    <glyph glyph-name="C" unicode="C" horiz-adv-x="699" 
d="M384 -17c-189 0 -335 133 -335 357c0 213 156 373 353 373c68 0 132 -20 178 -45l42 51h8v-226h-9c-69 160 -128 206 -227 206c-129 0 -246 -100 -246 -352c0 -233 138 -332 264 -332c121 0 194 77 242 174l11 -6c-43 -98 -129 -200 -281 -200z" />
    <glyph glyph-name="D" unicode="D" horiz-adv-x="750" 
d="M27 0v9c102 3 118 20 118 69v542c0 48 -16 66 -118 69v8h299c245 0 375 -147 375 -337c0 -182 -117 -360 -368 -360h-306zM230 15h76c219 0 296 81 296 339c0 262 -98 328 -286 328h-86v-667z" />
    <glyph glyph-name="E" unicode="E" horiz-adv-x="666" 
d="M27 0v9c102 3 118 20 118 69v542c0 48 -16 66 -118 69v8h561l3 -205l-9 -1c-53 144 -87 191 -183 191h-169v-312h95c73 0 99 27 125 137h9v-290h-9c-26 110 -52 138 -125 138h-95v-340h186c105 0 142 50 197 203l9 -1l-5 -217h-590z" />
    <glyph glyph-name="F" unicode="F" horiz-adv-x="627" 
d="M27 0v9c102 3 118 20 118 69v542c0 48 -16 65 -118 68v9h552l9 -210l-9 -1c-57 149 -94 196 -193 196h-156v-321h89c73 0 98 26 124 136h9v-288h-9c-26 110 -51 137 -124 137h-89v-268c0 -50 19 -66 120 -69v-9h-323z" />
    <glyph glyph-name="G" unicode="G" horiz-adv-x="746" 
d="M412 -17c-187 0 -363 125 -363 366c0 218 173 365 351 365c75 0 129 -14 186 -41l42 47h7v-220h-9c-69 156 -130 200 -233 200c-124 0 -245 -90 -245 -349c0 -258 137 -354 261 -354c63 0 115 18 149 44v191c0 49 -17 69 -118 72v9h287v-9c-75 -4 -85 -19 -85 -71v-184
c-68 -42 -158 -66 -230 -66z" />
    <glyph glyph-name="H" unicode="H" horiz-adv-x="803" 
d="M27 0v9c102 3 118 20 118 69v542c0 49 -16 66 -118 69v8h313v-8c-100 -3 -110 -19 -110 -68v-251h343v251c0 49 -9 65 -109 68v8h312v-8c-101 -3 -118 -20 -118 -69v-542c0 -49 17 -66 118 -69v-9h-312v9c100 3 109 19 109 68v277h-343v-277c0 -49 10 -65 110 -68v-9
h-313z" />
    <glyph glyph-name="I" unicode="I" horiz-adv-x="388" 
d="M30 0v9c105 3 122 19 122 69v542c0 49 -17 66 -122 69v8h328v-8c-105 -3 -122 -20 -122 -69v-542c0 -50 17 -66 122 -69v-9h-328z" />
    <glyph glyph-name="J" unicode="J" horiz-adv-x="537" 
d="M212 -17c-108 0 -171 57 -171 116c0 39 25 67 59 67c32 0 54 -24 54 -56c0 -30 -20 -60 -61 -65c22 -26 62 -46 106 -46c83 0 118 58 118 165v456c0 47 -11 66 -121 69v8h324v-8c-101 -3 -118 -21 -118 -70v-424c0 -126 -57 -212 -190 -212z" />
    <glyph glyph-name="K" unicode="K" horiz-adv-x="725" 
d="M230 315l250 249c77 78 75 113 -34 125v8h266v-8c-86 -13 -111 -31 -220 -139l-132 -130l211 -290c74 -101 88 -110 163 -121v-9h-289v9c84 5 92 29 50 87l-192 267l-73 -72v-214c0 -49 10 -65 103 -68v-9h-306v9c102 3 118 20 118 69v542c0 49 -16 66 -118 69v8h313v-8
c-100 -3 -110 -19 -110 -68v-306z" />
    <glyph glyph-name="L" unicode="L" horiz-adv-x="608" 
d="M27 0v9c102 3 118 20 118 69v542c0 48 -16 66 -118 69v8h319v-8c-104 -3 -116 -19 -116 -69v-605h144c103 0 143 37 203 198l9 -1l-10 -212h-549z" />
    <glyph glyph-name="M" unicode="M" horiz-adv-x="935" 
d="M26 0v9c101 14 121 39 121 116v466c0 53 -25 91 -121 98v8h214l235 -578h3l226 578h204v-8c-102 -3 -118 -21 -118 -69v-542c0 -49 16 -66 118 -69v-9h-313v9c100 3 110 19 110 68v563h-4l-255 -646h-8l-269 647h-4v-516c0 -77 17 -102 124 -116v-9h-263z" />
    <glyph glyph-name="N" unicode="N" 
d="M633 -17l-466 629h-2v-487c0 -77 17 -102 124 -116v-9h-263v9c101 14 121 39 121 116v466c0 54 -27 92 -121 98v8h188l414 -561h1v437c0 77 -22 102 -127 116v8h260v-8c-99 -15 -115 -40 -115 -116v-590h-14z" />
    <glyph glyph-name="O" unicode="O" horiz-adv-x="758" 
d="M379 -17c-172 0 -330 142 -330 364c0 221 165 367 331 367c171 0 329 -141 329 -364c0 -220 -165 -367 -330 -367zM382 -3c130 0 228 80 228 351c0 273 -103 352 -234 352c-130 0 -228 -79 -228 -351s103 -352 234 -352z" />
    <glyph glyph-name="P" unicode="P" horiz-adv-x="618" 
d="M27 0v9c102 3 118 20 118 69v542c0 48 -16 66 -118 69v8h283c194 0 276 -81 276 -188c0 -101 -82 -196 -283 -196h-73v-235c0 -51 19 -66 124 -69v-9h-327zM230 328h78c150 0 181 68 181 180c0 100 -33 174 -178 174h-81v-354z" />
    <glyph glyph-name="Q" unicode="Q" horiz-adv-x="758" 
d="M382 -3c130 0 228 80 228 351c0 273 -103 352 -234 352c-130 0 -228 -79 -228 -351s103 -352 234 -352zM413 -15c100 -28 140 -160 215 -160c19 0 31 12 31 26c0 25 -41 29 -41 65c0 25 17 47 47 47c29 0 50 -25 50 -57c0 -56 -51 -104 -131 -104
c-129 0 -177 157 -261 157c-39 0 -84 -24 -138 -84l-9 9c52 61 102 92 155 103c-152 23 -282 158 -282 360c0 221 165 367 331 367c171 0 329 -141 329 -364c0 -205 -143 -346 -296 -365z" />
    <glyph glyph-name="R" unicode="R" horiz-adv-x="683" 
d="M230 356h95c150 0 183 58 183 170c0 105 -48 156 -195 156h-83v-326zM230 341v-264c0 -49 13 -65 113 -68v-9h-316v9c102 3 118 20 118 69v542c0 48 -16 66 -118 69v8h291c184 0 287 -66 287 -170c0 -90 -62 -154 -210 -177v-3c145 -15 176 -70 191 -178l6 -43
c16 -94 33 -114 128 -114v-8c-33 -6 -70 -9 -103 -9c-88 0 -106 43 -117 133l-11 90c-12 100 -42 123 -161 123h-98z" />
    <glyph glyph-name="S" unicode="S" horiz-adv-x="573" 
d="M57 -18v246h9c55 -161 118 -227 238 -227c107 0 156 69 156 148c0 88 -50 126 -182 167c-122 38 -206 76 -206 192c0 125 105 203 226 203c62 0 118 -16 155 -32l33 38h8v-219h-8c-54 145 -111 199 -200 199c-82 0 -142 -52 -142 -139c0 -90 55 -120 179 -159
c119 -37 204 -78 204 -196c0 -105 -75 -217 -230 -217c-63 0 -130 21 -178 46l-54 -50h-8z" />
    <glyph glyph-name="T" unicode="T" horiz-adv-x="683" 
d="M174 0v9c104 3 126 19 126 69v604h-80c-72 0 -114 -41 -176 -187l-9 1l6 201h603l6 -201l-9 -1c-61 142 -103 187 -176 187h-80v-604c0 -50 22 -66 126 -69v-9h-337z" />
    <glyph glyph-name="U" unicode="U" 
d="M394 -16c-162 0 -260 75 -260 222v414c0 48 -17 66 -118 69v8h313v-8c-100 -3 -110 -20 -110 -68v-393c0 -162 87 -216 211 -216c57 0 101 15 134 47c37 37 60 87 60 168v346c0 77 -22 102 -128 116v8h260v-8c-99 -15 -114 -40 -114 -116v-353c0 -140 -83 -236 -248 -236
z" />
    <glyph glyph-name="V" unicode="V" horiz-adv-x="695" 
d="M341 -22l-228 602c-33 86 -44 101 -124 109v8h297v-8c-102 -4 -111 -27 -88 -90l183 -504h3l175 453c39 102 30 130 -71 141v8h228v-8c-70 -10 -94 -37 -142 -157l-219 -554h-14z" />
    <glyph glyph-name="W" unicode="W" horiz-adv-x="1009" 
d="M506 528l-17 53c-31 96 -47 104 -119 108v8h280v-8c-92 -4 -101 -19 -78 -89l155 -482h3l135 425c36 114 20 137 -79 146v8h238v-8c-76 -8 -105 -45 -141 -156l-179 -554h-14l-174 523l-193 -523h-14l-190 602c-27 86 -43 100 -122 108v8h286v-8c-92 -4 -95 -30 -77 -89
l143 -485h3z" />
    <glyph glyph-name="X" unicode="X" horiz-adv-x="692" 
d="M369 398l116 167c59 85 40 117 -51 124v8h250v-8c-80 -11 -101 -25 -183 -140l-120 -169l184 -282c43 -67 59 -78 142 -89v-9h-307v9c102 5 104 32 71 84l-144 230l-132 -191c-58 -84 -40 -116 51 -123v-9h-250v9c78 10 100 22 183 139l136 192l-169 260
c-42 66 -58 78 -143 89v8h308v-8c-97 -4 -104 -34 -71 -87z" />
    <glyph glyph-name="Y" unicode="Y" horiz-adv-x="660" 
d="M364 333l137 236c50 86 46 109 -54 120v8h231v-8c-75 -9 -101 -32 -158 -127l-145 -245v-239c0 -50 26 -65 121 -68v-10h-326v9c104 3 121 19 121 69v221l-175 303c-37 63 -57 79 -122 87v8h296v-8c-106 -4 -111 -28 -75 -90z" />
    <glyph glyph-name="Z" unicode="Z" horiz-adv-x="624" 
d="M38 0l-1 8l441 674h-217c-70 0 -114 -35 -188 -185l-9 1l20 199h499l1 -7l-441 -675h248c75 0 109 36 187 195l9 -2l-16 -208h-533z" />
    <glyph glyph-name="a" unicode="a" horiz-adv-x="473" 
d="M164 -6c-82 0 -121 51 -121 105c0 43 20 77 62 100c66 36 165 49 210 60v68c0 85 -28 120 -97 120c-44 0 -77 -15 -93 -36c22 -10 35 -29 35 -49c0 -29 -19 -50 -49 -50c-31 0 -47 23 -47 50c0 58 76 100 165 100c101 0 162 -40 162 -132v-248c0 -54 21 -75 81 -50l3 -7
c-29 -18 -55 -29 -85 -29c-47 0 -71 22 -72 80h-3c-43 -49 -92 -82 -151 -82zM204 29c45 0 84 30 111 65v151c-157 -28 -191 -57 -191 -130c0 -53 26 -86 80 -86z" />
    <glyph glyph-name="b" unicode="b" horiz-adv-x="525" 
d="M70 -14l4 89v581c0 34 -9 45 -83 49v8l159 4v-329c42 47 89 76 151 76c112 0 187 -95 187 -225c0 -140 -91 -247 -211 -247c-53 0 -106 16 -154 47l-45 -53h-8zM272 6c86 0 131 91 131 227c0 113 -52 198 -139 198c-43 0 -82 -22 -114 -59v-283c21 -55 69 -83 122 -83z
" />
    <glyph glyph-name="c" unicode="c" horiz-adv-x="452" 
d="M246 -10c-126 0 -210 100 -210 230c0 140 106 246 229 246c97 0 155 -53 155 -98c0 -31 -20 -52 -48 -52c-29 0 -50 20 -50 49c0 28 18 45 32 53c-17 19 -44 34 -89 34c-79 0 -147 -75 -147 -215c0 -121 58 -209 168 -209c58 0 94 26 138 78l9 -6
c-42 -58 -94 -110 -187 -110z" />
    <glyph glyph-name="d" unicode="d" horiz-adv-x="532" 
d="M229 -8c-116 0 -192 99 -192 229c0 143 99 243 220 243c52 0 88 -15 116 -34v226c0 34 -9 45 -82 49v8l158 4v-670c0 -29 19 -38 77 -39v-8l-151 -4v65c-41 -41 -85 -69 -146 -69zM266 26c43 0 79 21 107 53v306c-23 42 -60 65 -115 65c-85 0 -136 -89 -136 -225
c0 -113 53 -199 144 -199z" />
    <glyph glyph-name="e" unicode="e" horiz-adv-x="471" 
d="M250 -10c-124 0 -214 96 -214 232c0 133 98 244 215 244c126 0 193 -95 186 -204h-318c-1 -11 -1 -21 -1 -32v-1c0 -122 58 -207 159 -207c68 0 111 39 153 94l9 -6c-40 -64 -97 -120 -189 -120zM247 452c-72 0 -118 -61 -127 -177h235c6 107 -23 177 -108 177z" />
    <glyph glyph-name="f" unicode="f" horiz-adv-x="304" 
d="M24 0v9c58 1 77 6 77 40v386h-87v9l87 14v40c0 89 20 141 57 178c31 31 68 47 107 47c71 0 112 -34 112 -72c0 -31 -21 -50 -46 -50c-26 0 -50 17 -50 51c0 15 8 33 19 43c-10 9 -26 15 -44 15c-21 0 -35 -6 -48 -19c-18 -18 -31 -54 -31 -132v-104h133v-20h-133v-386
c0 -34 23 -40 97 -40v-9h-250z" />
    <glyph glyph-name="g" unicode="g" horiz-adv-x="466" 
d="M241 -186c88 0 168 49 168 116c0 44 -33 75 -121 75h-119c-59 -17 -81 -50 -81 -92c0 -60 43 -99 153 -99zM232 171c66 0 95 47 95 139c0 82 -34 140 -104 140c-67 0 -95 -48 -95 -140s35 -139 104 -139zM228 462c29 0 63 -7 92 -23c22 38 51 72 93 72
c34 0 52 -19 52 -46c0 -22 -15 -38 -36 -38c-23 0 -40 20 -39 51c-25 -3 -45 -23 -58 -45c41 -25 73 -65 73 -121c0 -97 -94 -154 -177 -154c-23 0 -48 4 -71 12c-40 -17 -59 -36 -59 -54c0 -21 19 -37 90 -37h98c114 0 166 -38 166 -118c0 -79 -78 -160 -230 -160
c-118 0 -199 45 -199 104c0 47 46 88 123 103v3c-63 13 -88 36 -88 74c0 31 28 66 83 91c-51 22 -92 65 -92 132c0 96 95 154 179 154z" />
    <glyph glyph-name="h" unicode="h" horiz-adv-x="530" 
d="M7 0v9c57 1 75 6 75 40v607c0 34 -9 45 -83 49v8l159 4v-372c43 71 102 119 171 119c77 0 121 -48 121 -137v-278c0 -34 18 -39 74 -40v-9h-217v9c52 1 67 6 67 40v255c0 76 -23 120 -88 120c-50 0 -98 -42 -128 -102v-273c0 -34 16 -39 67 -40v-9h-218z" />
    <glyph glyph-name="i" unicode="i" horiz-adv-x="266" 
d="M131 557c-30 0 -51 23 -51 53c0 31 21 55 51 55s52 -23 52 -54c0 -30 -22 -54 -52 -54zM22 0v9c58 1 77 6 77 40v349c0 31 -11 45 -77 49v8l153 5v-411c0 -34 17 -39 76 -40v-9h-229z" />
    <glyph glyph-name="j" unicode="j" horiz-adv-x="252" 
d="M127 557c-30 0 -51 23 -51 53c0 31 21 55 51 55s52 -23 52 -54c0 -30 -22 -54 -52 -54zM36 -198c-55 0 -101 25 -101 66c0 27 21 49 47 49c29 0 45 -20 45 -46c0 -18 -11 -34 -23 -41c6 -8 21 -15 38 -15c39 0 53 27 53 82v501c0 31 -12 46 -81 49v8l157 5v-456
c0 -83 -4 -129 -41 -166c-29 -29 -64 -36 -94 -36z" />
    <glyph glyph-name="k" unicode="k" horiz-adv-x="496" 
d="M158 188v-139c0 -34 16 -39 60 -40v-9h-211v9c57 1 75 6 75 40v607c0 34 -9 45 -83 49v8l159 4v-510l158 159c47 48 42 75 -33 82v8h198v-8c-53 -6 -79 -21 -149 -90l-71 -69l152 -206c45 -61 54 -69 101 -74v-9h-215v9c60 5 63 23 37 58l-124 174z" />
    <glyph glyph-name="l" unicode="l" horiz-adv-x="260" 
d="M18 0v9c58 1 75 6 75 40v607c0 34 -9 45 -82 49v8l158 4v-668c0 -34 17 -39 76 -40v-9h-227z" />
    <glyph glyph-name="m" unicode="m" horiz-adv-x="813" 
d="M309 0v9c52 1 68 6 68 40v257c0 74 -23 118 -84 118c-49 0 -93 -42 -123 -102v-273c0 -34 13 -39 64 -40v-9h-217v9c58 1 77 6 77 40v349c0 31 -11 45 -77 49v8l152 5v-116c42 72 100 120 167 120c66 0 109 -38 116 -113c44 69 103 113 167 113c74 0 116 -48 116 -135
v-280c0 -34 18 -39 74 -40v-9h-214v9c52 1 64 6 64 40v257c0 74 -22 118 -83 118c-44 0 -90 -34 -123 -93v-282c0 -34 16 -39 72 -40v-9h-216z" />
    <glyph glyph-name="n" unicode="n" horiz-adv-x="540" 
d="M17 0v9c58 1 77 6 77 40v349c0 31 -11 45 -77 49v8l152 5v-116c43 71 103 120 172 120c77 0 121 -48 121 -137v-278c0 -34 18 -39 74 -40v-9h-217v9c52 1 67 6 67 40v257c0 75 -23 118 -88 118c-50 0 -98 -42 -128 -102v-273c0 -34 16 -39 67 -40v-9h-220z" />
    <glyph glyph-name="o" unicode="o" horiz-adv-x="519" 
d="M260 -10c-120 0 -224 97 -224 237c0 139 110 239 224 239c119 0 224 -96 224 -236c0 -139 -110 -240 -224 -240zM264 4c81 0 134 59 134 224s-60 225 -143 225c-81 0 -134 -59 -134 -224s61 -225 143 -225z" />
    <glyph glyph-name="p" unicode="p" horiz-adv-x="532" 
d="M5 -192v8c58 1 77 6 77 40v542c0 31 -11 45 -77 49v8l152 5v-74c43 47 91 78 153 78c112 0 184 -95 184 -225c0 -143 -91 -247 -212 -247c-52 0 -90 16 -124 37v-172c0 -34 23 -40 98 -40v-9h-251zM277 6c87 0 133 88 133 227c0 110 -51 198 -138 198
c-43 0 -81 -23 -114 -61v-283c21 -56 64 -81 119 -81z" />
    <glyph glyph-name="q" unicode="q" horiz-adv-x="526" 
d="M279 -192v9c72 1 96 8 96 38v209c-43 -42 -87 -72 -148 -72c-114 0 -190 97 -190 225c0 138 93 247 216 247c53 0 101 -17 149 -48l45 55h8l-4 -88v-529c0 -30 19 -37 77 -38v-8h-249zM264 28c41 0 78 20 111 54v284c-21 55 -64 84 -117 84c-89 0 -136 -93 -136 -226
c0 -109 52 -196 142 -196z" />
    <glyph glyph-name="r" unicode="r" horiz-adv-x="389" 
d="M17 0v9c58 1 77 6 77 40v349c0 31 -11 45 -77 49v8l152 5v-113c31 65 83 118 136 118c46 0 68 -28 68 -61c0 -30 -22 -53 -49 -53c-30 0 -51 20 -51 50c0 12 3 23 10 33c-45 -6 -79 -44 -113 -106v-279c0 -34 20 -39 88 -40v-9h-241z" />
    <glyph glyph-name="s" unicode="s" horiz-adv-x="406" 
d="M43 -10v163h8c62 -119 89 -149 165 -149c62 0 98 41 98 88c0 51 -24 77 -124 106c-99 28 -144 58 -144 128c0 79 70 140 157 140c39 0 78 -13 105 -28l26 28h8v-145h-8c-55 103 -81 131 -141 131c-55 0 -94 -34 -94 -83c0 -47 36 -71 124 -96c99 -29 141 -66 141 -136
c0 -83 -64 -147 -155 -147c-43 0 -91 16 -123 35l-35 -35h-8z" />
    <glyph glyph-name="t" unicode="t" horiz-adv-x="335" 
d="M203 -11c-69 0 -107 42 -107 126v320h-94v9l94 14v130l76 35v-168h146v-20h-146v-327c0 -61 23 -88 63 -88c31 0 60 21 91 71l8 -6c-34 -62 -76 -96 -131 -96z" />
    <glyph glyph-name="u" unicode="u" horiz-adv-x="530" 
d="M202 -9c-77 0 -121 49 -121 137v271c0 31 -12 44 -75 48v8l151 5v-309c0 -75 23 -119 88 -119c50 0 96 41 126 101v266c0 31 -12 44 -79 48v8l155 5v-413c0 -29 19 -38 77 -39v-8h-152v111c-43 -71 -101 -120 -170 -120z" />
    <glyph glyph-name="v" unicode="v" horiz-adv-x="475" 
d="M237 -12l-157 385c-22 54 -36 71 -91 75v8h226v-8c-49 -3 -66 -14 -66 -35c0 -7 2 -18 7 -30l115 -297h3l107 261c9 24 16 44 16 57c0 27 -20 38 -65 44v8h160v-8c-42 -6 -60 -25 -88 -90l-156 -370h-11z" />
    <glyph glyph-name="w" unicode="w" horiz-adv-x="714" 
d="M368 325l-17 48c-20 54 -34 71 -83 75v8h218v-8c-50 -3 -69 -17 -69 -42c0 -6 2 -15 6 -26l103 -286h3l89 252c9 25 14 45 14 58c0 27 -18 39 -61 44v8h163v-8c-47 -6 -69 -24 -93 -91l-135 -369h-13l-117 317l-134 -317h-11l-150 385c-21 52 -36 71 -90 75v8h223v-8
c-50 -3 -67 -17 -67 -40c0 -6 2 -16 6 -28l112 -288h3z" />
    <glyph glyph-name="x" unicode="x" horiz-adv-x="501" 
d="M268 264l64 82c50 66 36 94 -28 102v8h194v-8c-61 -8 -85 -25 -146 -102l-74 -95l115 -158c51 -70 64 -79 108 -84v-9h-217v8c71 8 68 23 34 71l-86 124l-71 -93c-51 -67 -36 -94 33 -102v-8h-194v9c56 7 80 25 141 102l83 104l-108 148c-52 70 -65 79 -112 85v8h217v-8
c-71 -7 -63 -23 -30 -71z" />
    <glyph glyph-name="y" unicode="y" horiz-adv-x="476" 
d="M244 1l-165 372c-24 54 -38 70 -93 75v8h226v-8c-69 -4 -74 -25 -57 -65l125 -296l103 260c28 70 19 92 -50 101v8h160v-8c-42 -6 -60 -25 -87 -90l-157 -387c-55 -135 -97 -169 -150 -169c-39 0 -64 30 -64 60c0 27 16 52 48 52c26 0 46 -22 46 -50
c0 -17 -6 -32 -17 -44c31 4 71 28 123 160z" />
    <glyph glyph-name="z" unicode="z" horiz-adv-x="450" 
d="M33 0l-2 9l299 432h-123c-57 0 -84 -24 -143 -140l-10 2l17 153h350l2 -8l-298 -432h135c56 0 96 29 148 147l10 -2l-16 -161h-369z" />
    <glyph glyph-name="Aacute" unicode="&#xc1;" horiz-adv-x="680" 
d="M492 98l-63 173h-249l-41 -107c-46 -119 -35 -145 66 -155v-9h-229v9c69 12 95 39 142 157l220 553h14l226 -602c32 -86 44 -101 123 -108v-9h-297v9c103 4 111 25 88 89zM186 287h238l-113 313h-3zM315 768l41 91c36 79 43 101 71 101c20 0 36 -16 36 -36
c0 -19 -12 -32 -71 -90l-69 -66h-8z" />
    <glyph glyph-name="aacute" unicode="&#xe1;" horiz-adv-x="473" 
d="M164 -6c-82 0 -121 51 -121 105c0 43 20 77 62 100c66 36 165 49 210 60v68c0 85 -28 120 -97 120c-44 0 -77 -15 -93 -36c22 -10 35 -29 35 -49c0 -29 -19 -50 -49 -50c-31 0 -47 23 -47 50c0 58 76 100 165 100c101 0 162 -40 162 -132v-248c0 -54 21 -75 81 -50l3 -7
c-29 -18 -55 -29 -85 -29c-47 0 -71 22 -72 80h-3c-43 -49 -92 -82 -151 -82zM204 29c45 0 84 30 111 65v151c-157 -28 -191 -57 -191 -130c0 -53 26 -86 80 -86zM206 528l41 91c36 79 43 101 71 101c20 0 36 -16 36 -36c0 -19 -12 -32 -71 -90l-69 -66h-8z" />
    <glyph glyph-name="Abreve" unicode="&#x102;" horiz-adv-x="680" 
d="M492 98l-63 173h-249l-41 -107c-46 -119 -35 -145 66 -155v-9h-229v9c69 12 95 39 142 157l220 553h14l226 -602c32 -86 44 -101 123 -108v-9h-297v9c103 4 111 25 88 89zM186 287h238l-113 313h-3zM343 773c-73 0 -122 62 -133 149h12c24 -68 62 -91 122 -91
c61 0 97 23 121 91h11c-10 -87 -60 -149 -133 -149z" />
    <glyph glyph-name="abreve" unicode="&#x103;" horiz-adv-x="473" 
d="M164 -6c-82 0 -121 51 -121 105c0 43 20 77 62 100c66 36 165 49 210 60v68c0 85 -28 120 -97 120c-44 0 -77 -15 -93 -36c22 -10 35 -29 35 -49c0 -29 -19 -50 -49 -50c-31 0 -47 23 -47 50c0 58 76 100 165 100c101 0 162 -40 162 -132v-248c0 -54 21 -75 81 -50l3 -7
c-29 -18 -55 -29 -85 -29c-47 0 -71 22 -72 80h-3c-43 -49 -92 -82 -151 -82zM204 29c45 0 84 30 111 65v151c-157 -28 -191 -57 -191 -130c0 -53 26 -86 80 -86zM236 533c-73 0 -122 62 -133 149h12c24 -68 62 -91 122 -91c61 0 97 23 121 91h11
c-10 -87 -60 -149 -133 -149z" />
    <glyph glyph-name="Acircumflex" unicode="&#xc2;" horiz-adv-x="680" 
d="M492 98l-63 173h-249l-41 -107c-46 -119 -35 -145 66 -155v-9h-229v9c69 12 95 39 142 157l220 553h14l226 -602c32 -86 44 -101 123 -108v-9h-297v9c103 4 111 25 88 89zM186 287h238l-113 313h-3zM216 763l128 179h9l121 -179h-12l-117 98l-117 -98h-12z" />
    <glyph glyph-name="acircumflex" unicode="&#xe2;" horiz-adv-x="473" 
d="M164 -6c-82 0 -121 51 -121 105c0 43 20 77 62 100c66 36 165 49 210 60v68c0 85 -28 120 -97 120c-44 0 -77 -15 -93 -36c22 -10 35 -29 35 -49c0 -29 -19 -50 -49 -50c-31 0 -47 23 -47 50c0 58 76 100 165 100c101 0 162 -40 162 -132v-248c0 -54 21 -75 81 -50l3 -7
c-29 -18 -55 -29 -85 -29c-47 0 -71 22 -72 80h-3c-43 -49 -92 -82 -151 -82zM204 29c45 0 84 30 111 65v151c-157 -28 -191 -57 -191 -130c0 -53 26 -86 80 -86zM107 528l128 179h9l121 -179h-12l-117 98l-117 -98h-12z" />
    <glyph glyph-name="Adieresis" unicode="&#xc4;" horiz-adv-x="680" 
d="M492 98l-63 173h-249l-41 -107c-46 -119 -35 -145 66 -155v-9h-229v9c69 12 95 39 142 157l220 553h14l226 -602c32 -86 44 -101 123 -108v-9h-297v9c103 4 111 25 88 89zM186 287h238l-113 313h-3zM427 773c-29 0 -50 22 -50 51c0 28 21 52 49 52c29 0 50 -24 50 -53
c0 -28 -21 -50 -49 -50zM263 773c-29 0 -50 22 -50 51c0 28 21 52 49 52c29 0 50 -24 50 -53c0 -28 -21 -50 -49 -50z" />
    <glyph glyph-name="adieresis" unicode="&#xe4;" horiz-adv-x="473" 
d="M164 -6c-82 0 -121 51 -121 105c0 43 20 77 62 100c66 36 165 49 210 60v68c0 85 -28 120 -97 120c-44 0 -77 -15 -93 -36c22 -10 35 -29 35 -49c0 -29 -19 -50 -49 -50c-31 0 -47 23 -47 50c0 58 76 100 165 100c101 0 162 -40 162 -132v-248c0 -54 21 -75 81 -50l3 -7
c-29 -18 -55 -29 -85 -29c-47 0 -71 22 -72 80h-3c-43 -49 -92 -82 -151 -82zM204 29c45 0 84 30 111 65v151c-157 -28 -191 -57 -191 -130c0 -53 26 -86 80 -86zM319 533c-29 0 -50 22 -50 51c0 28 21 52 49 52c29 0 50 -24 50 -53c0 -28 -21 -50 -49 -50zM155 533
c-29 0 -50 22 -50 51c0 28 21 52 49 52c29 0 50 -24 50 -53c0 -28 -21 -50 -49 -50z" />
    <glyph glyph-name="AE" unicode="&#xc6;" horiz-adv-x="1004" 
d="M240 285l-85 -134c-28 -44 -45 -76 -45 -99c0 -25 23 -37 76 -43v-9h-228v9c73 11 114 51 183 157l281 435c10 16 16 29 16 41c0 25 -29 40 -102 47v8h590l3 -205l-9 -1c-53 144 -87 191 -183 191h-169v-312h95c72 0 99 27 125 137h9v-290h-9c-26 110 -53 138 -125 138
h-95v-340h185c106 0 143 50 198 203l9 -1l-5 -217h-590v9c101 3 118 20 118 69v207h-243zM483 301v359h-3l-230 -359h233z" />
    <glyph glyph-name="ae" unicode="&#xe6;" horiz-adv-x="754" 
d="M534 466c126 0 192 -95 185 -204h-317c-1 -11 -1 -21 -1 -32v-1c0 -122 58 -207 159 -207c67 0 111 39 152 94l9 -6c-39 -64 -96 -120 -189 -120c-85 0 -152 45 -181 123h-3c-39 -74 -108 -119 -184 -119c-82 0 -121 51 -121 105c0 43 20 77 62 100c65 36 174 49 219 60
v68c0 85 -37 120 -106 120c-44 0 -77 -15 -93 -36c22 -10 35 -29 35 -49c0 -29 -19 -50 -49 -50c-31 0 -47 23 -47 50c0 58 76 100 165 100c76 0 127 -23 149 -74c37 48 94 78 156 78zM529 452c-71 0 -117 -61 -126 -177h234c7 107 -22 177 -108 177zM208 29
c45 0 93 29 116 73v142c-158 -27 -200 -56 -200 -129c0 -55 30 -86 84 -86z" />
    <glyph glyph-name="AEacute" unicode="&#x1fc;" horiz-adv-x="1004" 
d="M560 768l41 91c36 79 43 101 71 101c20 0 36 -16 36 -36c0 -19 -12 -32 -71 -90l-69 -66h-8zM240 285l-85 -134c-28 -44 -45 -76 -45 -99c0 -25 23 -37 76 -43v-9h-228v9c73 11 114 51 183 157l281 435c10 16 16 29 16 41c0 25 -29 40 -102 47v8h590l3 -205l-9 -1
c-53 144 -87 191 -183 191h-169v-312h95c72 0 99 27 125 137h9v-290h-9c-26 110 -53 138 -125 138h-95v-340h185c106 0 143 50 198 203l9 -1l-5 -217h-590v9c101 3 118 20 118 69v207h-243zM483 301v359h-3l-230 -359h233z" />
    <glyph glyph-name="aeacute" unicode="&#x1fd;" horiz-adv-x="754" 
d="M534 466c126 0 192 -95 185 -204h-317c-1 -11 -1 -21 -1 -32v-1c0 -122 58 -207 159 -207c67 0 111 39 152 94l9 -6c-39 -64 -96 -120 -189 -120c-85 0 -152 45 -181 123h-3c-39 -74 -108 -119 -184 -119c-82 0 -121 51 -121 105c0 43 20 77 62 100c65 36 174 49 219 60
v68c0 85 -37 120 -106 120c-44 0 -77 -15 -93 -36c22 -10 35 -29 35 -49c0 -29 -19 -50 -49 -50c-31 0 -47 23 -47 50c0 58 76 100 165 100c76 0 127 -23 149 -74c37 48 94 78 156 78zM529 452c-71 0 -117 -61 -126 -177h234c7 107 -22 177 -108 177zM208 29
c45 0 93 29 116 73v142c-158 -27 -200 -56 -200 -129c0 -55 30 -86 84 -86zM378 528l41 91c36 79 43 101 71 101c20 0 36 -16 36 -36c0 -19 -12 -32 -71 -90l-69 -66h-8z" />
    <glyph glyph-name="Agrave" unicode="&#xc0;" horiz-adv-x="680" 
d="M492 98l-63 173h-249l-41 -107c-46 -119 -35 -145 66 -155v-9h-229v9c69 12 95 39 142 157l220 553h14l226 -602c32 -86 44 -101 123 -108v-9h-297v9c103 4 111 25 88 89zM186 287h238l-113 313h-3zM371 768l-69 66c-59 58 -71 71 -71 90c0 20 16 36 37 36
c28 0 34 -22 70 -101l41 -91h-8z" />
    <glyph glyph-name="agrave" unicode="&#xe0;" horiz-adv-x="473" 
d="M164 -6c-82 0 -121 51 -121 105c0 43 20 77 62 100c66 36 165 49 210 60v68c0 85 -28 120 -97 120c-44 0 -77 -15 -93 -36c22 -10 35 -29 35 -49c0 -29 -19 -50 -49 -50c-31 0 -47 23 -47 50c0 58 76 100 165 100c101 0 162 -40 162 -132v-248c0 -54 21 -75 81 -50l3 -7
c-29 -18 -55 -29 -85 -29c-47 0 -71 22 -72 80h-3c-43 -49 -92 -82 -151 -82zM204 29c45 0 84 30 111 65v151c-157 -28 -191 -57 -191 -130c0 -53 26 -86 80 -86zM259 528l-69 66c-59 58 -71 71 -71 90c0 20 16 36 37 36c28 0 34 -22 70 -101l41 -91h-8z" />
    <glyph glyph-name="Amacron" unicode="&#x100;" horiz-adv-x="680" 
d="M492 98l-63 173h-249l-41 -107c-46 -119 -35 -145 66 -155v-9h-229v9c69 12 95 39 142 157l220 553h14l226 -602c32 -86 44 -101 123 -108v-9h-297v9c103 4 111 25 88 89zM186 287h238l-113 313h-3zM212 798v29h263v-29h-263z" />
    <glyph glyph-name="amacron" unicode="&#x101;" horiz-adv-x="473" 
d="M164 -6c-82 0 -121 51 -121 105c0 43 20 77 62 100c66 36 165 49 210 60v68c0 85 -28 120 -97 120c-44 0 -77 -15 -93 -36c22 -10 35 -29 35 -49c0 -29 -19 -50 -49 -50c-31 0 -47 23 -47 50c0 58 76 100 165 100c101 0 162 -40 162 -132v-248c0 -54 21 -75 81 -50l3 -7
c-29 -18 -55 -29 -85 -29c-47 0 -71 22 -72 80h-3c-43 -49 -92 -82 -151 -82zM204 29c45 0 84 30 111 65v151c-157 -28 -191 -57 -191 -130c0 -53 26 -86 80 -86zM105 558v29h263v-29h-263z" />
    <glyph glyph-name="Aogonek" unicode="&#x104;" horiz-adv-x="680" 
d="M547 -243c-52 0 -94 30 -94 79c0 41 21 73 100 137l33 27h-182v9c103 4 111 25 88 89l-63 173h-249l-41 -107c-46 -119 -35 -145 66 -155v-9h-229v9c69 12 95 39 142 157l220 553h14l226 -602c32 -86 44 -101 123 -108v-9h-96l-29 -30c-43 -42 -61 -78 -61 -123
c0 -44 28 -63 62 -63c26 0 42 7 64 17l5 -9c-31 -22 -63 -35 -99 -35zM186 287h238l-113 313h-3z" />
    <glyph glyph-name="aogonek" unicode="&#x105;" horiz-adv-x="473" 
d="M475 25c-14 -10 -50 -44 -67 -59c-47 -43 -67 -78 -67 -121c0 -42 26 -61 60 -61c27 0 44 7 65 17l5 -9c-31 -22 -63 -35 -99 -35c-52 0 -93 30 -93 77c0 44 28 77 110 139l37 28c-11 -3 -23 -5 -36 -5c-47 0 -71 22 -72 80h-3c-43 -49 -92 -82 -151 -82
c-82 0 -121 51 -121 105c0 43 20 77 62 100c66 36 165 49 210 60v68c0 85 -28 120 -97 120c-44 0 -77 -15 -93 -36c22 -10 35 -29 35 -49c0 -29 -19 -50 -49 -50c-31 0 -47 23 -47 50c0 58 76 100 165 100c101 0 162 -40 162 -132v-248c0 -54 21 -75 81 -50zM204 29
c45 0 84 30 111 65v151c-157 -28 -191 -57 -191 -130c0 -53 26 -86 80 -86z" />
    <glyph glyph-name="Aring" unicode="&#xc5;" horiz-adv-x="680" 
d="M344 713c37 0 60 35 60 90c0 66 -22 90 -60 90c-37 0 -59 -24 -59 -90c0 -55 22 -90 59 -90zM180 271l-41 -107c-46 -119 -35 -145 66 -155v-9h-229v9c69 12 95 39 142 157l213 536c-53 6 -90 50 -90 101c0 55 42 102 103 102c60 0 104 -47 104 -102
c0 -50 -36 -94 -89 -101l219 -585c32 -86 44 -101 123 -108v-9h-297v9c103 4 111 25 88 89l-63 173h-249zM424 287l-113 313h-3l-122 -313h238z" />
    <glyph glyph-name="aring" unicode="&#xe5;" horiz-adv-x="473" 
d="M164 -6c-82 0 -121 51 -121 105c0 43 20 77 62 100c66 36 165 49 210 60v68c0 85 -28 120 -97 120c-44 0 -77 -15 -93 -36c22 -10 35 -29 35 -49c0 -29 -19 -50 -49 -50c-31 0 -47 23 -47 50c0 58 76 100 165 100c101 0 162 -40 162 -132v-248c0 -54 21 -75 81 -50l3 -7
c-29 -18 -55 -29 -85 -29c-47 0 -71 22 -72 80h-3c-43 -49 -92 -82 -151 -82zM204 29c45 0 84 30 111 65v151c-157 -28 -191 -57 -191 -130c0 -53 26 -86 80 -86zM236 533c-61 0 -103 47 -103 102s42 102 103 102c60 0 104 -47 104 -102s-43 -102 -104 -102zM236 545
c37 0 60 34 60 90c0 65 -22 90 -60 90c-37 0 -59 -25 -59 -90c0 -56 22 -90 59 -90z" />
    <glyph glyph-name="Aringacute" unicode="&#x1fa;" horiz-adv-x="680" 
d="M314 920l41 91c36 79 43 101 71 101c20 0 36 -16 36 -36c0 -19 -12 -32 -71 -90l-69 -66h-8zM344 713c37 0 60 35 60 90c0 66 -22 90 -60 90c-37 0 -59 -24 -59 -90c0 -55 22 -90 59 -90zM180 271l-41 -107c-46 -119 -35 -145 66 -155v-9h-229v9c69 12 95 39 142 157
l213 536c-53 6 -90 50 -90 101c0 55 42 102 103 102c60 0 104 -47 104 -102c0 -50 -36 -94 -89 -101l219 -585c32 -86 44 -101 123 -108v-9h-297v9c103 4 111 25 88 89l-63 173h-249zM424 287l-113 313h-3l-122 -313h238z" />
    <glyph glyph-name="aringacute" unicode="&#x1fb;" horiz-adv-x="473" 
d="M164 -6c-82 0 -121 51 -121 105c0 43 20 77 62 100c66 36 165 49 210 60v68c0 85 -28 120 -97 120c-44 0 -77 -15 -93 -36c22 -10 35 -29 35 -49c0 -29 -19 -50 -49 -50c-31 0 -47 23 -47 50c0 58 76 100 165 100c101 0 162 -40 162 -132v-248c0 -54 21 -75 81 -50l3 -7
c-29 -18 -55 -29 -85 -29c-47 0 -71 22 -72 80h-3c-43 -49 -92 -82 -151 -82zM204 29c45 0 84 30 111 65v151c-157 -28 -191 -57 -191 -130c0 -53 26 -86 80 -86zM211 773l41 91c36 79 43 101 71 101c20 0 36 -16 36 -36c0 -19 -12 -32 -71 -90l-69 -66h-8zM239 533
c-61 0 -103 47 -103 102s42 102 103 102c60 0 104 -47 104 -102s-43 -102 -104 -102zM239 545c37 0 60 34 60 90c0 65 -22 90 -60 90c-37 0 -59 -25 -59 -90c0 -56 22 -90 59 -90z" />
    <glyph glyph-name="Atilde" unicode="&#xc3;" horiz-adv-x="680" 
d="M492 98l-63 173h-249l-41 -107c-46 -119 -35 -145 66 -155v-9h-229v9c69 12 95 39 142 157l220 553h14l226 -602c32 -86 44 -101 123 -108v-9h-297v9c103 4 111 25 88 89zM186 287h238l-113 313h-3zM190 763c13 77 39 117 90 117c47 0 111 -49 150 -49c22 0 41 18 53 62
h11c-13 -77 -41 -117 -90 -117c-47 0 -111 49 -150 49c-22 0 -41 -17 -53 -62h-11z" />
    <glyph glyph-name="atilde" unicode="&#xe3;" horiz-adv-x="473" 
d="M164 -6c-82 0 -121 51 -121 105c0 43 20 77 62 100c66 36 165 49 210 60v68c0 85 -28 120 -97 120c-44 0 -77 -15 -93 -36c22 -10 35 -29 35 -49c0 -29 -19 -50 -49 -50c-31 0 -47 23 -47 50c0 58 76 100 165 100c101 0 162 -40 162 -132v-248c0 -54 21 -75 81 -50l3 -7
c-29 -18 -55 -29 -85 -29c-47 0 -71 22 -72 80h-3c-43 -49 -92 -82 -151 -82zM204 29c45 0 84 30 111 65v151c-157 -28 -191 -57 -191 -130c0 -53 26 -86 80 -86zM85 523c13 77 39 117 90 117c47 0 111 -49 150 -49c22 0 41 18 53 62h11c-13 -77 -41 -117 -90 -117
c-47 0 -111 49 -150 49c-22 0 -41 -17 -53 -62h-11z" />
    <glyph glyph-name="Cacute" unicode="&#x106;" horiz-adv-x="699" 
d="M363 768l41 91c36 79 43 101 71 101c20 0 36 -16 36 -36c0 -19 -12 -32 -71 -90l-69 -66h-8zM384 -17c-189 0 -335 133 -335 357c0 213 156 373 353 373c68 0 132 -20 178 -45l42 51h8v-226h-9c-69 160 -128 206 -227 206c-129 0 -246 -100 -246 -352
c0 -233 138 -332 264 -332c121 0 194 77 242 174l11 -6c-43 -98 -129 -200 -281 -200z" />
    <glyph glyph-name="cacute" unicode="&#x107;" horiz-adv-x="452" 
d="M226 528l41 91c36 79 43 101 71 101c20 0 36 -16 36 -36c0 -19 -12 -32 -71 -90l-69 -66h-8zM246 -10c-126 0 -210 100 -210 230c0 140 106 246 229 246c97 0 155 -53 155 -98c0 -31 -20 -52 -48 -52c-29 0 -50 20 -50 49c0 28 18 45 32 53c-17 19 -44 34 -89 34
c-79 0 -147 -75 -147 -215c0 -121 58 -209 168 -209c58 0 94 26 138 78l9 -6c-42 -58 -94 -110 -187 -110z" />
    <glyph glyph-name="Ccaron" unicode="&#x10c;" horiz-adv-x="699" 
d="M384 763l-121 179h12l117 -98l117 98h12l-128 -179h-9zM384 -17c-189 0 -335 133 -335 357c0 213 156 373 353 373c68 0 132 -20 178 -45l42 51h8v-226h-9c-69 160 -128 206 -227 206c-129 0 -246 -100 -246 -352c0 -233 138 -332 264 -332c121 0 194 77 242 174l11 -6
c-43 -98 -129 -200 -281 -200z" />
    <glyph glyph-name="ccaron" unicode="&#x10d;" horiz-adv-x="452" 
d="M250 528l-121 179h12l117 -98l117 98h12l-128 -179h-9zM246 -10c-126 0 -210 100 -210 230c0 140 106 246 229 246c97 0 155 -53 155 -98c0 -31 -20 -52 -48 -52c-29 0 -50 20 -50 49c0 28 18 45 32 53c-17 19 -44 34 -89 34c-79 0 -147 -75 -147 -215
c0 -121 58 -209 168 -209c58 0 94 26 138 78l9 -6c-42 -58 -94 -110 -187 -110z" />
    <glyph glyph-name="Ccedilla" unicode="&#xc7;" horiz-adv-x="699" 
d="M353 -247c-32 0 -68 10 -97 36l7 10c23 -20 51 -29 80 -29c44 0 63 27 63 63c0 39 -35 61 -78 61c-12 0 -23 -1 -37 -5l-4 7l96 87c-189 1 -334 133 -334 357c0 213 156 373 353 373c68 0 132 -20 178 -45l42 51h8v-226h-9c-69 160 -128 206 -227 206
c-129 0 -246 -100 -246 -352c0 -233 138 -332 264 -332c121 0 194 77 242 174l11 -6c-41 -94 -121 -190 -260 -199l-59 -55l1 -2c78 0 114 -39 114 -86c0 -50 -45 -88 -108 -88z" />
    <glyph glyph-name="ccedilla" unicode="&#xe7;" horiz-adv-x="452" 
d="M227 -247c-32 0 -68 10 -97 36l7 10c23 -20 51 -29 80 -29c44 0 63 27 63 63c0 39 -35 61 -78 61c-12 0 -23 -1 -37 -5l-4 7l104 95c-6 0 -12 -1 -19 -1c-126 0 -210 100 -210 230c0 140 106 246 229 246c97 0 155 -53 155 -98c0 -31 -20 -52 -48 -52
c-29 0 -50 20 -50 49c0 28 18 45 32 53c-17 19 -44 34 -89 34c-79 0 -147 -75 -147 -215c0 -121 58 -209 168 -209c58 0 94 26 138 78l9 -6c-35 -48 -77 -92 -143 -105l-70 -66l1 -2c78 0 114 -39 114 -86c0 -50 -45 -88 -108 -88z" />
    <glyph glyph-name="Cdotaccent" unicode="&#x10a;" horiz-adv-x="699" 
d="M384 -17c-189 0 -335 133 -335 357c0 213 156 373 353 373c68 0 132 -20 178 -45l42 51h8v-226h-9c-69 160 -128 206 -227 206c-129 0 -246 -100 -246 -352c0 -233 138 -332 264 -332c121 0 194 77 242 174l11 -6c-43 -98 -129 -200 -281 -200zM392 768
c-30 0 -51 23 -51 53s22 54 51 54c31 0 52 -23 52 -54c0 -29 -22 -53 -52 -53z" />
    <glyph glyph-name="cdotaccent" unicode="&#x10b;" horiz-adv-x="452" 
d="M246 -10c-126 0 -210 100 -210 230c0 140 106 246 229 246c97 0 155 -53 155 -98c0 -31 -20 -52 -48 -52c-29 0 -50 20 -50 49c0 28 18 45 32 53c-17 19 -44 34 -89 34c-79 0 -147 -75 -147 -215c0 -121 58 -209 168 -209c58 0 94 26 138 78l9 -6
c-42 -58 -94 -110 -187 -110zM258 533c-30 0 -51 23 -51 53s22 54 51 54c31 0 52 -23 52 -54c0 -29 -22 -53 -52 -53z" />
    <glyph glyph-name="Dcaron" unicode="&#x10e;" horiz-adv-x="750" 
d="M377 768l-121 179h12l117 -98l117 98h12l-128 -179h-9zM27 0v9c102 3 118 20 118 69v542c0 48 -16 66 -118 69v8h299c245 0 375 -147 375 -337c0 -182 -117 -360 -368 -360h-306zM230 15h76c219 0 296 81 296 339c0 262 -98 328 -286 328h-86v-667z" />
    <glyph glyph-name="dcaron" unicode="&#x10f;" horiz-adv-x="531" 
d="M549 535l-2 107c0 17 -1 48 -1 63c0 42 23 51 39 51c21 0 37 -12 37 -37c0 -13 -6 -33 -15 -57l-50 -127h-8zM229 -8c-116 0 -192 99 -192 229c0 143 99 243 220 243c52 0 88 -15 116 -34v226c0 34 -9 45 -82 49v8l158 4v-670c0 -29 19 -38 77 -39v-8l-151 -4v65
c-41 -41 -85 -69 -146 -69zM266 26c43 0 79 21 107 53v306c-23 42 -60 65 -115 65c-85 0 -136 -89 -136 -225c0 -113 53 -199 144 -199z" />
    <glyph glyph-name="Dcroat" unicode="&#x110;" horiz-adv-x="750" 
d="M27 0v9c102 3 118 20 118 69v276h-98v19h98v247c0 48 -16 66 -118 69v8h299c245 0 375 -147 375 -337c0 -182 -117 -360 -368 -360h-306zM230 15h76c219 0 296 81 296 339c0 262 -98 328 -286 328h-86v-309h154v-19h-154v-339z" />
    <glyph glyph-name="dcroat" unicode="&#x111;" horiz-adv-x="532" 
d="M229 -8c-116 0 -192 99 -192 229c0 143 99 243 220 243c52 0 88 -15 116 -34v145h-149v17h149v64c0 34 -9 45 -82 49v8l158 4v-125h70v-17h-70v-528c0 -29 19 -38 77 -39v-8l-151 -4v65c-41 -41 -85 -69 -146 -69zM266 26c43 0 79 21 107 53v306c-23 42 -60 65 -115 65
c-85 0 -136 -89 -136 -225c0 -113 53 -199 144 -199z" />
    <glyph glyph-name="Eacute" unicode="&#xc9;" horiz-adv-x="666" 
d="M326 768l41 91c36 79 43 101 71 101c20 0 36 -16 36 -36c0 -19 -12 -32 -71 -90l-69 -66h-8zM27 0v9c102 3 118 20 118 69v542c0 48 -16 66 -118 69v8h561l3 -205l-9 -1c-53 144 -87 191 -183 191h-169v-312h95c73 0 99 27 125 137h9v-290h-9c-26 110 -52 138 -125 138
h-95v-340h186c105 0 142 50 197 203l9 -1l-5 -217h-590z" />
    <glyph glyph-name="eacute" unicode="&#xe9;" horiz-adv-x="471" 
d="M250 -10c-124 0 -214 96 -214 232c0 133 98 244 215 244c126 0 193 -95 186 -204h-318c-1 -11 -1 -21 -1 -32v-1c0 -122 58 -207 159 -207c68 0 111 39 153 94l9 -6c-40 -64 -97 -120 -189 -120zM247 452c-72 0 -118 -61 -127 -177h235c6 107 -23 177 -108 177zM223 528
l41 91c36 79 43 101 71 101c20 0 36 -16 36 -36c0 -19 -12 -32 -71 -90l-69 -66h-8z" />
    <glyph glyph-name="Ebreve" unicode="&#x114;" horiz-adv-x="666" 
d="M27 0v9c102 3 118 20 118 69v542c0 48 -16 66 -118 69v8h561l3 -205l-9 -1c-53 144 -87 191 -183 191h-169v-312h95c73 0 99 27 125 137h9v-290h-9c-26 110 -52 138 -125 138h-95v-340h186c105 0 142 50 197 203l9 -1l-5 -217h-590zM353 773c-73 0 -122 62 -133 149h12
c24 -68 62 -91 122 -91c61 0 97 23 121 91h11c-10 -87 -60 -149 -133 -149z" />
    <glyph glyph-name="ebreve" unicode="&#x115;" horiz-adv-x="471" 
d="M250 -10c-124 0 -214 96 -214 232c0 133 98 244 215 244c126 0 193 -95 186 -204h-318c-1 -11 -1 -21 -1 -32v-1c0 -122 58 -207 159 -207c68 0 111 39 153 94l9 -6c-40 -64 -97 -120 -189 -120zM247 452c-72 0 -118 -61 -127 -177h235c6 107 -23 177 -108 177zM250 533
c-73 0 -122 62 -133 149h12c24 -68 62 -91 122 -91c61 0 97 23 121 91h11c-10 -87 -60 -149 -133 -149z" />
    <glyph glyph-name="Ecaron" unicode="&#x11a;" horiz-adv-x="666" 
d="M345 768l-121 179h12l117 -98l117 98h12l-128 -179h-9zM27 0v9c102 3 118 20 118 69v542c0 48 -16 66 -118 69v8h561l3 -205l-9 -1c-53 144 -87 191 -183 191h-169v-312h95c73 0 99 27 125 137h9v-290h-9c-26 110 -52 138 -125 138h-95v-340h186c105 0 142 50 197 203
l9 -1l-5 -217h-590z" />
    <glyph glyph-name="ecaron" unicode="&#x11b;" horiz-adv-x="471" 
d="M250 -10c-124 0 -214 96 -214 232c0 133 98 244 215 244c126 0 193 -95 186 -204h-318c-1 -11 -1 -21 -1 -32v-1c0 -122 58 -207 159 -207c68 0 111 39 153 94l9 -6c-40 -64 -97 -120 -189 -120zM247 452c-72 0 -118 -61 -127 -177h235c6 107 -23 177 -108 177zM243 528
l-121 179h12l117 -98l117 98h12l-128 -179h-9z" />
    <glyph glyph-name="Ecircumflex" unicode="&#xca;" horiz-adv-x="666" 
d="M218 768l128 179h9l121 -179h-12l-117 98l-117 -98h-12zM27 0v9c102 3 118 20 118 69v542c0 48 -16 66 -118 69v8h561l3 -205l-9 -1c-53 144 -87 191 -183 191h-169v-312h95c73 0 99 27 125 137h9v-290h-9c-26 110 -52 138 -125 138h-95v-340h186c105 0 142 50 197 203
l9 -1l-5 -217h-590z" />
    <glyph glyph-name="ecircumflex" unicode="&#xea;" horiz-adv-x="471" 
d="M250 -10c-124 0 -214 96 -214 232c0 133 98 244 215 244c126 0 193 -95 186 -204h-318c-1 -11 -1 -21 -1 -32v-1c0 -122 58 -207 159 -207c68 0 111 39 153 94l9 -6c-40 -64 -97 -120 -189 -120zM247 452c-72 0 -118 -61 -127 -177h235c6 107 -23 177 -108 177zM121 528
l128 179h9l121 -179h-12l-117 98l-117 -98h-12z" />
    <glyph glyph-name="Edieresis" unicode="&#xcb;" horiz-adv-x="666" 
d="M436 773c-29 0 -50 22 -50 51c0 28 21 52 49 52c29 0 50 -24 50 -53c0 -28 -21 -50 -49 -50zM272 773c-29 0 -50 22 -50 51c0 28 21 52 49 52c29 0 50 -24 50 -53c0 -28 -21 -50 -49 -50zM27 0v9c102 3 118 20 118 69v542c0 48 -16 66 -118 69v8h561l3 -205l-9 -1
c-53 144 -87 191 -183 191h-169v-312h95c73 0 99 27 125 137h9v-290h-9c-26 110 -52 138 -125 138h-95v-340h186c105 0 142 50 197 203l9 -1l-5 -217h-590z" />
    <glyph glyph-name="edieresis" unicode="&#xeb;" horiz-adv-x="471" 
d="M250 -10c-124 0 -214 96 -214 232c0 133 98 244 215 244c126 0 193 -95 186 -204h-318c-1 -11 -1 -21 -1 -32v-1c0 -122 58 -207 159 -207c68 0 111 39 153 94l9 -6c-40 -64 -97 -120 -189 -120zM247 452c-72 0 -118 -61 -127 -177h235c6 107 -23 177 -108 177zM169 533
c-29 0 -50 22 -50 51c0 28 21 52 49 52c29 0 50 -24 50 -53c0 -28 -21 -50 -49 -50zM333 533c-29 0 -50 22 -50 51c0 28 21 52 49 52c29 0 50 -24 50 -53c0 -28 -21 -50 -49 -50z" />
    <glyph glyph-name="Edotaccent" unicode="&#x116;" horiz-adv-x="666" 
d="M27 0v9c102 3 118 20 118 69v542c0 48 -16 66 -118 69v8h561l3 -205l-9 -1c-53 144 -87 191 -183 191h-169v-312h95c73 0 99 27 125 137h9v-290h-9c-26 110 -52 138 -125 138h-95v-340h186c105 0 142 50 197 203l9 -1l-5 -217h-590zM353 773c-30 0 -51 23 -51 53
s22 54 51 54c31 0 52 -23 52 -54c0 -29 -22 -53 -52 -53z" />
    <glyph glyph-name="edotaccent" unicode="&#x117;" horiz-adv-x="471" 
d="M250 -10c-124 0 -214 96 -214 232c0 133 98 244 215 244c126 0 193 -95 186 -204h-318c-1 -11 -1 -21 -1 -32v-1c0 -122 58 -207 159 -207c68 0 111 39 153 94l9 -6c-40 -64 -97 -120 -189 -120zM247 452c-72 0 -118 -61 -127 -177h235c6 107 -23 177 -108 177zM250 533
c-30 0 -51 23 -51 53s22 54 51 54c31 0 52 -23 52 -54c0 -29 -22 -53 -52 -53z" />
    <glyph glyph-name="Egrave" unicode="&#xc8;" horiz-adv-x="666" 
d="M27 0v9c102 3 118 20 118 69v542c0 48 -16 66 -118 69v8h561l3 -205l-9 -1c-53 144 -87 191 -183 191h-169v-312h95c73 0 99 27 125 137h9v-290h-9c-26 110 -52 138 -125 138h-95v-340h186c105 0 142 50 197 203l9 -1l-5 -217h-590zM388 768l-69 66c-59 58 -71 71 -71 90
c0 20 16 36 37 36c28 0 34 -22 70 -101l41 -91h-8z" />
    <glyph glyph-name="egrave" unicode="&#xe8;" horiz-adv-x="471" 
d="M250 -10c-124 0 -214 96 -214 232c0 133 98 244 215 244c126 0 193 -95 186 -204h-318c-1 -11 -1 -21 -1 -32v-1c0 -122 58 -207 159 -207c68 0 111 39 153 94l9 -6c-40 -64 -97 -120 -189 -120zM247 452c-72 0 -118 -61 -127 -177h235c6 107 -23 177 -108 177zM274 528
l-69 66c-59 58 -71 71 -71 90c0 20 16 36 37 36c28 0 34 -22 70 -101l41 -91h-8z" />
    <glyph glyph-name="Emacron" unicode="&#x112;" horiz-adv-x="666" 
d="M27 0v9c102 3 118 20 118 69v542c0 48 -16 66 -118 69v8h561l3 -205l-9 -1c-53 144 -87 191 -183 191h-169v-312h95c73 0 99 27 125 137h9v-290h-9c-26 110 -52 138 -125 138h-95v-340h186c105 0 142 50 197 203l9 -1l-5 -217h-590zM221 798v29h263v-29h-263z" />
    <glyph glyph-name="emacron" unicode="&#x113;" horiz-adv-x="471" 
d="M250 -10c-124 0 -214 96 -214 232c0 133 98 244 215 244c126 0 193 -95 186 -204h-318c-1 -11 -1 -21 -1 -32v-1c0 -122 58 -207 159 -207c68 0 111 39 153 94l9 -6c-40 -64 -97 -120 -189 -120zM247 452c-72 0 -118 -61 -127 -177h235c6 107 -23 177 -108 177zM119 558
v29h263v-29h-263z" />
    <glyph glyph-name="Eogonek" unicode="&#x118;" horiz-adv-x="666" 
d="M27 0v9c102 3 118 20 118 69v542c0 48 -16 66 -118 69v8h561l3 -205l-9 -1c-53 144 -87 191 -183 191h-169v-312h95c73 0 99 27 125 137h9v-290h-9c-26 110 -52 138 -125 138h-95v-340h186c105 0 142 50 197 203l9 -1l-5 -217h-49l-29 -30c-43 -42 -61 -78 -61 -123
c0 -44 28 -63 62 -63c26 0 42 7 64 17l5 -9c-31 -22 -63 -35 -99 -35c-52 0 -94 30 -94 79c0 41 21 73 100 137l33 27h-522z" />
    <glyph glyph-name="eogonek" unicode="&#x119;" horiz-adv-x="471" 
d="M430 116l9 -6c-13 -21 -25 -37 -40 -53l-82 -91c-41 -46 -54 -81 -54 -119c0 -44 28 -63 62 -63c26 0 42 7 64 17l5 -9c-31 -22 -63 -35 -99 -35c-52 0 -94 30 -94 79c0 41 22 70 75 116l70 63c-26 -15 -60 -25 -96 -25c-124 0 -214 96 -214 232c0 133 98 244 215 244
c126 0 193 -95 186 -204h-318c-1 -11 -1 -21 -1 -32v-1c0 -122 58 -207 159 -207c68 0 111 39 153 94zM247 452c-72 0 -118 -61 -127 -177h235c6 107 -23 177 -108 177z" />
    <glyph glyph-name="Eth" unicode="&#xd0;" horiz-adv-x="750" 
d="M27 0v9c102 3 118 20 118 69v276h-98v19h98v247c0 48 -16 66 -118 69v8h299c245 0 375 -147 375 -337c0 -182 -117 -360 -368 -360h-306zM230 15h76c219 0 296 81 296 339c0 262 -98 328 -286 328h-86v-309h154v-19h-154v-339z" />
    <glyph glyph-name="eth" unicode="&#xf0;" horiz-adv-x="528" 
d="M432 658l-89 -44c84 -72 142 -173 142 -304c0 -197 -100 -320 -224 -320c-110 0 -217 99 -217 234c0 139 113 242 219 242c56 0 96 -28 121 -66l4 2c-10 74 -40 139 -85 193l-125 -61l-6 14l120 59c-38 41 -87 75 -144 101l4 10c64 -21 125 -52 178 -93l96 47zM272 4
c72 0 126 75 126 242c0 129 -47 207 -131 207c-77 0 -138 -63 -138 -226c0 -148 58 -223 143 -223z" />
    <glyph glyph-name="Gbreve" unicode="&#x11e;" horiz-adv-x="746" 
d="M412 -17c-187 0 -363 125 -363 366c0 218 173 365 351 365c75 0 129 -14 186 -41l42 47h7v-220h-9c-69 156 -130 200 -233 200c-124 0 -245 -90 -245 -349c0 -258 137 -354 261 -354c63 0 115 18 149 44v191c0 49 -17 69 -118 72v9h287v-9c-75 -4 -85 -19 -85 -71v-184
c-68 -42 -158 -66 -230 -66zM389 773c-73 0 -122 62 -133 149h12c24 -68 62 -91 122 -91c61 0 97 23 121 91h11c-10 -87 -60 -149 -133 -149z" />
    <glyph glyph-name="gbreve" unicode="&#x11f;" horiz-adv-x="466" 
d="M241 -186c88 0 168 49 168 116c0 44 -33 75 -121 75h-119c-59 -17 -81 -50 -81 -92c0 -60 43 -99 153 -99zM232 171c66 0 95 47 95 139c0 82 -34 140 -104 140c-67 0 -95 -48 -95 -140s35 -139 104 -139zM228 462c29 0 63 -7 92 -23c22 38 51 72 93 72
c34 0 52 -19 52 -46c0 -22 -15 -38 -36 -38c-23 0 -40 20 -39 51c-25 -3 -45 -23 -58 -45c41 -25 73 -65 73 -121c0 -97 -94 -154 -177 -154c-23 0 -48 4 -71 12c-40 -17 -59 -36 -59 -54c0 -21 19 -37 90 -37h98c114 0 166 -38 166 -118c0 -79 -78 -160 -230 -160
c-118 0 -199 45 -199 104c0 47 46 88 123 103v3c-63 13 -88 36 -88 74c0 31 28 66 83 91c-51 22 -92 65 -92 132c0 96 95 154 179 154zM232 533c-73 0 -122 62 -133 149h12c24 -68 62 -91 122 -91c61 0 97 23 121 91h11c-10 -87 -60 -149 -133 -149z" />
    <glyph glyph-name="Gcommaaccent" unicode="&#x122;" horiz-adv-x="746" 
d="M339 -262l-5 9c46 29 74 66 78 104l-4 1c-6 -6 -15 -8 -24 -8c-24 0 -43 17 -43 42c0 27 19 49 47 49c34 0 56 -26 56 -65c0 -55 -42 -101 -105 -132zM412 -17c-187 0 -363 125 -363 366c0 218 173 365 351 365c75 0 129 -14 186 -41l42 47h7v-220h-9
c-69 156 -130 200 -233 200c-124 0 -245 -90 -245 -349c0 -258 137 -354 261 -354c63 0 115 18 149 44v191c0 49 -17 69 -118 72v9h287v-9c-75 -4 -85 -19 -85 -71v-184c-68 -42 -158 -66 -230 -66z" />
    <glyph glyph-name="gcommaaccent" unicode="&#x123;" horiz-adv-x="466" 
d="M282 747l5 -9c-46 -29 -74 -66 -78 -104l4 -1c6 6 15 8 24 8c24 0 43 -17 43 -42c0 -27 -19 -49 -47 -49c-34 0 -56 26 -56 65c0 55 42 101 105 132zM241 -186c88 0 168 49 168 116c0 44 -33 75 -121 75h-119c-59 -17 -81 -50 -81 -92c0 -60 43 -99 153 -99zM232 171
c66 0 95 47 95 139c0 82 -34 140 -104 140c-67 0 -95 -48 -95 -140s35 -139 104 -139zM228 462c29 0 63 -7 92 -23c22 38 51 72 93 72c34 0 52 -19 52 -46c0 -22 -15 -38 -36 -38c-23 0 -40 20 -39 51c-25 -3 -45 -23 -58 -45c41 -25 73 -65 73 -121
c0 -97 -94 -154 -177 -154c-23 0 -48 4 -71 12c-40 -17 -59 -36 -59 -54c0 -21 19 -37 90 -37h98c114 0 166 -38 166 -118c0 -79 -78 -160 -230 -160c-118 0 -199 45 -199 104c0 47 46 88 123 103v3c-63 13 -88 36 -88 74c0 31 28 66 83 91c-51 22 -92 65 -92 132
c0 96 95 154 179 154z" />
    <glyph glyph-name="Gdotaccent" unicode="&#x120;" horiz-adv-x="746" 
d="M412 -17c-187 0 -363 125 -363 366c0 218 173 365 351 365c75 0 129 -14 186 -41l42 47h7v-220h-9c-69 156 -130 200 -233 200c-124 0 -245 -90 -245 -349c0 -258 137 -354 261 -354c63 0 115 18 149 44v191c0 49 -17 69 -118 72v9h287v-9c-75 -4 -85 -19 -85 -71v-184
c-68 -42 -158 -66 -230 -66zM391 773c-30 0 -51 23 -51 53s22 54 51 54c31 0 52 -23 52 -54c0 -29 -22 -53 -52 -53z" />
    <glyph glyph-name="gdotaccent" unicode="&#x121;" horiz-adv-x="466" 
d="M241 -186c88 0 168 49 168 116c0 44 -33 75 -121 75h-119c-59 -17 -81 -50 -81 -92c0 -60 43 -99 153 -99zM232 171c66 0 95 47 95 139c0 82 -34 140 -104 140c-67 0 -95 -48 -95 -140s35 -139 104 -139zM228 462c29 0 63 -7 92 -23c22 38 51 72 93 72
c34 0 52 -19 52 -46c0 -22 -15 -38 -36 -38c-23 0 -40 20 -39 51c-25 -3 -45 -23 -58 -45c41 -25 73 -65 73 -121c0 -97 -94 -154 -177 -154c-23 0 -48 4 -71 12c-40 -17 -59 -36 -59 -54c0 -21 19 -37 90 -37h98c114 0 166 -38 166 -118c0 -79 -78 -160 -230 -160
c-118 0 -199 45 -199 104c0 47 46 88 123 103v3c-63 13 -88 36 -88 74c0 31 28 66 83 91c-51 22 -92 65 -92 132c0 96 95 154 179 154zM232 533c-30 0 -51 23 -51 53s22 54 51 54c31 0 52 -23 52 -54c0 -29 -22 -53 -52 -53z" />
    <glyph glyph-name="Hbar" unicode="&#x126;" horiz-adv-x="803" 
d="M27 0v9c102 3 118 20 118 69v437h-95v18h95v87c0 49 -16 66 -118 69v8h313v-8c-100 -3 -110 -19 -110 -68v-88h343v88c0 49 -9 65 -109 68v8h312v-8c-101 -3 -118 -20 -118 -69v-87h98v-18h-98v-437c0 -49 17 -66 118 -69v-9h-312v9c100 3 109 19 109 68v277h-343v-277
c0 -49 10 -65 110 -68v-9h-313zM230 370h343v145h-343v-145z" />
    <glyph glyph-name="hbar" unicode="&#x127;" horiz-adv-x="530" 
d="M7 0v9c57 1 75 6 75 40v526h-67v17h67v64c0 34 -9 45 -83 49v8l159 4v-125h152v-17h-152v-230c43 71 102 119 171 119c77 0 121 -48 121 -137v-278c0 -34 18 -39 74 -40v-9h-217v9c52 1 67 6 67 40v255c0 76 -23 120 -88 120c-50 0 -98 -42 -128 -102v-273
c0 -34 16 -39 67 -40v-9h-218z" />
    <glyph glyph-name="Iacute" unicode="&#xcd;" horiz-adv-x="388" 
d="M30 0v9c105 3 122 19 122 69v542c0 49 -17 66 -122 69v8h328v-8c-105 -3 -122 -20 -122 -69v-542c0 -50 17 -66 122 -69v-9h-328zM165 768l41 91c36 79 43 101 71 101c20 0 36 -16 36 -36c0 -19 -12 -32 -71 -90l-69 -66h-8z" />
    <glyph glyph-name="iacute" unicode="&#xed;" horiz-adv-x="266" 
d="M96 528l41 91c36 79 43 101 71 101c20 0 36 -16 36 -36c0 -19 -12 -32 -71 -90l-69 -66h-8zM22 0v9c58 1 77 6 77 40v349c0 31 -11 45 -77 49v8l153 5v-411c0 -34 17 -39 76 -40v-9h-229z" />
    <glyph glyph-name="Ibreve" unicode="&#x12c;" horiz-adv-x="388" 
d="M30 0v9c105 3 122 19 122 69v542c0 49 -17 66 -122 69v8h328v-8c-105 -3 -122 -20 -122 -69v-542c0 -50 17 -66 122 -69v-9h-328zM193 773c-73 0 -122 62 -133 149h12c24 -68 62 -91 122 -91c61 0 97 23 121 91h11c-10 -87 -60 -149 -133 -149z" />
    <glyph glyph-name="ibreve" unicode="&#x12d;" horiz-adv-x="266" 
d="M22 0v9c58 1 77 6 77 40v349c0 31 -11 45 -77 49v8l153 5v-411c0 -34 17 -39 76 -40v-9h-229zM130 533c-73 0 -122 62 -133 149h12c24 -68 62 -91 122 -91c61 0 97 23 121 91h11c-10 -87 -60 -149 -133 -149z" />
    <glyph glyph-name="Icircumflex" unicode="&#xce;" horiz-adv-x="388" 
d="M30 0v9c105 3 122 19 122 69v542c0 49 -17 66 -122 69v8h328v-8c-105 -3 -122 -20 -122 -69v-542c0 -50 17 -66 122 -69v-9h-328zM65 768l128 179h9l121 -179h-12l-117 98l-117 -98h-12z" />
    <glyph glyph-name="icircumflex" unicode="&#xee;" horiz-adv-x="266" 
d="M-4 528l128 179h9l121 -179h-12l-117 98l-117 -98h-12zM22 0v9c58 1 77 6 77 40v349c0 31 -11 45 -77 49v8l153 5v-411c0 -34 17 -39 76 -40v-9h-229z" />
    <glyph glyph-name="Idieresis" unicode="&#xcf;" horiz-adv-x="388" 
d="M30 0v9c105 3 122 19 122 69v542c0 49 -17 66 -122 69v8h328v-8c-105 -3 -122 -20 -122 -69v-542c0 -50 17 -66 122 -69v-9h-328zM277 773c-29 0 -50 22 -50 51c0 28 21 52 49 52c29 0 50 -24 50 -53c0 -28 -21 -50 -49 -50zM113 773c-29 0 -50 22 -50 51
c0 28 21 52 49 52c29 0 50 -24 50 -53c0 -28 -21 -50 -49 -50z" />
    <glyph glyph-name="idieresis" unicode="&#xef;" horiz-adv-x="266" 
d="M209 533c-29 0 -50 22 -50 51c0 28 21 52 49 52c29 0 50 -24 50 -53c0 -28 -21 -50 -49 -50zM45 533c-29 0 -50 22 -50 51c0 28 21 52 49 52c29 0 50 -24 50 -53c0 -28 -21 -50 -49 -50zM22 0v9c58 1 77 6 77 40v349c0 31 -11 45 -77 49v8l153 5v-411
c0 -34 17 -39 76 -40v-9h-229z" />
    <glyph glyph-name="Idotaccent" unicode="&#x130;" horiz-adv-x="388" 
d="M30 0v9c105 3 122 19 122 69v542c0 49 -17 66 -122 69v8h328v-8c-105 -3 -122 -20 -122 -69v-542c0 -50 17 -66 122 -69v-9h-328zM193 773c-30 0 -51 23 -51 53s22 54 51 54c31 0 52 -23 52 -54c0 -29 -22 -53 -52 -53z" />
    <glyph glyph-name="dotlessi" unicode="&#x131;" horiz-adv-x="266" 
d="M22 0v9c58 1 77 6 77 40v349c0 31 -11 45 -77 49v8l153 5v-411c0 -34 17 -39 76 -40v-9h-229z" />
    <glyph glyph-name="Igrave" unicode="&#xcc;" horiz-adv-x="388" 
d="M30 0v9c105 3 122 19 122 69v542c0 49 -17 66 -122 69v8h328v-8c-105 -3 -122 -20 -122 -69v-542c0 -50 17 -66 122 -69v-9h-328zM231 768l-69 66c-59 58 -71 71 -71 90c0 20 16 36 37 36c28 0 34 -22 70 -101l41 -91h-8z" />
    <glyph glyph-name="igrave" unicode="&#xec;" horiz-adv-x="266" 
d="M22 0v9c58 1 77 6 77 40v349c0 31 -11 45 -77 49v8l153 5v-411c0 -34 17 -39 76 -40v-9h-229zM151 528l-69 66c-59 58 -71 71 -71 90c0 20 16 36 37 36c28 0 34 -22 70 -101l41 -91h-8z" />
    <glyph glyph-name="Imacron" unicode="&#x12a;" horiz-adv-x="388" 
d="M30 0v9c105 3 122 19 122 69v542c0 49 -17 66 -122 69v8h328v-8c-105 -3 -122 -20 -122 -69v-542c0 -50 17 -66 122 -69v-9h-328zM62 798v29h263v-29h-263z" />
    <glyph glyph-name="imacron" unicode="&#x12b;" horiz-adv-x="266" 
d="M4 562v29h251v-29h-251zM22 0v9c58 1 77 6 77 40v349c0 31 -11 45 -77 49v8l153 5v-411c0 -34 17 -39 76 -40v-9h-229z" />
    <glyph glyph-name="Iogonek" unicode="&#x12e;" horiz-adv-x="388" 
d="M30 0v9c105 3 122 19 122 69v542c0 49 -17 66 -122 69v8h328v-8c-105 -3 -122 -20 -122 -69v-542c0 -50 17 -66 122 -69v-9h-122l-29 -30c-43 -42 -61 -78 -61 -123c0 -44 28 -63 62 -63c26 0 42 7 64 17l5 -9c-31 -22 -63 -35 -99 -35c-52 0 -94 30 -94 79
c0 41 21 73 100 137l33 27h-187z" />
    <glyph glyph-name="iogonek" unicode="&#x12f;" horiz-adv-x="266" 
d="M22 0v9c58 1 77 6 77 40v349c0 31 -11 45 -77 49v8l153 5v-411c0 -34 17 -39 76 -40v-9h-67l-29 -30c-43 -42 -61 -78 -61 -123c0 -44 28 -63 62 -63c26 0 42 7 64 17l5 -9c-31 -22 -63 -35 -99 -35c-52 0 -94 30 -94 79c0 41 21 73 100 137l33 27h-143zM131 557
c-30 0 -51 23 -51 53c0 31 21 55 51 55s52 -23 52 -54c0 -30 -22 -54 -52 -54z" />
    <glyph glyph-name="Kcommaaccent" unicode="&#x136;" horiz-adv-x="725" 
d="M306 -262l-5 9c46 29 74 66 78 104l-4 1c-6 -6 -15 -8 -24 -8c-24 0 -43 17 -43 42c0 27 19 49 47 49c34 0 56 -26 56 -65c0 -55 -42 -101 -105 -132zM230 315l250 249c77 78 75 113 -34 125v8h266v-8c-86 -13 -111 -31 -220 -139l-132 -130l211 -290
c74 -101 88 -110 163 -121v-9h-289v9c84 5 92 29 50 87l-192 267l-73 -72v-214c0 -49 10 -65 103 -68v-9h-306v9c102 3 118 20 118 69v542c0 49 -16 66 -118 69v8h313v-8c-100 -3 -110 -19 -110 -68v-306z" />
    <glyph glyph-name="kcommaaccent" unicode="&#x137;" horiz-adv-x="496" 
d="M190 -262l-5 9c46 29 74 66 78 104l-4 1c-6 -6 -15 -8 -24 -8c-24 0 -43 17 -43 42c0 27 19 49 47 49c34 0 56 -26 56 -65c0 -55 -42 -101 -105 -132zM158 188v-139c0 -34 16 -39 60 -40v-9h-211v9c57 1 75 6 75 40v607c0 34 -9 45 -83 49v8l159 4v-510l158 159
c47 48 42 75 -33 82v8h198v-8c-53 -6 -79 -21 -149 -90l-71 -69l152 -206c45 -61 54 -69 101 -74v-9h-215v9c60 5 63 23 37 58l-124 174z" />
    <glyph glyph-name="Lacute" unicode="&#x139;" horiz-adv-x="608" 
d="M196 768l41 91c36 79 43 101 71 101c20 0 36 -16 36 -36c0 -19 -12 -32 -71 -90l-69 -66h-8zM27 0v9c102 3 118 20 118 69v542c0 48 -16 66 -118 69v8h319v-8c-104 -3 -116 -19 -116 -69v-605h144c103 0 143 37 203 198l9 -1l-10 -212h-549z" />
    <glyph glyph-name="lacute" unicode="&#x13a;" horiz-adv-x="260" 
d="M101 774l41 91c36 79 43 101 71 101c20 0 36 -16 36 -36c0 -19 -12 -32 -71 -90l-69 -66h-8zM18 0v9c58 1 75 6 75 40v607c0 34 -9 45 -82 49v8l158 4v-668c0 -34 17 -39 76 -40v-9h-227z" />
    <glyph glyph-name="Lcaron" unicode="&#x13d;" horiz-adv-x="608" 
d="M422 515l-2 107c0 17 -1 48 -1 63c0 42 23 51 39 51c21 0 37 -12 37 -37c0 -13 -6 -33 -15 -57l-50 -127h-8zM27 0v9c102 3 118 20 118 69v542c0 48 -16 66 -118 69v8h319v-8c-104 -3 -116 -19 -116 -69v-605h144c103 0 143 37 203 198l9 -1l-10 -212h-549z" />
    <glyph glyph-name="lcaron" unicode="&#x13e;" horiz-adv-x="260" 
d="M269 535l-2 107c0 17 -1 48 -1 63c0 42 23 51 39 51c21 0 37 -12 37 -37c0 -13 -6 -33 -15 -57l-50 -127h-8zM18 0v9c58 1 75 6 75 40v607c0 34 -9 45 -82 49v8l158 4v-668c0 -34 17 -39 76 -40v-9h-227z" />
    <glyph glyph-name="Lcommaaccent" unicode="&#x13b;" horiz-adv-x="608" 
d="M284 -262l-5 9c46 29 74 66 78 104l-4 1c-6 -6 -15 -8 -24 -8c-24 0 -43 17 -43 42c0 27 19 49 47 49c34 0 56 -26 56 -65c0 -55 -42 -101 -105 -132zM27 0v9c102 3 118 20 118 69v542c0 48 -16 66 -118 69v8h319v-8c-104 -3 -116 -19 -116 -69v-605h144
c103 0 143 37 203 198l9 -1l-10 -212h-549z" />
    <glyph glyph-name="lcommaaccent" unicode="&#x13c;" horiz-adv-x="260" 
d="M79 -262l-5 9c46 29 74 66 78 104l-4 1c-6 -6 -15 -8 -24 -8c-24 0 -43 17 -43 42c0 27 19 49 47 49c34 0 56 -26 56 -65c0 -55 -42 -101 -105 -132zM18 0v9c58 1 75 6 75 40v607c0 34 -9 45 -82 49v8l158 4v-668c0 -34 17 -39 76 -40v-9h-227z" />
    <glyph glyph-name="Ldot" unicode="&#x13f;" horiz-adv-x="608" 
d="M27 0v9c102 3 118 20 118 69v542c0 48 -16 66 -118 69v8h319v-8c-104 -3 -116 -19 -116 -69v-605h144c103 0 143 37 203 198l9 -1l-10 -212h-549zM487 313c-30 0 -51 23 -51 53s22 54 51 54c31 0 52 -23 52 -54c0 -29 -22 -53 -52 -53z" />
    <glyph glyph-name="ldot" unicode="&#x140;" horiz-adv-x="333" 
d="M298 288c-31 0 -52 23 -52 54c0 29 22 54 52 54s51 -24 51 -54s-22 -54 -51 -54zM18 0v9c58 1 75 6 75 40v607c0 34 -9 45 -82 49v8l158 4v-668c0 -34 17 -39 76 -40v-9h-227z" />
    <glyph glyph-name="Lslash" unicode="&#x141;" horiz-adv-x="608" 
d="M27 0v9c102 3 118 20 118 69v244l-87 -23l-6 19l93 24v278c0 48 -16 66 -118 69v8h319v-8c-104 -3 -116 -19 -116 -69v-256l147 39l5 -18l-152 -41v-329h144c103 0 143 37 203 198l9 -1l-10 -212h-549z" />
    <glyph glyph-name="lslash" unicode="&#x142;" horiz-adv-x="298" 
d="M46 0v9c58 1 75 6 75 40v283l-93 -25l-4 16l97 26v307c0 34 -9 45 -82 49v8l158 4v-348l99 27l4 -16l-103 -28v-303c0 -34 17 -39 76 -40v-9h-227z" />
    <glyph glyph-name="Nacute" unicode="&#x143;" 
d="M375 758l41 91c36 79 43 101 71 101c20 0 36 -16 36 -36c0 -19 -12 -32 -71 -90l-69 -66h-8zM633 -17l-466 629h-2v-487c0 -77 17 -102 124 -116v-9h-263v9c101 14 121 39 121 116v466c0 54 -27 92 -121 98v8h188l414 -561h1v437c0 77 -22 102 -127 116v8h260v-8
c-99 -15 -115 -40 -115 -116v-590h-14z" />
    <glyph glyph-name="nacute" unicode="&#x144;" horiz-adv-x="540" 
d="M250 528l41 91c36 79 43 101 71 101c20 0 36 -16 36 -36c0 -19 -12 -32 -71 -90l-69 -66h-8zM17 0v9c58 1 77 6 77 40v349c0 31 -11 45 -77 49v8l152 5v-116c43 71 103 120 172 120c77 0 121 -48 121 -137v-278c0 -34 18 -39 74 -40v-9h-217v9c52 1 67 6 67 40v257
c0 75 -23 118 -88 118c-50 0 -98 -42 -128 -102v-273c0 -34 16 -39 67 -40v-9h-220z" />
    <glyph glyph-name="Ncaron" unicode="&#x147;" 
d="M390 758l-121 179h12l117 -98l117 98h12l-128 -179h-9zM633 -17l-466 629h-2v-487c0 -77 17 -102 124 -116v-9h-263v9c101 14 121 39 121 116v466c0 54 -27 92 -121 98v8h188l414 -561h1v437c0 77 -22 102 -127 116v8h260v-8c-99 -15 -115 -40 -115 -116v-590h-14z" />
    <glyph glyph-name="ncaron" unicode="&#x148;" horiz-adv-x="540" 
d="M270 528l-121 179h12l117 -98l117 98h12l-128 -179h-9zM17 0v9c58 1 77 6 77 40v349c0 31 -11 45 -77 49v8l152 5v-116c43 71 103 120 172 120c77 0 121 -48 121 -137v-278c0 -34 18 -39 74 -40v-9h-217v9c52 1 67 6 67 40v257c0 75 -23 118 -88 118
c-50 0 -98 -42 -128 -102v-273c0 -34 16 -39 67 -40v-9h-220z" />
    <glyph glyph-name="Ncommaaccent" unicode="&#x145;" 
d="M342 -262l-5 9c46 29 74 66 78 104l-4 1c-6 -6 -15 -8 -24 -8c-24 0 -43 17 -43 42c0 27 19 49 47 49c34 0 56 -26 56 -65c0 -55 -42 -101 -105 -132zM633 -17l-466 629h-2v-487c0 -77 17 -102 124 -116v-9h-263v9c101 14 121 39 121 116v466c0 54 -27 92 -121 98v8h188
l414 -561h1v437c0 77 -22 102 -127 116v8h260v-8c-99 -15 -115 -40 -115 -116v-590h-14z" />
    <glyph glyph-name="ncommaaccent" unicode="&#x146;" horiz-adv-x="540" 
d="M221 -262l-5 9c46 29 74 66 78 104l-4 1c-6 -6 -15 -8 -24 -8c-24 0 -43 17 -43 42c0 27 19 49 47 49c34 0 56 -26 56 -65c0 -55 -42 -101 -105 -132zM17 0v9c58 1 77 6 77 40v349c0 31 -11 45 -77 49v8l152 5v-116c43 71 103 120 172 120c77 0 121 -48 121 -137v-278
c0 -34 18 -39 74 -40v-9h-217v9c52 1 67 6 67 40v257c0 75 -23 118 -88 118c-50 0 -98 -42 -128 -102v-273c0 -34 16 -39 67 -40v-9h-220z" />
    <glyph glyph-name="Ntilde" unicode="&#xd1;" 
d="M633 -17l-466 629h-2v-487c0 -77 17 -102 124 -116v-9h-263v9c101 14 121 39 121 116v466c0 54 -27 92 -121 98v8h188l414 -561h1v437c0 77 -22 102 -127 116v8h260v-8c-99 -15 -115 -40 -115 -116v-590h-14zM255 763c13 77 39 117 90 117c47 0 111 -49 150 -49
c22 0 41 18 53 62h11c-13 -77 -41 -117 -90 -117c-47 0 -111 49 -150 49c-22 0 -41 -17 -53 -62h-11z" />
    <glyph glyph-name="ntilde" unicode="&#xf1;" horiz-adv-x="540" 
d="M17 0v9c58 1 77 6 77 40v349c0 31 -11 45 -77 49v8l152 5v-116c43 71 103 120 172 120c77 0 121 -48 121 -137v-278c0 -34 18 -39 74 -40v-9h-217v9c52 1 67 6 67 40v257c0 75 -23 118 -88 118c-50 0 -98 -42 -128 -102v-273c0 -34 16 -39 67 -40v-9h-220zM125 523
c13 77 39 117 90 117c47 0 111 -49 150 -49c22 0 41 18 53 62h11c-13 -77 -41 -117 -90 -117c-47 0 -111 49 -150 49c-22 0 -41 -17 -53 -62h-11z" />
    <glyph glyph-name="Oacute" unicode="&#xd3;" horiz-adv-x="758" 
d="M348 768l41 91c36 79 43 101 71 101c20 0 36 -16 36 -36c0 -19 -12 -32 -71 -90l-69 -66h-8zM379 -17c-172 0 -330 142 -330 364c0 221 165 367 331 367c171 0 329 -141 329 -364c0 -220 -165 -367 -330 -367zM382 -3c130 0 228 80 228 351c0 273 -103 352 -234 352
c-130 0 -228 -79 -228 -351s103 -352 234 -352z" />
    <glyph glyph-name="oacute" unicode="&#xf3;" horiz-adv-x="519" 
d="M233 528l41 91c36 79 43 101 71 101c20 0 36 -16 36 -36c0 -19 -12 -32 -71 -90l-69 -66h-8zM260 -10c-120 0 -224 97 -224 237c0 139 110 239 224 239c119 0 224 -96 224 -236c0 -139 -110 -240 -224 -240zM264 4c81 0 134 59 134 224s-60 225 -143 225
c-81 0 -134 -59 -134 -224s61 -225 143 -225z" />
    <glyph glyph-name="Obreve" unicode="&#x14e;" horiz-adv-x="758" 
d="M379 -17c-172 0 -330 142 -330 364c0 221 165 367 331 367c171 0 329 -141 329 -364c0 -220 -165 -367 -330 -367zM382 -3c130 0 228 80 228 351c0 273 -103 352 -234 352c-130 0 -228 -79 -228 -351s103 -352 234 -352zM379 773c-73 0 -122 62 -133 149h12
c24 -68 62 -91 122 -91c61 0 97 23 121 91h11c-10 -87 -60 -149 -133 -149z" />
    <glyph glyph-name="obreve" unicode="&#x14f;" horiz-adv-x="519" 
d="M260 -10c-120 0 -224 97 -224 237c0 139 110 239 224 239c119 0 224 -96 224 -236c0 -139 -110 -240 -224 -240zM264 4c81 0 134 59 134 224s-60 225 -143 225c-81 0 -134 -59 -134 -224s61 -225 143 -225zM259 533c-73 0 -122 62 -133 149h12c24 -68 62 -91 122 -91
c61 0 97 23 121 91h11c-10 -87 -60 -149 -133 -149z" />
    <glyph glyph-name="Ocircumflex" unicode="&#xd4;" horiz-adv-x="758" 
d="M251 768l128 179h9l121 -179h-12l-117 98l-117 -98h-12zM379 -17c-172 0 -330 142 -330 364c0 221 165 367 331 367c171 0 329 -141 329 -364c0 -220 -165 -367 -330 -367zM382 -3c130 0 228 80 228 351c0 273 -103 352 -234 352c-130 0 -228 -79 -228 -351
s103 -352 234 -352z" />
    <glyph glyph-name="ocircumflex" unicode="&#xf4;" horiz-adv-x="519" 
d="M132 528l128 179h9l121 -179h-12l-117 98l-117 -98h-12zM260 -10c-120 0 -224 97 -224 237c0 139 110 239 224 239c119 0 224 -96 224 -236c0 -139 -110 -240 -224 -240zM264 4c81 0 134 59 134 224s-60 225 -143 225c-81 0 -134 -59 -134 -224s61 -225 143 -225z" />
    <glyph glyph-name="Odieresis" unicode="&#xd6;" horiz-adv-x="758" 
d="M462 773c-29 0 -50 22 -50 51c0 28 21 52 49 52c29 0 50 -24 50 -53c0 -28 -21 -50 -49 -50zM298 773c-29 0 -50 22 -50 51c0 28 21 52 49 52c29 0 50 -24 50 -53c0 -28 -21 -50 -49 -50zM379 -17c-172 0 -330 142 -330 364c0 221 165 367 331 367
c171 0 329 -141 329 -364c0 -220 -165 -367 -330 -367zM382 -3c130 0 228 80 228 351c0 273 -103 352 -234 352c-130 0 -228 -79 -228 -351s103 -352 234 -352z" />
    <glyph glyph-name="odieresis" unicode="&#xf6;" horiz-adv-x="519" 
d="M342 533c-29 0 -50 22 -50 51c0 28 21 52 49 52c29 0 50 -24 50 -53c0 -28 -21 -50 -49 -50zM178 533c-29 0 -50 22 -50 51c0 28 21 52 49 52c29 0 50 -24 50 -53c0 -28 -21 -50 -49 -50zM260 -10c-120 0 -224 97 -224 237c0 139 110 239 224 239c119 0 224 -96 224 -236
c0 -139 -110 -240 -224 -240zM264 4c81 0 134 59 134 224s-60 225 -143 225c-81 0 -134 -59 -134 -224s61 -225 143 -225z" />
    <glyph glyph-name="OE" unicode="&#x152;" horiz-adv-x="1044" 
d="M427 0c-245 0 -375 147 -375 337c0 182 117 360 373 360h541l3 -205l-9 -1c-53 144 -87 191 -183 191h-169v-312h95c72 0 99 27 125 137h9v-290h-9c-26 110 -53 138 -125 138h-95v-340h185c106 0 143 50 198 203l9 -1l-5 -217h-568zM424 16c77 0 99 15 99 64v538
c0 49 -25 65 -94 65c-190 0 -278 -79 -278 -339c0 -265 105 -328 273 -328z" />
    <glyph glyph-name="oe" unicode="&#x153;" horiz-adv-x="835" 
d="M613 -10c-76 0 -138 38 -174 99c-42 -60 -110 -99 -179 -99c-120 0 -224 97 -224 237c0 139 110 239 224 239c74 0 142 -37 183 -101c38 60 100 101 172 101c126 0 192 -95 185 -204h-317c-1 -11 -1 -21 -1 -32v-1c0 -122 58 -207 159 -207c67 0 111 39 152 94l9 -6
c-39 -64 -96 -120 -189 -120zM398 228c0 165 -60 225 -143 225c-81 0 -134 -59 -134 -224s61 -225 143 -225c81 0 134 59 134 224zM610 452c-71 0 -117 -61 -126 -177h234c7 107 -22 177 -108 177z" />
    <glyph glyph-name="Ograve" unicode="&#xd2;" horiz-adv-x="758" 
d="M379 -17c-172 0 -330 142 -330 364c0 221 165 367 331 367c171 0 329 -141 329 -364c0 -220 -165 -367 -330 -367zM382 -3c130 0 228 80 228 351c0 273 -103 352 -234 352c-130 0 -228 -79 -228 -351s103 -352 234 -352zM410 768l-69 66c-59 58 -71 71 -71 90
c0 20 16 36 37 36c28 0 34 -22 70 -101l41 -91h-8z" />
    <glyph glyph-name="ograve" unicode="&#xf2;" horiz-adv-x="519" 
d="M260 -10c-120 0 -224 97 -224 237c0 139 110 239 224 239c119 0 224 -96 224 -236c0 -139 -110 -240 -224 -240zM264 4c81 0 134 59 134 224s-60 225 -143 225c-81 0 -134 -59 -134 -224s61 -225 143 -225zM282 528l-69 66c-59 58 -71 71 -71 90c0 20 16 36 37 36
c28 0 34 -22 70 -101l41 -91h-8z" />
    <glyph glyph-name="Ohungarumlaut" unicode="&#x150;" horiz-adv-x="758" 
d="M434 768l44 91c40 79 47 101 75 101c21 0 35 -14 35 -35c0 -19 -12 -32 -74 -91l-72 -66h-8zM292 768l45 91c39 79 47 101 75 101c20 0 35 -14 35 -35c0 -19 -14 -34 -75 -91l-71 -66h-9zM379 -17c-172 0 -330 142 -330 364c0 221 165 367 331 367
c171 0 329 -141 329 -364c0 -220 -165 -367 -330 -367zM382 -3c130 0 228 80 228 351c0 273 -103 352 -234 352c-130 0 -228 -79 -228 -351s103 -352 234 -352z" />
    <glyph glyph-name="ohungarumlaut" unicode="&#x151;" horiz-adv-x="519" 
d="M314 528l44 91c40 79 47 101 75 101c21 0 35 -14 35 -35c0 -19 -12 -32 -74 -91l-72 -66h-8zM172 528l45 91c39 79 47 101 75 101c20 0 35 -14 35 -35c0 -19 -14 -34 -75 -91l-71 -66h-9zM260 -10c-120 0 -224 97 -224 237c0 139 110 239 224 239c119 0 224 -96 224 -236
c0 -139 -110 -240 -224 -240zM264 4c81 0 134 59 134 224s-60 225 -143 225c-81 0 -134 -59 -134 -224s61 -225 143 -225z" />
    <glyph glyph-name="Omacron" unicode="&#x14c;" horiz-adv-x="758" 
d="M247 798v29h263v-29h-263zM379 -17c-172 0 -330 142 -330 364c0 221 165 367 331 367c171 0 329 -141 329 -364c0 -220 -165 -367 -330 -367zM382 -3c130 0 228 80 228 351c0 273 -103 352 -234 352c-130 0 -228 -79 -228 -351s103 -352 234 -352z" />
    <glyph glyph-name="omacron" unicode="&#x14d;" horiz-adv-x="519" 
d="M128 558v29h263v-29h-263zM260 -10c-120 0 -224 97 -224 237c0 139 110 239 224 239c119 0 224 -96 224 -236c0 -139 -110 -240 -224 -240zM264 4c81 0 134 59 134 224s-60 225 -143 225c-81 0 -134 -59 -134 -224s61 -225 143 -225z" />
    <glyph glyph-name="Oslash" unicode="&#xd8;" horiz-adv-x="758" 
d="M379 -17c-79 0 -154 29 -213 83l-81 -103h-26l93 116c-63 64 -103 155 -103 268c0 221 165 367 331 367c78 0 153 -30 212 -83l82 103h26l-93 -117c61 -63 102 -155 102 -267c0 -220 -165 -367 -330 -367zM376 700c-130 0 -228 -79 -228 -351c0 -99 13 -173 37 -227
l378 473c-43 78 -110 105 -187 105zM382 -3c130 0 228 80 228 351c0 99 -14 173 -37 226l-378 -472c43 -78 110 -105 187 -105z" />
    <glyph glyph-name="oslash" unicode="&#xf8;" horiz-adv-x="519" 
d="M69 -28h-24l62 79c-43 42 -71 103 -71 176c0 139 110 239 224 239c51 0 99 -18 137 -49l53 67h24l-62 -79c44 -42 72 -103 72 -175c0 -139 -110 -240 -224 -240c-51 0 -100 18 -138 49zM121 229c0 -57 7 -101 20 -135l229 288c-26 50 -67 71 -115 71
c-81 0 -134 -59 -134 -224zM264 4c81 0 134 59 134 224c0 57 -7 101 -20 135l-229 -289c26 -50 67 -70 115 -70z" />
    <glyph glyph-name="Oslashacute" unicode="&#x1fe;" horiz-adv-x="758" 
d="M379 -17c165 0 330 147 330 367c0 112 -41 204 -102 267l93 117h-26l-82 -103c-59 53 -134 83 -212 83c-166 0 -331 -146 -331 -367c0 -113 40 -204 103 -268l-93 -116h26l81 103c59 -54 134 -83 213 -83zM376 700c77 0 144 -27 187 -105l-378 -473
c-24 54 -37 128 -37 227c0 272 98 351 228 351zM382 -3c-77 0 -144 27 -187 105l378 472c23 -53 37 -127 37 -226c0 -271 -98 -351 -228 -351zM348 768l41 91c36 79 43 101 71 101c20 0 36 -16 36 -36c0 -19 -12 -32 -71 -90l-69 -66h-8z" />
    <glyph glyph-name="oslashacute" unicode="&#x1ff;" horiz-adv-x="519" 
d="M69 -28h-24l62 79c-43 42 -71 103 -71 176c0 139 110 239 224 239c51 0 99 -18 137 -49l53 67h24l-62 -79c44 -42 72 -103 72 -175c0 -139 -110 -240 -224 -240c-51 0 -100 18 -138 49zM121 229c0 -57 7 -101 20 -135l229 288c-26 50 -67 71 -115 71
c-81 0 -134 -59 -134 -224zM264 4c81 0 134 59 134 224c0 57 -7 101 -20 135l-229 -289c26 -50 67 -70 115 -70zM233 528l41 91c36 79 43 101 71 101c20 0 36 -16 36 -36c0 -19 -12 -32 -71 -90l-69 -66h-8z" />
    <glyph glyph-name="Otilde" unicode="&#xd5;" horiz-adv-x="758" 
d="M379 -17c-172 0 -330 142 -330 364c0 221 165 367 331 367c171 0 329 -141 329 -364c0 -220 -165 -367 -330 -367zM382 -3c130 0 228 80 228 351c0 273 -103 352 -234 352c-130 0 -228 -79 -228 -351s103 -352 234 -352zM237 763c13 77 39 117 90 117
c47 0 111 -49 150 -49c22 0 41 18 53 62h11c-13 -77 -41 -117 -90 -117c-47 0 -111 49 -150 49c-22 0 -41 -17 -53 -62h-11z" />
    <glyph glyph-name="otilde" unicode="&#xf5;" horiz-adv-x="519" 
d="M260 -10c-120 0 -224 97 -224 237c0 139 110 239 224 239c119 0 224 -96 224 -236c0 -139 -110 -240 -224 -240zM264 4c81 0 134 59 134 224s-60 225 -143 225c-81 0 -134 -59 -134 -224s61 -225 143 -225zM107 523c13 77 39 117 90 117c47 0 111 -49 150 -49
c22 0 41 18 53 62h11c-13 -77 -41 -117 -90 -117c-47 0 -111 49 -150 49c-22 0 -41 -17 -53 -62h-11z" />
    <glyph glyph-name="Racute" unicode="&#x154;" horiz-adv-x="683" 
d="M324 768l41 91c36 79 43 101 71 101c20 0 36 -16 36 -36c0 -19 -12 -32 -71 -90l-69 -66h-8zM230 356h95c150 0 183 58 183 170c0 105 -48 156 -195 156h-83v-326zM230 341v-264c0 -49 13 -65 113 -68v-9h-316v9c102 3 118 20 118 69v542c0 48 -16 66 -118 69v8h291
c184 0 287 -66 287 -170c0 -90 -62 -154 -210 -177v-3c145 -15 176 -70 191 -178l6 -43c16 -94 33 -114 128 -114v-8c-33 -6 -70 -9 -103 -9c-88 0 -106 43 -117 133l-11 90c-12 100 -42 123 -161 123h-98z" />
    <glyph glyph-name="racute" unicode="&#x155;" horiz-adv-x="389" 
d="M180 528l41 91c36 79 43 101 71 101c20 0 36 -16 36 -36c0 -19 -12 -32 -71 -90l-69 -66h-8zM17 0v9c58 1 77 6 77 40v349c0 31 -11 45 -77 49v8l152 5v-113c31 65 83 118 136 118c46 0 68 -28 68 -61c0 -30 -22 -53 -49 -53c-30 0 -51 20 -51 50c0 12 3 23 10 33
c-45 -6 -79 -44 -113 -106v-279c0 -34 20 -39 88 -40v-9h-241z" />
    <glyph glyph-name="Rcaron" unicode="&#x158;" horiz-adv-x="683" 
d="M340 768l-121 179h12l117 -98l117 98h12l-128 -179h-9zM230 356h95c150 0 183 58 183 170c0 105 -48 156 -195 156h-83v-326zM230 341v-264c0 -49 13 -65 113 -68v-9h-316v9c102 3 118 20 118 69v542c0 48 -16 66 -118 69v8h291c184 0 287 -66 287 -170
c0 -90 -62 -154 -210 -177v-3c145 -15 176 -70 191 -178l6 -43c16 -94 33 -114 128 -114v-8c-33 -6 -70 -9 -103 -9c-88 0 -106 43 -117 133l-11 90c-12 100 -42 123 -161 123h-98z" />
    <glyph glyph-name="rcaron" unicode="&#x159;" horiz-adv-x="389" 
d="M201 528l-121 179h12l117 -98l117 98h12l-128 -179h-9zM17 0v9c58 1 77 6 77 40v349c0 31 -11 45 -77 49v8l152 5v-113c31 65 83 118 136 118c46 0 68 -28 68 -61c0 -30 -22 -53 -49 -53c-30 0 -51 20 -51 50c0 12 3 23 10 33c-45 -6 -79 -44 -113 -106v-279
c0 -34 20 -39 88 -40v-9h-241z" />
    <glyph glyph-name="Rcommaaccent" unicode="&#x156;" horiz-adv-x="683" 
d="M306 -262l-5 9c46 29 74 66 78 104l-4 1c-6 -6 -15 -8 -24 -8c-24 0 -43 17 -43 42c0 27 19 49 47 49c34 0 56 -26 56 -65c0 -55 -42 -101 -105 -132zM230 356h95c150 0 183 58 183 170c0 105 -48 156 -195 156h-83v-326zM230 341v-264c0 -49 13 -65 113 -68v-9h-316v9
c102 3 118 20 118 69v542c0 48 -16 66 -118 69v8h291c184 0 287 -66 287 -170c0 -90 -62 -154 -210 -177v-3c145 -15 176 -70 191 -178l6 -43c16 -94 33 -114 128 -114v-8c-33 -6 -70 -9 -103 -9c-88 0 -106 43 -117 133l-11 90c-12 100 -42 123 -161 123h-98z" />
    <glyph glyph-name="rcommaaccent" unicode="&#x157;" horiz-adv-x="389" 
d="M82 -262l-5 9c46 29 74 66 78 104l-4 1c-6 -6 -15 -8 -24 -8c-24 0 -43 17 -43 42c0 27 19 49 47 49c34 0 56 -26 56 -65c0 -55 -42 -101 -105 -132zM17 0v9c58 1 77 6 77 40v349c0 31 -11 45 -77 49v8l152 5v-113c31 65 83 118 136 118c46 0 68 -28 68 -61
c0 -30 -22 -53 -49 -53c-30 0 -51 20 -51 50c0 12 3 23 10 33c-45 -6 -79 -44 -113 -106v-279c0 -34 20 -39 88 -40v-9h-241z" />
    <glyph glyph-name="Sacute" unicode="&#x15a;" horiz-adv-x="573" 
d="M275 768l41 91c36 79 43 101 71 101c20 0 36 -16 36 -36c0 -19 -12 -32 -71 -90l-69 -66h-8zM57 -18v246h9c55 -161 118 -227 238 -227c107 0 156 69 156 148c0 88 -50 126 -182 167c-122 38 -206 76 -206 192c0 125 105 203 226 203c62 0 118 -16 155 -32l33 38h8v-219
h-8c-54 145 -111 199 -200 199c-82 0 -142 -52 -142 -139c0 -90 55 -120 179 -159c119 -37 204 -78 204 -196c0 -105 -75 -217 -230 -217c-63 0 -130 21 -178 46l-54 -50h-8z" />
    <glyph glyph-name="sacute" unicode="&#x15b;" horiz-adv-x="406" 
d="M178 528l41 91c36 79 43 101 71 101c20 0 36 -16 36 -36c0 -19 -12 -32 -71 -90l-69 -66h-8zM43 -10v163h8c62 -119 89 -149 165 -149c62 0 98 41 98 88c0 51 -24 77 -124 106c-99 28 -144 58 -144 128c0 79 70 140 157 140c39 0 78 -13 105 -28l26 28h8v-145h-8
c-55 103 -81 131 -141 131c-55 0 -94 -34 -94 -83c0 -47 36 -71 124 -96c99 -29 141 -66 141 -136c0 -83 -64 -147 -155 -147c-43 0 -91 16 -123 35l-35 -35h-8z" />
    <glyph glyph-name="Scaron" unicode="&#x160;" horiz-adv-x="573" 
d="M298 768l-121 179h12l117 -98l117 98h12l-128 -179h-9zM57 -18v246h9c55 -161 118 -227 238 -227c107 0 156 69 156 148c0 88 -50 126 -182 167c-122 38 -206 76 -206 192c0 125 105 203 226 203c62 0 118 -16 155 -32l33 38h8v-219h-8c-54 145 -111 199 -200 199
c-82 0 -142 -52 -142 -139c0 -90 55 -120 179 -159c119 -37 204 -78 204 -196c0 -105 -75 -217 -230 -217c-63 0 -130 21 -178 46l-54 -50h-8z" />
    <glyph glyph-name="scaron" unicode="&#x161;" horiz-adv-x="406" 
d="M208 528l-121 179h12l117 -98l117 98h12l-128 -179h-9zM43 -10v163h8c62 -119 89 -149 165 -149c62 0 98 41 98 88c0 51 -24 77 -124 106c-99 28 -144 58 -144 128c0 79 70 140 157 140c39 0 78 -13 105 -28l26 28h8v-145h-8c-55 103 -81 131 -141 131
c-55 0 -94 -34 -94 -83c0 -47 36 -71 124 -96c99 -29 141 -66 141 -136c0 -83 -64 -147 -155 -147c-43 0 -91 16 -123 35l-35 -35h-8z" />
    <glyph glyph-name="Scedilla" unicode="&#x15e;" horiz-adv-x="573" 
d="M260 -247c-32 0 -68 10 -97 36l7 10c23 -20 51 -29 80 -29c44 0 63 27 63 63c0 39 -35 61 -78 61c-12 0 -23 -1 -37 -5l-4 7l99 90c-62 1 -127 21 -174 46l-54 -50h-8v246h9c55 -161 118 -227 238 -227c107 0 156 69 156 148c0 88 -50 126 -182 167
c-122 38 -206 76 -206 192c0 125 105 203 226 203c62 0 118 -16 155 -32l33 38h8v-219h-8c-54 145 -111 199 -200 199c-82 0 -142 -52 -142 -139c0 -90 55 -120 179 -159c119 -37 204 -78 204 -196c0 -101 -70 -208 -212 -216l-62 -58l1 -2c78 0 114 -39 114 -86
c0 -50 -45 -88 -108 -88z" />
    <glyph glyph-name="scedilla" unicode="&#x15f;" horiz-adv-x="406" 
d="M175 -247c-32 0 -68 10 -97 36l7 10c23 -20 51 -29 80 -29c44 0 63 27 63 63c0 39 -35 61 -78 61c-12 0 -23 -1 -37 -5l-4 7l103 94h-3c-43 0 -91 16 -123 35l-35 -35h-8v163h8c62 -119 89 -149 165 -149c62 0 98 41 98 88c0 51 -24 77 -124 106c-99 28 -144 58 -144 128
c0 79 70 140 157 140c39 0 78 -13 105 -28l26 28h8v-145h-8c-55 103 -81 131 -141 131c-55 0 -94 -34 -94 -83c0 -47 36 -71 124 -96c99 -29 141 -66 141 -136c0 -75 -52 -134 -128 -145l-68 -63l1 -2c78 0 114 -39 114 -86c0 -50 -45 -88 -108 -88z" />
    <glyph glyph-name="Scommaaccent" unicode="&#x218;" horiz-adv-x="573" 
d="M239 -262l-5 9c46 29 74 66 78 104l-4 1c-6 -6 -15 -8 -24 -8c-24 0 -43 17 -43 42c0 27 19 49 47 49c34 0 56 -26 56 -65c0 -55 -42 -101 -105 -132zM57 -18v246h9c55 -161 118 -227 238 -227c107 0 156 69 156 148c0 88 -50 126 -182 167c-122 38 -206 76 -206 192
c0 125 105 203 226 203c62 0 118 -16 155 -32l33 38h8v-219h-8c-54 145 -111 199 -200 199c-82 0 -142 -52 -142 -139c0 -90 55 -120 179 -159c119 -37 204 -78 204 -196c0 -105 -75 -217 -230 -217c-63 0 -130 21 -178 46l-54 -50h-8z" />
    <glyph glyph-name="scommaaccent" unicode="&#x219;" horiz-adv-x="406" 
d="M151 -262l-5 9c46 29 74 66 78 104l-4 1c-6 -6 -15 -8 -24 -8c-24 0 -43 17 -43 42c0 27 19 49 47 49c34 0 56 -26 56 -65c0 -55 -42 -101 -105 -132zM43 -10v163h8c62 -119 89 -149 165 -149c62 0 98 41 98 88c0 51 -24 77 -124 106c-99 28 -144 58 -144 128
c0 79 70 140 157 140c39 0 78 -13 105 -28l26 28h8v-145h-8c-55 103 -81 131 -141 131c-55 0 -94 -34 -94 -83c0 -47 36 -71 124 -96c99 -29 141 -66 141 -136c0 -83 -64 -147 -155 -147c-43 0 -91 16 -123 35l-35 -35h-8z" />
    <glyph glyph-name="Tcaron" unicode="&#x164;" horiz-adv-x="683" 
d="M334 768l-121 179h12l117 -98l117 98h12l-128 -179h-9zM174 0v9c104 3 126 19 126 69v604h-80c-72 0 -114 -41 -176 -187l-9 1l6 201h603l6 -201l-9 -1c-61 142 -103 187 -176 187h-80v-604c0 -50 22 -66 126 -69v-9h-337z" />
    <glyph glyph-name="tcaron" unicode="&#x165;" horiz-adv-x="335" 
d="M266 535l-2 107c0 17 -1 48 -1 63c0 42 23 51 39 51c21 0 37 -12 37 -37c0 -13 -6 -33 -15 -57l-50 -127h-8zM203 -11c-69 0 -107 42 -107 126v320h-94v9l94 14v130l76 35v-168h146v-20h-146v-327c0 -61 23 -88 63 -88c31 0 60 21 91 71l8 -6c-34 -62 -76 -96 -131 -96z
" />
    <glyph glyph-name="Tcommaaccent" unicode="&#x162;" horiz-adv-x="683" 
d="M292 -262l-5 9c46 29 74 66 78 104l-4 1c-6 -6 -15 -8 -24 -8c-24 0 -43 17 -43 42c0 27 19 49 47 49c34 0 56 -26 56 -65c0 -55 -42 -101 -105 -132zM174 0v9c104 3 126 19 126 69v604h-80c-72 0 -114 -41 -176 -187l-9 1l6 201h603l6 -201l-9 -1
c-61 142 -103 187 -176 187h-80v-604c0 -50 22 -66 126 -69v-9h-337z" />
    <glyph glyph-name="tcommaaccent" unicode="&#x163;" horiz-adv-x="335" 
d="M133 -262l-5 9c46 29 74 66 78 104l-4 1c-6 -6 -15 -8 -24 -8c-24 0 -43 17 -43 42c0 27 19 49 47 49c34 0 56 -26 56 -65c0 -55 -42 -101 -105 -132zM203 -11c-69 0 -107 42 -107 126v320h-94v9l94 14v130l76 35v-168h146v-20h-146v-327c0 -61 23 -88 63 -88
c31 0 60 21 91 71l8 -6c-34 -62 -76 -96 -131 -96z" />
    <glyph glyph-name="Thorn" unicode="&#xde;" horiz-adv-x="623" 
d="M27 0v9c102 3 118 20 118 69v542c0 49 -16 66 -118 69v8h327v-9c-105 -2 -124 -18 -124 -69v-69h80c194 0 276 -81 276 -189c0 -100 -82 -196 -283 -196h-73v-87c0 -51 19 -66 124 -69v-9h-327zM230 181h78c150 0 181 65 181 178c0 100 -33 176 -178 176h-81v-354z" />
    <glyph glyph-name="thorn" unicode="&#xfe;" horiz-adv-x="524" 
d="M150 717v-328c42 46 89 77 151 77c112 0 185 -96 185 -227c0 -144 -92 -249 -212 -249c-52 0 -91 16 -124 37v-170c0 -34 22 -40 97 -40v-9h-251v8c59 1 78 6 78 40v800c0 34 -9 45 -83 49v8zM269 5c86 0 132 88 132 228c0 111 -50 199 -137 199c-43 0 -82 -23 -114 -60
v-286c20 -56 64 -81 119 -81z" />
    <glyph glyph-name="Uacute" unicode="&#xda;" 
d="M380 768l41 91c36 79 43 101 71 101c20 0 36 -16 36 -36c0 -19 -12 -32 -71 -90l-69 -66h-8zM394 -16c-162 0 -260 75 -260 222v414c0 48 -17 66 -118 69v8h313v-8c-100 -3 -110 -20 -110 -68v-393c0 -162 87 -216 211 -216c57 0 101 15 134 47c37 37 60 87 60 168v346
c0 77 -22 102 -128 116v8h260v-8c-99 -15 -114 -40 -114 -116v-353c0 -140 -83 -236 -248 -236z" />
    <glyph glyph-name="uacute" unicode="&#xfa;" horiz-adv-x="530" 
d="M222 528l41 91c36 79 43 101 71 101c20 0 36 -16 36 -36c0 -19 -12 -32 -71 -90l-69 -66h-8zM202 -9c-77 0 -121 49 -121 137v271c0 31 -12 44 -75 48v8l151 5v-309c0 -75 23 -119 88 -119c50 0 96 41 126 101v266c0 31 -12 44 -79 48v8l155 5v-413c0 -29 19 -38 77 -39
v-8h-152v111c-43 -71 -101 -120 -170 -120z" />
    <glyph glyph-name="Ubreve" unicode="&#x16c;" 
d="M394 -16c-162 0 -260 75 -260 222v414c0 48 -17 66 -118 69v8h313v-8c-100 -3 -110 -20 -110 -68v-393c0 -162 87 -216 211 -216c57 0 101 15 134 47c37 37 60 87 60 168v346c0 77 -22 102 -128 116v8h260v-8c-99 -15 -114 -40 -114 -116v-353c0 -140 -83 -236 -248 -236
zM404 773c-73 0 -122 62 -133 149h12c24 -68 62 -91 122 -91c61 0 97 23 121 91h11c-10 -87 -60 -149 -133 -149z" />
    <glyph glyph-name="ubreve" unicode="&#x16d;" horiz-adv-x="530" 
d="M202 -9c-77 0 -121 49 -121 137v271c0 31 -12 44 -75 48v8l151 5v-309c0 -75 23 -119 88 -119c50 0 96 41 126 101v266c0 31 -12 44 -79 48v8l155 5v-413c0 -29 19 -38 77 -39v-8h-152v111c-43 -71 -101 -120 -170 -120zM262 533c-73 0 -122 62 -133 149h12
c24 -68 62 -91 122 -91c61 0 97 23 121 91h11c-10 -87 -60 -149 -133 -149z" />
    <glyph glyph-name="Ucircumflex" unicode="&#xdb;" 
d="M284 768l128 179h9l121 -179h-12l-117 98l-117 -98h-12zM394 -16c-162 0 -260 75 -260 222v414c0 48 -17 66 -118 69v8h313v-8c-100 -3 -110 -20 -110 -68v-393c0 -162 87 -216 211 -216c57 0 101 15 134 47c37 37 60 87 60 168v346c0 77 -22 102 -128 116v8h260v-8
c-99 -15 -114 -40 -114 -116v-353c0 -140 -83 -236 -248 -236z" />
    <glyph glyph-name="ucircumflex" unicode="&#xfb;" horiz-adv-x="530" 
d="M127 528l128 179h9l121 -179h-12l-117 98l-117 -98h-12zM202 -9c-77 0 -121 49 -121 137v271c0 31 -12 44 -75 48v8l151 5v-309c0 -75 23 -119 88 -119c50 0 96 41 126 101v266c0 31 -12 44 -79 48v8l155 5v-413c0 -29 19 -38 77 -39v-8h-152v111
c-43 -71 -101 -120 -170 -120z" />
    <glyph glyph-name="Udieresis" unicode="&#xdc;" 
d="M488 773c-29 0 -50 22 -50 51c0 28 21 52 49 52c29 0 50 -24 50 -53c0 -28 -21 -50 -49 -50zM324 773c-29 0 -50 22 -50 51c0 28 21 52 49 52c29 0 50 -24 50 -53c0 -28 -21 -50 -49 -50zM394 -16c-162 0 -260 75 -260 222v414c0 48 -17 66 -118 69v8h313v-8
c-100 -3 -110 -20 -110 -68v-393c0 -162 87 -216 211 -216c57 0 101 15 134 47c37 37 60 87 60 168v346c0 77 -22 102 -128 116v8h260v-8c-99 -15 -114 -40 -114 -116v-353c0 -140 -83 -236 -248 -236z" />
    <glyph glyph-name="udieresis" unicode="&#xfc;" horiz-adv-x="530" 
d="M338 533c-29 0 -50 22 -50 51c0 28 21 52 49 52c29 0 50 -24 50 -53c0 -28 -21 -50 -49 -50zM174 533c-29 0 -50 22 -50 51c0 28 21 52 49 52c29 0 50 -24 50 -53c0 -28 -21 -50 -49 -50zM202 -9c-77 0 -121 49 -121 137v271c0 31 -12 44 -75 48v8l151 5v-309
c0 -75 23 -119 88 -119c50 0 96 41 126 101v266c0 31 -12 44 -79 48v8l155 5v-413c0 -29 19 -38 77 -39v-8h-152v111c-43 -71 -101 -120 -170 -120z" />
    <glyph glyph-name="Ugrave" unicode="&#xd9;" 
d="M394 -16c-162 0 -260 75 -260 222v414c0 48 -17 66 -118 69v8h313v-8c-100 -3 -110 -20 -110 -68v-393c0 -162 87 -216 211 -216c57 0 101 15 134 47c37 37 60 87 60 168v346c0 77 -22 102 -128 116v8h260v-8c-99 -15 -114 -40 -114 -116v-353c0 -140 -83 -236 -248 -236
zM435 768l-69 66c-59 58 -71 71 -71 90c0 20 16 36 37 36c28 0 34 -22 70 -101l41 -91h-8z" />
    <glyph glyph-name="ugrave" unicode="&#xf9;" horiz-adv-x="530" 
d="M202 -9c-77 0 -121 49 -121 137v271c0 31 -12 44 -75 48v8l151 5v-309c0 -75 23 -119 88 -119c50 0 96 41 126 101v266c0 31 -12 44 -79 48v8l155 5v-413c0 -29 19 -38 77 -39v-8h-152v111c-43 -71 -101 -120 -170 -120zM287 528l-69 66c-59 58 -71 71 -71 90
c0 20 16 36 37 36c28 0 34 -22 70 -101l41 -91h-8z" />
    <glyph glyph-name="Uhungarumlaut" unicode="&#x170;" 
d="M394 -16c-162 0 -260 75 -260 222v414c0 48 -17 66 -118 69v8h313v-8c-100 -3 -110 -20 -110 -68v-393c0 -162 87 -216 211 -216c57 0 101 15 134 47c37 37 60 87 60 168v346c0 77 -22 102 -128 116v8h260v-8c-99 -15 -114 -40 -114 -116v-353c0 -140 -83 -236 -248 -236
zM457 768l44 91c40 79 47 101 75 101c21 0 35 -14 35 -35c0 -19 -12 -32 -74 -91l-72 -66h-8zM315 768l45 91c39 79 47 101 75 101c20 0 35 -14 35 -35c0 -19 -14 -34 -75 -91l-71 -66h-9z" />
    <glyph glyph-name="uhungarumlaut" unicode="&#x171;" horiz-adv-x="530" 
d="M202 -9c-77 0 -121 49 -121 137v271c0 31 -12 44 -75 48v8l151 5v-309c0 -75 23 -119 88 -119c50 0 96 41 126 101v266c0 31 -12 44 -79 48v8l155 5v-413c0 -29 19 -38 77 -39v-8h-152v111c-43 -71 -101 -120 -170 -120zM315 528l44 91c40 79 47 101 75 101
c21 0 35 -14 35 -35c0 -19 -12 -32 -74 -91l-72 -66h-8zM173 528l45 91c39 79 47 101 75 101c20 0 35 -14 35 -35c0 -19 -14 -34 -75 -91l-71 -66h-9z" />
    <glyph glyph-name="Umacron" unicode="&#x16a;" 
d="M394 -16c-162 0 -260 75 -260 222v414c0 48 -17 66 -118 69v8h313v-8c-100 -3 -110 -20 -110 -68v-393c0 -162 87 -216 211 -216c57 0 101 15 134 47c37 37 60 87 60 168v346c0 77 -22 102 -128 116v8h260v-8c-99 -15 -114 -40 -114 -116v-353c0 -140 -83 -236 -248 -236
zM273 798v29h263v-29h-263z" />
    <glyph glyph-name="umacron" unicode="&#x16b;" horiz-adv-x="530" 
d="M202 -9c-77 0 -121 49 -121 137v271c0 31 -12 44 -75 48v8l151 5v-309c0 -75 23 -119 88 -119c50 0 96 41 126 101v266c0 31 -12 44 -79 48v8l155 5v-413c0 -29 19 -38 77 -39v-8h-152v111c-43 -71 -101 -120 -170 -120zM131 558v29h263v-29h-263z" />
    <glyph glyph-name="Uogonek" unicode="&#x172;" 
d="M394 -16c-162 0 -260 75 -260 222v414c0 48 -17 66 -118 69v8h313v-8c-100 -3 -110 -20 -110 -68v-393c0 -162 87 -216 211 -216c57 0 101 15 134 47c37 37 60 87 60 168v346c0 77 -22 102 -128 116v8h260v-8c-99 -15 -114 -40 -114 -116v-353c0 -127 -68 -217 -203 -233
l-16 -17c-43 -42 -61 -78 -61 -123c0 -44 28 -63 62 -63c26 0 42 7 64 17l5 -9c-31 -22 -63 -35 -99 -35c-52 0 -94 30 -94 79c0 41 21 73 100 137l14 12c-7 -1 -13 -1 -20 -1z" />
    <glyph glyph-name="uogonek" unicode="&#x173;" horiz-adv-x="530" 
d="M202 -9c-77 0 -121 49 -121 137v271c0 31 -12 44 -75 48v8l151 5v-309c0 -75 23 -119 88 -119c50 0 96 41 126 101v266c0 31 -12 44 -79 48v8l155 5v-413c0 -29 19 -38 77 -39v-8h-42l-29 -30c-42 -42 -60 -78 -60 -123c0 -44 28 -63 61 -63c27 0 43 7 64 17l5 -9
c-31 -22 -63 -35 -99 -35c-52 0 -93 30 -93 79c0 41 20 73 100 137l33 27h-92v111c-43 -71 -101 -120 -170 -120z" />
    <glyph glyph-name="Uring" unicode="&#x16e;" 
d="M404 773c-61 0 -103 47 -103 102s42 102 103 102c60 0 104 -47 104 -102s-43 -102 -104 -102zM404 785c37 0 60 34 60 90c0 65 -22 90 -60 90c-37 0 -59 -25 -59 -90c0 -56 22 -90 59 -90zM394 -16c-162 0 -260 75 -260 222v414c0 48 -17 66 -118 69v8h313v-8
c-100 -3 -110 -20 -110 -68v-393c0 -162 87 -216 211 -216c57 0 101 15 134 47c37 37 60 87 60 168v346c0 77 -22 102 -128 116v8h260v-8c-99 -15 -114 -40 -114 -116v-353c0 -140 -83 -236 -248 -236z" />
    <glyph glyph-name="uring" unicode="&#x16f;" horiz-adv-x="530" 
d="M262 533c-61 0 -103 47 -103 102s42 102 103 102c60 0 104 -47 104 -102s-43 -102 -104 -102zM262 545c37 0 60 34 60 90c0 65 -22 90 -60 90c-37 0 -59 -25 -59 -90c0 -56 22 -90 59 -90zM202 -9c-77 0 -121 49 -121 137v271c0 31 -12 44 -75 48v8l151 5v-309
c0 -75 23 -119 88 -119c50 0 96 41 126 101v266c0 31 -12 44 -79 48v8l155 5v-413c0 -29 19 -38 77 -39v-8h-152v111c-43 -71 -101 -120 -170 -120z" />
    <glyph glyph-name="Wacute" unicode="&#x1e82;" horiz-adv-x="1009" 
d="M490 768l41 91c36 79 43 101 71 101c20 0 36 -16 36 -36c0 -19 -12 -32 -71 -90l-69 -66h-8zM506 528l-17 53c-31 96 -47 104 -119 108v8h280v-8c-92 -4 -101 -19 -78 -89l155 -482h3l135 425c36 114 20 137 -79 146v8h238v-8c-76 -8 -105 -45 -141 -156l-179 -554h-14
l-174 523l-193 -523h-14l-190 602c-27 86 -43 100 -122 108v8h286v-8c-92 -4 -95 -30 -77 -89l143 -485h3z" />
    <glyph glyph-name="wacute" unicode="&#x1e83;" horiz-adv-x="714" 
d="M359 528l41 91c36 79 43 101 71 101c20 0 36 -16 36 -36c0 -19 -12 -32 -71 -90l-69 -66h-8zM368 325l-17 48c-20 54 -34 71 -83 75v8h218v-8c-50 -3 -69 -17 -69 -42c0 -6 2 -15 6 -26l103 -286h3l89 252c9 25 14 45 14 58c0 27 -18 39 -61 44v8h163v-8
c-47 -6 -69 -24 -93 -91l-135 -369h-13l-117 317l-134 -317h-11l-150 385c-21 52 -36 71 -90 75v8h223v-8c-50 -3 -67 -17 -67 -40c0 -6 2 -16 6 -28l112 -288h3z" />
    <glyph glyph-name="Wcircumflex" unicode="&#x174;" horiz-adv-x="1009" 
d="M380 768l128 179h9l121 -179h-12l-117 98l-117 -98h-12zM506 528l-17 53c-31 96 -47 104 -119 108v8h280v-8c-92 -4 -101 -19 -78 -89l155 -482h3l135 425c36 114 20 137 -79 146v8h238v-8c-76 -8 -105 -45 -141 -156l-179 -554h-14l-174 523l-193 -523h-14l-190 602
c-27 86 -43 100 -122 108v8h286v-8c-92 -4 -95 -30 -77 -89l143 -485h3z" />
    <glyph glyph-name="wcircumflex" unicode="&#x175;" horiz-adv-x="714" 
d="M247 528l128 179h9l121 -179h-12l-117 98l-117 -98h-12zM368 325l-17 48c-20 54 -34 71 -83 75v8h218v-8c-50 -3 -69 -17 -69 -42c0 -6 2 -15 6 -26l103 -286h3l89 252c9 25 14 45 14 58c0 27 -18 39 -61 44v8h163v-8c-47 -6 -69 -24 -93 -91l-135 -369h-13l-117 317
l-134 -317h-11l-150 385c-21 52 -36 71 -90 75v8h223v-8c-50 -3 -67 -17 -67 -40c0 -6 2 -16 6 -28l112 -288h3z" />
    <glyph glyph-name="Wdieresis" unicode="&#x1e84;" horiz-adv-x="1009" 
d="M591 773c-29 0 -50 22 -50 51c0 28 21 52 49 52c29 0 50 -24 50 -53c0 -28 -21 -50 -49 -50zM427 773c-29 0 -50 22 -50 51c0 28 21 52 49 52c29 0 50 -24 50 -53c0 -28 -21 -50 -49 -50zM506 528l-17 53c-31 96 -47 104 -119 108v8h280v-8c-92 -4 -101 -19 -78 -89
l155 -482h3l135 425c36 114 20 137 -79 146v8h238v-8c-76 -8 -105 -45 -141 -156l-179 -554h-14l-174 523l-193 -523h-14l-190 602c-27 86 -43 100 -122 108v8h286v-8c-92 -4 -95 -30 -77 -89l143 -485h3z" />
    <glyph glyph-name="wdieresis" unicode="&#x1e85;" horiz-adv-x="714" 
d="M458 533c-29 0 -50 22 -50 51c0 28 21 52 49 52c29 0 50 -24 50 -53c0 -28 -21 -50 -49 -50zM294 533c-29 0 -50 22 -50 51c0 28 21 52 49 52c29 0 50 -24 50 -53c0 -28 -21 -50 -49 -50zM368 325l-17 48c-20 54 -34 71 -83 75v8h218v-8c-50 -3 -69 -17 -69 -42
c0 -6 2 -15 6 -26l103 -286h3l89 252c9 25 14 45 14 58c0 27 -18 39 -61 44v8h163v-8c-47 -6 -69 -24 -93 -91l-135 -369h-13l-117 317l-134 -317h-11l-150 385c-21 52 -36 71 -90 75v8h223v-8c-50 -3 -67 -17 -67 -40c0 -6 2 -16 6 -28l112 -288h3z" />
    <glyph glyph-name="Wgrave" unicode="&#x1e80;" horiz-adv-x="1009" 
d="M506 528l-17 53c-31 96 -47 104 -119 108v8h280v-8c-92 -4 -101 -19 -78 -89l155 -482h3l135 425c36 114 20 137 -79 146v8h238v-8c-76 -8 -105 -45 -141 -156l-179 -554h-14l-174 523l-193 -523h-14l-190 602c-27 86 -43 100 -122 108v8h286v-8c-92 -4 -95 -30 -77 -89
l143 -485h3zM528 768l-69 66c-59 58 -71 71 -71 90c0 20 16 36 37 36c28 0 34 -22 70 -101l41 -91h-8z" />
    <glyph glyph-name="wgrave" unicode="&#x1e81;" horiz-adv-x="714" 
d="M368 325l-17 48c-20 54 -34 71 -83 75v8h218v-8c-50 -3 -69 -17 -69 -42c0 -6 2 -15 6 -26l103 -286h3l89 252c9 25 14 45 14 58c0 27 -18 39 -61 44v8h163v-8c-47 -6 -69 -24 -93 -91l-135 -369h-13l-117 317l-134 -317h-11l-150 385c-21 52 -36 71 -90 75v8h223v-8
c-50 -3 -67 -17 -67 -40c0 -6 2 -16 6 -28l112 -288h3zM389 528l-69 66c-59 58 -71 71 -71 90c0 20 16 36 37 36c28 0 34 -22 70 -101l41 -91h-8z" />
    <glyph glyph-name="Yacute" unicode="&#xdd;" horiz-adv-x="660" 
d="M364 333l137 236c50 86 46 109 -54 120v8h231v-8c-75 -9 -101 -32 -158 -127l-145 -245v-239c0 -50 26 -65 121 -68v-10h-326v9c104 3 121 19 121 69v221l-175 303c-37 63 -57 79 -122 87v8h296v-8c-106 -4 -111 -28 -75 -90zM335 768l41 91c36 79 43 101 71 101
c20 0 36 -16 36 -36c0 -19 -12 -32 -71 -90l-69 -66h-8z" />
    <glyph glyph-name="yacute" unicode="&#xfd;" horiz-adv-x="476" 
d="M244 1l-165 372c-24 54 -38 70 -93 75v8h226v-8c-69 -4 -74 -25 -57 -65l125 -296l103 260c28 70 19 92 -50 101v8h160v-8c-42 -6 -60 -25 -87 -90l-157 -387c-55 -135 -97 -169 -150 -169c-39 0 -64 30 -64 60c0 27 16 52 48 52c26 0 46 -22 46 -50
c0 -17 -6 -32 -17 -44c31 4 71 28 123 160zM245 528l41 91c36 79 43 101 71 101c20 0 36 -16 36 -36c0 -19 -12 -32 -71 -90l-69 -66h-8z" />
    <glyph glyph-name="Ycircumflex" unicode="&#x176;" horiz-adv-x="660" 
d="M364 333l137 236c50 86 46 109 -54 120v8h231v-8c-75 -9 -101 -32 -158 -127l-145 -245v-239c0 -50 26 -65 121 -68v-10h-326v9c104 3 121 19 121 69v221l-175 303c-37 63 -57 79 -122 87v8h296v-8c-106 -4 -111 -28 -75 -90zM226 768l128 179h9l121 -179h-12l-117 98
l-117 -98h-12z" />
    <glyph glyph-name="ycircumflex" unicode="&#x177;" horiz-adv-x="476" 
d="M244 1l-165 372c-24 54 -38 70 -93 75v8h226v-8c-69 -4 -74 -25 -57 -65l125 -296l103 260c28 70 19 92 -50 101v8h160v-8c-42 -6 -60 -25 -87 -90l-157 -387c-55 -135 -97 -169 -150 -169c-39 0 -64 30 -64 60c0 27 16 52 48 52c26 0 46 -22 46 -50
c0 -17 -6 -32 -17 -44c31 4 71 28 123 160zM134 528l128 179h9l121 -179h-12l-117 98l-117 -98h-12z" />
    <glyph glyph-name="Ydieresis" unicode="&#x178;" horiz-adv-x="660" 
d="M364 333l137 236c50 86 46 109 -54 120v8h231v-8c-75 -9 -101 -32 -158 -127l-145 -245v-239c0 -50 26 -65 121 -68v-10h-326v9c104 3 121 19 121 69v221l-175 303c-37 63 -57 79 -122 87v8h296v-8c-106 -4 -111 -28 -75 -90zM449 773c-29 0 -50 22 -50 51
c0 28 21 52 49 52c29 0 50 -24 50 -53c0 -28 -21 -50 -49 -50zM285 773c-29 0 -50 22 -50 51c0 28 21 52 49 52c29 0 50 -24 50 -53c0 -28 -21 -50 -49 -50z" />
    <glyph glyph-name="ydieresis" unicode="&#xff;" horiz-adv-x="476" 
d="M244 1l-165 372c-24 54 -38 70 -93 75v8h226v-8c-69 -4 -74 -25 -57 -65l125 -296l103 260c28 70 19 92 -50 101v8h160v-8c-42 -6 -60 -25 -87 -90l-157 -387c-55 -135 -97 -169 -150 -169c-39 0 -64 30 -64 60c0 27 16 52 48 52c26 0 46 -22 46 -50
c0 -17 -6 -32 -17 -44c31 4 71 28 123 160zM350 533c-29 0 -50 22 -50 51c0 28 21 52 49 52c29 0 50 -24 50 -53c0 -28 -21 -50 -49 -50zM186 533c-29 0 -50 22 -50 51c0 28 21 52 49 52c29 0 50 -24 50 -53c0 -28 -21 -50 -49 -50z" />
    <glyph glyph-name="Ygrave" unicode="&#x1ef2;" horiz-adv-x="660" 
d="M364 333l137 236c50 86 46 109 -54 120v8h231v-8c-75 -9 -101 -32 -158 -127l-145 -245v-239c0 -50 26 -65 121 -68v-10h-326v9c104 3 121 19 121 69v221l-175 303c-37 63 -57 79 -122 87v8h296v-8c-106 -4 -111 -28 -75 -90zM370 768l-69 66c-59 58 -71 71 -71 90
c0 20 16 36 37 36c28 0 34 -22 70 -101l41 -91h-8z" />
    <glyph glyph-name="ygrave" unicode="&#x1ef3;" horiz-adv-x="476" 
d="M244 1l-165 372c-24 54 -38 70 -93 75v8h226v-8c-69 -4 -74 -25 -57 -65l125 -296l103 260c28 70 19 92 -50 101v8h160v-8c-42 -6 -60 -25 -87 -90l-157 -387c-55 -135 -97 -169 -150 -169c-39 0 -64 30 -64 60c0 27 16 52 48 52c26 0 46 -22 46 -50
c0 -17 -6 -32 -17 -44c31 4 71 28 123 160zM271 528l-69 66c-59 58 -71 71 -71 90c0 20 16 36 37 36c28 0 34 -22 70 -101l41 -91h-8z" />
    <glyph glyph-name="Zacute" unicode="&#x179;" horiz-adv-x="624" 
d="M293 768l41 91c36 79 43 101 71 101c20 0 36 -16 36 -36c0 -19 -12 -32 -71 -90l-69 -66h-8zM38 0l-1 8l441 674h-217c-70 0 -114 -35 -188 -185l-9 1l20 199h499l1 -7l-441 -675h248c75 0 109 36 187 195l9 -2l-16 -208h-533z" />
    <glyph glyph-name="zacute" unicode="&#x17a;" horiz-adv-x="450" 
d="M217 528l41 91c36 79 43 101 71 101c20 0 36 -16 36 -36c0 -19 -12 -32 -71 -90l-69 -66h-8zM33 0l-2 9l299 432h-123c-57 0 -84 -24 -143 -140l-10 2l17 153h350l2 -8l-298 -432h135c56 0 96 29 148 147l10 -2l-16 -161h-369z" />
    <glyph glyph-name="Zcaron" unicode="&#x17d;" horiz-adv-x="624" 
d="M317 768l-121 179h12l117 -98l117 98h12l-128 -179h-9zM38 0l-1 8l441 674h-217c-70 0 -114 -35 -188 -185l-9 1l20 199h499l1 -7l-441 -675h248c75 0 109 36 187 195l9 -2l-16 -208h-533z" />
    <glyph glyph-name="zcaron" unicode="&#x17e;" horiz-adv-x="450" 
d="M235 528l-121 179h12l117 -98l117 98h12l-128 -179h-9zM33 0l-2 9l299 432h-123c-57 0 -84 -24 -143 -140l-10 2l17 153h350l2 -8l-298 -432h135c56 0 96 29 148 147l10 -2l-16 -161h-369z" />
    <glyph glyph-name="Zdotaccent" unicode="&#x17b;" horiz-adv-x="624" 
d="M38 0l-1 8l441 674h-217c-70 0 -114 -35 -188 -185l-9 1l20 199h499l1 -7l-441 -675h248c75 0 109 36 187 195l9 -2l-16 -208h-533zM322 773c-30 0 -51 23 -51 53s22 54 51 54c31 0 52 -23 52 -54c0 -29 -22 -53 -52 -53z" />
    <glyph glyph-name="zdotaccent" unicode="&#x17c;" horiz-adv-x="450" 
d="M33 0l-2 9l299 432h-123c-57 0 -84 -24 -143 -140l-10 2l17 153h350l2 -8l-298 -432h135c56 0 96 29 148 147l10 -2l-16 -161h-369zM242 533c-30 0 -51 23 -51 53s22 54 51 54c31 0 52 -23 52 -54c0 -29 -22 -53 -52 -53z" />
    <glyph glyph-name="schwa" unicode="&#x259;" horiz-adv-x="471" 
d="M221 466c124 0 214 -96 214 -232c0 -133 -98 -244 -215 -244c-126 0 -193 95 -186 204h318c0 10 1 21 1 32v1c0 122 -58 207 -159 207c-68 0 -111 -39 -153 -94l-9 6c40 64 97 120 189 120zM224 4c71 0 117 61 127 177h-235c-6 -107 23 -177 108 -177z" />
    <glyph glyph-name="germandbls" unicode="&#xdf;" horiz-adv-x="549" 
d="M381 -10c-75 0 -135 45 -135 94c0 25 16 47 43 47s41 -21 41 -42c0 -17 -11 -32 -30 -44c14 -22 42 -41 85 -41c54 0 90 34 90 87c0 56 -48 86 -98 113c-56 30 -106 62 -106 128c0 39 23 68 57 102c44 43 63 71 63 143c0 95 -46 133 -107 133c-72 0 -107 -37 -107 -154
v-556h-153v9c58 1 77 6 77 40v386h-87v9l87 14v49c0 141 77 216 189 216c107 0 179 -60 179 -136c0 -52 -31 -88 -104 -143c-31 -23 -45 -40 -45 -70c0 -49 48 -77 98 -105c55 -31 111 -66 111 -135c0 -76 -60 -144 -148 -144z" />
    <glyph glyph-name="zero" unicode="0" horiz-adv-x="597" 
d="M298 -14c-144 0 -255 148 -255 342s118 346 257 346c143 0 254 -148 254 -342c0 -193 -118 -346 -256 -346zM302 -1c104 0 157 87 157 331c0 243 -58 331 -163 331s-157 -87 -157 -331c0 -243 57 -331 163 -331z" />
    <glyph glyph-name="one" unicode="1" horiz-adv-x="403" 
d="M32 0v9c106 1 135 12 135 67v489c0 63 -15 74 -134 76v8l216 18v-591c0 -54 27 -66 136 -67v-9h-353z" />
    <glyph glyph-name="two" unicode="2" horiz-adv-x="535" 
d="M50 0v55l162 143c137 118 172 188 172 299c0 112 -53 164 -132 164c-63 0 -114 -38 -128 -77c33 -14 46 -36 46 -64c0 -31 -19 -61 -56 -61c-36 0 -60 28 -60 66c0 79 95 149 204 149c137 0 215 -80 215 -178c0 -90 -64 -159 -227 -296l-154 -128v-4h258
c87 0 108 17 129 116l9 -1l-4 -183h-434z" />
    <glyph glyph-name="three" unicode="3" horiz-adv-x="542" 
d="M255 -14c-121 0 -213 59 -213 128c0 35 22 64 58 64c35 0 52 -28 52 -56c0 -29 -20 -49 -40 -60c17 -29 68 -63 142 -63c109 0 151 58 151 170c0 113 -64 162 -188 162h-27v16h12c137 0 186 53 186 166c0 101 -48 148 -132 148c-54 0 -107 -26 -129 -62
c23 -7 44 -29 44 -57c0 -29 -17 -58 -52 -58c-34 0 -57 27 -57 60c0 67 85 130 202 130c144 0 213 -69 213 -157c0 -72 -60 -145 -202 -176v-3c136 -8 219 -63 219 -162c0 -108 -85 -190 -239 -190z" />
    <glyph glyph-name="four" unicode="4" horiz-adv-x="562" 
d="M549 218h-148v-143c0 -52 26 -65 102 -66v-9h-292v9c76 1 108 13 108 66v143h-294v38l332 404h44v-393h148v-49zM316 583l-258 -316h261v316h-3z" />
    <glyph glyph-name="five" unicode="5" horiz-adv-x="539" 
d="M257 -14c-111 0 -210 55 -210 131c0 34 25 64 60 64c34 0 52 -28 52 -54c0 -31 -23 -55 -45 -66c14 -27 71 -62 134 -62c104 0 153 67 153 199c0 126 -53 187 -145 187c-61 0 -104 -18 -150 -50l-16 8l13 317h369l-8 -72h-345l-10 -233c44 30 103 48 153 48
c161 0 231 -89 231 -200c0 -110 -96 -217 -236 -217z" />
    <glyph glyph-name="six" unicode="6" horiz-adv-x="561" 
d="M292 -14c-141 0 -242 116 -242 271c0 114 40 209 107 276c77 76 171 123 311 144v-8c-201 -51 -314 -167 -329 -361l3 -1c27 80 106 123 177 123c116 0 203 -80 203 -202c0 -134 -94 -242 -230 -242zM297 -1c96 0 134 80 134 218c0 134 -41 198 -122 198
c-79 0 -168 -59 -168 -217c0 -130 74 -199 156 -199z" />
    <glyph glyph-name="seven" unicode="7" horiz-adv-x="497" 
d="M101 -10v4l339 600h-275c-71 0 -93 -24 -111 -129h-8l6 195h430v-9l-174 -388l-120 -273h-87z" />
    <glyph glyph-name="eight" unicode="8" horiz-adv-x="547" 
d="M48 156c0 73 64 138 160 171c-83 38 -139 88 -139 169c0 102 100 178 209 178c111 0 208 -65 208 -152c0 -78 -54 -125 -151 -163c107 -42 170 -96 170 -187c0 -107 -118 -186 -223 -186c-141 0 -234 71 -234 170zM251 310l-27 10c-63 -29 -102 -86 -102 -160
c0 -104 58 -161 148 -161c84 0 157 35 157 145c0 84 -68 126 -176 166zM312 368l9 -3c65 33 91 85 91 149c0 94 -54 146 -134 146c-74 0 -135 -37 -135 -136c0 -79 67 -119 169 -156z" />
    <glyph glyph-name="nine" unicode="9" horiz-adv-x="561" 
d="M94 -17v9c194 46 314 170 329 364l-3 1c-31 -84 -99 -127 -167 -127c-116 0 -214 77 -214 212c0 121 105 232 241 232c140 0 231 -116 231 -271c0 -114 -40 -208 -107 -275c-76 -76 -170 -124 -310 -145zM266 246c67 0 154 70 154 214c0 132 -64 201 -145 201
c-96 0 -145 -81 -145 -215c0 -136 49 -200 136 -200z" />
    <glyph glyph-name="period" unicode="." horiz-adv-x="209" 
d="M105 -16c-31 0 -55 24 -55 54s24 54 55 54c30 0 54 -24 54 -53c0 -31 -24 -55 -54 -55z" />
    <glyph glyph-name="comma" unicode="," horiz-adv-x="209" 
d="M25 -139l-6 10c64 33 103 86 108 128l-4 2c-7 -7 -17 -10 -27 -10c-26 0 -48 20 -48 48c0 29 21 54 52 54c38 0 63 -27 63 -69c0 -67 -45 -119 -138 -163z" />
    <glyph glyph-name="colon" unicode=":" horiz-adv-x="214" 
d="M107 289c-30 0 -55 24 -55 54s25 54 55 54s55 -24 55 -53c0 -31 -25 -55 -55 -55zM107 -16c-30 0 -55 24 -55 54s25 54 55 54s55 -24 55 -53c0 -31 -25 -55 -55 -55z" />
    <glyph glyph-name="semicolon" unicode=";" horiz-adv-x="214" 
d="M107 289c-30 0 -55 24 -55 54s25 54 55 54s55 -24 55 -53c0 -31 -25 -55 -55 -55zM27 -139l-5 10c63 33 103 86 108 128l-4 2c-7 -7 -18 -10 -27 -10c-27 0 -48 20 -48 48c0 29 21 54 51 54c39 0 64 -28 64 -69c0 -67 -45 -119 -139 -163z" />
    <glyph glyph-name="ellipsis" unicode="&#x2026;" horiz-adv-x="601" 
d="M497 -16c-31 0 -55 24 -55 54s24 54 55 54c30 0 54 -24 54 -53c0 -31 -24 -55 -54 -55zM301 -16c-31 0 -55 24 -55 54s24 54 55 54c30 0 54 -24 54 -53c0 -31 -24 -55 -54 -55zM105 -16c-31 0 -55 24 -55 54s24 54 55 54c30 0 54 -24 54 -53c0 -31 -24 -55 -54 -55z" />
    <glyph glyph-name="periodcentered" unicode="&#xb7;" horiz-adv-x="209" 
d="M105 274c-31 0 -55 24 -55 54s24 54 55 54c30 0 54 -24 54 -53c0 -31 -24 -55 -54 -55z" />
    <glyph glyph-name="bullet" unicode="&#x2022;" horiz-adv-x="454" 
d="M227 210c-65 0 -119 53 -119 118c0 66 54 120 119 120c66 0 120 -54 120 -120c0 -65 -54 -118 -120 -118z" />
    <glyph glyph-name="ampersand" unicode="&#x26;" horiz-adv-x="752" 
d="M327 383c73 49 90 92 90 160c0 69 -30 110 -90 110c-64 0 -98 -45 -98 -104c0 -57 47 -113 98 -166zM262 343c-74 -37 -116 -85 -116 -177c0 -82 57 -142 145 -142c69 0 112 35 158 93c-42 74 -115 162 -187 226zM495 185c51 104 102 166 159 166c43 0 64 -25 64 -59
c0 -29 -19 -53 -50 -53c-28 0 -48 20 -48 45c0 14 5 27 13 35l-2 3c-45 -14 -84 -65 -127 -148c53 -97 94 -140 143 -140c21 0 41 7 72 32l6 -8c-51 -51 -90 -75 -128 -75c-64 0 -99 46 -142 121c-49 -70 -118 -121 -202 -121c-131 0 -193 82 -193 171c0 101 83 160 193 197
c-45 51 -86 88 -86 156c0 90 68 158 167 158c89 0 153 -51 153 -125c0 -64 -43 -108 -151 -166c64 -55 124 -124 159 -189z" />
    <glyph glyph-name="exclam" unicode="!" horiz-adv-x="271" 
d="M128 186c-11 218 -42 381 -42 468c0 48 18 71 50 71c31 0 49 -23 49 -71c0 -87 -31 -250 -43 -468h-14zM136 -16c-31 0 -55 24 -55 54s24 54 55 54c30 0 54 -24 54 -53c0 -31 -24 -55 -54 -55z" />
    <glyph glyph-name="exclamdown" unicode="&#xa1;" horiz-adv-x="271" 
d="M135 617c-30 0 -55 24 -55 54s25 54 55 54s55 -24 55 -53c0 -31 -25 -55 -55 -55zM135 -16c-31 0 -50 23 -50 71c0 87 31 250 43 468h14c12 -218 42 -381 42 -468c0 -48 -17 -71 -49 -71z" />
    <glyph glyph-name="question" unicode="?" horiz-adv-x="453" 
d="M178 186v168c138 28 169 83 169 194c0 112 -52 164 -137 164c-63 0 -111 -33 -130 -72c38 -9 54 -33 54 -60c0 -29 -19 -59 -56 -59c-35 0 -59 28 -59 64c0 72 86 140 199 140c136 0 216 -82 216 -176c0 -107 -87 -176 -236 -206v-157h-20zM189 -16c-30 0 -55 24 -55 54
s25 54 55 54s55 -24 55 -53c0 -31 -25 -55 -55 -55z" />
    <glyph glyph-name="questiondown" unicode="&#xbf;" horiz-adv-x="453" 
d="M263 616c-30 0 -54 24 -54 54s24 54 54 54c31 0 55 -24 55 -53c0 -31 -24 -55 -55 -55zM234 -17c-135 0 -216 83 -216 176c0 108 88 176 237 207v156h20v-167c-138 -28 -170 -83 -170 -195c0 -111 53 -164 138 -164c63 0 110 33 130 72c-39 10 -55 34 -55 61
c0 28 19 58 56 58c35 0 60 -28 60 -64c0 -71 -87 -140 -200 -140z" />
    <glyph glyph-name="quotedblleft" unicode="&#x201c;" horiz-adv-x="371" 
d="M271 476c-40 0 -64 28 -64 69c0 67 45 119 138 162l6 -9c-64 -33 -103 -86 -108 -128l4 -2c7 6 17 9 27 9c26 0 48 -19 48 -47c0 -29 -22 -54 -51 -54zM109 476c-40 0 -64 28 -64 69c0 67 45 119 138 162l6 -9c-64 -33 -103 -86 -108 -128l4 -2c7 6 17 9 27 9
c26 0 48 -19 48 -47c0 -29 -22 -54 -51 -54z" />
    <glyph glyph-name="quotedblright" unicode="&#x201d;" horiz-adv-x="371" 
d="M187 475l-6 10c64 33 103 86 108 128l-4 2c-7 -7 -17 -10 -27 -10c-26 0 -48 20 -48 48c0 29 22 54 51 54c40 0 64 -28 64 -70c0 -66 -45 -118 -138 -162zM25 475l-6 10c64 33 103 86 108 128l-4 2c-7 -7 -17 -10 -27 -10c-26 0 -48 20 -48 48c0 29 22 54 51 54
c40 0 64 -28 64 -70c0 -66 -45 -118 -138 -162z" />
    <glyph glyph-name="quoteleft" unicode="&#x2018;" horiz-adv-x="209" 
d="M109 476c-40 0 -64 28 -64 69c0 67 45 119 138 162l6 -9c-64 -33 -103 -86 -108 -128l4 -2c7 6 17 9 27 9c26 0 48 -19 48 -47c0 -29 -22 -54 -51 -54z" />
    <glyph glyph-name="quoteright" unicode="&#x2019;" horiz-adv-x="209" 
d="M25 475l-6 10c64 33 103 86 108 128l-4 2c-7 -7 -17 -10 -27 -10c-26 0 -48 20 -48 48c0 29 22 54 51 54c40 0 64 -28 64 -70c0 -66 -45 -118 -138 -162z" />
    <glyph glyph-name="quotedblbase" unicode="&#x201e;" horiz-adv-x="371" 
d="M187 -138l-6 10c64 33 103 86 108 128l-4 2c-7 -7 -17 -10 -27 -10c-26 0 -48 20 -48 48c0 29 22 54 51 54c40 0 64 -28 64 -70c0 -66 -45 -118 -138 -162zM25 -138l-6 10c64 33 103 86 108 128l-4 2c-7 -7 -17 -10 -27 -10c-26 0 -48 20 -48 48c0 29 22 54 51 54
c40 0 64 -28 64 -70c0 -66 -45 -118 -138 -162z" />
    <glyph glyph-name="quotesinglbase" unicode="&#x201a;" horiz-adv-x="209" 
d="M25 -138l-6 10c64 33 103 86 108 128l-4 2c-7 -7 -17 -10 -27 -10c-26 0 -48 20 -48 48c0 29 22 54 51 54c40 0 64 -28 64 -70c0 -66 -45 -118 -138 -162z" />
    <glyph glyph-name="guillemotleft" unicode="&#xab;" horiz-adv-x="490" 
d="M428 29l-183 176c-11 10 -14 15 -14 19s3 9 14 19l183 176l9 -6l-142 -188l142 -191zM238 29l-183 176c-11 10 -14 15 -14 19s3 9 14 19l183 176l9 -6l-142 -188l142 -191z" />
    <glyph glyph-name="guillemotright" unicode="&#xbb;" horiz-adv-x="490" 
d="M252 29l-8 6l141 188l-141 191l8 5l184 -176c11 -10 14 -15 14 -19s-3 -9 -14 -19zM62 29l-8 6l141 188l-141 191l8 5l184 -176c11 -10 14 -15 14 -19s-3 -9 -14 -19z" />
    <glyph glyph-name="guilsinglleft" unicode="&#x2039;" horiz-adv-x="300" 
d="M238 29l-183 176c-11 10 -14 15 -14 19s3 9 14 19l183 176l9 -6l-142 -188l142 -191z" />
    <glyph glyph-name="guilsinglright" unicode="&#x203a;" horiz-adv-x="300" 
d="M62 29l-8 6l141 189l-141 190l8 6l184 -176c11 -11 14 -16 14 -20s-3 -8 -14 -19z" />
    <glyph glyph-name="hyphen" unicode="-" horiz-adv-x="366" 
d="M55 241v36h256v-36h-256z" />
    <glyph glyph-name="endash" unicode="&#x2013;" horiz-adv-x="540" 
d="M55 254v17h430v-17h-430z" />
    <glyph glyph-name="emdash" unicode="&#x2014;" horiz-adv-x="790" 
d="M55 254v17h680v-17h-680z" />
    <glyph glyph-name="underscore" unicode="_" horiz-adv-x="440" 
d="M-2 0v26h444v-26h-444z" />
    <glyph glyph-name="slash" unicode="/" horiz-adv-x="452" 
d="M9 -215l212 481l209 480h23l-213 -482l-208 -479h-23z" />
    <glyph glyph-name="backslash" unicode="\" horiz-adv-x="452" 
d="M420 -215l-208 479l-213 482h23l209 -480l212 -481h-23z" />
    <glyph glyph-name="bar" unicode="|" horiz-adv-x="306" 
d="M143 -215v961h20v-961h-20z" />
    <glyph glyph-name="brokenbar" unicode="&#xa6;" horiz-adv-x="306" 
d="M163 337h-20v409h20v-409zM143 194h20v-409h-20v409z" />
    <glyph glyph-name="parenleft" unicode="(" horiz-adv-x="383" 
d="M404 -166c-148 63 -326 215 -326 465c0 251 178 402 326 465l4 -8c-143 -77 -248 -192 -248 -457c0 -263 105 -380 248 -457z" />
    <glyph glyph-name="parenright" unicode=")" horiz-adv-x="383" 
d="M-22 -166l-4 8c144 77 249 194 249 457c0 265 -105 380 -249 457l4 8c149 -63 327 -214 327 -465c0 -250 -178 -402 -327 -465z" />
    <glyph glyph-name="bracketleft" unicode="[" horiz-adv-x="359" 
d="M102 -165v929h280v-16h-210v-897h210v-16h-280z" />
    <glyph glyph-name="bracketright" unicode="]" horiz-adv-x="359" 
d="M-23 -165v16h210v897h-210v16h280v-929h-280z" />
    <glyph glyph-name="braceleft" unicode="{" horiz-adv-x="406" 
d="M414 -159c-144 2 -231 66 -231 180c0 50 16 118 16 158c0 79 -21 118 -173 125v11c152 7 173 42 173 120c0 41 -16 104 -16 153c0 114 87 171 231 176v-9c-117 -10 -151 -66 -151 -155c0 -30 7 -89 7 -139c0 -81 -26 -135 -178 -150v-4c150 -13 178 -73 178 -154
c0 -50 -7 -113 -7 -144c0 -89 34 -149 151 -159v-9z" />
    <glyph glyph-name="braceright" unicode="}" horiz-adv-x="406" 
d="M-8 -153v10c118 9 152 67 152 157c0 30 -7 91 -7 141c0 81 28 139 178 152v4c-152 15 -178 71 -178 152c0 50 7 111 7 142c0 89 -34 147 -152 157v9c145 -5 232 -64 232 -178c0 -49 -16 -115 -16 -156c0 -78 21 -115 173 -122v-11c-152 -7 -173 -44 -173 -123
c0 -40 16 -106 16 -155c0 -115 -87 -176 -232 -179z" />
    <glyph glyph-name="at" unicode="@" horiz-adv-x="909" 
d="M470 -146c-237 0 -409 161 -409 409c0 242 177 421 426 421c199 0 361 -141 361 -337c0 -189 -111 -284 -220 -284c-86 0 -121 37 -123 92h-3c-34 -49 -76 -83 -127 -83c-72 0 -113 47 -113 131c0 122 109 273 231 273c44 0 67 -25 80 -61h1l19 54l69 9l-46 -138
l-42 -150c-20 -67 8 -108 67 -108c92 0 189 99 189 264c0 181 -148 323 -346 323c-240 0 -405 -180 -405 -403c0 -225 151 -397 394 -397c110 0 182 33 250 83l9 -11c-71 -53 -149 -87 -262 -87zM402 103c43 0 76 31 104 82l60 203c-9 45 -33 75 -71 75
c-94 0 -161 -172 -161 -262c0 -60 23 -98 68 -98z" />
    <glyph glyph-name="copyright" unicode="&#xa9;" horiz-adv-x="834" 
d="M417 -34c-216 0 -383 165 -383 383c0 215 167 382 383 382s383 -167 383 -382c0 -218 -167 -383 -383 -383zM417 -20c209 0 366 166 366 369c0 204 -157 368 -366 368c-208 0 -366 -164 -366 -368c0 -203 158 -369 366 -369zM423 149c-106 0 -185 72 -185 196
c0 131 88 210 195 210c40 0 79 -13 102 -29l22 30h8v-141h-9c-40 100 -72 128 -130 128c-67 0 -122 -68 -122 -187c0 -120 64 -183 135 -183c62 0 104 33 130 93l10 -4c-24 -57 -74 -113 -156 -113z" />
    <glyph glyph-name="published" unicode="&#x2117;" horiz-adv-x="834" 
d="M417 -34c-216 0 -383 165 -383 383c0 215 167 382 383 382s383 -167 383 -382c0 -218 -167 -383 -383 -383zM417 -20c209 0 366 166 366 369c0 204 -157 368 -366 368c-208 0 -366 -164 -366 -368c0 -203 158 -369 366 -369zM260 157v9c52 2 64 9 64 28v317
c0 20 -12 27 -64 29v8h165c106 0 158 -45 158 -110c0 -62 -51 -115 -162 -115h-39v-129c0 -20 12 -27 69 -29v-8h-191zM382 335h41c74 0 98 30 98 102c0 66 -29 100 -96 100h-43v-202z" />
    <glyph glyph-name="registered.alt" horiz-adv-x="834" 
d="M417 -34c-216 0 -383 165 -383 383c0 215 167 382 383 382s383 -167 383 -382c0 -218 -167 -383 -383 -383zM417 -20c209 0 366 166 366 369c0 204 -157 368 -366 368c-208 0 -366 -164 -366 -368c0 -203 158 -369 366 -369zM364 360h46c75 0 97 23 97 89
c0 60 -27 88 -98 88h-45v-177zM364 349v-155c0 -20 11 -26 62 -28v-9h-184v9c52 2 64 9 64 28v317c0 20 -12 27 -64 29v8h176c111 0 151 -45 151 -95c0 -45 -26 -84 -107 -97v-2c70 -5 90 -34 97 -83l7 -52c5 -45 13 -54 61 -54v-8c-9 -1 -24 -2 -31 -2c-70 0 -88 20 -92 70
l-4 47c-5 59 -22 77 -91 77h-45z" />
    <glyph glyph-name="registered" unicode="&#xae;" horiz-adv-x="385" 
d="M191 423c-87 0 -153 66 -153 155c0 90 66 153 153 153c90 0 155 -63 155 -153c0 -89 -65 -155 -155 -155zM191 434c86 0 142 62 142 144c0 83 -56 143 -142 143c-85 0 -140 -60 -140 -143c0 -82 55 -144 140 -144zM172 587h19c31 0 41 12 41 37c0 23 -13 34 -45 34h-15
v-71zM172 579v-59c0 -10 6 -15 27 -15v-6h-79v6c20 0 26 6 26 15v126c0 8 -6 13 -26 13v6h71c50 0 69 -18 69 -40c0 -20 -13 -36 -48 -41v-2c31 -1 40 -14 42 -38l2 -18c1 -17 9 -21 28 -21v-5c-6 -2 -14 -3 -21 -3c-29 0 -34 9 -35 31l-1 20c-1 24 -11 31 -38 31h-17z" />
    <glyph glyph-name="servicemark" unicode="&#x2120;" horiz-adv-x="548" 
d="M50 548h8c19 -49 44 -66 75 -66c33 0 50 19 50 43c0 21 -13 34 -60 48c-40 13 -68 24 -68 63c0 41 36 66 78 66c19 0 36 -4 49 -9l10 11h6v-69h-7c-16 40 -36 57 -61 57c-27 0 -47 -16 -47 -40c0 -22 17 -32 59 -45c39 -12 67 -25 67 -65c0 -35 -25 -70 -79 -70
c-21 0 -41 6 -58 12l-15 -13h-7v77zM234 477v7c31 3 36 11 36 45v131c0 17 -7 29 -36 30v7h84l61 -162h4l59 162h81v-7c-29 -2 -36 -7 -36 -18v-170c0 -11 7 -16 36 -17v-8h-103v8c25 1 30 6 30 17v169h-5l-72 -195h-9l-75 195h-6v-142c0 -34 5 -41 35 -45v-7h-84z" />
    <glyph glyph-name="trademark" unicode="&#x2122;" horiz-adv-x="583" 
d="M269 477v7c31 3 36 11 36 45v131c0 17 -7 29 -36 30v7h84l61 -162h4l59 162h81v-7c-29 -2 -36 -7 -36 -18v-170c0 -11 7 -16 36 -17v-8h-103v8c25 1 30 6 30 17v169h-5l-72 -195h-9l-75 195h-6v-142c0 -34 5 -41 35 -45v-7h-84zM90 477v8c32 0 38 6 38 17v186h-10
c-33 0 -44 -16 -62 -65h-8l3 74h191l3 -74h-8c-17 49 -28 65 -63 65h-9v-186c0 -11 7 -17 38 -17v-8h-113z" />
    <glyph glyph-name="asterisk" unicode="*" horiz-adv-x="423" 
d="M265 392c-19 -6 -31 6 -38 27c-6 22 -14 115 -15 129l-6 2c-10 -12 -69 -82 -88 -95c-18 -12 -34 -14 -46 1c-11 16 -5 30 14 44c17 13 104 49 117 54v6c-13 5 -99 41 -117 54s-24 30 -14 44c13 17 29 14 46 1c19 -14 78 -84 88 -95l6 2c1 14 8 106 15 128s20 32 38 27
c19 -5 21 -22 15 -44c-7 -21 -56 -101 -64 -113l4 -4c14 3 103 25 127 25c22 0 36 -9 36 -28c0 -21 -14 -28 -36 -28c-24 0 -113 22 -127 24l-4 -3c8 -13 57 -92 64 -114c6 -21 3 -38 -15 -44z" />
    <glyph glyph-name="dagger" unicode="&#x2020;" horiz-adv-x="549" 
d="M270 -107c-8 176 -30 370 -44 418l30 55c5 11 11 27 11 41c0 33 -24 60 -67 60c-46 0 -85 -37 -123 -37c-20 0 -43 10 -43 34c0 26 26 45 79 45c41 0 95 -18 153 -54l3 2l-17 111c-9 58 -17 103 -17 125c0 30 15 52 40 52s39 -22 39 -52c0 -22 -8 -67 -17 -125l-17 -111
l3 -2c58 36 112 54 153 54c54 0 79 -19 79 -45c0 -24 -23 -34 -42 -34c-38 0 -78 37 -123 37c-44 0 -67 -27 -67 -60c0 -14 5 -30 11 -41l29 -55c-13 -48 -36 -242 -44 -418h-9z" />
    <glyph glyph-name="daggerdbl" unicode="&#x2021;" horiz-adv-x="549" 
d="M274 -109c-24 0 -39 20 -39 49c0 22 9 61 17 117l17 108l-3 2c-58 -35 -112 -53 -153 -53c-53 0 -79 17 -79 45c0 24 23 34 43 34c38 0 77 -38 123 -38c43 0 67 24 67 55c0 12 -5 32 -10 43l-26 65l26 65c5 12 10 30 10 42c0 31 -24 56 -67 56c-46 0 -85 -37 -123 -37
c-20 0 -43 10 -43 34c0 26 26 45 79 45c41 0 95 -19 153 -54l3 3l-17 107c-9 57 -17 95 -17 117c0 29 15 49 40 49s39 -20 39 -49c0 -22 -8 -60 -17 -117l-17 -107l3 -3c58 35 112 54 153 54c54 0 79 -19 79 -45c0 -24 -23 -34 -42 -34c-38 0 -78 37 -123 37
c-44 0 -67 -23 -67 -55c0 -12 5 -31 9 -43l26 -65l-26 -65c-5 -12 -9 -31 -9 -43c0 -31 23 -55 67 -55c45 0 85 38 123 38c19 0 42 -10 42 -34c0 -26 -25 -45 -79 -45c-41 0 -95 18 -153 53l-3 -2l17 -108c9 -56 17 -95 17 -117c0 -29 -14 -49 -40 -49z" />
    <glyph glyph-name="asciicircum" unicode="^" horiz-adv-x="353" 
d="M28 548l147 212h11l140 -212h-16l-133 139l-133 -139h-16z" />
    <glyph glyph-name="asciitilde" unicode="~" horiz-adv-x="394" 
d="M49 282c13 77 38 115 88 115c48 0 107 -50 147 -50c22 0 39 17 51 61h12c-13 -77 -39 -115 -88 -115c-48 0 -107 51 -147 51c-22 0 -39 -17 -51 -62h-12z" />
    <glyph glyph-name="dollar" unicode="$" horiz-adv-x="565" 
d="M281 -64v83c-121 2 -214 61 -214 132c0 28 18 57 55 57c31 0 51 -25 51 -52c0 -22 -13 -43 -40 -55c20 -33 81 -64 148 -67v263l-8 3c-92 29 -187 59 -187 166c0 106 97 170 195 175v72h20v-72c109 -3 190 -62 190 -123c0 -29 -17 -53 -47 -53c-35 0 -51 23 -51 49
c0 21 13 41 34 52c-18 29 -64 58 -126 61v-252l20 -6c88 -27 181 -54 181 -164c0 -86 -63 -181 -201 -186v-83h-20zM439 158c0 75 -52 103 -138 132v-256c96 3 138 56 138 124zM156 504c0 -69 50 -96 125 -122v244c-75 -4 -125 -44 -125 -122z" />
    <glyph glyph-name="sterling" unicode="&#xa3;" horiz-adv-x="591" 
d="M442 348v-16h-167c10 -27 17 -56 17 -87c0 -54 -24 -103 -72 -145c62 -11 129 -40 207 -40c74 0 107 37 118 129l11 -1c-3 -121 -62 -204 -151 -204c-57 0 -140 51 -198 101c-21 -64 -58 -101 -96 -101c-31 0 -51 23 -51 49c0 35 35 72 115 72c10 0 20 -1 30 -2
c12 23 20 48 20 87c0 56 -21 99 -41 142h-116v16h108c-18 38 -34 77 -34 127c0 127 96 199 211 199c94 0 168 -60 168 -123c0 -34 -20 -60 -50 -60c-33 0 -57 20 -57 56c0 25 18 46 38 57c-16 30 -56 57 -107 57c-73 0 -126 -43 -126 -142c0 -67 28 -118 50 -171h173z" />
    <glyph glyph-name="Euro" unicode="&#x20ac;" horiz-adv-x="670" 
d="M447 270h-237c19 -150 104 -235 222 -235c86 0 150 50 186 121l11 -6c-40 -86 -105 -167 -231 -167c-169 0 -264 131 -281 287h-81v16h79c-1 11 -1 23 -1 35c0 21 2 42 5 62h-83v16h85c30 154 149 278 310 278c114 0 191 -61 191 -131c0 -35 -23 -64 -54 -64
c-34 0 -60 20 -60 58c0 29 19 52 48 61c-10 26 -62 63 -127 63c-114 0 -205 -78 -221 -265h239v-16h-240c-1 -14 -1 -29 -1 -44c0 -19 1 -36 2 -53h239v-16z" />
    <glyph glyph-name="yen" unicode="&#xa5;" horiz-adv-x="679" 
d="M89 311v16h187l-141 238c-35 58 -59 77 -122 86v9h292v-9c-106 -2 -102 -35 -71 -90l138 -248l115 201c49 85 44 124 -49 137v9h229v-9c-63 -7 -105 -47 -148 -122l-118 -202h185v-16h-195l-11 -20v-62h206v-16h-206v-135c0 -50 28 -66 123 -69v-9h-328v9
c104 2 123 19 123 69v135h-209v16h209v62l-12 20h-197z" />
    <glyph glyph-name="cent" unicode="&#xa2;" horiz-adv-x="523" 
d="M273 -88v79c-129 5 -206 103 -206 232s94 229 206 241v70h20v-68h4c97 0 164 -53 164 -107c0 -29 -19 -55 -49 -55c-29 0 -49 20 -49 49c0 28 18 44 35 52c-12 24 -50 47 -100 47h-5v-423c7 -1 13 -1 21 -1c61 0 100 24 144 78l9 -6c-39 -55 -89 -105 -174 -109v-79h-20z
M150 239c0 -104 42 -186 123 -206v416c-68 -14 -123 -86 -123 -210z" />
    <glyph glyph-name="numbersign" unicode="#" horiz-adv-x="703" 
d="M319 703l-45 -225h214c22 112 40 204 45 225h21l-45 -225h160v-17h-163l-51 -254h171v-17h-174l-46 -232h-21l45 232h-213l-46 -232h-21l45 232h-157v17h161l50 254h-167v17h171c22 112 40 204 45 225h21zM434 207l50 254h-213l-51 -254h214z" />
    <glyph glyph-name="paragraph" unicode="&#xb6;" horiz-adv-x="666" 
d="M367 -100v283c-175 4 -308 91 -308 239c0 137 111 238 306 238h263v-8c-106 -5 -121 -15 -121 -64v-688h-21v745h-97v-745h-22z" />
    <glyph glyph-name="section" unicode="&#xa7;" horiz-adv-x="556" 
d="M88 251c0 66 49 117 122 138v1c-67 28 -110 63 -110 129c0 95 87 155 188 155c96 0 175 -53 175 -109c0 -32 -17 -53 -48 -53c-32 0 -49 23 -49 48c0 21 10 40 36 51c-13 24 -52 49 -118 49c-74 0 -130 -37 -130 -107c0 -56 51 -81 164 -120c89 -30 156 -60 156 -145
c0 -57 -33 -113 -108 -139v-1c66 -26 98 -61 98 -127c0 -87 -61 -162 -188 -162c-108 0 -203 47 -203 118c0 32 19 60 53 60c32 0 51 -25 51 -52c0 -23 -12 -45 -39 -56c18 -32 72 -56 142 -56c87 0 137 47 137 106s-37 86 -162 126c-97 32 -167 63 -167 146zM342 157
c55 17 84 49 84 88c0 57 -43 84 -152 121l-43 15c-56 -15 -89 -46 -89 -93c0 -58 42 -79 158 -116c16 -5 29 -9 42 -15z" />
    <glyph glyph-name="ordfeminine" unicode="&#xaa;" horiz-adv-x="435" 
d="M153 332c-62 0 -93 40 -93 84c0 31 14 58 44 75c47 27 120 37 162 45v56c0 62 -20 85 -69 85c-31 0 -56 -8 -67 -22c18 -8 27 -22 27 -37c0 -26 -16 -43 -40 -43s-40 20 -40 41c0 43 56 75 131 75c78 0 126 -31 126 -103v-183c0 -45 17 -58 59 -40l4 -7
c-23 -16 -44 -24 -67 -24c-38 0 -58 17 -60 60h-3c-31 -35 -68 -62 -114 -62zM188 363c30 0 59 21 78 46v114c-110 -17 -135 -40 -135 -96c0 -40 19 -64 57 -64z" />
    <glyph glyph-name="ordmasculine" unicode="&#xba;" horiz-adv-x="446" 
d="M223 331c-98 0 -174 72 -174 178s81 182 175 182c97 0 173 -73 173 -179c0 -105 -81 -181 -174 -181zM227 343c62 0 97 48 97 167s-41 169 -104 169s-97 -49 -97 -168s40 -168 104 -168z" />
    <glyph glyph-name="degree" unicode="&#xb0;" horiz-adv-x="376" 
d="M189 433c-83 0 -140 63 -140 140c0 76 61 141 138 141c83 0 140 -62 140 -139s-61 -142 -138 -142zM190 446c48 0 84 41 84 127c0 88 -40 128 -89 128c-47 0 -82 -40 -82 -126c0 -88 39 -129 87 -129z" />
    <glyph glyph-name="percent" unicode="%" horiz-adv-x="810" 
d="M579 4c94 0 162 146 162 238c0 61 -23 101 -73 101c-93 0 -158 -147 -158 -251c0 -60 26 -88 69 -88zM574 -14c-89 0 -134 63 -134 143c0 116 99 243 213 243c63 0 107 -48 107 -129c0 -83 -66 -257 -186 -257zM354 544c0 15 -2 28 -4 41c-33 11 -62 30 -87 57
c-83 -16 -140 -151 -140 -248c0 -60 26 -88 69 -88c94 0 162 146 162 238zM266 674c43 0 77 -22 94 -62c25 -13 53 -19 87 -19c58 0 125 25 191 96h19l-476 -715h-39l456 656l-3 2c-41 -35 -99 -60 -161 -60c-22 0 -44 2 -64 7c2 -10 3 -22 3 -34c0 -83 -66 -257 -186 -257
c-89 0 -134 63 -134 143c0 116 99 243 213 243z" />
    <glyph glyph-name="percent.alt" horiz-adv-x="850" 
d="M378 500c0 -101 -84 -176 -167 -176c-89 0 -168 73 -168 174s84 176 166 176c90 0 169 -72 169 -174zM160 -10l259 348l242 332h31l-258 -346l-243 -334h-31zM207 661c-57 0 -91 -40 -91 -161c0 -122 39 -163 97 -163s91 40 91 161c0 123 -38 163 -97 163zM474 160
c0 101 84 176 167 176c89 0 168 -72 168 -174c0 -101 -84 -176 -166 -176c-90 0 -169 73 -169 174zM645 -1c57 0 91 40 91 161c0 123 -39 163 -97 163s-91 -40 -91 -161c0 -122 38 -163 97 -163z" />
    <glyph glyph-name="quotedbl" unicode="&#x22;" horiz-adv-x="400" 
d="M238 442l-9 4l23 97c18 77 26 116 32 128c10 20 22 29 40 29c26 0 43 -21 43 -44c0 -5 -2 -15 -5 -22c-6 -14 -23 -44 -68 -110zM75 442l-9 4l23 97c18 77 26 116 32 128c10 20 22 29 40 29c26 0 43 -21 43 -44c0 -5 -2 -15 -5 -22c-6 -14 -23 -44 -68 -110z" />
    <glyph glyph-name="quotesingle" unicode="'" horiz-adv-x="237" 
d="M75 442l-9 4l23 97c18 77 26 116 32 128c10 20 22 29 40 29c26 0 43 -21 43 -44c0 -5 -2 -15 -5 -22c-6 -14 -23 -44 -68 -110z" />
    <glyph glyph-name="plus" unicode="+" horiz-adv-x="556" 
d="M54 317v17h215v213h20v-213h213v-17h-213v-217h-20v217h-215z" />
    <glyph glyph-name="minus" unicode="&#x2212;" horiz-adv-x="536" 
d="M54 317v17h428v-17h-428z" />
    <glyph glyph-name="divide" unicode="&#xf7;" horiz-adv-x="576" 
d="M54 317v17h468v-17h-468zM289 416c-31 0 -55 24 -55 54s24 54 55 54c30 0 54 -24 54 -53c0 -31 -24 -55 -54 -55zM289 126c-31 0 -55 24 -55 54s24 54 55 54c30 0 54 -24 54 -53c0 -31 -24 -55 -54 -55z" />
    <glyph glyph-name="equal" unicode="=" horiz-adv-x="556" 
d="M59 216v18h438v-18h-438zM59 415v17h438v-17h-438z" />
    <glyph glyph-name="multiply" unicode="&#xd7;" horiz-adv-x="556" 
d="M458 518l14 -14l-180 -180l180 -180l-13 -13l-181 179l-179 -179l-14 14l179 179l-179 180l14 14l179 -180z" />
    <glyph glyph-name="less" unicode="&#x3c;" horiz-adv-x="555" 
d="M85 316v17l387 216v-23l-364 -202l364 -201v-23z" />
    <glyph glyph-name="greater" unicode="&#x3e;" horiz-adv-x="555" 
d="M472 317l-388 -217v23l364 202l-364 201v23l388 -215v-17z" />
    <glyph glyph-name="plusminus" unicode="&#xb1;" horiz-adv-x="530" 
d="M59 314v17h197v196h20v-196h195v-17h-195v-198h-20v198h-197zM59 0v17h412v-17h-412z" />
    <glyph glyph-name="space" unicode=" " horiz-adv-x="192" 
 />
    <glyph glyph-name="uni00A0" unicode="&#xa0;" horiz-adv-x="192" 
 />
    <glyph glyph-name="emspace" unicode="&#x2003;" horiz-adv-x="1000" 
 />
    <glyph glyph-name="enspace" unicode="&#x2002;" horiz-adv-x="500" 
 />
    <glyph glyph-name="threeperemspace" unicode="&#x2004;" horiz-adv-x="333" 
 />
    <glyph glyph-name="fourperemspace" unicode="&#x2005;" horiz-adv-x="250" 
 />
    <glyph glyph-name="thinspace" unicode="&#x2009;" horiz-adv-x="133" 
 />
    <glyph glyph-name="hairspace" unicode="&#x200a;" horiz-adv-x="75" 
 />
    <glyph glyph-name="NUL" horiz-adv-x="0" 
 />
    <glyph glyph-name="hfjslug" horiz-adv-x="694" 
d="M644 -200h-208l-8 14h-163l-8 -14h-207v303c18 0 32 14 32 32c0 17 -14 32 -32 32v554h100l30 79h334l29 -79h101v-921zM400 563v-172h15v78h38v14h-38v66h43v14h-58zM184 563v-172h15v79h47v-79h15v172h-15v-79h-47v79h-15zM460 394c5 -2 14 -4 21 -4c20 0 31 11 31 36
v137h-16v-137c0 -16 -5 -22 -16 -22c-6 0 -15 3 -20 5v-15zM371 465l-13 3c-2 -9 -5 -21 -8 -30h-1l-16 31c13 12 23 26 23 42c0 15 -9 31 -27 31c-17 0 -28 -16 -28 -31s6 -24 14 -39c-15 -12 -23 -28 -23 -47c0 -22 12 -37 29 -37c13 0 23 9 29 24h1l12 -24l12 6l-17 32
c5 12 9 25 13 39zM523 323v-46h8v12l8 8l15 -20h10l-20 26l18 20h-10l-20 -24h-1v24h-8zM488 292l10 -15h9l-12 17c5 2 10 6 10 14c0 9 -7 15 -17 15h-20v-46h8v15h12zM426 276c14 0 24 11 24 24c0 12 -10 24 -24 24s-24 -12 -24 -24c0 -13 10 -24 24 -24zM370 301l-13 22
h-9l18 -29v-17h8v17l18 29h-9zM193 323v-46h34v7h-26v13h23v7h-23v12h26v7h-34zM132 323v-46h8v32l25 -32h7v46h-8v-32l-25 32h-7zM241 323l14 -47h8l11 34h1l11 -34h8l14 47h-8l-10 -35h-1l-11 35h-7l-11 -35h-1l-10 35h-8zM327 479c-7 13 -12 22 -12 32s6 19 14 19
s13 -9 13 -19c0 -12 -5 -21 -15 -32zM342 423c-5 -13 -12 -21 -20 -21c-9 0 -16 10 -16 25c0 13 7 26 16 35zM487 299h-11v17h11c6 0 10 -3 10 -8s-4 -9 -10 -9zM426 283c-10 0 -16 8 -16 17c0 8 6 17 16 17s16 -9 16 -17c0 -9 -6 -17 -16 -17z" />
    <glyph glyph-name="i.dot" horiz-adv-x="266" 
d="M131 557c-30 0 -51 23 -51 53c0 31 21 55 51 55s52 -23 52 -54c0 -30 -22 -54 -52 -54zM22 0v9c58 1 77 6 77 40v349c0 31 -11 45 -77 49v8l153 5v-411c0 -34 17 -39 76 -40v-9h-229z" />
    <glyph glyph-name="fraction" unicode="&#x2044;" horiz-adv-x="597" 
d="M43 -31l246 356l241 352h25l-245 -356l-243 -352h-24z" />
    <glyph glyph-name="acute" unicode="&#xb4;" horiz-adv-x="238" 
d="M55 528l41 91c36 79 43 101 71 101c20 0 36 -16 36 -36c0 -19 -12 -32 -71 -90l-69 -66h-8z" />
    <glyph glyph-name="hungarumlaut" unicode="&#x2dd;" horiz-adv-x="288" 
d="M136 528l44 91c40 79 47 101 75 101c21 0 35 -14 35 -35c0 -19 -12 -32 -74 -91l-72 -66h-8zM-6 528l45 91c39 79 47 101 75 101c20 0 35 -14 35 -35c0 -19 -14 -34 -75 -91l-71 -66h-9z" />
    <glyph glyph-name="caron.alt" horiz-adv-x="135" 
d="M39 535l-2 107c0 17 -1 48 -1 63c0 42 23 51 39 51c21 0 37 -12 37 -37c0 -13 -6 -33 -15 -57l-50 -127h-8z" />
    <glyph glyph-name="grave" unicode="`" horiz-adv-x="238" 
d="M169 528l-69 66c-59 58 -71 71 -71 90c0 20 16 36 37 36c28 0 34 -22 70 -101l41 -91h-8z" />
    <glyph glyph-name="circumflex" unicode="&#x2c6;" horiz-adv-x="299" 
d="M21 528l128 179h9l121 -179h-12l-117 98l-117 -98h-12z" />
    <glyph glyph-name="caron" unicode="&#x2c7;" horiz-adv-x="299" 
d="M142 528l-121 179h12l117 -98l117 98h12l-128 -179h-9z" />
    <glyph glyph-name="breve" unicode="&#x2d8;" horiz-adv-x="336" 
d="M168 533c-73 0 -122 62 -133 149h12c24 -68 62 -91 122 -91c61 0 97 23 121 91h11c-10 -87 -60 -149 -133 -149z" />
    <glyph glyph-name="tilde" unicode="&#x2dc;" horiz-adv-x="331" 
d="M14 523c13 77 39 117 90 117c47 0 111 -49 150 -49c22 0 41 18 53 62h11c-13 -77 -41 -117 -90 -117c-47 0 -111 49 -150 49c-22 0 -41 -17 -53 -62h-11z" />
    <glyph glyph-name="macron" unicode="&#xaf;" horiz-adv-x="321" 
d="M29 558v29h263v-29h-263z" />
    <glyph glyph-name="dieresis" unicode="&#xa8;" horiz-adv-x="322" 
d="M244 533c-29 0 -50 22 -50 51c0 28 21 52 49 52c29 0 50 -24 50 -53c0 -28 -21 -50 -49 -50zM80 533c-29 0 -50 22 -50 51c0 28 21 52 49 52c29 0 50 -24 50 -53c0 -28 -21 -50 -49 -50z" />
    <glyph glyph-name="dotaccent" unicode="&#x2d9;" horiz-adv-x="192" 
d="M96 533c-30 0 -51 23 -51 53s22 54 51 54c31 0 52 -23 52 -54c0 -29 -22 -53 -52 -53z" />
    <glyph glyph-name="ring" unicode="&#x2da;" horiz-adv-x="258" 
d="M129 533c-61 0 -103 47 -103 102s42 102 103 102c60 0 104 -47 104 -102s-43 -102 -104 -102zM129 545c37 0 60 34 60 90c0 65 -22 90 -60 90c-37 0 -59 -25 -59 -90c0 -56 22 -90 59 -90z" />
    <glyph glyph-name="commaaccent" unicode="&#x326;" horiz-adv-x="217" 
d="M53 -262l-5 9c46 29 74 66 78 104l-4 1c-6 -6 -15 -8 -24 -8c-24 0 -43 17 -43 42c0 27 19 49 47 49c34 0 56 -26 56 -65c0 -55 -42 -101 -105 -132z" />
    <glyph glyph-name="cedilla" unicode="&#xb8;" horiz-adv-x="282" 
d="M110 -247c-32 0 -68 10 -97 36l7 10c23 -20 51 -29 80 -29c44 0 63 27 63 63c0 39 -35 61 -78 61c-12 0 -23 -1 -37 -5l-4 7l109 99h21l-71 -66l1 -2c78 0 114 -39 114 -86c0 -50 -45 -88 -108 -88z" />
    <glyph glyph-name="ogonek" unicode="&#x2db;" horiz-adv-x="269" 
d="M112 -243c-52 0 -94 30 -94 79c0 41 21 73 100 137l42 34h17l-36 -37c-43 -42 -61 -78 -61 -123c0 -44 28 -63 62 -63c26 0 42 7 64 17l5 -9c-31 -22 -63 -35 -99 -35z" />
    </font>
</defs>
</svg>
