<?xml version="1.0" standalone="no"?>
<!DOCTYPE svg PUBLIC "-//W3C//DTD SVG 1.1//EN" "http://www.w3.org/Graphics/SVG/1.1/DTD/svg11.dtd" >
<svg xmlns="http://www.w3.org/2000/svg" xmlns:xlink="http://www.w3.org/1999/xlink" version="1.1">
<metadata>
Created by FontForge 20160407 at Thu May 19 23:32:33 2016
 By Jimmy Wärting
Copyright (C) 2002, 2007 Hoefler &#38; Frere-Jones. http://www.typography.com
</metadata>
<defs>
<font id="ChronicleDisplay-Black" horiz-adv-x="783" >
  <font-face 
    font-family="Chronicle Display Black"
    font-weight="450"
    font-stretch="normal"
    units-per-em="1000"
    panose-1="0 0 0 0 0 0 0 0 0 0"
    ascent="800"
    descent="-200"
    x-height="464"
    cap-height="697"
    bbox="-121 -342 1293 1176"
    underline-thickness="50"
    underline-position="-100"
    stemh="20"
    stemv="154"
    unicode-range="U+0020-FB04"
  />
<missing-glyph horiz-adv-x="500" 
d="M0 -200v1000h500v-1000h-500zM71 750l179 -390l179 390h-358zM50 -76l172 376l-172 376v-752zM450 676l-172 -376l172 -376v752zM250 240l-179 -390h358z" />
    <glyph glyph-name="f_b" unicode="fb" horiz-adv-x="944" 
d="M430 541c-42 2 -75 27 -75 75c0 24 13 54 32 68c-12 11 -27 19 -50 19c-27 0 -45 -7 -57 -19c-20 -20 -29 -54 -29 -130v-97h179v84zM664 12c63 0 88 96 88 231c0 105 -33 183 -97 183c-26 0 -43 -9 -71 -28v-324c21 -41 47 -62 80 -62zM344 0h-314v12c57 1 67 11 67 35
v375h-87v19l87 18v33c0 78 15 136 51 173c38 38 95 58 182 58c64 0 109 -10 138 -27l116 27v-309c39 34 88 58 149 58c122 0 182 -103 182 -224c0 -150 -86 -256 -225 -256c-54 0 -121 13 -166 42l-75 -56h-21l2 98v348h-179v-377c0 -24 16 -32 93 -35v-12z" />
    <glyph glyph-name="f_f" unicode="ff" horiz-adv-x="710" 
d="M332 719c74 0 125 -18 151 -48c37 37 92 52 169 52c110 0 161 -39 161 -94c0 -45 -24 -76 -74 -76c-44 0 -78 24 -78 76c0 22 14 54 26 67c-9 4 -22 7 -35 7c-19 0 -30 -4 -41 -15c-17 -17 -27 -55 -27 -132v-99h124v-33h-124v-377c0 -24 16 -32 93 -35v-12h-310v12
c46 1 63 11 63 35v377h-179v-377c0 -24 23 -34 58 -35v-12h-279v12c57 1 67 11 67 35v375h-87v19l87 18v35c0 79 19 133 55 170c38 39 95 55 180 55zM430 499c0 15 0 29 2 43h-4c-44 0 -78 29 -78 78c0 28 14 53 29 67c-9 7 -28 12 -48 12s-37 -6 -48 -17
c-20 -20 -32 -47 -32 -124v-101h179v42z" />
    <glyph glyph-name="f_h" unicode="fh" horiz-adv-x="956" 
d="M430 541c-42 2 -75 27 -75 75c0 24 13 54 32 68c-12 11 -27 19 -50 19c-27 0 -45 -7 -57 -19c-20 -20 -29 -54 -29 -130v-97h179v84zM651 0h-281v12c36 1 60 11 60 35v377h-179v-377c0 -24 23 -34 58 -35v-12h-279v12c57 1 67 11 67 35v375h-87v19l87 18v33
c0 78 15 136 51 173c38 38 95 58 182 58c64 0 109 -10 138 -27l116 27v-352c42 59 109 98 173 98c89 0 128 -53 128 -149v-273c0 -24 10 -34 68 -35v-12h-272v12c35 1 50 11 50 35v272c0 52 -22 83 -67 83c-31 0 -55 -20 -80 -51v-304c0 -24 10 -34 67 -35v-12z" />
    <glyph glyph-name="fi" unicode="fi" horiz-adv-x="657" 
d="M30 0v12c57 1 67 11 67 35v375h-87v19l87 18v27c0 80 15 137 51 174c39 39 97 63 194 63c154 0 215 -47 215 -115c0 -47 -31 -82 -80 -82c-46 0 -84 26 -84 75c0 27 13 54 40 70c-16 18 -40 32 -77 32c-35 0 -60 -8 -74 -22c-23 -23 -31 -53 -31 -129v-95h140l185 9v-419
c0 -24 9 -34 67 -35v-12h-281v12c36 1 60 11 60 35v377h-171v-377c0 -24 23 -34 58 -35v-12h-279z" />
    <glyph glyph-name="f_j" unicode="fj" horiz-adv-x="653" 
d="M344 0h-314v12c57 1 67 11 67 35v375h-87v19l87 18v27c0 80 15 137 51 174c39 39 97 63 194 63c154 0 215 -47 215 -115c0 -47 -31 -82 -80 -82c-46 0 -84 26 -84 75c0 27 13 54 40 70c-16 18 -40 32 -77 32c-35 0 -60 -8 -74 -22c-23 -23 -31 -53 -31 -129v-95h138
l185 9v-441c0 -96 -17 -135 -58 -176c-28 -28 -94 -49 -157 -49c-104 0 -153 43 -153 91c0 46 30 75 74 75s76 -31 76 -72c0 -34 -5 -48 -30 -67c9 -3 13 -7 26 -7c48 0 70 40 70 117v487h-171v-377c0 -24 16 -32 93 -35v-12z" />
    <glyph glyph-name="f_k" unicode="fk" horiz-adv-x="929" 
d="M430 541c-42 2 -75 27 -75 75c0 24 13 54 32 68c-12 11 -27 19 -50 19c-27 0 -45 -7 -57 -19c-20 -20 -29 -54 -29 -130v-97h179v84zM651 0h-281v12c36 1 60 11 60 35v377h-179v-377c0 -24 23 -34 58 -35v-12h-279v12c57 1 67 11 67 35v375h-87v19l87 18v33
c0 78 15 136 51 173c38 38 95 58 182 58c64 0 109 -10 138 -27l116 27v-512l127 139c49 54 30 82 -31 102v12h231v-12c-70 -18 -122 -53 -186 -117l-17 -17l162 -245c34 -52 44 -56 90 -61v-12h-279v12c42 2 49 12 26 50l-95 155l-28 -30v-140c0 -24 10 -34 67 -35v-12z" />
    <glyph glyph-name="fl" unicode="fl" horiz-adv-x="661" 
d="M430 424h-179v-377c0 -24 23 -34 58 -35v-12h-279v12c57 1 67 11 67 35v375h-87v19l87 18v33c0 78 15 136 51 173c38 38 95 58 182 58c64 0 109 -10 138 -27l116 27v-676c0 -24 10 -34 67 -35v-12h-281v12c36 1 60 11 60 35v377zM430 541c-42 2 -75 27 -75 75
c0 24 13 54 32 68c-12 11 -27 19 -50 19c-27 0 -45 -7 -57 -19c-20 -20 -29 -54 -29 -130v-97h179v84z" />
    <glyph glyph-name="f_f_b" unicode="ffb" horiz-adv-x="1277" 
d="M677 0h-310v12c46 1 63 11 63 35v377h-179v-377c0 -24 23 -34 58 -35v-12h-279v12c57 1 67 11 67 35v375h-87v19l87 18v35c0 79 19 133 55 170c38 39 95 55 180 55c76 0 128 -19 153 -50c38 35 94 54 178 54c64 0 109 -10 138 -27l116 27v-309c39 34 88 58 149 58
c122 0 182 -103 182 -224c0 -150 -86 -256 -225 -256c-54 0 -121 13 -166 42l-75 -56h-21l2 98v348h-179v-377c0 -24 16 -32 93 -35v-12zM997 12c63 0 88 96 88 231c0 105 -33 183 -97 183c-26 0 -43 -9 -71 -28v-324c21 -41 47 -62 80 -62zM763 457v84c-42 2 -75 27 -75 75
c0 24 13 54 32 68c-12 11 -27 19 -50 19c-27 0 -45 -7 -57 -19c-20 -20 -29 -54 -29 -130v-97h179zM430 492c0 17 1 34 2 50h-4c-44 0 -78 29 -78 78c0 28 14 53 29 67c-9 7 -28 12 -48 12s-37 -6 -48 -17c-20 -20 -32 -47 -32 -124v-101h179v35z" />
    <glyph glyph-name="f_f_h" unicode="ffh" horiz-adv-x="1289" 
d="M367 0v12c46 1 63 11 63 35v377h-179v-377c0 -24 23 -34 58 -35v-12h-279v12c57 1 67 11 67 35v375h-87v19l87 18v35c0 79 19 133 55 170c38 39 95 55 180 55c76 0 128 -19 153 -50c38 35 94 54 178 54c64 0 109 -10 138 -27l116 27v-352c42 59 109 98 173 98
c89 0 128 -53 128 -149v-273c0 -24 10 -34 68 -35v-12h-272v12c35 1 50 11 50 35v272c0 52 -22 83 -67 83c-31 0 -55 -20 -80 -51v-304c0 -24 10 -34 67 -35v-12h-281v12c36 1 60 11 60 35v377h-179v-377c0 -24 23 -34 58 -35v-12h-275zM763 457v84c-42 2 -75 27 -75 75
c0 24 13 54 32 68c-12 11 -27 19 -50 19c-27 0 -45 -7 -57 -19c-20 -20 -29 -54 -29 -130v-97h179zM430 492c0 17 1 34 2 50h-4c-44 0 -78 29 -78 78c0 28 14 53 29 67c-9 7 -28 12 -48 12s-37 -6 -48 -17c-20 -20 -32 -47 -32 -124v-101h179v35z" />
    <glyph glyph-name="f_f_i" unicode="ffi" horiz-adv-x="990" 
d="M367 0v12c46 1 63 11 63 35v377h-179v-377c0 -24 23 -34 58 -35v-12h-279v12c57 1 67 11 67 35v375h-87v19l87 18v35c0 79 19 133 55 170c38 39 95 55 180 55c78 0 131 -20 155 -53c39 35 96 57 188 57c154 0 215 -47 215 -115c0 -47 -31 -82 -80 -82
c-46 0 -84 26 -84 75c0 27 13 54 40 70c-16 18 -40 32 -77 32c-35 0 -60 -8 -74 -22c-23 -23 -31 -53 -31 -129v-95h140l185 9v-419c0 -24 9 -34 67 -35v-12h-281v12c36 1 60 11 60 35v377h-171v-377c0 -24 23 -34 58 -35v-12h-275zM430 486c0 20 1 39 3 56h-5
c-44 0 -78 29 -78 78c0 28 14 53 29 67c-9 7 -28 12 -48 12s-37 -6 -48 -17c-20 -20 -32 -47 -32 -124v-101h179v29z" />
    <glyph glyph-name="f_f_j" unicode="ffj" horiz-adv-x="986" 
d="M677 0h-310v12c46 1 63 11 63 35v377h-179v-377c0 -24 23 -34 58 -35v-12h-279v12c57 1 67 11 67 35v375h-87v19l87 18v35c0 79 19 133 55 170c38 39 95 55 180 55c78 0 131 -20 155 -53c39 35 96 57 188 57c154 0 215 -47 215 -115c0 -47 -31 -82 -80 -82
c-46 0 -84 26 -84 75c0 27 13 54 40 70c-16 18 -40 32 -77 32c-35 0 -60 -8 -74 -22c-23 -23 -31 -53 -31 -129v-95h138l185 9v-441c0 -96 -17 -135 -58 -176c-28 -28 -94 -49 -157 -49c-104 0 -153 43 -153 91c0 46 30 75 74 75s76 -31 76 -72c0 -34 -5 -48 -30 -67
c9 -3 13 -7 26 -7c48 0 70 40 70 117v487h-171v-377c0 -24 16 -32 93 -35v-12zM430 486c0 20 1 39 3 56h-5c-44 0 -78 29 -78 78c0 28 14 53 29 67c-9 7 -28 12 -48 12s-37 -6 -48 -17c-20 -20 -32 -47 -32 -124v-101h179v29z" />
    <glyph glyph-name="f_f_k" unicode="ffk" horiz-adv-x="1262" 
d="M367 0v12c46 1 63 11 63 35v377h-179v-377c0 -24 23 -34 58 -35v-12h-279v12c57 1 67 11 67 35v375h-87v19l87 18v35c0 79 19 133 55 170c38 39 95 55 180 55c76 0 128 -19 153 -50c38 35 94 54 178 54c64 0 109 -10 138 -27l116 27v-512l127 139c49 54 30 82 -31 102v12
h231v-12c-70 -18 -122 -53 -186 -117l-17 -17l162 -245c34 -52 44 -56 90 -61v-12h-279v12c42 2 49 12 26 50l-95 155l-28 -30v-140c0 -24 10 -34 67 -35v-12h-281v12c36 1 60 11 60 35v377h-179v-377c0 -24 23 -34 58 -35v-12h-275zM763 457v84c-42 2 -75 27 -75 75
c0 24 13 54 32 68c-12 11 -27 19 -50 19c-27 0 -45 -7 -57 -19c-20 -20 -29 -54 -29 -130v-97h179zM430 492c0 17 1 34 2 50h-4c-44 0 -78 29 -78 78c0 28 14 53 29 67c-9 7 -28 12 -48 12s-37 -6 -48 -17c-20 -20 -32 -47 -32 -124v-101h179v35z" />
    <glyph glyph-name="f_f_l" unicode="ffl" horiz-adv-x="994" 
d="M367 0v12c46 1 63 11 63 35v377h-179v-377c0 -24 23 -34 58 -35v-12h-279v12c57 1 67 11 67 35v375h-87v19l87 18v35c0 79 19 133 55 170c38 39 95 55 180 55c76 0 128 -19 153 -50c38 35 94 54 178 54c64 0 109 -10 138 -27l116 27v-676c0 -24 10 -34 67 -35v-12h-281
v12c36 1 60 11 60 35v377h-179v-377c0 -24 23 -34 58 -35v-12h-275zM763 457v84c-42 2 -75 27 -75 75c0 24 13 54 32 68c-12 11 -27 19 -50 19c-27 0 -45 -7 -57 -19c-20 -20 -29 -54 -29 -130v-97h179zM430 492c0 17 1 34 2 50h-4c-44 0 -78 29 -78 78c0 28 14 53 29 67
c-9 7 -28 12 -48 12s-37 -6 -48 -17c-20 -20 -32 -47 -32 -124v-101h179v35z" />
    <glyph glyph-name=".notdef" horiz-adv-x="500" 
d="M0 -200v1000h500v-1000h-500zM71 750l179 -390l179 390h-358zM50 -76l172 376l-172 376v-752zM450 676l-172 -376l172 -376v752zM250 240l-179 -390h358z" />
    <glyph glyph-name="A" unicode="A" horiz-adv-x="722" 
d="M456 89l-62 175h-225l-36 -96c-38 -101 -21 -141 72 -154v-14h-238v14c66 17 106 64 144 163l204 534h88l228 -620c19 -51 34 -65 108 -77v-14h-381v14c96 5 116 25 98 75zM176 284h211l-101 283h-5z" />
    <glyph glyph-name="B" unicode="B" horiz-adv-x="726" 
d="M29 0v14c81 3 100 16 100 51v567c0 35 -19 49 -100 52v13h352c224 0 277 -87 277 -166c0 -76 -59 -144 -220 -161v-4c166 -4 244 -77 244 -172c0 -100 -67 -194 -292 -194h-361zM297 374h60c109 0 133 62 133 154c0 85 -22 152 -136 152h-57v-306zM297 18h72
c129 0 142 74 142 177c0 86 -31 162 -153 162h-61v-339z" />
    <glyph glyph-name="C" unicode="C" horiz-adv-x="727" 
d="M386 -17c-219 0 -348 132 -348 352c0 238 175 379 379 379c74 0 140 -21 187 -47l47 52h12v-273h-16c-71 153 -131 249 -247 249c-110 0 -179 -124 -179 -336c0 -219 94 -334 222 -334c103 0 173 45 224 157l19 -9c-43 -98 -126 -190 -300 -190z" />
    <glyph glyph-name="D" unicode="D" horiz-adv-x="789" 
d="M29 0v14c81 3 100 16 100 51v567c0 35 -19 49 -100 52v13h339c257 0 381 -137 381 -335c0 -190 -100 -362 -363 -362h-357zM297 18h58c155 0 214 77 214 332s-75 330 -220 330h-52v-662z" />
    <glyph glyph-name="E" unicode="E" horiz-adv-x="729" 
d="M29 0v14c81 3 100 16 100 51v567c0 35 -19 49 -100 52v13h611l3 -247l-16 -2c-79 166 -112 232 -238 232h-92v-310h33c79 0 127 37 154 135h13v-289h-13c-27 99 -75 137 -154 137h-33v-335h85c149 0 190 60 271 245l16 -2l-5 -261h-635z" />
    <glyph glyph-name="F" unicode="F" horiz-adv-x="680" 
d="M29 0v14c81 3 100 16 100 51v567c0 35 -19 49 -100 52v13h610l6 -250l-16 -2c-79 166 -119 235 -246 235h-86v-321h33c79 0 125 36 152 134h13v-288h-13c-27 99 -73 136 -152 136h-33v-276c0 -37 12 -50 104 -53v-12h-372z" />
    <glyph glyph-name="G" unicode="G" horiz-adv-x="764" 
d="M399 -17c-211 0 -359 135 -359 364c0 222 163 367 375 367c81 0 142 -21 188 -47l52 52h12v-253h-16c-71 143 -135 229 -242 229c-103 0 -186 -111 -186 -346s84 -347 193 -347c42 0 78 9 105 30v227c0 35 -23 52 -106 55v13h339v-13c-55 -3 -74 -13 -74 -54v-205
c-62 -36 -159 -72 -281 -72z" />
    <glyph glyph-name="H" unicode="H" horiz-adv-x="854" 
d="M29 0v14c81 3 100 15 100 51v567c0 36 -19 49 -100 52v13h361v-13c-63 -3 -93 -14 -93 -52v-260h260v260c0 38 -31 49 -93 52v13h361v-13c-82 -3 -100 -16 -100 -52v-567c0 -36 18 -48 100 -51v-14h-361v14c62 3 93 13 93 51v287h-260v-287c0 -38 30 -48 93 -51v-14h-361
z" />
    <glyph glyph-name="I" unicode="I" horiz-adv-x="447" 
d="M37 0v14c83 3 103 16 103 51v567c0 35 -20 49 -103 52v13h373v-13c-83 -3 -103 -17 -103 -52v-567c0 -35 20 -48 103 -51v-14h-373z" />
    <glyph glyph-name="J" unicode="J" horiz-adv-x="599" 
d="M244 -17c-159 0 -228 70 -228 156c0 62 43 107 97 107s97 -40 97 -94c0 -57 -40 -100 -107 -102c18 -22 56 -43 101 -43c85 0 118 66 118 213v412c0 37 -30 49 -102 52v13h365v-13c-75 -3 -95 -17 -95 -52v-394c0 -175 -85 -255 -246 -255z" />
    <glyph glyph-name="K" unicode="K" horiz-adv-x="766" 
d="M287 311l215 237c61 67 75 125 -19 136v13h271v-13c-86 -19 -161 -71 -261 -179l-48 -52l227 -331c47 -68 68 -101 129 -108v-14h-348v14c70 6 76 27 38 84l-157 235l-47 -51v-217c0 -38 30 -48 93 -51v-14h-361v14c81 3 100 15 100 51v567c0 36 -19 49 -100 52v13h361
v-13c-63 -3 -93 -14 -93 -52v-321z" />
    <glyph glyph-name="L" unicode="L" horiz-adv-x="678" 
d="M19 0v14c81 3 100 16 100 51v567c0 35 -19 49 -100 52v13h367v-13c-83 -3 -99 -16 -99 -52v-614h45c150 0 197 56 289 254l16 -1l-9 -271h-609z" />
    <glyph glyph-name="M" unicode="M" horiz-adv-x="1014" 
d="M28 0v14c94 11 124 56 124 158v406c0 60 -38 104 -124 106v13h305l198 -494h5l177 494h272v-13c-81 -3 -100 -17 -100 -52v-567c0 -35 19 -48 100 -51v-14h-359v14c62 3 93 14 93 51v562h-5l-226 -627h-46l-259 627h-6v-455c0 -102 34 -146 133 -158v-14h-282z" />
    <glyph glyph-name="N" unicode="N" horiz-adv-x="819" 
d="M625 -9l-447 569h-1v-388c0 -102 37 -148 139 -158v-14h-288v14c94 11 124 56 124 158v394c0 62 -38 112 -124 118v13h254l376 -481h1v310c0 100 -40 147 -141 158v13h290v-13c-94 -13 -124 -58 -124 -158v-535h-59z" />
    <glyph glyph-name="O" unicode="O" 
d="M391 -17c-209 0 -351 139 -351 364c0 223 147 367 351 367c210 0 352 -139 352 -363c0 -225 -147 -368 -352 -368zM396 2c116 0 164 107 164 347c0 239 -57 346 -173 346s-164 -107 -164 -346c0 -240 56 -347 173 -347z" />
    <glyph glyph-name="P" unicode="P" horiz-adv-x="697" 
d="M29 0v14c81 3 100 16 100 51v567c0 35 -19 49 -100 52v13h323c239 0 312 -80 312 -199c0 -112 -79 -201 -314 -201h-53v-232c0 -37 12 -50 106 -53v-12h-374zM297 314h42c120 0 153 59 153 184c0 110 -36 182 -149 182h-46v-366z" />
    <glyph glyph-name="Q" unicode="Q" 
d="M396 7c116 0 164 104 164 344c0 239 -57 344 -173 344s-164 -105 -164 -344c0 -240 56 -344 173 -344zM442 -9c104 -38 162 -170 232 -170c21 0 30 11 30 27c0 30 -66 52 -66 102c0 38 28 71 71 71c45 0 75 -38 75 -84c0 -88 -94 -162 -210 -162
c-138 0 -181 146 -275 146c-53 0 -88 -23 -139 -74l-11 11c50 64 111 115 178 135c-173 25 -287 155 -287 356c0 223 147 365 351 365c210 0 352 -137 352 -361c0 -206 -123 -341 -301 -362z" />
    <glyph glyph-name="R" unicode="R" horiz-adv-x="750" 
d="M297 362h57c117 0 144 35 144 155c0 103 -36 163 -153 163h-48v-318zM297 346v-281c0 -37 31 -48 94 -51v-14h-362v14c81 3 100 16 100 51v567c0 35 -19 49 -100 52v13h361c210 0 280 -79 280 -169c0 -85 -53 -147 -212 -170v-3c147 -3 189 -68 200 -156l7 -93
c10 -76 23 -88 103 -91v-13c-40 -5 -75 -6 -107 -6c-140 0 -161 39 -168 125l-7 84c-9 102 -36 141 -147 141h-42z" />
    <glyph glyph-name="S" unicode="S" horiz-adv-x="595" 
d="M49 -17v257h16c72 -145 162 -234 255 -234c84 0 130 55 130 119c0 74 -59 116 -176 154c-110 36 -218 80 -218 209c0 133 98 222 243 222c59 0 116 -19 156 -42l48 48h12v-230h-16c-74 142 -139 205 -214 205c-60 0 -119 -39 -119 -111c0 -73 61 -112 180 -149
c95 -30 202 -75 202 -205c0 -122 -74 -239 -245 -239c-57 0 -134 19 -185 48l-57 -52h-12z" />
    <glyph glyph-name="T" unicode="T" horiz-adv-x="745" 
d="M175 0v14c88 2 114 16 114 51v615h-15c-77 0 -135 -80 -211 -224l-16 2l6 239h640l5 -239l-16 -2c-76 144 -134 224 -211 224h-14v-615c0 -35 25 -49 114 -51v-14h-396z" />
    <glyph glyph-name="U" unicode="U" horiz-adv-x="821" 
d="M418 -17c-192 0 -297 74 -297 249v400c0 35 -20 49 -100 52v13h360v-13c-62 -3 -92 -15 -92 -52v-420c0 -140 69 -194 182 -194c47 0 95 15 124 44c35 35 57 88 57 169v295c0 100 -39 147 -140 158v13h292v-13c-94 -13 -125 -58 -125 -158v-295
c0 -155 -76 -248 -261 -248z" />
    <glyph glyph-name="V" unicode="V" horiz-adv-x="724" 
d="M338 -10l-237 597c-26 65 -45 87 -117 97v13h379v-13c-95 -4 -112 -27 -91 -82l171 -438h6l147 391c29 78 11 114 -80 129v13h239v-13c-73 -15 -101 -46 -146 -163l-205 -531h-66z" />
    <glyph glyph-name="W" unicode="W" horiz-adv-x="1057" 
d="M530 502l-30 85c-22 65 -41 94 -102 97v13h348v-13c-80 -4 -98 -27 -79 -82l137 -414h6l114 367c25 78 5 114 -72 129v13h229v-13c-77 -15 -103 -46 -142 -163l-167 -531h-64l-167 481l-166 -481h-66l-204 597c-22 65 -40 87 -111 97v13h349v-13c-75 -4 -88 -27 -70 -82
l137 -416h6z" />
    <glyph glyph-name="X" unicode="X" horiz-adv-x="730" 
d="M415 416l104 140c51 69 45 119 -42 128v13h253v-13c-79 -12 -128 -58 -207 -162l-93 -123l198 -303c32 -48 48 -72 132 -82v-14h-375v14c79 4 99 24 64 80l-127 205l-114 -158c-53 -73 -43 -119 39 -127v-14h-257v14c88 11 129 46 214 161l104 141l-184 282
c-38 58 -54 74 -132 86v13h370v-13c-79 -4 -95 -28 -62 -81z" />
    <glyph glyph-name="Y" unicode="Y" horiz-adv-x="701" 
d="M421 325l128 231c43 77 29 107 -49 128v13h231v-13c-67 -12 -110 -46 -175 -162l-121 -217v-240c0 -35 20 -48 103 -51v-14h-373v14c83 3 103 16 103 51v219l-174 318c-30 52 -54 69 -114 82v13h375v-13c-99 -6 -108 -33 -78 -86z" />
    <glyph glyph-name="Z" unicode="Z" horiz-adv-x="679" 
d="M29 0l-1 14l428 663h-158c-77 0 -139 -71 -227 -229l-16 2l12 247h578l1 -14l-428 -663h183c77 0 139 85 227 243l16 -2l-9 -261h-606z" />
    <glyph glyph-name="a" unicode="a" horiz-adv-x="527" 
d="M171 -5c-100 0 -144 64 -144 123c0 39 23 83 65 106c70 38 182 28 223 39v90c0 68 -20 96 -69 96c-26 0 -50 -7 -67 -18c19 -17 28 -36 28 -60c0 -46 -26 -74 -76 -74c-42 0 -76 32 -76 73c0 61 63 99 217 99c131 0 196 -48 196 -165v-215c0 -49 20 -60 72 -37l6 -11
c-38 -27 -71 -45 -114 -45c-68 0 -97 26 -108 76h-4c-35 -40 -81 -77 -149 -77zM253 57c24 0 49 15 62 36v150c-100 -11 -126 -36 -126 -110c0 -47 25 -76 64 -76z" />
    <glyph glyph-name="b" unicode="b" horiz-adv-x="577" 
d="M61 -22l2 98v568c0 30 -9 48 -71 49v12l225 12v-303c39 34 88 58 149 58c122 0 182 -103 182 -224c0 -150 -86 -256 -225 -256c-54 0 -121 13 -166 42l-75 -56h-21zM297 12c63 0 88 96 88 231c0 105 -33 183 -97 183c-26 0 -43 -9 -71 -28v-324c21 -41 47 -62 80 -62z
" />
    <glyph glyph-name="c" unicode="c" horiz-adv-x="496" 
d="M272 -8c-153 0 -246 85 -246 233c0 157 108 247 255 247c143 0 195 -62 195 -114c0 -48 -28 -81 -78 -81c-56 0 -83 36 -83 76c0 33 20 58 39 67c-9 17 -32 34 -68 34c-62 0 -97 -88 -97 -219c0 -102 39 -201 136 -201c51 0 109 30 146 81l11 -7
c-47 -73 -112 -116 -210 -116z" />
    <glyph glyph-name="d" unicode="d" horiz-adv-x="579" 
d="M228 -8c-127 0 -202 94 -202 230c0 131 81 250 236 250c40 0 65 -6 94 -16v188c0 30 -10 48 -71 49v12l225 12v-659c0 -28 12 -50 68 -50v-8l-220 -4v60c-31 -38 -73 -64 -130 -64zM296 47c28 0 42 8 60 23v336c-14 25 -43 46 -79 46c-56 0 -89 -88 -89 -214
c0 -102 35 -191 108 -191z" />
    <glyph glyph-name="e" unicode="e" horiz-adv-x="509" 
d="M272 -8c-146 0 -246 81 -246 233c0 157 109 247 245 247c143 0 220 -93 213 -231h-296v-14v-2c0 -126 51 -190 147 -190c59 0 99 29 136 80l11 -7c-47 -73 -112 -116 -210 -116zM265 452c-52 0 -73 -73 -77 -191h142c13 116 -10 191 -65 191z" />
    <glyph glyph-name="f" unicode="f" horiz-adv-x="377" 
d="M30 0v12c57 1 67 11 67 35v375h-87v19l87 18v40c0 77 16 134 52 171c37 38 93 53 170 53c110 0 161 -39 161 -94c0 -45 -24 -76 -74 -76c-44 0 -78 24 -78 76c0 22 14 54 26 67c-9 4 -22 7 -35 7c-19 0 -30 -4 -41 -15c-17 -17 -27 -55 -27 -132v-99h124v-33h-124v-377
c0 -24 16 -32 93 -35v-12h-314z" />
    <glyph glyph-name="g" unicode="g" horiz-adv-x="487" 
d="M253 -182c85 0 143 35 143 97c0 36 -25 58 -107 58h-146c-25 -19 -37 -38 -37 -66c0 -64 51 -89 147 -89zM251 176c49 0 60 41 60 138c0 87 -17 137 -69 137c-50 0 -60 -40 -60 -137s18 -138 69 -138zM247 469c34 0 66 -5 94 -14c23 54 64 98 118 98c42 0 64 -25 64 -59
c0 -28 -18 -53 -53 -53c-26 0 -55 23 -55 60c-20 -9 -42 -29 -56 -53c59 -24 98 -68 98 -132c0 -97 -88 -158 -210 -158c-23 0 -44 2 -64 5c-40 -11 -54 -24 -54 -44s24 -30 83 -30h117c109 0 165 -40 165 -120c0 -91 -107 -169 -267 -169c-124 0 -217 37 -217 95
c0 42 29 67 109 79v2c-60 20 -84 63 -84 100c0 33 40 78 117 94c-70 22 -116 68 -116 142c0 96 88 157 211 157z" />
    <glyph glyph-name="h" unicode="h" horiz-adv-x="606" 
d="M13 0v12c56 1 67 11 67 35v597c0 30 -10 48 -71 49v12l225 12v-346c42 59 109 98 173 98c89 0 128 -53 128 -149v-273c0 -24 10 -34 68 -35v-12h-272v12c35 1 50 11 50 35v272c0 52 -22 83 -67 83c-31 0 -55 -20 -80 -51v-304c0 -24 15 -34 50 -35v-12h-271z" />
    <glyph glyph-name="i" unicode="i" horiz-adv-x="325" 
d="M168 534c-53 0 -89 31 -89 86s36 91 89 91c54 0 89 -34 89 -87c0 -55 -35 -90 -89 -90zM21 0v12c57 1 72 11 72 35v346c0 30 -15 48 -72 49v12l226 12v-419c0 -24 9 -34 67 -35v-12h-293z" />
    <glyph glyph-name="j" unicode="j" horiz-adv-x="321" 
d="M168 534c-53 0 -89 31 -89 86s36 91 89 91c54 0 89 -34 89 -87c0 -55 -35 -90 -89 -90zM32 -200c-104 0 -153 43 -153 91c0 46 30 75 74 75s76 -31 76 -72c0 -34 -5 -48 -30 -67c9 -3 13 -7 26 -7c48 0 70 40 70 117v456c0 33 -17 47 -81 49v12l233 12v-441
c0 -96 -17 -135 -58 -176c-28 -28 -94 -49 -157 -49z" />
    <glyph glyph-name="k" unicode="k" horiz-adv-x="579" 
d="M234 187v-140c0 -24 15 -34 50 -35v-12h-271v12c56 1 67 11 67 35v597c0 30 -10 48 -71 49v12l225 12v-506l127 139c49 54 30 82 -31 102v12h231v-12c-70 -18 -122 -53 -186 -117l-17 -17l162 -245c34 -52 44 -56 90 -61v-12h-279v12c42 2 49 12 26 50l-95 155z" />
    <glyph glyph-name="l" unicode="l" horiz-adv-x="311" 
d="M13 0v12c56 1 67 11 67 35v597c0 30 -10 48 -71 49v12l225 12v-670c0 -24 10 -34 67 -35v-12h-288z" />
    <glyph glyph-name="m" unicode="m" horiz-adv-x="897" 
d="M335 0v12c36 1 45 11 45 35v272c0 52 -21 83 -67 83c-30 0 -46 -20 -71 -51v-304c0 -24 9 -34 44 -35v-12h-266v12c57 1 68 11 68 35v346c0 30 -11 48 -68 49v12l220 12v-95c42 59 100 98 165 98c73 0 114 -37 125 -104c40 59 105 104 167 104c89 0 130 -53 130 -149
v-273c0 -24 10 -34 67 -35v-12h-266v12c35 1 45 11 45 35v272c0 52 -17 83 -63 83c-20 0 -50 -21 -77 -57c1 -12 1 -18 1 -25v-273c0 -24 10 -34 44 -35v-12h-243z" />
    <glyph glyph-name="n" unicode="n" horiz-adv-x="610" 
d="M20 0v12c57 1 68 11 68 35v346c0 30 -11 48 -68 49v12l220 12v-95c42 59 109 98 173 98c89 0 127 -53 127 -149v-273c0 -24 10 -34 67 -35v-12h-272v12c35 1 51 11 51 35v272c0 52 -19 83 -64 83c-31 0 -55 -20 -80 -51v-304c0 -24 15 -34 49 -35v-12h-271z" />
    <glyph glyph-name="o" unicode="o" horiz-adv-x="549" 
d="M275 -8c-159 0 -249 89 -249 239c0 149 96 241 249 241c157 0 248 -88 248 -237c0 -150 -96 -243 -248 -243zM279 12c66 0 81 86 81 221s-22 219 -90 219c-67 0 -81 -84 -81 -219s22 -221 90 -221z" />
    <glyph glyph-name="p" unicode="p" horiz-adv-x="582" 
d="M5 -189v12c57 1 67 11 67 35v535c0 30 -11 48 -68 49v12l220 12v-59c45 38 89 65 146 65c119 0 186 -93 186 -236c0 -133 -76 -244 -214 -244c-47 0 -83 7 -116 21v-155c0 -24 16 -32 93 -35v-12h-314zM311 12c51 0 83 69 83 218c0 104 -24 190 -95 190
c-21 0 -45 -8 -73 -27v-323c22 -44 52 -58 85 -58z" />
    <glyph glyph-name="q" unicode="q" horiz-adv-x="577" 
d="M267 -189v12c77 3 93 11 93 35v192c-39 -34 -88 -58 -149 -58c-122 0 -182 104 -182 224c0 148 86 256 225 256c54 0 121 -13 166 -42l75 56h21l-2 -98v-530c0 -24 10 -34 67 -35v-12h-314zM289 38c26 0 43 9 71 28v324c-21 41 -47 62 -80 62c-63 0 -88 -98 -88 -231
c0 -104 33 -183 97 -183z" />
    <glyph glyph-name="r" unicode="r" horiz-adv-x="476" 
d="M20 0v12c57 1 68 11 68 35v346c0 30 -11 48 -68 49v12l220 12v-94c31 61 85 97 140 97c62 0 96 -38 96 -90s-33 -88 -79 -88c-54 0 -85 38 -85 78c0 15 4 32 8 45c-24 -2 -58 -28 -78 -62v-305c0 -24 15 -32 92 -35v-12h-314z" />
    <glyph glyph-name="s" unicode="s" horiz-adv-x="452" 
d="M34 -8v176h15c65 -102 123 -156 194 -156c47 0 74 25 74 68c0 44 -25 62 -132 94s-151 64 -151 140c0 97 75 158 190 158c57 0 103 -15 136 -37l30 37h12v-158h-15c-58 89 -98 138 -163 138c-43 0 -70 -28 -70 -73c0 -41 44 -59 107 -74c110 -26 172 -64 172 -150
c0 -94 -83 -163 -200 -163c-37 0 -131 23 -157 39l-30 -39h-12z" />
    <glyph glyph-name="t" unicode="t" horiz-adv-x="393" 
d="M242 -8c-82 0 -151 36 -151 145v285h-87v19l89 18v127l152 42v-171h141v-33h-141v-296c0 -56 14 -83 59 -83c32 0 54 19 73 64l13 -6c-27 -75 -67 -111 -148 -111z" />
    <glyph glyph-name="u" unicode="u" horiz-adv-x="601" 
d="M218 -8c-88 0 -142 50 -142 151v258c0 30 -11 48 -68 49v12l222 4v-319c0 -54 21 -85 66 -85c31 0 52 15 76 47v292c0 30 -14 46 -68 48v12l222 5v-415c0 -30 13 -36 68 -39v-12h-220v89c-39 -63 -94 -97 -156 -97z" />
    <glyph glyph-name="v" unicode="v" horiz-adv-x="532" 
d="M217 -6l-154 397c-17 44 -34 52 -80 61v12h291v-12c-41 -5 -58 -10 -58 -30c0 -5 1 -11 4 -19l105 -292h4l95 247c6 15 9 29 9 38c0 31 -24 48 -77 56v12h201v-12c-44 -5 -78 -25 -96 -70l-155 -388h-89z" />
    <glyph glyph-name="w" unicode="w" horiz-adv-x="812" 
d="M406 322l-24 69c-16 45 -33 52 -73 61v12h281v-12c-39 -5 -56 -11 -56 -31c0 -5 1 -11 3 -18l89 -286h4l73 231c8 26 10 43 10 50c0 31 -20 46 -69 54v12h196v-12c-44 -5 -84 -26 -99 -70l-129 -388h-94l-102 298l-112 -298h-92l-149 397c-17 44 -34 52 -80 61v12h286
v-12c-37 -5 -54 -11 -54 -30c0 -5 2 -13 4 -19l101 -289h4z" />
    <glyph glyph-name="x" unicode="x" horiz-adv-x="526" 
d="M310 285l64 80c47 58 32 75 -36 87v12h193v-12c-53 -10 -81 -32 -122 -80l-85 -101l133 -190c30 -42 44 -58 93 -69v-12h-283v12c58 5 59 20 39 52l-85 130l-82 -101c-46 -56 -25 -71 44 -81v-12h-198v12c53 10 80 27 117 71l105 125l-127 179c-34 48 -44 59 -91 65v12
h283v-12c-47 -6 -61 -18 -41 -49z" />
    <glyph glyph-name="y" unicode="y" horiz-adv-x="516" 
d="M264 -25l-201 416c-22 45 -34 53 -83 61v12h294v-12c-53 -6 -67 -16 -52 -49l114 -258l84 213c24 60 6 83 -66 94v12h201v-12c-44 -5 -77 -23 -97 -70l-182 -436c-46 -111 -103 -146 -161 -146c-64 0 -101 30 -101 83c0 35 26 72 72 72c38 0 69 -30 69 -71
c0 -29 -14 -50 -27 -62c52 4 92 42 130 139z" />
    <glyph glyph-name="z" unicode="z" horiz-adv-x="501" 
d="M25 0l-2 16l297 428h-85c-58 0 -100 -28 -174 -163l-17 2l11 181h426l2 -16l-298 -428h94c65 0 98 38 177 173l17 -2l-11 -191h-437z" />
    <glyph glyph-name="Aacute" unicode="&#xc1;" horiz-adv-x="722" 
d="M456 89l-62 175h-225l-36 -96c-38 -101 -21 -141 72 -154v-14h-238v14c66 17 106 64 144 163l204 534h88l228 -620c19 -51 34 -65 108 -77v-14h-381v14c96 5 116 25 98 75zM176 284h211l-101 283h-5zM322 764l26 124c18 88 31 116 72 116c36 0 67 -25 67 -58
c0 -24 -16 -42 -70 -100l-76 -82h-19z" />
    <glyph glyph-name="aacute" unicode="&#xe1;" horiz-adv-x="527" 
d="M171 -5c-100 0 -144 64 -144 123c0 39 23 83 65 106c70 38 182 28 223 39v90c0 68 -20 96 -69 96c-26 0 -50 -7 -67 -18c19 -17 28 -36 28 -60c0 -46 -26 -74 -76 -74c-42 0 -76 32 -76 73c0 61 63 99 217 99c131 0 196 -48 196 -165v-215c0 -49 20 -60 72 -37l6 -11
c-38 -27 -71 -45 -114 -45c-68 0 -97 26 -108 76h-4c-35 -40 -81 -77 -149 -77zM253 57c24 0 49 15 62 36v150c-100 -11 -126 -36 -126 -110c0 -47 25 -76 64 -76zM244 524l26 124c18 88 31 116 72 116c36 0 67 -25 67 -58c0 -24 -16 -42 -70 -100l-76 -82h-19z" />
    <glyph glyph-name="Abreve" unicode="&#x102;" horiz-adv-x="722" 
d="M456 89l-62 175h-225l-36 -96c-38 -101 -21 -141 72 -154v-14h-238v14c66 17 106 64 144 163l204 534h88l228 -620c19 -51 34 -65 108 -77v-14h-381v14c96 5 116 25 98 75zM176 284h211l-101 283h-5zM359 769c-76 0 -136 57 -144 172h15c19 -57 73 -84 127 -84
c58 0 111 29 129 84h15c-7 -115 -66 -172 -142 -172z" />
    <glyph glyph-name="abreve" unicode="&#x103;" horiz-adv-x="527" 
d="M171 -5c-100 0 -144 64 -144 123c0 39 23 83 65 106c70 38 182 28 223 39v90c0 68 -20 96 -69 96c-26 0 -50 -7 -67 -18c19 -17 28 -36 28 -60c0 -46 -26 -74 -76 -74c-42 0 -76 32 -76 73c0 61 63 99 217 99c131 0 196 -48 196 -165v-215c0 -49 20 -60 72 -37l6 -11
c-38 -27 -71 -45 -114 -45c-68 0 -97 26 -108 76h-4c-35 -40 -81 -77 -149 -77zM253 57c24 0 49 15 62 36v150c-100 -11 -126 -36 -126 -110c0 -47 25 -76 64 -76zM264 529c-76 0 -136 57 -144 172h15c19 -57 73 -84 127 -84c58 0 111 29 129 84h15
c-7 -115 -66 -172 -142 -172z" />
    <glyph glyph-name="Acircumflex" unicode="&#xc2;" horiz-adv-x="722" 
d="M456 89l-62 175h-225l-36 -96c-38 -101 -21 -141 72 -154v-14h-238v14c66 17 106 64 144 163l204 534h88l228 -620c19 -51 34 -65 108 -77v-14h-381v14c96 5 116 25 98 75zM176 284h211l-101 283h-5zM201 754l149 213h13l141 -213h-16l-135 86l-136 -86h-16z" />
    <glyph glyph-name="acircumflex" unicode="&#xe2;" horiz-adv-x="527" 
d="M171 -5c-100 0 -144 64 -144 123c0 39 23 83 65 106c70 38 182 28 223 39v90c0 68 -20 96 -69 96c-26 0 -50 -7 -67 -18c19 -17 28 -36 28 -60c0 -46 -26 -74 -76 -74c-42 0 -76 32 -76 73c0 61 63 99 217 99c131 0 196 -48 196 -165v-215c0 -49 20 -60 72 -37l6 -11
c-38 -27 -71 -45 -114 -45c-68 0 -97 26 -108 76h-4c-35 -40 -81 -77 -149 -77zM253 57c24 0 49 15 62 36v150c-100 -11 -126 -36 -126 -110c0 -47 25 -76 64 -76zM122 524l149 213h13l141 -213h-16l-135 86l-136 -86h-16z" />
    <glyph glyph-name="Adieresis" unicode="&#xc4;" horiz-adv-x="722" 
d="M456 89l-62 175h-225l-36 -96c-38 -101 -21 -141 72 -154v-14h-238v14c66 17 106 64 144 163l204 534h88l228 -620c19 -51 34 -65 108 -77v-14h-381v14c96 5 116 25 98 75zM176 284h211l-101 283h-5zM464 769c-48 0 -82 36 -82 82c0 47 34 84 82 84s82 -37 82 -84
c0 -46 -34 -82 -82 -82zM247 769c-48 0 -82 36 -82 82c0 47 34 84 82 84s82 -37 82 -84c0 -46 -34 -82 -82 -82z" />
    <glyph glyph-name="adieresis" unicode="&#xe4;" horiz-adv-x="527" 
d="M171 -5c-100 0 -144 64 -144 123c0 39 23 83 65 106c70 38 182 28 223 39v90c0 68 -20 96 -69 96c-26 0 -50 -7 -67 -18c19 -17 28 -36 28 -60c0 -46 -26 -74 -76 -74c-42 0 -76 32 -76 73c0 61 63 99 217 99c131 0 196 -48 196 -165v-215c0 -49 20 -60 72 -37l6 -11
c-38 -27 -71 -45 -114 -45c-68 0 -97 26 -108 76h-4c-35 -40 -81 -77 -149 -77zM253 57c24 0 49 15 62 36v150c-100 -11 -126 -36 -126 -110c0 -47 25 -76 64 -76zM382 529c-48 0 -82 36 -82 82c0 47 34 84 82 84s82 -37 82 -84c0 -46 -34 -82 -82 -82zM165 529
c-48 0 -82 36 -82 82c0 47 34 84 82 84s82 -37 82 -84c0 -46 -34 -82 -82 -82z" />
    <glyph glyph-name="AE" unicode="&#xc6;" horiz-adv-x="1080" 
d="M239 277l-74 -118c-22 -35 -35 -65 -35 -88c0 -29 21 -48 71 -57v-14h-236v14c64 17 129 77 184 163l273 432c9 14 14 25 14 34c0 25 -35 36 -120 41v13h675l3 -247l-16 -2c-79 166 -112 232 -238 232h-92v-310h33c79 0 127 37 154 135h13v-289h-13
c-27 99 -75 137 -154 137h-33v-335h85c149 0 190 60 271 245l16 -2l-5 -261h-635v14c81 3 100 16 100 51v212h-241zM480 297v363h-4l-225 -363h229z" />
    <glyph glyph-name="ae" unicode="&#xe6;" horiz-adv-x="798" 
d="M560 472c143 0 220 -93 213 -231h-296v-14v-2c0 -126 51 -190 147 -190c59 0 99 29 136 80l11 -7c-47 -73 -112 -116 -210 -116c-92 0 -165 37 -207 96h-4c-36 -48 -98 -93 -184 -93c-96 0 -139 64 -139 123c0 39 23 83 65 106c70 38 192 28 233 39v90
c0 68 -30 96 -79 96c-26 0 -50 -7 -67 -18c19 -17 28 -36 28 -60c0 -46 -26 -74 -76 -74c-42 0 -76 32 -76 73c0 61 63 99 217 99c64 0 112 -14 145 -42c40 31 90 45 143 45zM554 452c-52 0 -73 -73 -77 -191h142c13 116 -10 191 -65 191zM253 57c24 0 59 15 72 36v150
c-100 -11 -136 -36 -136 -110c0 -47 25 -76 64 -76z" />
    <glyph glyph-name="AEacute" unicode="&#x1fc;" horiz-adv-x="1080" 
d="M562 764l26 124c18 88 31 116 72 116c36 0 67 -25 67 -58c0 -24 -16 -42 -70 -100l-76 -82h-19zM239 277l-74 -118c-22 -35 -35 -65 -35 -88c0 -29 21 -48 71 -57v-14h-236v14c64 17 129 77 184 163l273 432c9 14 14 25 14 34c0 25 -35 36 -120 41v13h675l3 -247l-16 -2
c-79 166 -112 232 -238 232h-92v-310h33c79 0 127 37 154 135h13v-289h-13c-27 99 -75 137 -154 137h-33v-335h85c149 0 190 60 271 245l16 -2l-5 -261h-635v14c81 3 100 16 100 51v212h-241zM480 297v363h-4l-225 -363h229z" />
    <glyph glyph-name="aeacute" unicode="&#x1fd;" horiz-adv-x="798" 
d="M560 472c143 0 220 -93 213 -231h-296v-14v-2c0 -126 51 -190 147 -190c59 0 99 29 136 80l11 -7c-47 -73 -112 -116 -210 -116c-92 0 -165 37 -207 96h-4c-36 -48 -98 -93 -184 -93c-96 0 -139 64 -139 123c0 39 23 83 65 106c70 38 192 28 233 39v90
c0 68 -30 96 -79 96c-26 0 -50 -7 -67 -18c19 -17 28 -36 28 -60c0 -46 -26 -74 -76 -74c-42 0 -76 32 -76 73c0 61 63 99 217 99c64 0 112 -14 145 -42c40 31 90 45 143 45zM554 452c-52 0 -73 -73 -77 -191h142c13 116 -10 191 -65 191zM253 57c24 0 59 15 72 36v150
c-100 -11 -136 -36 -136 -110c0 -47 25 -76 64 -76zM386 524l26 124c18 88 31 116 72 116c36 0 67 -25 67 -58c0 -24 -16 -42 -70 -100l-76 -82h-19z" />
    <glyph glyph-name="Agrave" unicode="&#xc0;" horiz-adv-x="722" 
d="M456 89l-62 175h-225l-36 -96c-38 -101 -21 -141 72 -154v-14h-238v14c66 17 106 64 144 163l204 534h88l228 -620c19 -51 34 -65 108 -77v-14h-381v14c96 5 116 25 98 75zM176 284h211l-101 283h-5zM411 764l-76 82c-54 58 -70 76 -70 100c0 33 31 58 67 58
c41 0 54 -28 72 -116l26 -124h-19z" />
    <glyph glyph-name="agrave" unicode="&#xe0;" horiz-adv-x="527" 
d="M171 -5c-100 0 -144 64 -144 123c0 39 23 83 65 106c70 38 182 28 223 39v90c0 68 -20 96 -69 96c-26 0 -50 -7 -67 -18c19 -17 28 -36 28 -60c0 -46 -26 -74 -76 -74c-42 0 -76 32 -76 73c0 61 63 99 217 99c131 0 196 -48 196 -165v-215c0 -49 20 -60 72 -37l6 -11
c-38 -27 -71 -45 -114 -45c-68 0 -97 26 -108 76h-4c-35 -40 -81 -77 -149 -77zM253 57c24 0 49 15 62 36v150c-100 -11 -126 -36 -126 -110c0 -47 25 -76 64 -76zM273 524l-76 82c-54 58 -70 76 -70 100c0 33 31 58 67 58c41 0 54 -28 72 -116l26 -124h-19z" />
    <glyph glyph-name="Amacron" unicode="&#x100;" horiz-adv-x="722" 
d="M456 89l-62 175h-225l-36 -96c-38 -101 -21 -141 72 -154v-14h-238v14c66 17 106 64 144 163l204 534h88l228 -620c19 -51 34 -65 108 -77v-14h-381v14c96 5 116 25 98 75zM176 284h211l-101 283h-5zM206 794v51h308v-51h-308z" />
    <glyph glyph-name="amacron" unicode="&#x101;" horiz-adv-x="527" 
d="M171 -5c-100 0 -144 64 -144 123c0 39 23 83 65 106c70 38 182 28 223 39v90c0 68 -20 96 -69 96c-26 0 -50 -7 -67 -18c19 -17 28 -36 28 -60c0 -46 -26 -74 -76 -74c-42 0 -76 32 -76 73c0 61 63 99 217 99c131 0 196 -48 196 -165v-215c0 -49 20 -60 72 -37l6 -11
c-38 -27 -71 -45 -114 -45c-68 0 -97 26 -108 76h-4c-35 -40 -81 -77 -149 -77zM253 57c24 0 49 15 62 36v150c-100 -11 -126 -36 -126 -110c0 -47 25 -76 64 -76zM113 554v51h308v-51h-308z" />
    <glyph glyph-name="Aogonek" unicode="&#x104;" horiz-adv-x="722" 
d="M536 -247c-59 0 -97 30 -97 84c0 62 51 101 109 137l41 26h-231v14c96 5 116 25 98 75l-62 175h-225l-36 -96c-38 -101 -21 -141 72 -154v-14h-238v14c66 17 106 64 144 163l204 534h88l228 -620c19 -51 34 -65 108 -77v-14h-122l-19 -22c-38 -42 -54 -87 -54 -123
c0 -39 18 -65 55 -65c11 0 41 4 68 19l6 -12c-30 -26 -91 -44 -137 -44zM176 284h211l-101 283h-5z" />
    <glyph glyph-name="aogonek" unicode="&#x105;" horiz-adv-x="527" 
d="M546 41c-17 -12 -42 -33 -68 -61c-39 -41 -56 -89 -56 -125c0 -39 18 -65 55 -65c11 0 41 4 68 19l6 -12c-30 -26 -91 -44 -137 -44c-59 0 -97 30 -97 84c0 62 49 102 128 148l29 17c-13 -4 -29 -6 -42 -6c-68 0 -97 26 -108 76h-4c-35 -40 -81 -77 -149 -77
c-100 0 -144 64 -144 123c0 39 23 83 65 106c70 38 182 28 223 39v90c0 68 -20 96 -69 96c-26 0 -50 -7 -67 -18c19 -17 28 -36 28 -60c0 -46 -26 -74 -76 -74c-42 0 -76 32 -76 73c0 61 63 99 217 99c131 0 196 -48 196 -165v-215c0 -49 20 -60 72 -37zM253 57
c24 0 49 15 62 36v150c-100 -11 -126 -36 -126 -110c0 -47 25 -76 64 -76z" />
    <glyph glyph-name="Aring" unicode="&#xc5;" horiz-adv-x="722" 
d="M358 710c34 0 46 35 46 93s-15 93 -50 93c-34 0 -46 -35 -46 -93s16 -93 50 -93zM169 264l-36 -96c-38 -101 -21 -141 72 -154v-14h-238v14c66 17 106 64 144 163l200 523c-55 13 -85 52 -85 104c0 64 50 110 130 110c83 0 130 -45 130 -109c0 -49 -29 -88 -80 -103
l225 -611c19 -51 34 -65 108 -77v-14h-381v14c96 5 116 25 98 75l-62 175h-225zM387 284l-101 283h-5l-105 -283h211z" />
    <glyph glyph-name="aring" unicode="&#xe5;" horiz-adv-x="527" 
d="M171 -5c-100 0 -144 64 -144 123c0 39 23 83 65 106c70 38 182 28 223 39v90c0 68 -20 96 -69 96c-26 0 -50 -7 -67 -18c19 -17 28 -36 28 -60c0 -46 -26 -74 -76 -74c-42 0 -76 32 -76 73c0 61 63 99 217 99c131 0 196 -48 196 -165v-215c0 -49 20 -60 72 -37l6 -11
c-38 -27 -71 -45 -114 -45c-68 0 -97 26 -108 76h-4c-35 -40 -81 -77 -149 -77zM253 57c24 0 49 15 62 36v150c-100 -11 -126 -36 -126 -110c0 -47 25 -76 64 -76zM267 529c-83 0 -130 45 -130 110c0 64 50 110 130 110c83 0 130 -45 130 -109s-49 -111 -130 -111zM269 547
c34 0 46 34 46 92s-15 92 -50 92c-34 0 -46 -34 -46 -92s16 -92 50 -92z" />
    <glyph glyph-name="Aringacute" unicode="&#x1fa;" horiz-adv-x="722" 
d="M299 936l26 124c18 88 31 116 72 116c36 0 67 -25 67 -58c0 -24 -16 -42 -70 -100l-76 -82h-19zM358 710c34 0 46 35 46 93s-15 93 -50 93c-34 0 -46 -35 -46 -93s16 -93 50 -93zM169 264l-36 -96c-38 -101 -21 -141 72 -154v-14h-238v14c66 17 106 64 144 163l200 523
c-55 13 -85 52 -85 104c0 64 50 110 130 110c83 0 130 -45 130 -109c0 -49 -29 -88 -80 -103l225 -611c19 -51 34 -65 108 -77v-14h-381v14c96 5 116 25 98 75l-62 175h-225zM387 284l-101 283h-5l-105 -283h211z" />
    <glyph glyph-name="aringacute" unicode="&#x1fb;" horiz-adv-x="527" 
d="M171 -5c-100 0 -144 64 -144 123c0 39 23 83 65 106c70 38 182 28 223 39v90c0 68 -20 96 -69 96c-26 0 -50 -7 -67 -18c19 -17 28 -36 28 -60c0 -46 -26 -74 -76 -74c-42 0 -76 32 -76 73c0 61 63 99 217 99c131 0 196 -48 196 -165v-215c0 -49 20 -60 72 -37l6 -11
c-38 -27 -71 -45 -114 -45c-68 0 -97 26 -108 76h-4c-35 -40 -81 -77 -149 -77zM253 57c24 0 49 15 62 36v150c-100 -11 -126 -36 -126 -110c0 -47 25 -76 64 -76zM267 529c-83 0 -130 45 -130 110c0 64 50 110 130 110c83 0 130 -45 130 -109s-49 -111 -130 -111zM269 547
c34 0 46 34 46 92s-15 92 -50 92c-34 0 -46 -34 -46 -92s16 -92 50 -92zM224 780l26 124c18 88 31 116 72 116c36 0 67 -25 67 -58c0 -24 -16 -42 -70 -100l-76 -82h-19z" />
    <glyph glyph-name="Atilde" unicode="&#xc3;" horiz-adv-x="722" 
d="M456 89l-62 175h-225l-36 -96c-38 -101 -21 -141 72 -154v-14h-238v14c66 17 106 64 144 163l204 534h88l228 -620c19 -51 34 -65 108 -77v-14h-381v14c96 5 116 25 98 75zM176 284h211l-101 283h-5zM194 765c7 107 38 150 100 150c55 0 131 -57 168 -57
c25 0 37 12 50 60h16c-7 -107 -38 -150 -100 -150c-55 0 -131 57 -168 57c-25 0 -37 -12 -50 -60h-16z" />
    <glyph glyph-name="atilde" unicode="&#xe3;" horiz-adv-x="527" 
d="M171 -5c-100 0 -144 64 -144 123c0 39 23 83 65 106c70 38 182 28 223 39v90c0 68 -20 96 -69 96c-26 0 -50 -7 -67 -18c19 -17 28 -36 28 -60c0 -46 -26 -74 -76 -74c-42 0 -76 32 -76 73c0 61 63 99 217 99c131 0 196 -48 196 -165v-215c0 -49 20 -60 72 -37l6 -11
c-38 -27 -71 -45 -114 -45c-68 0 -97 26 -108 76h-4c-35 -40 -81 -77 -149 -77zM253 57c24 0 49 15 62 36v150c-100 -11 -126 -36 -126 -110c0 -47 25 -76 64 -76zM108 525c7 107 38 150 100 150c55 0 131 -57 168 -57c25 0 37 12 50 60h16c-7 -107 -38 -150 -100 -150
c-55 0 -131 57 -168 57c-25 0 -37 -12 -50 -60h-16z" />
    <glyph glyph-name="Cacute" unicode="&#x106;" horiz-adv-x="727" 
d="M386 -17c-219 0 -348 132 -348 352c0 238 175 379 379 379c74 0 140 -21 187 -47l47 52h12v-273h-16c-71 153 -131 249 -247 249c-110 0 -179 -124 -179 -336c0 -219 94 -334 222 -334c103 0 173 45 224 157l19 -9c-43 -98 -126 -190 -300 -190zM331 764l26 124
c18 88 31 116 72 116c36 0 67 -25 67 -58c0 -24 -16 -42 -70 -100l-76 -82h-19z" />
    <glyph glyph-name="cacute" unicode="&#x107;" horiz-adv-x="496" 
d="M272 -8c-153 0 -246 85 -246 233c0 157 108 247 255 247c143 0 195 -62 195 -114c0 -48 -28 -81 -78 -81c-56 0 -83 36 -83 76c0 33 20 58 39 67c-9 17 -32 34 -68 34c-62 0 -97 -88 -97 -219c0 -102 39 -201 136 -201c51 0 109 30 146 81l11 -7
c-47 -73 -112 -116 -210 -116zM199 524l26 124c18 88 31 116 72 116c36 0 67 -25 67 -58c0 -24 -16 -42 -70 -100l-76 -82h-19z" />
    <glyph glyph-name="Ccaron" unicode="&#x10c;" horiz-adv-x="727" 
d="M386 -17c-219 0 -348 132 -348 352c0 238 175 379 379 379c74 0 140 -21 187 -47l47 52h12v-273h-16c-71 153 -131 249 -247 249c-110 0 -179 -124 -179 -336c0 -219 94 -334 222 -334c103 0 173 45 224 157l19 -9c-43 -98 -126 -190 -300 -190zM381 764l-141 213h16
l135 -86l136 86h16l-149 -213h-13z" />
    <glyph glyph-name="ccaron" unicode="&#x10d;" horiz-adv-x="496" 
d="M272 -8c-153 0 -246 85 -246 233c0 157 108 247 255 247c143 0 195 -62 195 -114c0 -48 -28 -81 -78 -81c-56 0 -83 36 -83 76c0 33 20 58 39 67c-9 17 -32 34 -68 34c-62 0 -97 -88 -97 -219c0 -102 39 -201 136 -201c51 0 109 30 146 81l11 -7
c-47 -73 -112 -116 -210 -116zM260 524l-141 213h16l135 -86l136 86h16l-149 -213h-13z" />
    <glyph glyph-name="Ccedilla" unicode="&#xc7;" horiz-adv-x="727" 
d="M386 -17c-219 0 -348 132 -348 352c0 238 175 379 379 379c74 0 140 -21 187 -47l47 52h12v-273h-16c-71 153 -131 249 -247 249c-110 0 -179 -124 -179 -336c0 -219 94 -334 222 -334c103 0 173 45 224 157l19 -9c-40 -91 -115 -177 -265 -188l-50 -49l2 -3
c87 -4 122 -52 122 -91c0 -55 -47 -93 -133 -93c-45 0 -71 4 -103 16l8 17c30 -7 49 -11 76 -11c38 0 54 19 54 45c0 29 -30 49 -81 49c-10 0 -22 -2 -33 -4l-6 9l116 113h-7z" />
    <glyph glyph-name="ccedilla" unicode="&#xe7;" horiz-adv-x="496" 
d="M244 -251c-45 0 -71 4 -103 16l8 17c30 -7 49 -11 76 -11c38 0 54 19 54 45c0 29 -30 49 -81 49c-10 0 -22 -2 -33 -4l-6 9l126 122h-13c-153 0 -246 85 -246 233c0 157 108 247 255 247c143 0 195 -62 195 -114c0 -48 -28 -81 -78 -81c-56 0 -83 36 -83 76
c0 33 20 58 39 67c-9 17 -32 34 -68 34c-62 0 -97 -88 -97 -219c0 -102 39 -201 136 -201c51 0 109 30 146 81l11 -7c-40 -62 -93 -103 -168 -113l-61 -59l2 -3c87 -4 122 -52 122 -91c0 -55 -47 -93 -133 -93z" />
    <glyph glyph-name="Cdotaccent" unicode="&#x10a;" horiz-adv-x="727" 
d="M386 -17c-219 0 -348 132 -348 352c0 238 175 379 379 379c74 0 140 -21 187 -47l47 52h12v-273h-16c-71 153 -131 249 -247 249c-110 0 -179 -124 -179 -336c0 -219 94 -334 222 -334c103 0 173 45 224 157l19 -9c-43 -98 -126 -190 -300 -190zM386 769
c-53 0 -89 31 -89 86s36 91 89 91c54 0 89 -34 89 -87c0 -55 -35 -90 -89 -90z" />
    <glyph glyph-name="cdotaccent" unicode="&#x10b;" horiz-adv-x="496" 
d="M272 -8c-153 0 -246 85 -246 233c0 157 108 247 255 247c143 0 195 -62 195 -114c0 -48 -28 -81 -78 -81c-56 0 -83 36 -83 76c0 33 20 58 39 67c-9 17 -32 34 -68 34c-62 0 -97 -88 -97 -219c0 -102 39 -201 136 -201c51 0 109 30 146 81l11 -7
c-47 -73 -112 -116 -210 -116zM267 529c-53 0 -89 31 -89 86s36 91 89 91c54 0 89 -34 89 -87c0 -55 -35 -90 -89 -90z" />
    <glyph glyph-name="Dcaron" unicode="&#x10e;" horiz-adv-x="789" 
d="M29 0v14c81 3 100 16 100 51v567c0 35 -19 49 -100 52v13h339c257 0 381 -137 381 -335c0 -190 -100 -362 -363 -362h-357zM297 18h58c155 0 214 77 214 332s-75 330 -220 330h-52v-662zM384 764l-141 213h16l135 -86l136 86h16l-149 -213h-13z" />
    <glyph glyph-name="dcaron" unicode="&#x10f;" horiz-adv-x="579" 
d="M228 -8c-127 0 -202 94 -202 230c0 131 81 250 236 250c40 0 65 -6 94 -16v188c0 30 -10 48 -71 49v12l225 12v-659c0 -28 12 -50 68 -50v-8l-220 -4v60c-31 -38 -73 -64 -130 -64zM296 47c28 0 42 8 60 23v336c-14 25 -43 46 -79 46c-56 0 -89 -88 -89 -214
c0 -102 35 -191 108 -191zM599 528l-16 143c-2 20 -3 29 -3 45c0 43 29 56 55 56c30 0 53 -17 53 -44c0 -18 -6 -35 -18 -66l-55 -134h-16z" />
    <glyph glyph-name="Dcroat" unicode="&#x110;" horiz-adv-x="789" 
d="M29 0v14c81 3 100 16 100 51v285h-97v26h97v256c0 35 -19 49 -100 52v13h339c257 0 381 -137 381 -335c0 -190 -100 -362 -363 -362h-357zM297 18h58c155 0 214 77 214 332s-75 330 -220 330h-52v-304h137v-26h-137v-332z" />
    <glyph glyph-name="dcroat" unicode="&#x111;" horiz-adv-x="579" 
d="M228 -8c-127 0 -202 94 -202 230c0 131 81 250 236 250c40 0 65 -6 94 -16v116h-128v22h128v50c0 30 -10 48 -71 49v12l225 12v-123h65v-22h-65v-514c0 -28 12 -50 68 -50v-8l-220 -4v60c-31 -38 -73 -64 -130 -64zM296 47c28 0 42 8 60 23v336c-14 25 -43 46 -79 46
c-56 0 -89 -88 -89 -214c0 -102 35 -191 108 -191z" />
    <glyph glyph-name="Eacute" unicode="&#xc9;" horiz-adv-x="729" 
d="M29 0v14c81 3 100 16 100 51v567c0 35 -19 49 -100 52v13h611l3 -247l-16 -2c-79 166 -112 232 -238 232h-92v-310h33c79 0 127 37 154 135h13v-289h-13c-27 99 -75 137 -154 137h-33v-335h85c149 0 190 60 271 245l16 -2l-5 -261h-635zM344 764l26 124
c18 88 31 116 72 116c36 0 67 -25 67 -58c0 -24 -16 -42 -70 -100l-76 -82h-19z" />
    <glyph glyph-name="eacute" unicode="&#xe9;" horiz-adv-x="509" 
d="M272 -8c-146 0 -246 81 -246 233c0 157 109 247 245 247c143 0 220 -93 213 -231h-296v-14v-2c0 -126 51 -190 147 -190c59 0 99 29 136 80l11 -7c-47 -73 -112 -116 -210 -116zM265 452c-52 0 -73 -73 -77 -191h142c13 116 -10 191 -65 191zM235 524l26 124
c18 88 31 116 72 116c36 0 67 -25 67 -58c0 -24 -16 -42 -70 -100l-76 -82h-19z" />
    <glyph glyph-name="Ebreve" unicode="&#x114;" horiz-adv-x="729" 
d="M29 0v14c81 3 100 16 100 51v567c0 35 -19 49 -100 52v13h611l3 -247l-16 -2c-79 166 -112 232 -238 232h-92v-310h33c79 0 127 37 154 135h13v-289h-13c-27 99 -75 137 -154 137h-33v-335h85c149 0 190 60 271 245l16 -2l-5 -261h-635zM369 769c-76 0 -136 57 -144 172
h15c19 -57 73 -84 127 -84c58 0 111 29 129 84h15c-7 -115 -66 -172 -142 -172z" />
    <glyph glyph-name="ebreve" unicode="&#x115;" horiz-adv-x="509" 
d="M272 -8c-146 0 -246 81 -246 233c0 157 109 247 245 247c143 0 220 -93 213 -231h-296v-14v-2c0 -126 51 -190 147 -190c59 0 99 29 136 80l11 -7c-47 -73 -112 -116 -210 -116zM265 452c-52 0 -73 -73 -77 -191h142c13 116 -10 191 -65 191zM265 529
c-76 0 -136 57 -144 172h15c19 -57 73 -84 127 -84c58 0 111 29 129 84h15c-7 -115 -66 -172 -142 -172z" />
    <glyph glyph-name="Ecaron" unicode="&#x11a;" horiz-adv-x="729" 
d="M29 0v14c81 3 100 16 100 51v567c0 35 -19 49 -100 52v13h611l3 -247l-16 -2c-79 166 -112 232 -238 232h-92v-310h33c79 0 127 37 154 135h13v-289h-13c-27 99 -75 137 -154 137h-33v-335h85c149 0 190 60 271 245l16 -2l-5 -261h-635zM360 764l-141 213h16l135 -86
l136 86h16l-149 -213h-13z" />
    <glyph glyph-name="ecaron" unicode="&#x11b;" horiz-adv-x="509" 
d="M272 -8c-146 0 -246 81 -246 233c0 157 109 247 245 247c143 0 220 -93 213 -231h-296v-14v-2c0 -126 51 -190 147 -190c59 0 99 29 136 80l11 -7c-47 -73 -112 -116 -210 -116zM265 452c-52 0 -73 -73 -77 -191h142c13 116 -10 191 -65 191zM259 524l-141 213h16
l135 -86l136 86h16l-149 -213h-13z" />
    <glyph glyph-name="Ecircumflex" unicode="&#xca;" horiz-adv-x="729" 
d="M29 0v14c81 3 100 16 100 51v567c0 35 -19 49 -100 52v13h611l3 -247l-16 -2c-79 166 -112 232 -238 232h-92v-310h33c79 0 127 37 154 135h13v-289h-13c-27 99 -75 137 -154 137h-33v-335h85c149 0 190 60 271 245l16 -2l-5 -261h-635zM203 764l149 213h13l141 -213h-16
l-135 86l-136 -86h-16z" />
    <glyph glyph-name="ecircumflex" unicode="&#xea;" horiz-adv-x="509" 
d="M272 -8c-146 0 -246 81 -246 233c0 157 109 247 245 247c143 0 220 -93 213 -231h-296v-14v-2c0 -126 51 -190 147 -190c59 0 99 29 136 80l11 -7c-47 -73 -112 -116 -210 -116zM265 452c-52 0 -73 -73 -77 -191h142c13 116 -10 191 -65 191zM118 524l149 213h13
l141 -213h-16l-135 86l-136 -86h-16z" />
    <glyph glyph-name="Edieresis" unicode="&#xcb;" horiz-adv-x="729" 
d="M29 0v14c81 3 100 16 100 51v567c0 35 -19 49 -100 52v13h611l3 -247l-16 -2c-79 166 -112 232 -238 232h-92v-310h33c79 0 127 37 154 135h13v-289h-13c-27 99 -75 137 -154 137h-33v-335h85c149 0 190 60 271 245l16 -2l-5 -261h-635zM478 769c-48 0 -82 36 -82 82
c0 47 34 84 82 84s82 -37 82 -84c0 -46 -34 -82 -82 -82zM261 769c-48 0 -82 36 -82 82c0 47 34 84 82 84s82 -37 82 -84c0 -46 -34 -82 -82 -82z" />
    <glyph glyph-name="edieresis" unicode="&#xeb;" horiz-adv-x="509" 
d="M272 -8c-146 0 -246 81 -246 233c0 157 109 247 245 247c143 0 220 -93 213 -231h-296v-14v-2c0 -126 51 -190 147 -190c59 0 99 29 136 80l11 -7c-47 -73 -112 -116 -210 -116zM265 452c-52 0 -73 -73 -77 -191h142c13 116 -10 191 -65 191zM379 529
c-48 0 -82 36 -82 82c0 47 34 84 82 84s82 -37 82 -84c0 -46 -34 -82 -82 -82zM162 529c-48 0 -82 36 -82 82c0 47 34 84 82 84s82 -37 82 -84c0 -46 -34 -82 -82 -82z" />
    <glyph glyph-name="Edotaccent" unicode="&#x116;" horiz-adv-x="729" 
d="M29 0v14c81 3 100 16 100 51v567c0 35 -19 49 -100 52v13h611l3 -247l-16 -2c-79 166 -112 232 -238 232h-92v-310h33c79 0 127 37 154 135h13v-289h-13c-27 99 -75 137 -154 137h-33v-335h85c149 0 190 60 271 245l16 -2l-5 -261h-635zM368 769c-53 0 -89 31 -89 86
s36 91 89 91c54 0 89 -34 89 -87c0 -55 -35 -90 -89 -90z" />
    <glyph glyph-name="edotaccent" unicode="&#x117;" horiz-adv-x="509" 
d="M272 -8c-146 0 -246 81 -246 233c0 157 109 247 245 247c143 0 220 -93 213 -231h-296v-14v-2c0 -126 51 -190 147 -190c59 0 99 29 136 80l11 -7c-47 -73 -112 -116 -210 -116zM265 529c-53 0 -89 31 -89 86s36 91 89 91c54 0 89 -34 89 -87c0 -55 -35 -90 -89 -90z
M265 452c-52 0 -73 -73 -77 -191h142c13 116 -10 191 -65 191z" />
    <glyph glyph-name="Egrave" unicode="&#xc8;" horiz-adv-x="729" 
d="M29 0v14c81 3 100 16 100 51v567c0 35 -19 49 -100 52v13h611l3 -247l-16 -2c-79 166 -112 232 -238 232h-92v-310h33c79 0 127 37 154 135h13v-289h-13c-27 99 -75 137 -154 137h-33v-335h85c149 0 190 60 271 245l16 -2l-5 -261h-635zM403 764l-76 82
c-54 58 -70 76 -70 100c0 33 31 58 67 58c41 0 54 -28 72 -116l26 -124h-19z" />
    <glyph glyph-name="egrave" unicode="&#xe8;" horiz-adv-x="509" 
d="M272 -8c-146 0 -246 81 -246 233c0 157 109 247 245 247c143 0 220 -93 213 -231h-296v-14v-2c0 -126 51 -190 147 -190c59 0 99 29 136 80l11 -7c-47 -73 -112 -116 -210 -116zM265 452c-52 0 -73 -73 -77 -191h142c13 116 -10 191 -65 191zM284 524l-76 82
c-54 58 -70 76 -70 100c0 33 31 58 67 58c41 0 54 -28 72 -116l26 -124h-19z" />
    <glyph glyph-name="Emacron" unicode="&#x112;" horiz-adv-x="729" 
d="M29 0v14c81 3 100 16 100 51v567c0 35 -19 49 -100 52v13h611l3 -247l-16 -2c-79 166 -112 232 -238 232h-92v-310h33c79 0 127 37 154 135h13v-289h-13c-27 99 -75 137 -154 137h-33v-335h85c149 0 190 60 271 245l16 -2l-5 -261h-635zM219 794v51h308v-51h-308z" />
    <glyph glyph-name="emacron" unicode="&#x113;" horiz-adv-x="509" 
d="M272 -8c-146 0 -246 81 -246 233c0 157 109 247 245 247c143 0 220 -93 213 -231h-296v-14v-2c0 -126 51 -190 147 -190c59 0 99 29 136 80l11 -7c-47 -73 -112 -116 -210 -116zM265 452c-52 0 -73 -73 -77 -191h142c13 116 -10 191 -65 191zM119 554v51h308v-51h-308z
" />
    <glyph glyph-name="Eogonek" unicode="&#x118;" horiz-adv-x="729" 
d="M29 0v14c81 3 100 16 100 51v567c0 35 -19 49 -100 52v13h611l3 -247l-16 -2c-79 166 -112 232 -238 232h-92v-310h33c79 0 127 37 154 135h13v-289h-13c-27 99 -75 137 -154 137h-33v-335h85c149 0 190 60 271 245l16 -2l-5 -261h-74l-19 -22c-38 -42 -54 -87 -54 -123
c0 -39 18 -65 55 -65c11 0 41 4 68 19l6 -12c-30 -26 -91 -44 -137 -44c-59 0 -97 30 -97 84c0 62 51 101 109 137l41 26h-533z" />
    <glyph glyph-name="eogonek" unicode="&#x119;" horiz-adv-x="509" 
d="M471 115l11 -7c-25 -39 -48 -58 -55 -64c-27 -23 -57 -49 -72 -66c-37 -40 -54 -87 -54 -123c0 -39 18 -65 55 -65c11 0 41 4 68 19l6 -12c-30 -26 -91 -44 -137 -44c-59 0 -97 30 -97 84c0 62 51 101 109 137l46 29c-20 -6 -46 -11 -79 -11c-146 0 -246 81 -246 233
c0 157 109 247 245 247c143 0 220 -93 213 -231h-296v-14v-2c0 -126 51 -190 147 -190c59 0 99 29 136 80zM265 452c-52 0 -73 -73 -77 -191h142c13 116 -10 191 -65 191z" />
    <glyph glyph-name="Eth" unicode="&#xd0;" horiz-adv-x="789" 
d="M29 0v14c81 3 100 16 100 51v285h-97v26h97v256c0 35 -19 49 -100 52v13h339c257 0 381 -137 381 -335c0 -190 -100 -362 -363 -362h-357zM297 18h58c155 0 214 77 214 332s-75 330 -220 330h-52v-304h137v-26h-137v-332z" />
    <glyph glyph-name="eth" unicode="&#xf0;" horiz-adv-x="548" 
d="M463 666l-88 -43c95 -71 148 -177 148 -315c0 -199 -65 -316 -260 -316c-143 0 -237 89 -237 239c0 144 104 240 233 240c46 0 76 -18 93 -49l4 2c-9 65 -30 118 -62 160l-125 -60l-8 18l121 58c-39 45 -91 78 -155 104l5 15c88 -15 164 -42 224 -83l99 48zM279 12
c66 0 81 86 81 241c0 146 -33 199 -85 199c-67 0 -86 -89 -86 -219c0 -135 22 -221 90 -221z" />
    <glyph glyph-name="Gbreve" unicode="&#x11e;" horiz-adv-x="764" 
d="M399 -17c-211 0 -359 135 -359 364c0 222 163 367 375 367c81 0 142 -21 188 -47l52 52h12v-253h-16c-71 143 -135 229 -242 229c-103 0 -186 -111 -186 -346s84 -347 193 -347c42 0 78 9 105 30v227c0 35 -23 52 -106 55v13h339v-13c-55 -3 -74 -13 -74 -54v-205
c-62 -36 -159 -72 -281 -72zM394 769c-76 0 -136 57 -144 172h15c19 -57 73 -84 127 -84c58 0 111 29 129 84h15c-7 -115 -66 -172 -142 -172z" />
    <glyph glyph-name="gbreve" unicode="&#x11f;" horiz-adv-x="487" 
d="M253 -182c85 0 143 35 143 97c0 36 -25 58 -107 58h-146c-25 -19 -37 -38 -37 -66c0 -64 51 -89 147 -89zM251 176c49 0 60 41 60 138c0 87 -17 137 -69 137c-50 0 -60 -40 -60 -137s18 -138 69 -138zM247 469c34 0 66 -5 94 -14c23 54 64 98 118 98c42 0 64 -25 64 -59
c0 -28 -18 -53 -53 -53c-26 0 -55 23 -55 60c-20 -9 -42 -29 -56 -53c59 -24 98 -68 98 -132c0 -97 -88 -158 -210 -158c-23 0 -44 2 -64 5c-40 -11 -54 -24 -54 -44s24 -30 83 -30h117c109 0 165 -40 165 -120c0 -91 -107 -169 -267 -169c-124 0 -217 37 -217 95
c0 42 29 67 109 79v2c-60 20 -84 63 -84 100c0 33 40 78 117 94c-70 22 -116 68 -116 142c0 96 88 157 211 157zM255 529c-76 0 -136 57 -144 172h15c19 -57 73 -84 127 -84c58 0 111 29 129 84h15c-7 -115 -66 -172 -142 -172z" />
    <glyph glyph-name="Gcommaaccent" unicode="&#x122;" horiz-adv-x="764" 
d="M399 -17c-211 0 -359 135 -359 364c0 222 163 367 375 367c81 0 142 -21 188 -47l52 52h12v-253h-16c-71 143 -135 229 -242 229c-103 0 -186 -111 -186 -346s84 -347 193 -347c42 0 78 9 105 30v227c0 35 -23 52 -106 55v13h339v-13c-55 -3 -74 -13 -74 -54v-205
c-62 -36 -159 -72 -281 -72zM314 -342l-8 12c77 47 91 96 93 123l-4 2c-9 -4 -18 -6 -28 -6c-32 0 -67 26 -67 73c0 41 30 78 75 78c54 0 88 -41 88 -99c0 -75 -52 -143 -149 -183z" />
    <glyph glyph-name="gcommaaccent" unicode="&#x123;" horiz-adv-x="487" 
d="M253 -182c85 0 143 35 143 97c0 36 -25 58 -107 58h-146c-25 -19 -37 -38 -37 -66c0 -64 51 -89 147 -89zM251 176c49 0 60 41 60 138c0 87 -17 137 -69 137c-50 0 -60 -40 -60 -137s18 -138 69 -138zM247 469c34 0 66 -5 94 -14c23 54 64 98 118 98c42 0 64 -25 64 -59
c0 -28 -18 -53 -53 -53c-26 0 -55 23 -55 60c-20 -9 -42 -29 -56 -53c59 -24 98 -68 98 -132c0 -97 -88 -158 -210 -158c-23 0 -44 2 -64 5c-40 -11 -54 -24 -54 -44s24 -30 83 -30h117c109 0 165 -40 165 -120c0 -91 -107 -169 -267 -169c-124 0 -217 37 -217 95
c0 42 29 67 109 79v2c-60 20 -84 63 -84 100c0 33 40 78 117 94c-70 22 -116 68 -116 142c0 96 88 157 211 157zM320 816l8 -12c-77 -47 -91 -96 -93 -123l4 -2c9 4 18 6 28 6c32 0 67 -26 67 -73c0 -41 -30 -78 -75 -78c-54 0 -88 41 -88 99c0 75 52 143 149 183z" />
    <glyph glyph-name="Gdotaccent" unicode="&#x120;" horiz-adv-x="764" 
d="M399 -17c-211 0 -359 135 -359 364c0 222 163 367 375 367c81 0 142 -21 188 -47l52 52h12v-253h-16c-71 143 -135 229 -242 229c-103 0 -186 -111 -186 -346s84 -347 193 -347c42 0 78 9 105 30v227c0 35 -23 52 -106 55v13h339v-13c-55 -3 -74 -13 -74 -54v-205
c-62 -36 -159 -72 -281 -72zM397 769c-53 0 -89 31 -89 86s36 91 89 91c54 0 89 -34 89 -87c0 -55 -35 -90 -89 -90z" />
    <glyph glyph-name="gdotaccent" unicode="&#x121;" horiz-adv-x="487" 
d="M253 -182c85 0 143 35 143 97c0 36 -25 58 -107 58h-146c-25 -19 -37 -38 -37 -66c0 -64 51 -89 147 -89zM251 176c49 0 60 41 60 138c0 87 -17 137 -69 137c-50 0 -60 -40 -60 -137s18 -138 69 -138zM247 469c34 0 66 -5 94 -14c23 54 64 98 118 98c42 0 64 -25 64 -59
c0 -28 -18 -53 -53 -53c-26 0 -55 23 -55 60c-20 -9 -42 -29 -56 -53c59 -24 98 -68 98 -132c0 -97 -88 -158 -210 -158c-23 0 -44 2 -64 5c-40 -11 -54 -24 -54 -44s24 -30 83 -30h117c109 0 165 -40 165 -120c0 -91 -107 -169 -267 -169c-124 0 -217 37 -217 95
c0 42 29 67 109 79v2c-60 20 -84 63 -84 100c0 33 40 78 117 94c-70 22 -116 68 -116 142c0 96 88 157 211 157zM254 529c-53 0 -89 31 -89 86s36 91 89 91c54 0 89 -34 89 -87c0 -55 -35 -90 -89 -90z" />
    <glyph glyph-name="Hbar" unicode="&#x126;" horiz-adv-x="854" 
d="M29 0v14c81 3 100 15 100 51v446h-93v24h93v97c0 36 -19 49 -100 52v13h361v-13c-63 -3 -93 -14 -93 -52v-97h260v97c0 38 -31 49 -93 52v13h361v-13c-82 -3 -100 -16 -100 -52v-97h93v-24h-93v-446c0 -36 18 -48 100 -51v-14h-361v14c62 3 93 13 93 51v287h-260v-287
c0 -38 30 -48 93 -51v-14h-361zM297 372h260v139h-260v-139z" />
    <glyph glyph-name="hbar" unicode="&#x127;" horiz-adv-x="606" 
d="M13 0v12c56 1 67 11 67 35v525h-65v22h65v50c0 30 -10 48 -71 49v12l225 12v-123h128v-22h-128v-201c42 59 109 98 173 98c89 0 128 -53 128 -149v-273c0 -24 10 -34 68 -35v-12h-272v12c35 1 50 11 50 35v272c0 52 -22 83 -67 83c-31 0 -55 -20 -80 -51v-304
c0 -24 15 -34 50 -35v-12h-271z" />
    <glyph glyph-name="Iacute" unicode="&#xcd;" horiz-adv-x="447" 
d="M37 0v14c83 3 103 16 103 51v567c0 35 -20 49 -103 52v13h373v-13c-83 -3 -103 -17 -103 -52v-567c0 -35 20 -48 103 -51v-14h-373zM194 764l26 124c18 88 31 116 72 116c36 0 67 -25 67 -58c0 -24 -16 -42 -70 -100l-76 -82h-19z" />
    <glyph glyph-name="iacute" unicode="&#xed;" horiz-adv-x="325" 
d="M16 0v12c57 1 72 11 72 35v346c0 30 -15 48 -72 49v12l226 12v-419c0 -24 9 -34 67 -35v-12h-293zM113 524l26 124c18 88 31 116 72 116c36 0 67 -25 67 -58c0 -24 -16 -42 -70 -100l-76 -82h-19z" />
    <glyph glyph-name="Ibreve" unicode="&#x12c;" horiz-adv-x="447" 
d="M37 0v14c83 3 103 16 103 51v567c0 35 -20 49 -103 52v13h373v-13c-83 -3 -103 -17 -103 -52v-567c0 -35 20 -48 103 -51v-14h-373zM224 769c-76 0 -136 57 -144 172h15c19 -57 73 -84 127 -84c58 0 111 29 129 84h15c-7 -115 -66 -172 -142 -172z" />
    <glyph glyph-name="ibreve" unicode="&#x12d;" horiz-adv-x="325" 
d="M16 0v12c57 1 72 11 72 35v346c0 30 -15 48 -72 49v12l226 12v-419c0 -24 9 -34 67 -35v-12h-293zM163 529c-76 0 -136 57 -144 172h15c19 -57 73 -84 127 -84c58 0 111 29 129 84h15c-7 -115 -66 -172 -142 -172z" />
    <glyph glyph-name="Icircumflex" unicode="&#xce;" horiz-adv-x="447" 
d="M37 0v14c83 3 103 16 103 51v567c0 35 -20 49 -103 52v13h373v-13c-83 -3 -103 -17 -103 -52v-567c0 -35 20 -48 103 -51v-14h-373zM72 764l149 213h13l141 -213h-16l-135 86l-136 -86h-16z" />
    <glyph glyph-name="icircumflex" unicode="&#xee;" horiz-adv-x="325" 
d="M16 0v12c57 1 72 11 72 35v346c0 30 -15 48 -72 49v12l226 12v-419c0 -24 9 -34 67 -35v-12h-293zM-4 524l149 213h13l141 -213h-16l-135 86l-136 -86h-16z" />
    <glyph glyph-name="Idieresis" unicode="&#xcf;" horiz-adv-x="447" 
d="M37 0v14c83 3 103 16 103 51v567c0 35 -20 49 -103 52v13h373v-13c-83 -3 -103 -17 -103 -52v-567c0 -35 20 -48 103 -51v-14h-373zM332 769c-48 0 -82 36 -82 82c0 47 34 84 82 84s82 -37 82 -84c0 -46 -34 -82 -82 -82zM115 769c-48 0 -82 36 -82 82c0 47 34 84 82 84
s82 -37 82 -84c0 -46 -34 -82 -82 -82z" />
    <glyph glyph-name="idieresis" unicode="&#xef;" horiz-adv-x="325" 
d="M16 0v12c57 1 72 11 72 35v346c0 30 -15 48 -72 49v12l226 12v-419c0 -24 9 -34 67 -35v-12h-293zM259 529c-48 0 -82 36 -82 82c0 47 34 84 82 84s82 -37 82 -84c0 -46 -34 -82 -82 -82zM42 529c-48 0 -82 36 -82 82c0 47 34 84 82 84s82 -37 82 -84
c0 -46 -34 -82 -82 -82z" />
    <glyph glyph-name="Idotaccent" unicode="&#x130;" horiz-adv-x="447" 
d="M37 0v14c83 3 103 16 103 51v567c0 35 -20 49 -103 52v13h373v-13c-83 -3 -103 -17 -103 -52v-567c0 -35 20 -48 103 -51v-14h-373zM223 769c-53 0 -89 31 -89 86s36 91 89 91c54 0 89 -34 89 -87c0 -55 -35 -90 -89 -90z" />
    <glyph glyph-name="dotlessi" unicode="&#x131;" horiz-adv-x="325" 
d="M16 0v12c57 1 72 11 72 35v346c0 30 -15 48 -72 49v12l226 12v-419c0 -24 9 -34 67 -35v-12h-293z" />
    <glyph glyph-name="Igrave" unicode="&#xcc;" horiz-adv-x="447" 
d="M37 0v14c83 3 103 16 103 51v567c0 35 -20 49 -103 52v13h373v-13c-83 -3 -103 -17 -103 -52v-567c0 -35 20 -48 103 -51v-14h-373zM259 764l-76 82c-54 58 -70 76 -70 100c0 33 31 58 67 58c41 0 54 -28 72 -116l26 -124h-19z" />
    <glyph glyph-name="igrave" unicode="&#xec;" horiz-adv-x="325" 
d="M16 0v12c57 1 72 11 72 35v346c0 30 -15 48 -72 49v12l226 12v-419c0 -24 9 -34 67 -35v-12h-293zM162 524l-76 82c-54 58 -70 76 -70 100c0 33 31 58 67 58c41 0 54 -28 72 -116l26 -124h-19z" />
    <glyph glyph-name="Imacron" unicode="&#x12a;" horiz-adv-x="447" 
d="M37 0v14c83 3 103 16 103 51v567c0 35 -20 49 -103 52v13h373v-13c-83 -3 -103 -17 -103 -52v-567c0 -35 20 -48 103 -51v-14h-373zM70 794v51h308v-51h-308z" />
    <glyph glyph-name="imacron" unicode="&#x12b;" horiz-adv-x="325" 
d="M31 558v51h262v-51h-262zM16 0v12c57 1 72 11 72 35v346c0 30 -15 48 -72 49v12l226 12v-419c0 -24 9 -34 67 -35v-12h-293z" />
    <glyph glyph-name="Iogonek" unicode="&#x12e;" horiz-adv-x="447" 
d="M37 0v14c83 3 103 16 103 51v567c0 35 -20 49 -103 52v13h373v-13c-83 -3 -103 -17 -103 -52v-567c0 -35 20 -48 103 -51v-14h-146l-19 -22c-38 -42 -54 -87 -54 -123c0 -39 18 -65 55 -65c11 0 41 4 68 19l6 -12c-30 -26 -91 -44 -137 -44c-59 0 -97 30 -97 84
c0 62 51 101 109 137l41 26h-199z" />
    <glyph glyph-name="iogonek" unicode="&#x12f;" horiz-adv-x="325" 
d="M21 0v12c57 1 72 11 72 35v346c0 30 -15 48 -72 49v12l226 12v-419c0 -24 9 -34 67 -35v-12h-87l-19 -22c-38 -42 -54 -87 -54 -123c0 -39 18 -65 55 -65c11 0 41 4 68 19l6 -12c-30 -26 -91 -44 -137 -44c-59 0 -97 30 -97 84c0 62 51 101 109 137l41 26h-178zM168 534
c-53 0 -89 31 -89 86s36 91 89 91c54 0 89 -34 89 -87c0 -55 -35 -90 -89 -90z" />
    <glyph glyph-name="Kcommaaccent" unicode="&#x136;" horiz-adv-x="766" 
d="M287 311l215 237c61 67 75 125 -19 136v13h271v-13c-86 -19 -161 -71 -261 -179l-48 -52l227 -331c47 -68 68 -101 129 -108v-14h-348v14c70 6 76 27 38 84l-157 235l-47 -51v-217c0 -38 30 -48 93 -51v-14h-361v14c81 3 100 15 100 51v567c0 36 -19 49 -100 52v13h361
v-13c-63 -3 -93 -14 -93 -52v-321zM327 -342l-8 12c77 47 91 96 93 123l-4 2c-9 -4 -18 -6 -28 -6c-32 0 -67 26 -67 73c0 41 30 78 75 78c54 0 88 -41 88 -99c0 -75 -52 -143 -149 -183z" />
    <glyph glyph-name="kcommaaccent" unicode="&#x137;" horiz-adv-x="579" 
d="M234 187v-140c0 -24 15 -34 50 -35v-12h-271v12c56 1 67 11 67 35v597c0 30 -10 48 -71 49v12l225 12v-506l127 139c49 54 30 82 -31 102v12h231v-12c-70 -18 -122 -53 -186 -117l-17 -17l162 -245c34 -52 44 -56 90 -61v-12h-279v12c42 2 49 12 26 50l-95 155zM221 -342
l-8 12c77 47 91 96 93 123l-4 2c-9 -4 -18 -6 -28 -6c-32 0 -67 26 -67 73c0 41 30 78 75 78c54 0 88 -41 88 -99c0 -75 -52 -143 -149 -183z" />
    <glyph glyph-name="Lacute" unicode="&#x139;" horiz-adv-x="678" 
d="M19 0v14c81 3 100 16 100 51v567c0 35 -19 49 -100 52v13h367v-13c-83 -3 -99 -16 -99 -52v-614h45c150 0 197 56 289 254l16 -1l-9 -271h-609zM200 764l26 124c18 88 31 116 72 116c36 0 67 -25 67 -58c0 -24 -16 -42 -70 -100l-76 -82h-19z" />
    <glyph glyph-name="lacute" unicode="&#x13a;" horiz-adv-x="311" 
d="M13 0v12c56 1 67 11 67 35v597c0 30 -10 48 -71 49v12l225 12v-670c0 -24 10 -34 67 -35v-12h-288zM110 757l26 124c18 88 31 116 72 116c36 0 67 -25 67 -58c0 -24 -16 -42 -70 -100l-76 -82h-19z" />
    <glyph glyph-name="Lcaron" unicode="&#x13d;" horiz-adv-x="678" 
d="M19 0v14c81 3 100 16 100 51v567c0 35 -19 49 -100 52v13h367v-13c-83 -3 -99 -16 -99 -52v-614h45c150 0 197 56 289 254l16 -1l-9 -271h-609zM460 508l-16 143c-2 20 -3 29 -3 45c0 43 29 56 55 56c30 0 53 -17 53 -44c0 -18 -6 -35 -18 -66l-55 -134h-16z" />
    <glyph glyph-name="lcaron" unicode="&#x13e;" horiz-adv-x="311" 
d="M13 0v12c56 1 67 11 67 35v597c0 30 -10 48 -71 49v12l225 12v-670c0 -24 10 -34 67 -35v-12h-288zM323 528l-16 143c-2 20 -3 29 -3 45c0 43 29 56 55 56c30 0 53 -17 53 -44c0 -18 -6 -35 -18 -66l-55 -134h-16z" />
    <glyph glyph-name="Lcommaaccent" unicode="&#x13b;" horiz-adv-x="678" 
d="M19 0v14c81 3 100 16 100 51v567c0 35 -19 49 -100 52v13h367v-13c-83 -3 -99 -16 -99 -52v-614h45c150 0 197 56 289 254l16 -1l-9 -271h-609zM271 -342l-8 12c77 47 91 96 93 123l-4 2c-9 -4 -18 -6 -28 -6c-32 0 -67 26 -67 73c0 41 30 78 75 78c54 0 88 -41 88 -99
c0 -75 -52 -143 -149 -183z" />
    <glyph glyph-name="lcommaaccent" unicode="&#x13c;" horiz-adv-x="311" 
d="M13 0v12c56 1 67 11 67 35v597c0 30 -10 48 -71 49v12l225 12v-670c0 -24 10 -34 67 -35v-12h-288zM87 -342l-8 12c77 47 91 96 93 123l-4 2c-9 -4 -18 -6 -28 -6c-32 0 -67 26 -67 73c0 41 30 78 75 78c54 0 88 -41 88 -99c0 -75 -52 -143 -149 -183z" />
    <glyph glyph-name="Ldot" unicode="&#x13f;" horiz-adv-x="678" 
d="M19 0v14c81 3 100 16 100 51v567c0 35 -19 49 -100 52v13h367v-13c-83 -3 -99 -16 -99 -52v-614h45c150 0 197 52 289 234l16 -1l-9 -251h-609zM525 309c-53 0 -89 31 -89 86s36 91 89 91c54 0 89 -34 89 -87c0 -55 -35 -90 -89 -90z" />
    <glyph glyph-name="ldot" unicode="&#x140;" horiz-adv-x="460" 
d="M387 234c-51 0 -85 30 -85 82c0 53 34 88 85 88c52 0 85 -33 85 -84c0 -53 -33 -86 -85 -86zM13 0v12c56 1 67 11 67 35v597c0 30 -10 48 -71 49v12l225 12v-670c0 -24 10 -34 67 -35v-12h-288z" />
    <glyph glyph-name="Lslash" unicode="&#x141;" horiz-adv-x="678" 
d="M19 0v14c81 3 100 16 100 51v244l-90 -24l-7 26l97 25v296c0 35 -19 49 -100 52v13h367v-13c-83 -3 -99 -16 -99 -52v-252l141 37l6 -24l-147 -39v-336h45c150 0 197 56 289 254l16 -1l-9 -271h-609z" />
    <glyph glyph-name="lslash" unicode="&#x142;" horiz-adv-x="351" 
d="M33 0v12c56 1 67 11 67 35v272l-74 -20l-6 22l80 21v302c0 30 -10 48 -71 49v12l225 12v-333l78 21l6 -22l-84 -23v-313c0 -24 10 -34 67 -35v-12h-288z" />
    <glyph glyph-name="Nacute" unicode="&#x143;" horiz-adv-x="819" 
d="M625 -9l-447 569h-1v-388c0 -102 37 -148 139 -158v-14h-288v14c94 11 124 56 124 158v394c0 62 -38 112 -124 118v13h254l376 -481h1v310c0 100 -40 147 -141 158v13h290v-13c-94 -13 -124 -58 -124 -158v-535h-59zM407 754l26 124c18 88 31 116 72 116
c36 0 67 -25 67 -58c0 -24 -16 -42 -70 -100l-76 -82h-19z" />
    <glyph glyph-name="nacute" unicode="&#x144;" horiz-adv-x="610" 
d="M20 0v12c57 1 68 11 68 35v346c0 30 -11 48 -68 49v12l220 12v-95c42 59 109 98 173 98c89 0 127 -53 127 -149v-273c0 -24 10 -34 67 -35v-12h-272v12c35 1 51 11 51 35v272c0 52 -19 83 -64 83c-31 0 -55 -20 -80 -51v-304c0 -24 15 -34 49 -35v-12h-271zM279 524
l26 124c18 88 31 116 72 116c36 0 67 -25 67 -58c0 -24 -16 -42 -70 -100l-76 -82h-19z" />
    <glyph glyph-name="Ncaron" unicode="&#x147;" horiz-adv-x="819" 
d="M625 -9l-447 569h-1v-388c0 -102 37 -148 139 -158v-14h-288v14c94 11 124 56 124 158v394c0 62 -38 112 -124 118v13h254l376 -481h1v310c0 100 -40 147 -141 158v13h290v-13c-94 -13 -124 -58 -124 -158v-535h-59zM417 754l-141 213h16l135 -86l136 86h16l-149 -213
h-13z" />
    <glyph glyph-name="ncaron" unicode="&#x148;" horiz-adv-x="610" 
d="M20 0v12c57 1 68 11 68 35v346c0 30 -11 48 -68 49v12l220 12v-95c42 59 109 98 173 98c89 0 127 -53 127 -149v-273c0 -24 10 -34 67 -35v-12h-272v12c35 1 51 11 51 35v272c0 52 -19 83 -64 83c-31 0 -55 -20 -80 -51v-304c0 -24 15 -34 49 -35v-12h-271zM307 524
l-141 213h16l135 -86l136 86h16l-149 -213h-13z" />
    <glyph glyph-name="Ncommaaccent" unicode="&#x145;" horiz-adv-x="819" 
d="M625 -9l-447 569h-1v-388c0 -102 37 -148 139 -158v-14h-288v14c94 11 124 56 124 158v394c0 62 -38 112 -124 118v13h254l376 -481h1v310c0 100 -40 147 -141 158v13h290v-13c-94 -13 -124 -58 -124 -158v-535h-59zM350 -342l-8 12c77 47 91 96 93 123l-4 2
c-9 -4 -18 -6 -28 -6c-32 0 -67 26 -67 73c0 41 30 78 75 78c54 0 88 -41 88 -99c0 -75 -52 -143 -149 -183z" />
    <glyph glyph-name="ncommaaccent" unicode="&#x146;" horiz-adv-x="610" 
d="M20 0v12c57 1 68 11 68 35v346c0 30 -11 48 -68 49v12l220 12v-95c42 59 109 98 173 98c89 0 127 -53 127 -149v-273c0 -24 10 -34 67 -35v-12h-272v12c35 1 51 11 51 35v272c0 52 -19 83 -64 83c-31 0 -55 -20 -80 -51v-304c0 -24 15 -34 49 -35v-12h-271zM241 -342
l-8 12c77 47 91 96 93 123l-4 2c-9 -4 -18 -6 -28 -6c-32 0 -67 26 -67 73c0 41 30 78 75 78c54 0 88 -41 88 -99c0 -75 -52 -143 -149 -183z" />
    <glyph glyph-name="Ntilde" unicode="&#xd1;" horiz-adv-x="819" 
d="M625 -9l-447 569h-1v-388c0 -102 37 -148 139 -158v-14h-288v14c94 11 124 56 124 158v394c0 62 -38 112 -124 118v13h254l376 -481h1v310c0 100 -40 147 -141 158v13h290v-13c-94 -13 -124 -58 -124 -158v-535h-59zM272 765c7 107 38 150 100 150c55 0 131 -57 168 -57
c25 0 37 12 50 60h16c-7 -107 -38 -150 -100 -150c-55 0 -131 57 -168 57c-25 0 -37 -12 -50 -60h-16z" />
    <glyph glyph-name="ntilde" unicode="&#xf1;" horiz-adv-x="610" 
d="M20 0v12c57 1 68 11 68 35v346c0 30 -11 48 -68 49v12l220 12v-95c42 59 109 98 173 98c89 0 127 -53 127 -149v-273c0 -24 10 -34 67 -35v-12h-272v12c35 1 51 11 51 35v272c0 52 -19 83 -64 83c-31 0 -55 -20 -80 -51v-304c0 -24 15 -34 49 -35v-12h-271zM138 525
c7 107 38 150 100 150c55 0 131 -57 168 -57c25 0 37 12 50 60h16c-7 -107 -38 -150 -100 -150c-55 0 -131 57 -168 57c-25 0 -37 -12 -50 -60h-16z" />
    <glyph glyph-name="Oacute" unicode="&#xd3;" 
d="M391 -17c-209 0 -351 139 -351 364c0 223 147 367 351 367c210 0 352 -139 352 -363c0 -225 -147 -368 -352 -368zM396 2c116 0 164 107 164 347c0 239 -57 346 -173 346s-164 -107 -164 -346c0 -240 56 -347 173 -347zM362 764l26 124c18 88 31 116 72 116
c36 0 67 -25 67 -58c0 -24 -16 -42 -70 -100l-76 -82h-19z" />
    <glyph glyph-name="oacute" unicode="&#xf3;" horiz-adv-x="549" 
d="M275 -8c-159 0 -249 89 -249 239c0 149 96 241 249 241c157 0 248 -88 248 -237c0 -150 -96 -243 -248 -243zM279 12c66 0 81 86 81 221s-22 219 -90 219c-67 0 -81 -84 -81 -219s22 -221 90 -221zM245 524l26 124c18 88 31 116 72 116c36 0 67 -25 67 -58
c0 -24 -16 -42 -70 -100l-76 -82h-19z" />
    <glyph glyph-name="Obreve" unicode="&#x14e;" 
d="M391 -17c-209 0 -351 139 -351 364c0 223 147 367 351 367c210 0 352 -139 352 -363c0 -225 -147 -368 -352 -368zM396 2c116 0 164 107 164 347c0 239 -57 346 -173 346s-164 -107 -164 -346c0 -240 56 -347 173 -347zM392 769c-76 0 -136 57 -144 172h15
c19 -57 73 -84 127 -84c58 0 111 29 129 84h15c-7 -115 -66 -172 -142 -172z" />
    <glyph glyph-name="obreve" unicode="&#x14f;" horiz-adv-x="549" 
d="M275 -8c-159 0 -249 89 -249 239c0 149 96 241 249 241c157 0 248 -88 248 -237c0 -150 -96 -243 -248 -243zM279 12c66 0 81 86 81 221s-22 219 -90 219c-67 0 -81 -84 -81 -219s22 -221 90 -221zM275 529c-76 0 -136 57 -144 172h15c19 -57 73 -84 127 -84
c58 0 111 29 129 84h15c-7 -115 -66 -172 -142 -172z" />
    <glyph glyph-name="Ocircumflex" unicode="&#xd4;" 
d="M391 -17c-209 0 -351 139 -351 364c0 223 147 367 351 367c210 0 352 -139 352 -363c0 -225 -147 -368 -352 -368zM396 2c116 0 164 107 164 347c0 239 -57 346 -173 346s-164 -107 -164 -346c0 -240 56 -347 173 -347zM240 764l149 213h13l141 -213h-16l-135 86
l-136 -86h-16z" />
    <glyph glyph-name="ocircumflex" unicode="&#xf4;" horiz-adv-x="549" 
d="M275 -8c-159 0 -249 89 -249 239c0 149 96 241 249 241c157 0 248 -88 248 -237c0 -150 -96 -243 -248 -243zM279 12c66 0 81 86 81 221s-22 219 -90 219c-67 0 -81 -84 -81 -219s22 -221 90 -221zM123 524l149 213h13l141 -213h-16l-135 86l-136 -86h-16z" />
    <glyph glyph-name="Odieresis" unicode="&#xd6;" 
d="M391 -17c-209 0 -351 139 -351 364c0 223 147 367 351 367c210 0 352 -139 352 -363c0 -225 -147 -368 -352 -368zM396 2c116 0 164 107 164 347c0 239 -57 346 -173 346s-164 -107 -164 -346c0 -240 56 -347 173 -347zM500 769c-48 0 -82 36 -82 82c0 47 34 84 82 84
s82 -37 82 -84c0 -46 -34 -82 -82 -82zM283 769c-48 0 -82 36 -82 82c0 47 34 84 82 84s82 -37 82 -84c0 -46 -34 -82 -82 -82z" />
    <glyph glyph-name="odieresis" unicode="&#xf6;" horiz-adv-x="549" 
d="M275 -8c-159 0 -249 89 -249 239c0 149 96 241 249 241c157 0 248 -88 248 -237c0 -150 -96 -243 -248 -243zM279 12c66 0 81 86 81 221s-22 219 -90 219c-67 0 -81 -84 -81 -219s22 -221 90 -221zM383 529c-48 0 -82 36 -82 82c0 47 34 84 82 84s82 -37 82 -84
c0 -46 -34 -82 -82 -82zM166 529c-48 0 -82 36 -82 82c0 47 34 84 82 84s82 -37 82 -84c0 -46 -34 -82 -82 -82z" />
    <glyph glyph-name="OE" unicode="&#x152;" horiz-adv-x="1092" 
d="M421 0c-257 0 -381 137 -381 335c0 190 100 362 363 362h600l3 -247l-16 -2c-79 166 -112 232 -238 232h-92v-310h33c79 0 127 37 154 135h13v-289h-13c-27 99 -75 137 -154 137h-33v-335h85c149 0 190 60 271 245l16 -2l-5 -261h-606zM425 18c39 0 67 11 67 47v567
c0 35 -26 46 -63 46c-148 0 -209 -76 -209 -331c0 -265 89 -329 205 -329z" />
    <glyph glyph-name="oe" unicode="&#x153;" horiz-adv-x="839" 
d="M602 -8c-66 0 -121 22 -161 57c-40 -36 -96 -57 -166 -57c-159 0 -249 89 -249 239c0 149 96 241 249 241c71 0 126 -23 165 -59c41 38 97 59 161 59c143 0 220 -93 213 -231h-296v-14v-2c0 -126 51 -190 147 -190c59 0 99 29 136 80l11 -7c-47 -73 -112 -116 -210 -116z
M360 233c0 135 -22 219 -90 219c-67 0 -81 -84 -81 -219s22 -221 90 -221c66 0 81 86 81 221zM595 452c-52 0 -73 -73 -77 -191h142c13 116 -10 191 -65 191z" />
    <glyph glyph-name="Ograve" unicode="&#xd2;" 
d="M391 -17c-209 0 -351 139 -351 364c0 223 147 367 351 367c210 0 352 -139 352 -363c0 -225 -147 -368 -352 -368zM396 2c116 0 164 107 164 347c0 239 -57 346 -173 346s-164 -107 -164 -346c0 -240 56 -347 173 -347zM421 764l-76 82c-54 58 -70 76 -70 100
c0 33 31 58 67 58c41 0 54 -28 72 -116l26 -124h-19z" />
    <glyph glyph-name="ograve" unicode="&#xf2;" horiz-adv-x="549" 
d="M275 -8c-159 0 -249 89 -249 239c0 149 96 241 249 241c157 0 248 -88 248 -237c0 -150 -96 -243 -248 -243zM279 12c66 0 81 86 81 221s-22 219 -90 219c-67 0 -81 -84 -81 -219s22 -221 90 -221zM284 524l-76 82c-54 58 -70 76 -70 100c0 33 31 58 67 58
c41 0 54 -28 72 -116l26 -124h-19z" />
    <glyph glyph-name="Ohungarumlaut" unicode="&#x150;" 
d="M391 -17c-209 0 -351 139 -351 364c0 223 147 367 351 367c210 0 352 -139 352 -363c0 -225 -147 -368 -352 -368zM396 2c116 0 164 107 164 347c0 239 -57 346 -173 346s-164 -107 -164 -346c0 -240 56 -347 173 -347zM462 764l46 126c31 85 46 112 85 112
c30 0 52 -21 52 -50c0 -24 -8 -40 -80 -105l-92 -83h-11zM295 764l46 126c31 85 46 112 85 112c30 0 52 -21 52 -50c0 -24 -8 -40 -80 -105l-92 -83h-11z" />
    <glyph glyph-name="ohungarumlaut" unicode="&#x151;" horiz-adv-x="549" 
d="M275 -8c-159 0 -249 89 -249 239c0 149 96 241 249 241c157 0 248 -88 248 -237c0 -150 -96 -243 -248 -243zM279 12c66 0 81 86 81 221s-22 219 -90 219c-67 0 -81 -84 -81 -219s22 -221 90 -221zM332 524l46 126c31 85 46 112 85 112c30 0 52 -21 52 -50
c0 -24 -8 -40 -80 -105l-92 -83h-11zM165 524l46 126c31 85 46 112 85 112c30 0 52 -21 52 -50c0 -24 -8 -40 -80 -105l-92 -83h-11z" />
    <glyph glyph-name="Omacron" unicode="&#x14c;" 
d="M391 -17c-209 0 -351 139 -351 364c0 223 147 367 351 367c210 0 352 -139 352 -363c0 -225 -147 -368 -352 -368zM396 2c116 0 164 107 164 347c0 239 -57 346 -173 346s-164 -107 -164 -346c0 -240 56 -347 173 -347zM238 794v51h308v-51h-308z" />
    <glyph glyph-name="omacron" unicode="&#x14d;" horiz-adv-x="549" 
d="M275 -8c-159 0 -249 89 -249 239c0 149 96 241 249 241c157 0 248 -88 248 -237c0 -150 -96 -243 -248 -243zM279 12c66 0 81 86 81 221s-22 219 -90 219c-67 0 -81 -84 -81 -219s22 -221 90 -221zM121 554v51h308v-51h-308z" />
    <glyph glyph-name="Oslash" unicode="&#xd8;" 
d="M391 -17c-90 0 -168 26 -227 73l-77 -92h-33l91 109c-67 63 -105 157 -105 274c0 223 147 367 351 367c91 0 168 -26 228 -74l77 93h33l-91 -109c66 -63 105 -157 105 -273c0 -225 -147 -368 -352 -368zM387 695c-116 0 -164 -107 -164 -346c0 -66 4 -122 13 -168
l304 366c-25 101 -76 148 -153 148zM396 2c116 0 164 107 164 347c0 65 -4 120 -13 166l-305 -365c26 -101 76 -148 154 -148z" />
    <glyph glyph-name="oslash" unicode="&#xf8;" horiz-adv-x="549" 
d="M70 -24h-27l59 69c-50 41 -76 104 -76 186c0 149 96 241 249 241c63 0 115 -15 155 -41l49 57h27l-59 -69c49 -41 76 -104 76 -184c0 -150 -96 -243 -248 -243c-64 0 -117 14 -157 41zM189 233c0 -30 1 -57 3 -82l161 189c-11 71 -36 112 -83 112c-67 0 -81 -84 -81 -219
zM279 12c66 0 81 86 81 221c0 29 -1 56 -3 80l-161 -189c11 -71 36 -112 83 -112z" />
    <glyph glyph-name="Oslashacute" unicode="&#x1fe;" 
d="M391 -17c205 0 352 143 352 368c0 116 -39 210 -105 273l91 109h-33l-77 -93c-60 48 -137 74 -228 74c-204 0 -351 -144 -351 -367c0 -117 38 -211 105 -274l-91 -109h33l77 92c59 -47 137 -73 227 -73zM387 695c77 0 128 -47 153 -148l-304 -366c-9 46 -13 102 -13 168
c0 239 48 346 164 346zM396 2c-78 0 -128 47 -154 148l305 365c9 -46 13 -101 13 -166c0 -240 -48 -347 -164 -347zM362 764l26 124c18 88 31 116 72 116c36 0 67 -25 67 -58c0 -24 -16 -42 -70 -100l-76 -82h-19z" />
    <glyph glyph-name="oslashacute" unicode="&#x1ff;" horiz-adv-x="549" 
d="M70 -24h-27l59 69c-50 41 -76 104 -76 186c0 149 96 241 249 241c63 0 115 -15 155 -41l49 57h27l-59 -69c49 -41 76 -104 76 -184c0 -150 -96 -243 -248 -243c-64 0 -117 14 -157 41zM189 233c0 -30 1 -57 3 -82l161 189c-11 71 -36 112 -83 112c-67 0 -81 -84 -81 -219
zM279 12c66 0 81 86 81 221c0 29 -1 56 -3 80l-161 -189c11 -71 36 -112 83 -112zM245 524l26 124c18 88 31 116 72 116c36 0 67 -25 67 -58c0 -24 -16 -42 -70 -100l-76 -82h-19z" />
    <glyph glyph-name="Otilde" unicode="&#xd5;" 
d="M391 -17c-209 0 -351 139 -351 364c0 223 147 367 351 367c210 0 352 -139 352 -363c0 -225 -147 -368 -352 -368zM396 2c116 0 164 107 164 347c0 239 -57 346 -173 346s-164 -107 -164 -346c0 -240 56 -347 173 -347zM224 765c7 107 38 150 100 150
c55 0 131 -57 168 -57c25 0 37 12 50 60h16c-7 -107 -38 -150 -100 -150c-55 0 -131 57 -168 57c-25 0 -37 -12 -50 -60h-16z" />
    <glyph glyph-name="otilde" unicode="&#xf5;" horiz-adv-x="549" 
d="M275 -8c-159 0 -249 89 -249 239c0 149 96 241 249 241c157 0 248 -88 248 -237c0 -150 -96 -243 -248 -243zM279 12c66 0 81 86 81 221s-22 219 -90 219c-67 0 -81 -84 -81 -219s22 -221 90 -221zM107 525c7 107 38 150 100 150c55 0 131 -57 168 -57c25 0 37 12 50 60
h16c-7 -107 -38 -150 -100 -150c-55 0 -131 57 -168 57c-25 0 -37 -12 -50 -60h-16z" />
    <glyph glyph-name="Racute" unicode="&#x154;" horiz-adv-x="750" 
d="M297 362h57c117 0 144 35 144 155c0 103 -36 163 -153 163h-48v-318zM297 346v-281c0 -37 31 -48 94 -51v-14h-362v14c81 3 100 16 100 51v567c0 35 -19 49 -100 52v13h361c210 0 280 -79 280 -169c0 -85 -53 -147 -212 -170v-3c147 -3 189 -68 200 -156l7 -93
c10 -76 23 -88 103 -91v-13c-40 -5 -75 -6 -107 -6c-140 0 -161 39 -168 125l-7 84c-9 102 -36 141 -147 141h-42zM331 764l26 124c18 88 31 116 72 116c36 0 67 -25 67 -58c0 -24 -16 -42 -70 -100l-76 -82h-19z" />
    <glyph glyph-name="racute" unicode="&#x155;" horiz-adv-x="476" 
d="M20 0v12c57 1 68 11 68 35v346c0 30 -11 48 -68 49v12l220 12v-94c31 61 85 97 140 97c62 0 96 -38 96 -90s-33 -88 -79 -88c-54 0 -85 38 -85 78c0 15 4 32 8 45c-24 -2 -58 -28 -78 -62v-305c0 -24 15 -32 92 -35v-12h-314zM175 524l26 124c18 88 31 116 72 116
c36 0 67 -25 67 -58c0 -24 -16 -42 -70 -100l-76 -82h-19z" />
    <glyph glyph-name="Rcaron" unicode="&#x158;" horiz-adv-x="750" 
d="M297 362h57c117 0 144 35 144 155c0 103 -36 163 -153 163h-48v-318zM297 346v-281c0 -37 31 -48 94 -51v-14h-362v14c81 3 100 16 100 51v567c0 35 -19 49 -100 52v13h361c210 0 280 -79 280 -169c0 -85 -53 -147 -212 -170v-3c147 -3 189 -68 200 -156l7 -93
c10 -76 23 -88 103 -91v-13c-40 -5 -75 -6 -107 -6c-140 0 -161 39 -168 125l-7 84c-9 102 -36 141 -147 141h-42zM370 764l-141 213h16l135 -86l136 86h16l-149 -213h-13z" />
    <glyph glyph-name="rcaron" unicode="&#x159;" horiz-adv-x="476" 
d="M20 0v12c57 1 68 11 68 35v346c0 30 -11 48 -68 49v12l220 12v-94c31 61 85 97 140 97c62 0 96 -38 96 -90s-33 -88 -79 -88c-54 0 -85 38 -85 78c0 15 4 32 8 45c-24 -2 -58 -28 -78 -62v-305c0 -24 15 -32 92 -35v-12h-314zM254 524l-141 213h16l135 -86l136 86h16
l-149 -213h-13z" />
    <glyph glyph-name="Rcommaaccent" unicode="&#x156;" horiz-adv-x="750" 
d="M297 362h57c117 0 144 35 144 155c0 103 -36 163 -153 163h-48v-318zM297 346v-281c0 -37 31 -48 94 -51v-14h-362v14c81 3 100 16 100 51v567c0 35 -19 49 -100 52v13h361c210 0 280 -79 280 -169c0 -85 -53 -147 -212 -170v-3c147 -3 189 -68 200 -156l7 -93
c10 -76 23 -88 103 -91v-13c-40 -5 -75 -6 -107 -6c-140 0 -161 39 -168 125l-7 84c-9 102 -36 141 -147 141h-42zM323 -342l-8 12c77 47 91 96 93 123l-4 2c-9 -4 -18 -6 -28 -6c-32 0 -67 26 -67 73c0 41 30 78 75 78c54 0 88 -41 88 -99c0 -75 -52 -143 -149 -183z" />
    <glyph glyph-name="rcommaaccent" unicode="&#x157;" horiz-adv-x="476" 
d="M20 0v12c57 1 68 11 68 35v346c0 30 -11 48 -68 49v12l220 12v-94c31 61 85 97 140 97c62 0 96 -38 96 -90s-33 -88 -79 -88c-54 0 -85 38 -85 78c0 15 4 32 8 45c-24 -2 -58 -28 -78 -62v-305c0 -24 15 -32 92 -35v-12h-314zM99 -342l-8 12c77 47 91 96 93 123l-4 2
c-9 -4 -18 -6 -28 -6c-32 0 -67 26 -67 73c0 41 30 78 75 78c54 0 88 -41 88 -99c0 -75 -52 -143 -149 -183z" />
    <glyph glyph-name="Sacute" unicode="&#x15a;" horiz-adv-x="595" 
d="M49 -17v257h16c72 -145 162 -234 255 -234c84 0 130 55 130 119c0 74 -59 116 -176 154c-110 36 -218 80 -218 209c0 133 98 222 243 222c59 0 116 -19 156 -42l48 48h12v-230h-16c-74 142 -139 205 -214 205c-60 0 -119 -39 -119 -111c0 -73 61 -112 180 -149
c95 -30 202 -75 202 -205c0 -122 -74 -239 -245 -239c-57 0 -134 19 -185 48l-57 -52h-12zM256 764l26 124c18 88 31 116 72 116c36 0 67 -25 67 -58c0 -24 -16 -42 -70 -100l-76 -82h-19z" />
    <glyph glyph-name="sacute" unicode="&#x15b;" horiz-adv-x="452" 
d="M34 -8v176h15c65 -102 123 -156 194 -156c47 0 74 25 74 68c0 44 -25 62 -132 94s-151 64 -151 140c0 97 75 158 190 158c57 0 103 -15 136 -37l30 37h12v-158h-15c-58 89 -98 138 -163 138c-43 0 -70 -28 -70 -73c0 -41 44 -59 107 -74c110 -26 172 -64 172 -150
c0 -94 -83 -163 -200 -163c-37 0 -131 23 -157 39l-30 -39h-12zM184 524l26 124c18 88 31 116 72 116c36 0 67 -25 67 -58c0 -24 -16 -42 -70 -100l-76 -82h-19z" />
    <glyph glyph-name="Scaron" unicode="&#x160;" horiz-adv-x="595" 
d="M49 -17v257h16c72 -145 162 -234 255 -234c84 0 130 55 130 119c0 74 -59 116 -176 154c-110 36 -218 80 -218 209c0 133 98 222 243 222c59 0 116 -19 156 -42l48 48h12v-230h-16c-74 142 -139 205 -214 205c-60 0 -119 -39 -119 -111c0 -73 61 -112 180 -149
c95 -30 202 -75 202 -205c0 -122 -74 -239 -245 -239c-57 0 -134 19 -185 48l-57 -52h-12zM297 764l-141 213h16l135 -86l136 86h16l-149 -213h-13z" />
    <glyph glyph-name="scaron" unicode="&#x161;" horiz-adv-x="452" 
d="M34 -8v176h15c65 -102 123 -156 194 -156c47 0 74 25 74 68c0 44 -25 62 -132 94s-151 64 -151 140c0 97 75 158 190 158c57 0 103 -15 136 -37l30 37h12v-158h-15c-58 89 -98 138 -163 138c-43 0 -70 -28 -70 -73c0 -41 44 -59 107 -74c110 -26 172 -64 172 -150
c0 -94 -83 -163 -200 -163c-37 0 -131 23 -157 39l-30 -39h-12zM230 524l-141 213h16l135 -86l136 86h16l-149 -213h-13z" />
    <glyph glyph-name="Scedilla" unicode="&#x15e;" horiz-adv-x="595" 
d="M268 -251c-45 0 -71 4 -103 16l8 17c30 -7 49 -11 76 -11c38 0 54 19 54 45c0 29 -30 49 -81 49c-10 0 -22 -2 -33 -4l-6 9l120 117c-57 0 -134 19 -185 48l-57 -52h-12v257h16c72 -145 162 -234 255 -234c84 0 130 55 130 119c0 74 -59 116 -176 154
c-110 36 -218 80 -218 209c0 133 98 222 243 222c59 0 116 -19 156 -42l48 48h12v-230h-16c-74 142 -139 205 -214 205c-60 0 -119 -39 -119 -111c0 -73 61 -112 180 -149c95 -30 202 -75 202 -205c0 -115 -66 -226 -217 -238l-54 -52l2 -3c87 -4 122 -52 122 -91
c0 -55 -47 -93 -133 -93z" />
    <glyph glyph-name="scedilla" unicode="&#x15f;" horiz-adv-x="452" 
d="M201 -251c-45 0 -71 4 -103 16l8 17c30 -7 49 -11 76 -11c38 0 54 19 54 45c0 29 -30 49 -81 49c-10 0 -22 -2 -33 -4l-6 9l126 122h-9c-37 0 -131 23 -157 39l-30 -39h-12v176h15c65 -102 123 -156 194 -156c47 0 74 25 74 68c0 44 -25 62 -132 94s-151 64 -151 140
c0 97 75 158 190 158c57 0 103 -15 136 -37l30 37h12v-158h-15c-58 89 -98 138 -163 138c-43 0 -70 -28 -70 -73c0 -41 44 -59 107 -74c110 -26 172 -64 172 -150c0 -84 -66 -148 -163 -160l-60 -59l2 -3c87 -4 122 -52 122 -91c0 -55 -47 -93 -133 -93z" />
    <glyph glyph-name="Scommaaccent" unicode="&#x218;" horiz-adv-x="595" 
d="M49 -17v257h16c72 -145 162 -234 255 -234c84 0 130 55 130 119c0 74 -59 116 -176 154c-110 36 -218 80 -218 209c0 133 98 222 243 222c59 0 116 -19 156 -42l48 48h12v-230h-16c-74 142 -139 205 -214 205c-60 0 -119 -39 -119 -111c0 -73 61 -112 180 -149
c95 -30 202 -75 202 -205c0 -122 -74 -239 -245 -239c-57 0 -134 19 -185 48l-57 -52h-12zM232 -342l-8 12c77 47 91 96 93 123l-4 2c-9 -4 -18 -6 -28 -6c-32 0 -67 26 -67 73c0 41 30 78 75 78c54 0 88 -41 88 -99c0 -75 -52 -143 -149 -183z" />
    <glyph glyph-name="scommaaccent" unicode="&#x219;" horiz-adv-x="452" 
d="M34 -8v176h15c65 -102 123 -156 194 -156c47 0 74 25 74 68c0 44 -25 62 -132 94s-151 64 -151 140c0 97 75 158 190 158c57 0 103 -15 136 -37l30 37h12v-158h-15c-58 89 -98 138 -163 138c-43 0 -70 -28 -70 -73c0 -41 44 -59 107 -74c110 -26 172 -64 172 -150
c0 -94 -83 -163 -200 -163c-37 0 -131 23 -157 39l-30 -39h-12zM156 -342l-8 12c77 47 91 96 93 123l-4 2c-9 -4 -18 -6 -28 -6c-32 0 -67 26 -67 73c0 41 30 78 75 78c54 0 88 -41 88 -99c0 -75 -52 -143 -149 -183z" />
    <glyph glyph-name="Tcaron" unicode="&#x164;" horiz-adv-x="745" 
d="M175 0v14c88 2 114 16 114 51v615h-15c-77 0 -135 -80 -211 -224l-16 2l6 239h640l5 -239l-16 -2c-76 144 -134 224 -211 224h-14v-615c0 -35 25 -49 114 -51v-14h-396zM362 764l-141 213h16l135 -86l136 86h16l-149 -213h-13z" />
    <glyph glyph-name="tcaron" unicode="&#x165;" horiz-adv-x="393" 
d="M242 -8c-82 0 -151 36 -151 145v285h-87v19l89 18v127l152 42v-171h141v-33h-141v-296c0 -56 14 -83 59 -83c32 0 54 19 73 64l13 -6c-27 -75 -67 -111 -148 -111zM324 528l-16 143c-2 20 -3 29 -3 45c0 43 29 56 55 56c30 0 53 -17 53 -44c0 -18 -6 -35 -18 -66
l-55 -134h-16z" />
    <glyph glyph-name="Tcommaaccent" unicode="&#x162;" horiz-adv-x="745" 
d="M175 0v14c88 2 114 16 114 51v615h-15c-77 0 -135 -80 -211 -224l-16 2l6 239h640l5 -239l-16 -2c-76 144 -134 224 -211 224h-14v-615c0 -35 25 -49 114 -51v-14h-396zM306 -342l-8 12c77 47 91 96 93 123l-4 2c-9 -4 -18 -6 -28 -6c-32 0 -67 26 -67 73
c0 41 30 78 75 78c54 0 88 -41 88 -99c0 -75 -52 -143 -149 -183z" />
    <glyph glyph-name="tcommaaccent" unicode="&#x163;" horiz-adv-x="393" 
d="M242 -8c-82 0 -151 36 -151 145v285h-87v19l89 18v127l152 42v-171h141v-33h-141v-296c0 -56 14 -83 59 -83c32 0 54 19 73 64l13 -6c-27 -75 -67 -111 -148 -111zM133 -342l-8 12c77 47 91 96 93 123l-4 2c-9 -4 -18 -6 -28 -6c-32 0 -67 26 -67 73c0 41 30 78 75 78
c54 0 88 -41 88 -99c0 -75 -52 -143 -149 -183z" />
    <glyph glyph-name="Thorn" unicode="&#xde;" horiz-adv-x="697" 
d="M29 0v14c81 3 100 16 100 51v567c0 35 -19 49 -100 52v13h374v-11c-94 -3 -106 -16 -106 -53v-76h55c239 0 312 -80 312 -199c0 -112 -79 -201 -314 -201h-53v-92c0 -37 12 -50 106 -53v-12h-374zM297 174h42c120 0 153 59 153 184c0 110 -36 182 -149 182h-46v-366z" />
    <glyph glyph-name="thorn" unicode="&#xfe;" horiz-adv-x="577" 
d="M217 717v-308c45 38 87 63 144 63c119 0 186 -93 186 -236c0 -133 -76 -244 -214 -244c-47 0 -83 7 -116 21v-155c0 -24 16 -32 93 -35v-12h-314v12c57 1 67 11 67 35v786c0 30 -9 48 -71 49v12zM302 12c51 0 83 69 83 218c0 104 -24 190 -95 190c-21 0 -45 -8 -73 -27
v-323c22 -44 52 -58 85 -58z" />
    <glyph glyph-name="Uacute" unicode="&#xda;" horiz-adv-x="821" 
d="M418 -17c-192 0 -297 74 -297 249v400c0 35 -20 49 -100 52v13h360v-13c-62 -3 -92 -15 -92 -52v-420c0 -140 69 -194 182 -194c47 0 95 15 124 44c35 35 57 88 57 169v295c0 100 -39 147 -140 158v13h292v-13c-94 -13 -125 -58 -125 -158v-295
c0 -155 -76 -248 -261 -248zM402 764l26 124c18 88 31 116 72 116c36 0 67 -25 67 -58c0 -24 -16 -42 -70 -100l-76 -82h-19z" />
    <glyph glyph-name="uacute" unicode="&#xfa;" horiz-adv-x="601" 
d="M218 -8c-88 0 -142 50 -142 151v258c0 30 -11 48 -68 49v12l222 4v-319c0 -54 21 -85 66 -85c31 0 52 15 76 47v292c0 30 -14 46 -68 48v12l222 5v-415c0 -30 13 -36 68 -39v-12h-220v89c-39 -63 -94 -97 -156 -97zM241 524l26 124c18 88 31 116 72 116
c36 0 67 -25 67 -58c0 -24 -16 -42 -70 -100l-76 -82h-19z" />
    <glyph glyph-name="Ubreve" unicode="&#x16c;" horiz-adv-x="821" 
d="M418 -17c-192 0 -297 74 -297 249v400c0 35 -20 49 -100 52v13h360v-13c-62 -3 -92 -15 -92 -52v-420c0 -140 69 -194 182 -194c47 0 95 15 124 44c35 35 57 88 57 169v295c0 100 -39 147 -140 158v13h292v-13c-94 -13 -125 -58 -125 -158v-295
c0 -155 -76 -248 -261 -248zM431 769c-76 0 -136 57 -144 172h15c19 -57 73 -84 127 -84c58 0 111 29 129 84h15c-7 -115 -66 -172 -142 -172z" />
    <glyph glyph-name="ubreve" unicode="&#x16d;" horiz-adv-x="601" 
d="M218 -8c-88 0 -142 50 -142 151v258c0 30 -11 48 -68 49v12l222 4v-319c0 -54 21 -85 66 -85c31 0 52 15 76 47v292c0 30 -14 46 -68 48v12l222 5v-415c0 -30 13 -36 68 -39v-12h-220v89c-39 -63 -94 -97 -156 -97zM301 529c-76 0 -136 57 -144 172h15
c19 -57 73 -84 127 -84c58 0 111 29 129 84h15c-7 -115 -66 -172 -142 -172z" />
    <glyph glyph-name="Ucircumflex" unicode="&#xdb;" horiz-adv-x="821" 
d="M418 -17c-192 0 -297 74 -297 249v400c0 35 -20 49 -100 52v13h360v-13c-62 -3 -92 -15 -92 -52v-420c0 -140 69 -194 182 -194c47 0 95 15 124 44c35 35 57 88 57 169v295c0 100 -39 147 -140 158v13h292v-13c-94 -13 -125 -58 -125 -158v-295
c0 -155 -76 -248 -261 -248zM295 764l149 213h13l141 -213h-16l-135 86l-136 -86h-16z" />
    <glyph glyph-name="ucircumflex" unicode="&#xfb;" horiz-adv-x="601" 
d="M218 -8c-88 0 -142 50 -142 151v258c0 30 -11 48 -68 49v12l222 4v-319c0 -54 21 -85 66 -85c31 0 52 15 76 47v292c0 30 -14 46 -68 48v12l222 5v-415c0 -30 13 -36 68 -39v-12h-220v89c-39 -63 -94 -97 -156 -97zM135 524l149 213h13l141 -213h-16l-135 86l-136 -86
h-16z" />
    <glyph glyph-name="Udieresis" unicode="&#xdc;" horiz-adv-x="821" 
d="M418 -17c-192 0 -297 74 -297 249v400c0 35 -20 49 -100 52v13h360v-13c-62 -3 -92 -15 -92 -52v-420c0 -140 69 -194 182 -194c47 0 95 15 124 44c35 35 57 88 57 169v295c0 100 -39 147 -140 158v13h292v-13c-94 -13 -125 -58 -125 -158v-295
c0 -155 -76 -248 -261 -248zM539 769c-48 0 -82 36 -82 82c0 47 34 84 82 84s82 -37 82 -84c0 -46 -34 -82 -82 -82zM322 769c-48 0 -82 36 -82 82c0 47 34 84 82 84s82 -37 82 -84c0 -46 -34 -82 -82 -82z" />
    <glyph glyph-name="udieresis" unicode="&#xfc;" horiz-adv-x="601" 
d="M218 -8c-88 0 -142 50 -142 151v258c0 30 -11 48 -68 49v12l222 4v-319c0 -54 21 -85 66 -85c31 0 52 15 76 47v292c0 30 -14 46 -68 48v12l222 5v-415c0 -30 13 -36 68 -39v-12h-220v89c-39 -63 -94 -97 -156 -97zM394 529c-48 0 -82 36 -82 82c0 47 34 84 82 84
s82 -37 82 -84c0 -46 -34 -82 -82 -82zM177 529c-48 0 -82 36 -82 82c0 47 34 84 82 84s82 -37 82 -84c0 -46 -34 -82 -82 -82z" />
    <glyph glyph-name="Ugrave" unicode="&#xd9;" horiz-adv-x="821" 
d="M418 -17c-192 0 -297 74 -297 249v400c0 35 -20 49 -100 52v13h360v-13c-62 -3 -92 -15 -92 -52v-420c0 -140 69 -194 182 -194c47 0 95 15 124 44c35 35 57 88 57 169v295c0 100 -39 147 -140 158v13h292v-13c-94 -13 -125 -58 -125 -158v-295
c0 -155 -76 -248 -261 -248zM453 764l-76 82c-54 58 -70 76 -70 100c0 33 31 58 67 58c41 0 54 -28 72 -116l26 -124h-19z" />
    <glyph glyph-name="ugrave" unicode="&#xf9;" horiz-adv-x="601" 
d="M218 -8c-88 0 -142 50 -142 151v258c0 30 -11 48 -68 49v12l222 4v-319c0 -54 21 -85 66 -85c31 0 52 15 76 47v292c0 30 -14 46 -68 48v12l222 5v-415c0 -30 13 -36 68 -39v-12h-220v89c-39 -63 -94 -97 -156 -97zM310 524l-76 82c-54 58 -70 76 -70 100
c0 33 31 58 67 58c41 0 54 -28 72 -116l26 -124h-19z" />
    <glyph glyph-name="Uhungarumlaut" unicode="&#x170;" horiz-adv-x="821" 
d="M418 -17c-192 0 -297 74 -297 249v400c0 35 -20 49 -100 52v13h360v-13c-62 -3 -92 -15 -92 -52v-420c0 -140 69 -194 182 -194c47 0 95 15 124 44c35 35 57 88 57 169v295c0 100 -39 147 -140 158v13h292v-13c-94 -13 -125 -58 -125 -158v-295
c0 -155 -76 -248 -261 -248zM479 764l46 126c31 85 46 112 85 112c30 0 52 -21 52 -50c0 -24 -8 -40 -80 -105l-92 -83h-11zM312 764l46 126c31 85 46 112 85 112c30 0 52 -21 52 -50c0 -24 -8 -40 -80 -105l-92 -83h-11z" />
    <glyph glyph-name="uhungarumlaut" unicode="&#x171;" horiz-adv-x="601" 
d="M218 -8c-88 0 -142 50 -142 151v258c0 30 -11 48 -68 49v12l222 4v-319c0 -54 21 -85 66 -85c31 0 52 15 76 47v292c0 30 -14 46 -68 48v12l222 5v-415c0 -30 13 -36 68 -39v-12h-220v89c-39 -63 -94 -97 -156 -97zM354 524l46 126c31 85 46 112 85 112
c30 0 52 -21 52 -50c0 -24 -8 -40 -80 -105l-92 -83h-11zM187 524l46 126c31 85 46 112 85 112c30 0 52 -21 52 -50c0 -24 -8 -40 -80 -105l-92 -83h-11z" />
    <glyph glyph-name="Umacron" unicode="&#x16a;" horiz-adv-x="821" 
d="M418 -17c-192 0 -297 74 -297 249v400c0 35 -20 49 -100 52v13h360v-13c-62 -3 -92 -15 -92 -52v-420c0 -140 69 -194 182 -194c47 0 95 15 124 44c35 35 57 88 57 169v295c0 100 -39 147 -140 158v13h292v-13c-94 -13 -125 -58 -125 -158v-295
c0 -155 -76 -248 -261 -248zM265 794v51h308v-51h-308z" />
    <glyph glyph-name="umacron" unicode="&#x16b;" horiz-adv-x="601" 
d="M218 -8c-88 0 -142 50 -142 151v258c0 30 -11 48 -68 49v12l222 4v-319c0 -54 21 -85 66 -85c31 0 52 15 76 47v292c0 30 -14 46 -68 48v12l222 5v-415c0 -30 13 -36 68 -39v-12h-220v89c-39 -63 -94 -97 -156 -97zM153 554v51h308v-51h-308z" />
    <glyph glyph-name="Uogonek" unicode="&#x172;" horiz-adv-x="821" 
d="M418 -17c-192 0 -297 74 -297 249v400c0 35 -20 49 -100 52v13h360v-13c-62 -3 -92 -15 -92 -52v-420c0 -140 69 -194 182 -194c47 0 95 15 124 44c35 35 57 88 57 169v295c0 100 -39 147 -140 158v13h292v-13c-94 -13 -125 -58 -125 -158v-295
c0 -139 -61 -228 -207 -245l-7 -8c-38 -42 -54 -87 -54 -123c0 -39 18 -65 55 -65c11 0 41 4 68 19l6 -12c-30 -26 -91 -44 -137 -44c-59 0 -97 30 -97 84c0 62 51 101 109 137l14 9h-11z" />
    <glyph glyph-name="uogonek" unicode="&#x173;" horiz-adv-x="601" 
d="M218 -8c-88 0 -142 50 -142 151v258c0 30 -11 48 -68 49v12l222 4v-319c0 -54 21 -85 66 -85c31 0 52 15 76 47v292c0 30 -14 46 -68 48v12l222 5v-415c0 -30 13 -36 68 -39v-12h-62l-19 -22c-38 -42 -54 -87 -54 -123c0 -39 18 -65 55 -65c11 0 41 4 68 19l6 -12
c-30 -26 -91 -44 -137 -44c-59 0 -97 30 -97 84c0 62 51 101 109 137l41 26h-130v89c-39 -63 -94 -97 -156 -97z" />
    <glyph glyph-name="Uring" unicode="&#x16e;" horiz-adv-x="821" 
d="M418 -17c-192 0 -297 74 -297 249v400c0 35 -20 49 -100 52v13h360v-13c-62 -3 -92 -15 -92 -52v-420c0 -140 69 -194 182 -194c47 0 95 15 124 44c35 35 57 88 57 169v295c0 100 -39 147 -140 158v13h292v-13c-94 -13 -125 -58 -125 -158v-295
c0 -155 -76 -248 -261 -248zM434 769c-83 0 -130 45 -130 110c0 64 50 110 130 110c83 0 130 -45 130 -109s-49 -111 -130 -111zM436 787c34 0 46 34 46 92s-15 92 -50 92c-34 0 -46 -34 -46 -92s16 -92 50 -92z" />
    <glyph glyph-name="uring" unicode="&#x16f;" horiz-adv-x="601" 
d="M218 -8c-88 0 -142 50 -142 151v258c0 30 -11 48 -68 49v12l222 4v-319c0 -54 21 -85 66 -85c31 0 52 15 76 47v292c0 30 -14 46 -68 48v12l222 5v-415c0 -30 13 -36 68 -39v-12h-220v89c-39 -63 -94 -97 -156 -97zM301 529c-83 0 -130 45 -130 110c0 64 50 110 130 110
c83 0 130 -45 130 -109s-49 -111 -130 -111zM303 547c34 0 46 34 46 92s-15 92 -50 92c-34 0 -46 -34 -46 -92s16 -92 50 -92z" />
    <glyph glyph-name="Wacute" unicode="&#x1e82;" horiz-adv-x="1057" 
d="M530 502l-30 85c-22 65 -41 94 -102 97v13h348v-13c-80 -4 -98 -27 -79 -82l137 -414h6l114 367c25 78 5 114 -72 129v13h229v-13c-77 -15 -103 -46 -142 -163l-167 -531h-64l-167 481l-166 -481h-66l-204 597c-22 65 -40 87 -111 97v13h349v-13c-75 -4 -88 -27 -70 -82
l137 -416h6zM527 764l26 124c18 88 31 116 72 116c36 0 67 -25 67 -58c0 -24 -16 -42 -70 -100l-76 -82h-19z" />
    <glyph glyph-name="wacute" unicode="&#x1e83;" horiz-adv-x="812" 
d="M406 322l-24 69c-16 45 -33 52 -73 61v12h281v-12c-39 -5 -56 -11 -56 -31c0 -5 1 -11 3 -18l89 -286h4l73 231c8 26 10 43 10 50c0 31 -20 46 -69 54v12h196v-12c-44 -5 -84 -26 -99 -70l-129 -388h-94l-102 298l-112 -298h-92l-149 397c-17 44 -34 52 -80 61v12h286
v-12c-37 -5 -54 -11 -54 -30c0 -5 2 -13 4 -19l101 -289h4zM419 524l26 124c18 88 31 116 72 116c36 0 67 -25 67 -58c0 -24 -16 -42 -70 -100l-76 -82h-19z" />
    <glyph glyph-name="Wcircumflex" unicode="&#x174;" horiz-adv-x="1057" 
d="M530 502l-30 85c-22 65 -41 94 -102 97v13h348v-13c-80 -4 -98 -27 -79 -82l137 -414h6l114 367c25 78 5 114 -72 129v13h229v-13c-77 -15 -103 -46 -142 -163l-167 -531h-64l-167 481l-166 -481h-66l-204 597c-22 65 -40 87 -111 97v13h349v-13c-75 -4 -88 -27 -70 -82
l137 -416h6zM420 764l149 213h13l141 -213h-16l-135 86l-136 -86h-16z" />
    <glyph glyph-name="wcircumflex" unicode="&#x175;" horiz-adv-x="812" 
d="M406 322l-24 69c-16 45 -33 52 -73 61v12h281v-12c-39 -5 -56 -11 -56 -31c0 -5 1 -11 3 -18l89 -286h4l73 231c8 26 10 43 10 50c0 31 -20 46 -69 54v12h196v-12c-44 -5 -84 -26 -99 -70l-129 -388h-94l-102 298l-112 -298h-92l-149 397c-17 44 -34 52 -80 61v12h286
v-12c-37 -5 -54 -11 -54 -30c0 -5 2 -13 4 -19l101 -289h4zM298 524l149 213h13l141 -213h-16l-135 86l-136 -86h-16z" />
    <glyph glyph-name="Wdieresis" unicode="&#x1e84;" horiz-adv-x="1057" 
d="M530 502l-30 85c-22 65 -41 94 -102 97v13h348v-13c-80 -4 -98 -27 -79 -82l137 -414h6l114 367c25 78 5 114 -72 129v13h229v-13c-77 -15 -103 -46 -142 -163l-167 -531h-64l-167 481l-166 -481h-66l-204 597c-22 65 -40 87 -111 97v13h349v-13c-75 -4 -88 -27 -70 -82
l137 -416h6zM677 769c-48 0 -82 36 -82 82c0 47 34 84 82 84s82 -37 82 -84c0 -46 -34 -82 -82 -82zM460 769c-48 0 -82 36 -82 82c0 47 34 84 82 84s82 -37 82 -84c0 -46 -34 -82 -82 -82z" />
    <glyph glyph-name="wdieresis" unicode="&#x1e85;" horiz-adv-x="812" 
d="M406 322l-24 69c-16 45 -33 52 -73 61v12h281v-12c-39 -5 -56 -11 -56 -31c0 -5 1 -11 3 -18l89 -286h4l73 231c8 26 10 43 10 50c0 31 -20 46 -69 54v12h196v-12c-44 -5 -84 -26 -99 -70l-129 -388h-94l-102 298l-112 -298h-92l-149 397c-17 44 -34 52 -80 61v12h286
v-12c-37 -5 -54 -11 -54 -30c0 -5 2 -13 4 -19l101 -289h4zM556 529c-48 0 -82 36 -82 82c0 47 34 84 82 84s82 -37 82 -84c0 -46 -34 -82 -82 -82zM339 529c-48 0 -82 36 -82 82c0 47 34 84 82 84s82 -37 82 -84c0 -46 -34 -82 -82 -82z" />
    <glyph glyph-name="Wgrave" unicode="&#x1e80;" horiz-adv-x="1057" 
d="M530 502l-30 85c-22 65 -41 94 -102 97v13h348v-13c-80 -4 -98 -27 -79 -82l137 -414h6l114 367c25 78 5 114 -72 129v13h229v-13c-77 -15 -103 -46 -142 -163l-167 -531h-64l-167 481l-166 -481h-66l-204 597c-22 65 -40 87 -111 97v13h349v-13c-75 -4 -88 -27 -70 -82
l137 -416h6zM576 764l-76 82c-54 58 -70 76 -70 100c0 33 31 58 67 58c41 0 54 -28 72 -116l26 -124h-19z" />
    <glyph glyph-name="wgrave" unicode="&#x1e81;" horiz-adv-x="812" 
d="M406 322l-24 69c-16 45 -33 52 -73 61v12h281v-12c-39 -5 -56 -11 -56 -31c0 -5 1 -11 3 -18l89 -286h4l73 231c8 26 10 43 10 50c0 31 -20 46 -69 54v12h196v-12c-44 -5 -84 -26 -99 -70l-129 -388h-94l-102 298l-112 -298h-92l-149 397c-17 44 -34 52 -80 61v12h286
v-12c-37 -5 -54 -11 -54 -30c0 -5 2 -13 4 -19l101 -289h4zM436 524l-76 82c-54 58 -70 76 -70 100c0 33 31 58 67 58c41 0 54 -28 72 -116l26 -124h-19z" />
    <glyph glyph-name="Yacute" unicode="&#xdd;" horiz-adv-x="701" 
d="M421 325l128 231c43 77 29 107 -49 128v13h231v-13c-67 -12 -110 -46 -175 -162l-121 -217v-240c0 -35 20 -48 103 -51v-14h-373v14c83 3 103 16 103 51v219l-174 318c-30 52 -54 69 -114 82v13h375v-13c-99 -6 -108 -33 -78 -86zM391 764l26 124c18 88 31 116 72 116
c36 0 67 -25 67 -58c0 -24 -16 -42 -70 -100l-76 -82h-19z" />
    <glyph glyph-name="yacute" unicode="&#xfd;" horiz-adv-x="516" 
d="M264 -25l-201 416c-22 45 -34 53 -83 61v12h294v-12c-53 -6 -67 -16 -52 -49l114 -258l84 213c24 60 6 83 -66 94v12h201v-12c-44 -5 -77 -23 -97 -70l-182 -436c-46 -111 -103 -146 -161 -146c-64 0 -101 30 -101 83c0 35 26 72 72 72c38 0 69 -30 69 -71
c0 -29 -14 -50 -27 -62c52 4 92 42 130 139zM294 524l26 124c18 88 31 116 72 116c36 0 67 -25 67 -58c0 -24 -16 -42 -70 -100l-76 -82h-19z" />
    <glyph glyph-name="Ycircumflex" unicode="&#x176;" horiz-adv-x="701" 
d="M421 325l128 231c43 77 29 107 -49 128v13h231v-13c-67 -12 -110 -46 -175 -162l-121 -217v-240c0 -35 20 -48 103 -51v-14h-373v14c83 3 103 16 103 51v219l-174 318c-30 52 -54 69 -114 82v13h375v-13c-99 -6 -108 -33 -78 -86zM207 764l149 213h13l141 -213h-16
l-135 86l-136 -86h-16z" />
    <glyph glyph-name="ycircumflex" unicode="&#x177;" horiz-adv-x="516" 
d="M264 -25l-201 416c-22 45 -34 53 -83 61v12h294v-12c-53 -6 -67 -16 -52 -49l114 -258l84 213c24 60 6 83 -66 94v12h201v-12c-44 -5 -77 -23 -97 -70l-182 -436c-46 -111 -103 -146 -161 -146c-64 0 -101 30 -101 83c0 35 26 72 72 72c38 0 69 -30 69 -71
c0 -29 -14 -50 -27 -62c52 4 92 42 130 139zM126 524l149 213h13l141 -213h-16l-135 86l-136 -86h-16z" />
    <glyph glyph-name="Ydieresis" unicode="&#x178;" horiz-adv-x="701" 
d="M421 325l128 231c43 77 29 107 -49 128v13h231v-13c-67 -12 -110 -46 -175 -162l-121 -217v-240c0 -35 20 -48 103 -51v-14h-373v14c83 3 103 16 103 51v219l-174 318c-30 52 -54 69 -114 82v13h375v-13c-99 -6 -108 -33 -78 -86zM527 769c-48 0 -82 36 -82 82
c0 47 34 84 82 84s82 -37 82 -84c0 -46 -34 -82 -82 -82zM310 769c-48 0 -82 36 -82 82c0 47 34 84 82 84s82 -37 82 -84c0 -46 -34 -82 -82 -82z" />
    <glyph glyph-name="ydieresis" unicode="&#xff;" horiz-adv-x="516" 
d="M264 -25l-201 416c-22 45 -34 53 -83 61v12h294v-12c-53 -6 -67 -16 -52 -49l114 -258l84 213c24 60 6 83 -66 94v12h201v-12c-44 -5 -77 -23 -97 -70l-182 -436c-46 -111 -103 -146 -161 -146c-64 0 -101 30 -101 83c0 35 26 72 72 72c38 0 69 -30 69 -71
c0 -29 -14 -50 -27 -62c52 4 92 42 130 139zM405 529c-48 0 -82 36 -82 82c0 47 34 84 82 84s82 -37 82 -84c0 -46 -34 -82 -82 -82zM188 529c-48 0 -82 36 -82 82c0 47 34 84 82 84s82 -37 82 -84c0 -46 -34 -82 -82 -82z" />
    <glyph glyph-name="Ygrave" unicode="&#x1ef2;" horiz-adv-x="701" 
d="M421 325l128 231c43 77 29 107 -49 128v13h231v-13c-67 -12 -110 -46 -175 -162l-121 -217v-240c0 -35 20 -48 103 -51v-14h-373v14c83 3 103 16 103 51v219l-174 318c-30 52 -54 69 -114 82v13h375v-13c-99 -6 -108 -33 -78 -86zM389 764l-76 82c-54 58 -70 76 -70 100
c0 33 31 58 67 58c41 0 54 -28 72 -116l26 -124h-19z" />
    <glyph glyph-name="ygrave" unicode="&#x1ef3;" horiz-adv-x="516" 
d="M264 -25l-201 416c-22 45 -34 53 -83 61v12h294v-12c-53 -6 -67 -16 -52 -49l114 -258l84 213c24 60 6 83 -66 94v12h201v-12c-44 -5 -77 -23 -97 -70l-182 -436c-46 -111 -103 -146 -161 -146c-64 0 -101 30 -101 83c0 35 26 72 72 72c38 0 69 -30 69 -71
c0 -29 -14 -50 -27 -62c52 4 92 42 130 139zM300 524l-76 82c-54 58 -70 76 -70 100c0 33 31 58 67 58c41 0 54 -28 72 -116l26 -124h-19z" />
    <glyph glyph-name="Zacute" unicode="&#x179;" horiz-adv-x="679" 
d="M29 0l-1 14l428 663h-158c-77 0 -139 -71 -227 -229l-16 2l12 247h578l1 -14l-428 -663h183c77 0 139 85 227 243l16 -2l-9 -261h-606zM280 764l26 124c18 88 31 116 72 116c36 0 67 -25 67 -58c0 -24 -16 -42 -70 -100l-76 -82h-19z" />
    <glyph glyph-name="zacute" unicode="&#x17a;" horiz-adv-x="501" 
d="M25 0l-2 16l297 428h-85c-58 0 -100 -28 -174 -163l-17 2l11 181h426l2 -16l-298 -428h94c65 0 98 38 177 173l17 -2l-11 -191h-437zM194 524l26 124c18 88 31 116 72 116c36 0 67 -25 67 -58c0 -24 -16 -42 -70 -100l-76 -82h-19z" />
    <glyph glyph-name="Zcaron" unicode="&#x17d;" horiz-adv-x="679" 
d="M29 0l-1 14l428 663h-158c-77 0 -139 -71 -227 -229l-16 2l12 247h578l1 -14l-428 -663h183c77 0 139 85 227 243l16 -2l-9 -261h-606zM341 764l-141 213h16l135 -86l136 86h16l-149 -213h-13z" />
    <glyph glyph-name="zcaron" unicode="&#x17e;" horiz-adv-x="501" 
d="M25 0l-2 16l297 428h-85c-58 0 -100 -28 -174 -163l-17 2l11 181h426l2 -16l-298 -428h94c65 0 98 38 177 173l17 -2l-11 -191h-437zM251 524l-141 213h16l135 -86l136 86h16l-149 -213h-13z" />
    <glyph glyph-name="Zdotaccent" unicode="&#x17b;" horiz-adv-x="679" 
d="M29 0l-1 14l428 663h-158c-77 0 -139 -71 -227 -229l-16 2l12 247h578l1 -14l-428 -663h183c77 0 139 85 227 243l16 -2l-9 -261h-606zM338 769c-53 0 -89 31 -89 86s36 91 89 91c54 0 89 -34 89 -87c0 -55 -35 -90 -89 -90z" />
    <glyph glyph-name="zdotaccent" unicode="&#x17c;" horiz-adv-x="501" 
d="M25 0l-2 16l297 428h-85c-58 0 -100 -28 -174 -163l-17 2l11 181h426l2 -16l-298 -428h94c65 0 98 38 177 173l17 -2l-11 -191h-437zM256 529c-53 0 -89 31 -89 86s36 91 89 91c54 0 89 -34 89 -87c0 -55 -35 -90 -89 -90z" />
    <glyph glyph-name="schwa" unicode="&#x259;" horiz-adv-x="509" 
d="M237 472c146 0 246 -81 246 -233c0 -157 -109 -247 -245 -247c-143 0 -220 93 -213 231h296v14v2c0 126 -51 190 -147 190c-59 0 -99 -29 -136 -80l-11 7c47 73 112 116 210 116zM244 12c51 0 73 73 76 191h-141c-13 -116 10 -191 65 -191z" />
    <glyph glyph-name="germandbls" unicode="&#xdf;" horiz-adv-x="665" 
d="M460 -8c-78 0 -156 32 -156 99c0 31 23 63 63 63c38 0 58 -30 58 -61c0 -22 -16 -43 -35 -56c12 -16 45 -27 74 -27c56 0 84 34 84 77c0 48 -31 76 -108 117c-93 49 -126 83 -126 133c0 42 16 65 63 102c51 40 59 74 59 149c0 69 -24 115 -97 115c-55 0 -88 -24 -88 -152
v-551h-221v12c57 1 67 11 67 35v375h-87v19l87 18v35c0 171 82 229 247 229c152 0 228 -52 228 -124c0 -58 -33 -81 -99 -117c-57 -31 -71 -45 -71 -80c0 -30 48 -57 101 -85c82 -44 143 -82 143 -163c0 -89 -66 -162 -186 -162z" />
    <glyph glyph-name="zero" unicode="0" horiz-adv-x="651" 
d="M324 -14c-182 0 -286 145 -286 344s110 351 289 351c182 0 286 -148 286 -347c0 -198 -110 -348 -289 -348zM330 4c91 0 105 114 105 328s-21 330 -114 330c-91 0 -106 -115 -106 -330c0 -213 22 -328 115 -328z" />
    <glyph glyph-name="one" unicode="1" horiz-adv-x="442" 
d="M34 0v13c91 1 113 20 113 56v489c0 59 -9 80 -115 86v11l277 22v-608c0 -36 19 -55 112 -56v-13h-387z" />
    <glyph glyph-name="two" unicode="2" horiz-adv-x="584" 
d="M39 0v97l130 92c152 108 202 174 202 310c0 127 -47 163 -112 163c-42 0 -92 -15 -113 -53c52 -20 76 -49 76 -94c0 -48 -33 -93 -91 -93c-57 0 -93 43 -93 96c0 104 108 163 245 163c177 0 254 -80 254 -181c0 -100 -81 -171 -293 -298l-107 -64v-4h277
c59 0 72 16 109 103l13 -1l-3 -236h-494z" />
    <glyph glyph-name="three" unicode="3" horiz-adv-x="574" 
d="M259 -14c-143 0 -233 56 -233 145c0 56 39 97 93 97c56 0 87 -41 87 -85c0 -40 -24 -73 -63 -93c16 -25 66 -46 117 -46c76 0 123 56 123 173c0 95 -37 152 -165 152h-34v22h34c116 0 148 60 148 167c0 97 -33 144 -119 144c-33 0 -76 -20 -93 -42c32 -12 66 -40 66 -90
c0 -44 -29 -85 -87 -85c-49 0 -87 33 -87 88c0 92 101 148 231 148c163 0 255 -61 255 -160c0 -85 -58 -147 -233 -176v-4c166 -6 250 -71 250 -168c0 -121 -100 -187 -290 -187z" />
    <glyph glyph-name="four" unicode="4" horiz-adv-x="613" 
d="M587 186h-118v-122c0 -34 18 -50 79 -51v-13h-325v13c60 1 84 17 84 51v122h-292v46l342 435h112v-385h118v-96zM303 555l-210 -273h214v273h-4z" />
    <glyph glyph-name="five" unicode="5" horiz-adv-x="559" 
d="M261 -14c-113 0 -221 44 -221 137c0 53 37 96 93 96c55 0 82 -40 82 -82c0 -47 -29 -78 -65 -92c20 -23 56 -41 103 -41c100 0 116 88 116 207c0 129 -58 163 -131 163c-50 0 -101 -22 -141 -56l-19 9l9 340h431l-24 -139h-387l-5 -185c44 36 115 60 183 60
c180 0 250 -82 250 -197c0 -126 -93 -220 -274 -220z" />
    <glyph glyph-name="six" unicode="6" horiz-adv-x="596" 
d="M306 -14c-162 0 -271 103 -271 287c0 109 38 204 109 275c83 83 183 125 389 136v-12c-222 -50 -288 -135 -332 -313l4 -2c28 55 86 87 163 87c127 0 198 -87 198 -205c0 -147 -85 -253 -260 -253zM308 3c65 0 95 70 95 212c0 133 -30 197 -92 197
c-66 0 -117 -76 -117 -197c0 -139 36 -212 114 -212z" />
    <glyph glyph-name="seven" unicode="7" horiz-adv-x="547" 
d="M108 -10v9l354 529h-294c-46 0 -59 -17 -99 -108l-13 1l8 246h477v-12l-159 -353l-130 -312h-144z" />
    <glyph glyph-name="eight" unicode="8" horiz-adv-x="582" 
d="M32 153c0 70 50 124 143 158c-70 35 -128 86 -128 174c0 117 114 196 239 196c141 0 239 -59 239 -162c0 -62 -58 -112 -132 -141c82 -35 157 -87 157 -186c0 -121 -119 -206 -256 -206c-172 0 -262 62 -262 167zM251 279c-16 6 -33 12 -49 19c-33 -39 -39 -87 -39 -138
c0 -74 43 -156 136 -156c72 0 111 44 111 125c0 78 -79 120 -159 150zM346 397l15 -6c23 31 33 70 33 128c0 69 -32 142 -115 142c-64 0 -96 -43 -96 -114c0 -81 82 -119 163 -150z" />
    <glyph glyph-name="nine" unicode="9" horiz-adv-x="596" 
d="M68 -21v12c222 51 287 138 332 317l-4 2c-28 -55 -77 -87 -154 -87c-127 0 -207 87 -207 205c0 147 88 253 263 253c172 0 268 -103 268 -297c0 -109 -37 -195 -108 -266c-83 -83 -184 -127 -390 -139zM290 255c66 0 117 76 117 197c0 134 -32 212 -105 212
c-65 0 -104 -70 -104 -212c0 -133 30 -197 92 -197z" />
    <glyph glyph-name="period" unicode="." horiz-adv-x="270" 
d="M134 -17c-52 0 -89 39 -89 86s39 88 91 88s89 -39 89 -86s-39 -88 -91 -88z" />
    <glyph glyph-name="comma" unicode="," horiz-adv-x="270" 
d="M37 -164l-6 12c83 43 119 110 123 145l-4 2c-10 -4 -20 -6 -31 -6c-36 0 -75 29 -75 81c0 46 34 87 84 87c60 0 98 -46 98 -111c0 -92 -72 -179 -189 -210z" />
    <glyph glyph-name="colon" unicode=":" horiz-adv-x="290" 
d="M144 247c-52 0 -89 39 -89 86s39 88 91 88s89 -39 89 -86s-39 -88 -91 -88zM144 -17c-52 0 -89 39 -89 86s39 88 91 88s89 -39 89 -86s-39 -88 -91 -88z" />
    <glyph glyph-name="semicolon" unicode=";" horiz-adv-x="290" 
d="M144 247c-52 0 -89 39 -89 86s39 88 91 88s89 -39 89 -86s-39 -88 -91 -88zM47 -164l-6 12c83 43 119 110 123 145l-4 2c-10 -4 -20 -6 -31 -6c-36 0 -75 29 -75 81c0 46 34 87 84 87c60 0 98 -46 98 -111c0 -92 -72 -179 -189 -210z" />
    <glyph glyph-name="ellipsis" unicode="&#x2026;" horiz-adv-x="786" 
d="M650 -17c-52 0 -89 39 -89 86s39 88 91 88s89 -39 89 -86s-39 -88 -91 -88zM392 -17c-52 0 -89 39 -89 86s39 88 91 88s89 -39 89 -86s-39 -88 -91 -88zM134 -17c-52 0 -89 39 -89 86s39 88 91 88s89 -39 89 -86s-39 -88 -91 -88z" />
    <glyph glyph-name="periodcentered" unicode="&#xb7;" horiz-adv-x="270" 
d="M134 231c-52 0 -89 39 -89 86s39 88 91 88s89 -39 89 -86s-39 -88 -91 -88z" />
    <glyph glyph-name="bullet" unicode="&#x2022;" horiz-adv-x="480" 
d="M240 191c-82 0 -141 63 -141 140s59 140 141 140s141 -63 141 -140s-59 -140 -141 -140z" />
    <glyph glyph-name="ampersand" unicode="&#x26;" horiz-adv-x="773" 
d="M344 395c42 43 56 86 56 153c0 69 -30 108 -79 108c-40 0 -71 -33 -71 -95c0 -51 13 -86 94 -166zM220 327c-34 -40 -48 -85 -48 -132c0 -89 57 -139 137 -139c35 0 77 18 106 55c-39 62 -126 156 -195 216zM509 228c43 118 108 142 151 142c55 0 92 -36 92 -87
c0 -43 -35 -79 -78 -79s-76 36 -76 79c0 4 0 5 1 9l-4 3c-23 -14 -48 -37 -72 -83c77 -124 122 -143 166 -143c20 0 33 5 63 24l8 -9c-54 -64 -114 -101 -176 -101c-65 0 -106 20 -159 112c-45 -70 -110 -112 -210 -112c-107 0 -187 64 -187 167c0 81 46 150 175 192
c-61 57 -80 103 -80 156c0 97 74 174 203 174c130 0 189 -72 189 -143c0 -64 -46 -122 -147 -155c56 -46 112 -99 141 -146z" />
    <glyph glyph-name="exclam" unicode="!" horiz-adv-x="290" 
d="M138 211c-20 147 -76 340 -76 411c0 63 29 103 84 103c54 0 84 -40 84 -103c0 -71 -56 -264 -76 -411h-16zM144 -17c-52 0 -89 39 -89 86s39 88 91 88s89 -39 89 -86s-39 -88 -91 -88z" />
    <glyph glyph-name="exclamdown" unicode="&#xa1;" horiz-adv-x="290" 
d="M144 551c-52 0 -89 39 -89 86s39 88 91 88s89 -39 89 -86s-39 -88 -91 -88zM144 -17c-54 0 -84 40 -84 103c0 71 56 264 76 411h16c20 -147 76 -340 76 -411c0 -63 -29 -103 -84 -103z" />
    <glyph glyph-name="question" unicode="?" horiz-adv-x="530" 
d="M221 211v141c101 40 125 105 125 194c0 114 -48 159 -124 159c-47 0 -91 -19 -108 -49c50 -14 75 -50 75 -92c0 -45 -30 -90 -87 -90c-55 0 -94 41 -94 96c0 94 104 153 237 153c171 0 261 -75 261 -181s-93 -173 -258 -205v-126h-27zM233 -17c-52 0 -89 39 -89 86
s39 88 91 88s89 -39 89 -86s-39 -88 -91 -88z" />
    <glyph glyph-name="questiondown" unicode="&#xbf;" horiz-adv-x="530" 
d="M295 551c-52 0 -89 39 -89 86s39 88 91 88s89 -39 89 -86s-39 -88 -91 -88zM285 -15c-171 0 -261 75 -261 181s93 173 258 205v126h27v-141c-101 -40 -125 -105 -125 -194c0 -114 48 -159 124 -159c47 0 91 19 108 49c-50 14 -75 50 -75 92c0 45 30 90 87 90
c55 0 94 -41 94 -96c0 -94 -104 -153 -237 -153z" />
    <glyph glyph-name="quotedblleft" unicode="&#x201c;" horiz-adv-x="493" 
d="M365 396c-60 0 -98 46 -98 111c0 92 72 179 189 210l6 -12c-83 -43 -119 -110 -123 -145l4 -2c10 4 20 6 31 6c36 0 75 -29 75 -81c0 -46 -34 -87 -84 -87zM142 396c-60 0 -98 46 -98 111c0 92 72 179 189 210l6 -12c-83 -43 -119 -110 -123 -145l4 -2c10 4 20 6 31 6
c36 0 75 -29 75 -81c0 -46 -34 -87 -84 -87z" />
    <glyph glyph-name="quotedblright" unicode="&#x201d;" horiz-adv-x="493" 
d="M260 392l-6 12c83 43 119 110 123 145l-4 2c-10 -4 -20 -6 -31 -6c-36 0 -75 29 -75 81c0 46 34 87 84 87c60 0 98 -46 98 -111c0 -92 -72 -179 -189 -210zM37 392l-6 12c83 43 119 110 123 145l-4 2c-10 -4 -20 -6 -31 -6c-36 0 -75 29 -75 81c0 46 34 87 84 87
c60 0 98 -46 98 -111c0 -92 -72 -179 -189 -210z" />
    <glyph glyph-name="quoteleft" unicode="&#x2018;" horiz-adv-x="270" 
d="M142 396c-60 0 -98 46 -98 111c0 92 72 179 189 210l6 -12c-83 -43 -119 -110 -123 -145l4 -2c10 4 20 6 31 6c36 0 75 -29 75 -81c0 -46 -34 -87 -84 -87z" />
    <glyph glyph-name="quoteright" unicode="&#x2019;" horiz-adv-x="270" 
d="M37 392l-6 12c83 43 119 110 123 145l-4 2c-10 -4 -20 -6 -31 -6c-36 0 -75 29 -75 81c0 46 34 87 84 87c60 0 98 -46 98 -111c0 -92 -72 -179 -189 -210z" />
    <glyph glyph-name="quotedblbase" unicode="&#x201e;" horiz-adv-x="493" 
d="M260 -164l-6 12c83 43 119 110 123 145l-4 2c-10 -4 -20 -6 -31 -6c-36 0 -75 29 -75 81c0 46 34 87 84 87c60 0 98 -46 98 -111c0 -92 -72 -179 -189 -210zM37 -164l-6 12c83 43 119 110 123 145l-4 2c-10 -4 -20 -6 -31 -6c-36 0 -75 29 -75 81c0 46 34 87 84 87
c60 0 98 -46 98 -111c0 -92 -72 -179 -189 -210z" />
    <glyph glyph-name="quotesinglbase" unicode="&#x201a;" horiz-adv-x="270" 
d="M37 -164l-6 12c83 43 119 110 123 145l-4 2c-10 -4 -20 -6 -31 -6c-36 0 -75 29 -75 81c0 46 34 87 84 87c60 0 98 -46 98 -111c0 -92 -72 -179 -189 -210z" />
    <glyph glyph-name="guillemotleft" unicode="&#xab;" horiz-adv-x="519" 
d="M468 26l-201 168c-25 21 -25 25 -25 32s0 11 25 32l201 168l12 -9l-112 -191l112 -192zM259 26l-201 168c-25 21 -25 25 -25 32s0 11 25 32l201 168l12 -9l-112 -191l112 -192z" />
    <glyph glyph-name="guillemotright" unicode="&#xbb;" horiz-adv-x="519" 
d="M260 25l-12 9l112 191l-112 192l12 8l201 -168c25 -21 25 -25 25 -32s0 -11 -25 -32zM51 25l-12 9l112 191l-112 192l12 8l201 -168c25 -21 25 -25 25 -32s0 -11 -25 -32z" />
    <glyph glyph-name="guilsinglleft" unicode="&#x2039;" horiz-adv-x="310" 
d="M259 26l-201 168c-25 21 -25 25 -25 32s0 11 25 32l201 168l12 -9l-112 -191l112 -192z" />
    <glyph glyph-name="guilsinglright" unicode="&#x203a;" horiz-adv-x="310" 
d="M51 25l-12 9l112 191l-112 192l12 8l201 -168c25 -21 25 -25 25 -32s0 -11 -25 -32z" />
    <glyph glyph-name="hyphen" unicode="-" horiz-adv-x="366" 
d="M55 240v41h256v-41h-256z" />
    <glyph glyph-name="endash" unicode="&#x2013;" horiz-adv-x="540" 
d="M55 253v22h430v-22h-430z" />
    <glyph glyph-name="emdash" unicode="&#x2014;" horiz-adv-x="790" 
d="M55 253v22h680v-22h-680z" />
    <glyph glyph-name="underscore" unicode="_" horiz-adv-x="440" 
d="M-2 0v31h444v-31h-444z" />
    <glyph glyph-name="slash" unicode="/" horiz-adv-x="457" 
d="M8 -215l212 480l208 481h30l-212 -481l-208 -480h-30z" />
    <glyph glyph-name="backslash" unicode="\" horiz-adv-x="457" 
d="M418 -215l-208 480l-212 481h30l208 -481l212 -480h-30z" />
    <glyph glyph-name="bar" unicode="|" horiz-adv-x="306" 
d="M140 -215v961h26v-961h-26z" />
    <glyph glyph-name="brokenbar" unicode="&#xa6;" horiz-adv-x="306" 
d="M166 337h-26v409h26v-409zM140 194h26v-409h-26v409z" />
    <glyph glyph-name="parenleft" unicode="(" horiz-adv-x="383" 
d="M411 -166c-156 53 -348 217 -348 465s192 412 348 465l6 -12c-131 -89 -206 -217 -206 -453s75 -364 206 -453z" />
    <glyph glyph-name="parenright" unicode=")" horiz-adv-x="383" 
d="M-28 -166l-6 12c131 89 206 217 206 453s-75 364 -206 453l6 12c156 -53 348 -217 348 -465s-192 -412 -348 -465z" />
    <glyph glyph-name="bracketleft" unicode="[" horiz-adv-x="374" 
d="M92 -165v929h305v-20h-167v-889h167v-20h-305z" />
    <glyph glyph-name="bracketright" unicode="]" horiz-adv-x="374" 
d="M-23 -165v20h167v889h-167v20h305v-929h-305z" />
    <glyph glyph-name="braceleft" unicode="{" horiz-adv-x="401" 
d="M434 -159c-185 0 -274 61 -274 185c0 50 20 114 20 148c0 80 -16 118 -157 127v16c141 10 157 43 157 123c0 34 -20 94 -20 143c0 124 89 175 274 181v-13c-130 -10 -127 -72 -127 -166c0 -29 7 -70 7 -114c0 -101 -51 -142 -225 -160v-5c169 -14 225 -62 225 -163
c0 -44 -7 -90 -7 -119c0 -94 -3 -160 127 -169v-14z" />
    <glyph glyph-name="braceright" unicode="}" horiz-adv-x="401" 
d="M-33 -159v14c130 9 127 75 127 169c0 29 -7 75 -7 119c0 101 56 149 225 163v5c-174 18 -225 59 -225 160c0 44 7 85 7 114c0 94 3 156 -127 166v13c185 -6 274 -57 274 -181c0 -49 -20 -109 -20 -143c0 -80 16 -113 157 -123v-16c-141 -9 -157 -47 -157 -127
c0 -34 20 -98 20 -148c0 -124 -89 -185 -274 -185z" />
    <glyph glyph-name="at" unicode="@" horiz-adv-x="909" 
d="M469 -146c-236 0 -408 161 -408 407c0 244 177 423 427 423c198 0 360 -142 360 -338c0 -190 -135 -289 -244 -289c-94 0 -110 26 -123 73l-4 2c-40 -42 -74 -67 -126 -67c-78 0 -126 61 -126 150c0 136 116 267 236 267c58 0 81 -22 97 -53h5l11 43l130 8l-53 -145
l-40 -139c-23 -72 -18 -114 25 -114c74 0 190 100 190 263c0 179 -146 320 -343 320c-237 0 -400 -179 -400 -399c0 -223 149 -392 391 -392c108 0 180 32 249 82l11 -14c-72 -53 -150 -88 -265 -88zM416 120c19 0 33 8 56 31l76 253c-13 30 -28 44 -55 44
c-69 0 -139 -135 -139 -249c0 -55 25 -79 62 -79z" />
    <glyph glyph-name="copyright" unicode="&#xa9;" horiz-adv-x="834" 
d="M417 -34c-216 0 -383 165 -383 383c0 215 167 382 383 382s383 -167 383 -382c0 -218 -167 -383 -383 -383zM417 -17c207 0 363 164 363 366s-156 365 -363 365s-363 -163 -363 -365s156 -366 363 -366zM419 149c-124 0 -198 68 -198 196c0 131 100 209 214 209
c42 0 79 -12 100 -27l24 29h12v-156h-16c-37 90 -79 139 -129 139c-62 0 -98 -64 -98 -181c0 -121 54 -181 119 -181c53 0 97 30 123 91l16 -7c-23 -54 -70 -112 -167 -112z" />
    <glyph glyph-name="published" unicode="&#x2117;" horiz-adv-x="834" 
d="M417 -34c-216 0 -383 165 -383 383c0 215 167 382 383 382s383 -167 383 -382c0 -218 -167 -383 -383 -383zM417 -17c207 0 363 164 363 366s-156 365 -363 365s-363 -163 -363 -365s156 -366 363 -366zM247 157v13c46 1 54 9 54 28v310c0 19 -8 27 -54 28v12h182
c134 0 176 -48 176 -113c0 -62 -46 -114 -177 -114h-28v-123c0 -21 4 -28 57 -29v-12h-210zM400 336h22c67 0 84 30 84 99c0 61 -19 99 -82 99h-24v-198z" />
    <glyph glyph-name="registered.alt" horiz-adv-x="834" 
d="M417 -34c-216 0 -383 165 -383 383c0 215 167 382 383 382s383 -167 383 -382c0 -218 -167 -383 -383 -383zM417 -17c207 0 363 164 363 366s-156 365 -363 365s-363 -163 -363 -365s156 -366 363 -366zM380 361h31c65 0 78 17 78 83c0 57 -18 90 -83 90h-26v-173z
M380 347v-150c0 -21 15 -27 51 -28v-13h-203v13c46 1 54 9 54 28v311c0 19 -8 27 -54 28v12h203c117 0 159 -48 159 -97c0 -47 -32 -81 -121 -94v-2c83 -1 108 -36 114 -84l4 -52c5 -41 11 -48 56 -50v-12c-22 -3 -43 -3 -60 -3c-78 0 -93 26 -97 74l-4 46
c-5 56 -17 73 -79 73h-23z" />
    <glyph glyph-name="registered" unicode="&#xae;" horiz-adv-x="385" 
d="M191 423c-87 0 -153 66 -153 155c0 90 66 153 153 153c90 0 155 -63 155 -153c0 -89 -65 -155 -155 -155zM191 435c84 0 140 62 140 143s-56 141 -140 141s-138 -60 -138 -141s54 -143 138 -143zM177 587h17c24 0 30 10 30 36c0 23 -7 32 -32 32h-15v-68zM177 579v-58
c0 -9 6 -13 21 -13v-7h-83v7c17 0 23 5 23 13v123c0 8 -6 11 -23 11v8h80c58 0 72 -18 72 -39s-10 -34 -47 -39v-3c33 -5 40 -13 42 -33l2 -22c1 -14 9 -18 23 -18v-7c-8 -2 -17 -3 -29 -3c-25 0 -34 9 -35 31l-1 18c-1 23 -9 31 -29 31h-16z" />
    <glyph glyph-name="servicemark" unicode="&#x2120;" horiz-adv-x="631" 
d="M54 552h11c27 -44 59 -72 91 -72c29 0 43 18 43 34c0 22 -19 34 -61 46c-41 12 -82 28 -82 75c0 44 38 73 91 73c21 0 42 -6 56 -13l16 15h8v-76h-12c-26 43 -50 62 -75 62c-22 0 -39 -12 -39 -31c0 -21 17 -29 63 -44c36 -12 75 -26 75 -74c0 -40 -29 -79 -91 -79
c-21 0 -49 6 -67 16l-19 -17h-8v85zM262 472v9c30 3 35 14 35 45v138c0 16 -7 29 -35 30v10h112l57 -156h4l53 156h109v-10c-28 -2 -36 -5 -36 -16v-180c0 -11 8 -14 36 -15v-11h-135v11c24 1 30 4 30 15v163h-4l-63 -189h-36l-72 190h-4v-136c0 -31 5 -41 36 -45v-9h-87z
" />
    <glyph glyph-name="trademark" unicode="&#x2122;" horiz-adv-x="668" 
d="M299 472v9c30 3 35 14 35 45v138c0 16 -7 29 -35 30v10h112l57 -156h4l53 156h109v-10c-28 -2 -36 -5 -36 -16v-180c0 -11 8 -14 36 -15v-11h-135v11c24 1 30 4 30 15v163h-4l-63 -189h-36l-72 190h-4v-136c0 -31 5 -41 36 -45v-9h-87zM82 472v11c30 0 38 4 38 15v194h-5
c-21 0 -48 -39 -67 -79h-12l4 91h230l3 -91h-11c-19 43 -43 79 -68 79h-4v-194c0 -11 8 -15 38 -15v-11h-146z" />
    <glyph glyph-name="asterisk" unicode="*" horiz-adv-x="423" 
d="M268 373c-25 -8 -49 0 -59 29c-8 22 2 107 4 133l-10 3c-14 -22 -55 -92 -74 -107c-24 -19 -49 -10 -64 10c-16 22 -15 48 9 66c19 14 101 30 126 36v10c-25 6 -107 22 -126 36c-24 18 -25 44 -9 66c15 20 40 29 64 10c19 -15 61 -86 74 -108l10 3c-2 26 -12 110 -4 132
c10 29 34 37 59 29s40 -30 31 -59c-7 -21 -64 -84 -82 -104l6 -8c24 10 101 45 124 45c30 0 46 -21 46 -47s-16 -47 -46 -47c-23 0 -100 34 -123 44l-6 -9c17 -19 74 -83 81 -104c9 -29 -6 -51 -31 -59z" />
    <glyph glyph-name="dagger" unicode="&#x2020;" horiz-adv-x="585" 
d="M286 -108c-14 178 -52 366 -71 422l51 63c11 14 17 29 17 42c0 25 -19 45 -49 45c-59 0 -106 -50 -144 -50c-33 0 -66 17 -66 55c0 35 38 65 85 65c59 0 120 -36 174 -70l3 3l-32 103c-15 47 -23 82 -23 114c0 43 23 73 62 73s62 -30 62 -73c0 -32 -8 -67 -23 -114
l-32 -103l3 -3c54 34 115 70 174 70c47 0 85 -30 85 -65c0 -38 -33 -55 -66 -55c-38 0 -85 50 -144 50c-30 0 -49 -20 -49 -45c0 -13 6 -28 17 -42l51 -63c-19 -56 -57 -244 -71 -422h-14z" />
    <glyph glyph-name="daggerdbl" unicode="&#x2021;" horiz-adv-x="605" 
d="M303 -110c-39 0 -62 28 -62 69c0 30 9 64 23 108l32 99l-3 3c-54 -34 -115 -70 -174 -70c-47 0 -85 30 -85 65c0 38 33 55 66 55c38 0 85 -50 144 -50c29 0 48 14 48 39c0 15 -6 33 -19 53l-41 63l41 62c13 20 19 38 19 51c0 27 -19 41 -48 41c-59 0 -106 -50 -144 -50
c-33 0 -66 17 -66 55c0 35 38 65 85 65c59 0 120 -36 174 -70l3 3l-32 99c-14 44 -23 78 -23 108c0 41 23 69 62 69s62 -28 62 -69c0 -30 -9 -64 -23 -108l-32 -99l3 -3c54 34 115 70 174 70c47 0 85 -30 85 -65c0 -38 -33 -55 -66 -55c-38 0 -85 50 -144 50
c-29 0 -48 -14 -48 -39c0 -15 6 -33 19 -53l41 -62l-41 -63c-13 -20 -19 -38 -19 -51c0 -27 19 -41 48 -41c59 0 106 50 144 50c33 0 66 -17 66 -55c0 -35 -38 -65 -85 -65c-59 0 -120 36 -174 70l-3 -3l32 -99c14 -44 23 -78 23 -108c0 -41 -23 -69 -62 -69z" />
    <glyph glyph-name="asciicircum" unicode="^" horiz-adv-x="361" 
d="M17 504l155 263h17l155 -263h-24l-139 126l-140 -126h-24z" />
    <glyph glyph-name="asciitilde" unicode="~" horiz-adv-x="406" 
d="M36 268c7 107 38 150 100 150c55 0 131 -57 168 -57c25 0 37 12 50 60h16c-7 -107 -38 -150 -100 -150c-55 0 -131 57 -168 57c-25 0 -37 -12 -50 -60h-16z" />
    <glyph glyph-name="dollar" unicode="$" horiz-adv-x="566" 
d="M268 -65v84c-149 3 -239 62 -239 145c0 38 28 85 86 85c50 0 80 -37 80 -79c0 -33 -18 -63 -57 -81c17 -25 64 -46 130 -50v225c-14 6 -30 11 -46 17c-92 33 -183 76 -183 185c0 113 106 178 239 181v73h26v-74c125 -4 216 -56 216 -130c0 -39 -27 -77 -75 -77
c-55 0 -81 35 -81 76c0 26 17 57 42 70c-19 21 -48 38 -102 41v-207c12 -5 26 -10 41 -15c94 -34 192 -80 192 -197c0 -102 -69 -184 -243 -188v-84h-26zM408 135c0 61 -33 87 -114 119v-215c71 2 114 37 114 96zM175 534c0 -49 33 -76 103 -105v198
c-55 -3 -103 -33 -103 -93z" />
    <glyph glyph-name="sterling" unicode="&#xa3;" horiz-adv-x="618" 
d="M478 354l-1 -21h-137c3 -14 6 -29 6 -44c0 -65 -40 -116 -107 -151c57 -8 117 -20 206 -20c83 0 117 17 133 95l17 -1c-2 -146 -51 -228 -162 -228c-62 0 -137 38 -218 120c-33 -81 -66 -120 -124 -120c-46 0 -70 30 -70 67c0 55 61 94 139 94c14 0 29 -1 43 -2
c4 10 6 21 6 35c0 55 -32 102 -58 155h-102l1 21h90c-15 33 -26 69 -26 111c0 132 105 216 268 216c110 0 202 -60 202 -148c0 -52 -32 -94 -83 -94c-55 0 -92 31 -92 90c0 43 29 75 69 90c-25 27 -58 43 -103 43c-56 0 -103 -34 -103 -126c0 -74 41 -124 62 -182h144z" />
    <glyph glyph-name="Euro" unicode="&#x20ac;" horiz-adv-x="714" 
d="M471 273h-198c23 -125 99 -213 206 -213c71 0 139 42 185 109l17 -10c-47 -98 -123 -176 -263 -176c-188 0 -293 126 -311 290h-83v21h82c-1 9 -1 19 -1 29c0 19 1 38 4 57h-85v21h88c31 158 158 283 346 283c124 0 211 -69 211 -146c0 -53 -38 -88 -87 -88
c-51 0 -90 30 -90 88c0 47 33 75 62 87c-18 19 -57 40 -100 40c-108 0 -176 -96 -187 -264h204v-21h-205v-27c0 -21 1 -40 4 -59h201v-21z" />
    <glyph glyph-name="yen" unicode="&#xa5;" horiz-adv-x="694" 
d="M52 312v21h183l-130 242c-28 51 -52 66 -110 79v13h364v-13c-97 -6 -99 -30 -72 -83l118 -233l93 172c57 106 24 120 -49 143v14h224v-13c-65 -12 -101 -48 -153 -148l-90 -173h184v-21h-195l-5 -10v-66h200v-21h-200v-144c0 -30 8 -55 99 -58v-13h-361v13
c91 3 99 28 99 58v144h-199v21h199v67l-5 9h-194z" />
    <glyph glyph-name="cent" unicode="&#xa2;" horiz-adv-x="561" 
d="M303 -87v79c-151 5 -247 94 -247 233c0 146 104 239 247 246v69h26v-68c141 -3 200 -75 200 -125c0 -45 -27 -79 -74 -79c-56 0 -81 36 -81 76c0 33 20 58 39 67c-12 19 -40 42 -84 43v-417c11 -2 23 -3 36 -3c61 0 119 40 156 91l11 -7c-45 -70 -103 -121 -203 -125v-80
h-26zM219 235c0 -99 27 -164 84 -189v405c-53 -12 -84 -69 -84 -216z" />
    <glyph glyph-name="numbersign" unicode="#" horiz-adv-x="708" 
d="M321 710l-44 -225h213l45 225h26l-44 -225h157v-21h-161l-50 -253h168v-21h-172l-46 -232h-26l45 232h-213l-46 -232h-26l45 232h-154v21h158l50 253h-164v21h168l45 225h26zM273 464l-50 -253h213l50 253h-213z" />
    <glyph glyph-name="paragraph" unicode="&#xb6;" horiz-adv-x="678" 
d="M381 -100v276c-190 4 -326 92 -326 246c0 143 114 245 324 245h263v-13c-103 -3 -115 -12 -115 -48v-706h-26v747h-93v-747h-27z" />
    <glyph glyph-name="section" unicode="&#xa7;" horiz-adv-x="562" 
d="M47 233c0 67 51 122 134 144v2c-65 27 -110 67 -110 131c0 110 97 171 220 171c97 0 200 -31 200 -109c0 -42 -28 -76 -70 -76c-46 0 -72 34 -72 70c0 29 14 53 35 67c-14 15 -49 28 -91 28c-64 0 -102 -34 -102 -85c0 -54 49 -73 142 -108c126 -46 182 -78 182 -160
c0 -66 -41 -115 -127 -148v-2c77 -38 103 -70 103 -130c0 -112 -89 -176 -224 -176c-125 0 -219 41 -219 121c0 37 25 78 77 78c49 0 74 -35 74 -72c0 -29 -15 -55 -48 -72c24 -23 73 -35 123 -35c78 0 106 45 106 91c0 50 -47 76 -159 116c-100 36 -174 67 -174 154z
M365 170c33 17 50 43 50 69c0 48 -34 66 -119 98l-90 31c-35 -11 -57 -30 -57 -70c0 -55 82 -82 158 -107c19 -6 39 -13 58 -21z" />
    <glyph glyph-name="ordfeminine" unicode="&#xaa;" horiz-adv-x="453" 
d="M142 338c-75 0 -114 38 -114 91c0 38 18 67 49 84c53 29 145 22 175 31v72c0 46 -11 64 -51 64c-22 0 -44 -5 -57 -13c15 -13 21 -25 21 -45c0 -34 -19 -56 -57 -56c-31 0 -57 25 -57 56c0 45 51 76 169 76c102 0 151 -36 151 -123v-162c0 -37 19 -46 56 -30l5 -10
c-29 -20 -58 -34 -90 -34c-51 0 -74 19 -81 57h-4c-26 -30 -64 -58 -115 -58zM204 388c18 0 39 11 48 25v113c-75 -9 -98 -27 -98 -83c0 -36 21 -55 50 -55z" />
    <glyph glyph-name="ordmasculine" unicode="&#xba;" horiz-adv-x="460" 
d="M230 337c-123 0 -192 67 -192 179s74 181 192 181c122 0 192 -66 192 -178s-74 -182 -192 -182zM233 355c54 0 63 61 63 163c0 101 -14 161 -69 161s-63 -60 -63 -161c0 -102 14 -163 69 -163z" />
    <glyph glyph-name="degree" unicode="&#xb0;" horiz-adv-x="396" 
d="M199 423c-101 0 -168 56 -168 148c0 91 71 150 168 150c99 0 166 -57 166 -147c0 -91 -70 -151 -166 -151zM201 445c53 0 68 48 68 128s-21 126 -73 126c-54 0 -68 -46 -68 -126s20 -128 73 -128z" />
    <glyph glyph-name="percent" unicode="%" horiz-adv-x="816" 
d="M605 15c84 0 142 132 142 224c0 68 -28 101 -64 101c-81 0 -140 -143 -140 -244c0 -65 33 -81 62 -81zM579 -14c-89 0 -144 56 -144 152c0 121 99 238 217 238c76 0 121 -49 121 -136c0 -86 -57 -254 -194 -254zM359 544c0 13 -1 25 -3 35c-38 10 -76 27 -108 49
c-56 -40 -93 -147 -93 -227c0 -65 33 -81 62 -81c84 0 142 132 142 224zM264 681c48 0 84 -20 103 -56c29 -14 63 -22 106 -22c61 0 111 27 172 93h32l-492 -722h-49l473 657l-3 3c-52 -45 -105 -64 -179 -64c-14 0 -29 1 -44 4c1 -9 2 -19 2 -29c0 -86 -57 -254 -194 -254
c-89 0 -144 56 -144 152c0 121 99 238 217 238z" />
    <glyph glyph-name="percent.alt" horiz-adv-x="869" 
d="M401 505c0 -109 -70 -179 -181 -179c-116 0 -182 67 -182 176s70 178 182 178c114 0 181 -66 181 -175zM147 -9l282 353l261 331h36l-281 -350l-262 -334h-36zM216 661c-49 0 -69 -59 -69 -157c0 -99 26 -159 76 -159c48 0 69 60 69 159c0 98 -26 157 -76 157zM472 162
c0 109 70 178 182 178c114 0 181 -66 181 -175s-70 -179 -181 -179c-116 0 -182 67 -182 176zM657 5c48 0 69 60 69 159c0 98 -26 157 -76 157c-49 0 -69 -59 -69 -157c0 -99 26 -159 76 -159z" />
    <glyph glyph-name="quotedbl" unicode="&#x22;" horiz-adv-x="474" 
d="M284 403l-15 6l21 164c7 53 10 76 18 96c11 27 34 40 59 40c38 0 74 -30 74 -68c0 -8 -2 -16 -5 -24c-8 -20 -21 -38 -53 -81zM84 403l-15 6l21 164c7 53 10 76 18 96c11 27 34 40 59 40c38 0 74 -30 74 -68c0 -8 -2 -16 -5 -24c-8 -20 -21 -38 -53 -81z" />
    <glyph glyph-name="quotesingle" unicode="'" horiz-adv-x="274" 
d="M84 403l-15 6l21 164c7 53 10 76 18 96c11 27 34 40 59 40c38 0 74 -30 74 -68c0 -8 -2 -16 -5 -24c-8 -20 -21 -38 -53 -81z" />
    <glyph glyph-name="plus" unicode="+" horiz-adv-x="556" 
d="M54 317v22h212v211h26v-211h210v-22h-210v-214h-26v214h-212z" />
    <glyph glyph-name="minus" unicode="&#x2212;" horiz-adv-x="536" 
d="M54 317v22h428v-22h-428z" />
    <glyph glyph-name="divide" unicode="&#xf7;" horiz-adv-x="575" 
d="M54 317v22h467v-22h-467zM288 415c-33 0 -59 26 -59 58s26 58 59 58c32 0 58 -26 58 -58s-26 -58 -58 -58zM288 125c-33 0 -59 26 -59 58s26 58 59 58c32 0 58 -26 58 -58s-26 -58 -58 -58z" />
    <glyph glyph-name="equal" unicode="=" horiz-adv-x="556" 
d="M59 217v22h438v-22h-438zM59 415v22h438v-22h-438z" />
    <glyph glyph-name="multiply" unicode="&#xd7;" horiz-adv-x="556" 
d="M456 519l17 -17l-178 -178l178 -178l-17 -17l-178 178l-178 -178l-17 17l178 178l-178 178l17 17l178 -178z" />
    <glyph glyph-name="less" unicode="&#x3c;" horiz-adv-x="555" 
d="M84 315v24l388 213v-30l-357 -195l357 -193v-31z" />
    <glyph glyph-name="greater" unicode="&#x3e;" horiz-adv-x="555" 
d="M471 316l-388 -213v30l357 195l-357 193v31l388 -212v-24z" />
    <glyph glyph-name="plusminus" unicode="&#xb1;" horiz-adv-x="530" 
d="M59 314v22h194v193h26v-193h192v-22h-192v-196h-26v196h-194zM59 0v22h412v-22h-412z" />
    <glyph glyph-name="space" unicode=" " horiz-adv-x="194" 
 />
    <glyph glyph-name="uni00A0" unicode="&#xa0;" horiz-adv-x="194" 
 />
    <glyph glyph-name="emspace" unicode="&#x2003;" horiz-adv-x="1000" 
 />
    <glyph glyph-name="enspace" unicode="&#x2002;" horiz-adv-x="500" 
 />
    <glyph glyph-name="threeperemspace" unicode="&#x2004;" horiz-adv-x="333" 
 />
    <glyph glyph-name="fourperemspace" unicode="&#x2005;" horiz-adv-x="250" 
 />
    <glyph glyph-name="thinspace" unicode="&#x2009;" horiz-adv-x="133" 
 />
    <glyph glyph-name="hairspace" unicode="&#x200a;" horiz-adv-x="75" 
 />
    <glyph glyph-name="NUL" horiz-adv-x="0" 
 />
    <glyph glyph-name="hfjslug" horiz-adv-x="694" 
d="M644 -200h-208l-8 14h-163l-8 -14h-207v303c18 0 32 14 32 32c0 17 -14 32 -32 32v554h100l30 79h334l29 -79h101v-921zM400 563v-172h15v78h38v14h-38v66h43v14h-58zM184 563v-172h15v79h47v-79h15v172h-15v-79h-47v79h-15zM460 394c5 -2 14 -4 21 -4c20 0 31 11 31 36
v137h-16v-137c0 -16 -5 -22 -16 -22c-6 0 -15 3 -20 5v-15zM371 465l-13 3c-2 -9 -5 -21 -8 -30h-1l-16 31c13 12 23 26 23 42c0 15 -9 31 -27 31c-17 0 -28 -16 -28 -31s6 -24 14 -39c-15 -12 -23 -28 -23 -47c0 -22 12 -37 29 -37c13 0 23 9 29 24h1l12 -24l12 6l-17 32
c5 12 9 25 13 39zM523 323v-46h8v12l8 8l15 -20h10l-20 26l18 20h-10l-20 -24h-1v24h-8zM488 292l10 -15h9l-12 17c5 2 10 6 10 14c0 9 -7 15 -17 15h-20v-46h8v15h12zM426 276c14 0 24 11 24 24c0 12 -10 24 -24 24s-24 -12 -24 -24c0 -13 10 -24 24 -24zM370 301l-13 22
h-9l18 -29v-17h8v17l18 29h-9zM193 323v-46h34v7h-26v13h23v7h-23v12h26v7h-34zM132 323v-46h8v32l25 -32h7v46h-8v-32l-25 32h-7zM241 323l14 -47h8l11 34h1l11 -34h8l14 47h-8l-10 -35h-1l-11 35h-7l-11 -35h-1l-10 35h-8zM327 479c-7 13 -12 22 -12 32s6 19 14 19
s13 -9 13 -19c0 -12 -5 -21 -15 -32zM342 423c-5 -13 -12 -21 -20 -21c-9 0 -16 10 -16 25c0 13 7 26 16 35zM487 299h-11v17h11c6 0 10 -3 10 -8s-4 -9 -10 -9zM426 283c-10 0 -16 8 -16 17c0 8 6 17 16 17s16 -9 16 -17c0 -9 -6 -17 -16 -17z" />
    <glyph glyph-name="i.dot" horiz-adv-x="325" 
d="M168 534c-53 0 -89 31 -89 86s36 91 89 91c54 0 89 -34 89 -87c0 -55 -35 -90 -89 -90zM21 0v12c57 1 72 11 72 35v346c0 30 -15 48 -72 49v12l226 12v-419c0 -24 9 -34 67 -35v-12h-293z" />
    <glyph glyph-name="fraction" unicode="&#x2044;" horiz-adv-x="611" 
d="M43 -31l248 357l244 358h33l-247 -358l-245 -357h-33z" />
    <glyph glyph-name="acute" unicode="&#xb4;" horiz-adv-x="238" 
d="M50 524l26 124c18 88 31 116 72 116c36 0 67 -25 67 -58c0 -24 -16 -42 -70 -100l-76 -82h-19z" />
    <glyph glyph-name="hungarumlaut" unicode="&#x2dd;" horiz-adv-x="329" 
d="M154 524l46 126c31 85 46 112 85 112c30 0 52 -21 52 -50c0 -24 -8 -40 -80 -105l-92 -83h-11zM-13 524l46 126c31 85 46 112 85 112c30 0 52 -21 52 -50c0 -24 -8 -40 -80 -105l-92 -83h-11z" />
    <glyph glyph-name="caron.alt" horiz-adv-x="146" 
d="M43 528l-16 143c-2 20 -3 29 -3 45c0 43 29 56 55 56c30 0 53 -17 53 -44c0 -18 -6 -35 -18 -66l-55 -134h-16z" />
    <glyph glyph-name="grave" unicode="`" horiz-adv-x="238" 
d="M169 524l-76 82c-54 58 -70 76 -70 100c0 33 31 58 67 58c41 0 54 -28 72 -116l26 -124h-19z" />
    <glyph glyph-name="circumflex" unicode="&#x2c6;" horiz-adv-x="329" 
d="M13 524l149 213h13l141 -213h-16l-135 86l-136 -86h-16z" />
    <glyph glyph-name="caron" unicode="&#x2c7;" horiz-adv-x="329" 
d="M154 524l-141 213h16l135 -86l136 86h16l-149 -213h-13z" />
    <glyph glyph-name="breve" unicode="&#x2d8;" horiz-adv-x="336" 
d="M169 529c-76 0 -136 57 -144 172h15c19 -57 73 -84 127 -84c58 0 111 29 129 84h15c-7 -115 -66 -172 -142 -172z" />
    <glyph glyph-name="tilde" unicode="&#x2dc;" horiz-adv-x="366" 
d="M16 525c7 107 38 150 100 150c55 0 131 -57 168 -57c25 0 37 12 50 60h16c-7 -107 -38 -150 -100 -150c-55 0 -131 57 -168 57c-25 0 -37 -12 -50 -60h-16z" />
    <glyph glyph-name="macron" unicode="&#xaf;" horiz-adv-x="321" 
d="M7 554v51h308v-51h-308z" />
    <glyph glyph-name="dieresis" unicode="&#xa8;" horiz-adv-x="417" 
d="M317 529c-48 0 -82 36 -82 82c0 47 34 84 82 84s82 -37 82 -84c0 -46 -34 -82 -82 -82zM100 529c-48 0 -82 36 -82 82c0 47 34 84 82 84s82 -37 82 -84c0 -46 -34 -82 -82 -82z" />
    <glyph glyph-name="dotaccent" unicode="&#x2d9;" horiz-adv-x="250" 
d="M125 529c-53 0 -89 31 -89 86s36 91 89 91c54 0 89 -34 89 -87c0 -55 -35 -90 -89 -90z" />
    <glyph glyph-name="ring" unicode="&#x2da;" horiz-adv-x="282" 
d="M141 529c-83 0 -130 45 -130 110c0 64 50 110 130 110c83 0 130 -45 130 -109s-49 -111 -130 -111zM143 547c34 0 46 34 46 92s-15 92 -50 92c-34 0 -46 -34 -46 -92s16 -92 50 -92z" />
    <glyph glyph-name="commaaccent" unicode="&#x326;" horiz-adv-x="270" 
d="M67 -342l-8 12c77 47 91 96 93 123l-4 2c-9 -4 -18 -6 -28 -6c-32 0 -67 26 -67 73c0 41 30 78 75 78c54 0 88 -41 88 -99c0 -75 -52 -143 -149 -183z" />
    <glyph glyph-name="cedilla" unicode="&#xb8;" horiz-adv-x="282" 
d="M112 -251c-45 0 -71 4 -103 16l8 17c30 -7 49 -11 76 -11c38 0 54 19 54 45c0 29 -30 49 -81 49c-10 0 -22 -2 -33 -4l-6 9l131 127h26l-63 -61l2 -3c87 -4 122 -52 122 -91c0 -55 -47 -93 -133 -93z" />
    <glyph glyph-name="ogonek" unicode="&#x2db;" horiz-adv-x="269" 
d="M103 -247c-59 0 -97 30 -97 84c0 62 51 101 109 137l69 43h16l-35 -39c-38 -42 -54 -87 -54 -123c0 -39 18 -65 55 -65c11 0 41 4 68 19l6 -12c-30 -26 -91 -44 -137 -44z" />
    </font>
</defs>
</svg>
