<?xml version="1.0" standalone="no"?>
<!DOCTYPE svg PUBLIC "-//W3C//DTD SVG 1.1//EN" "http://www.w3.org/Graphics/SVG/1.1/DTD/svg11.dtd" >
<svg xmlns="http://www.w3.org/2000/svg" xmlns:xlink="http://www.w3.org/1999/xlink" version="1.1">
<metadata>
Created by FontForge 20160407 at Thu May 19 23:32:34 2016
 By Jimmy Wärting
Copyright (C) 2002, 2007 Hoefler &#38; Frere-Jones. http://www.typography.com
</metadata>
<defs>
<font id="ChronicleDisplay-Semi" horiz-adv-x="766" >
  <font-face 
    font-family="Chronicle Display Semi"
    font-weight="375"
    font-stretch="normal"
    units-per-em="1000"
    panose-1="0 0 0 0 0 0 0 0 0 0"
    ascent="800"
    descent="-200"
    x-height="461"
    cap-height="697"
    bbox="-84 -292 1149 1133"
    underline-thickness="50"
    underline-position="-100"
    stemh="19"
    stemv="105"
    unicode-range="U+0020-FB04"
  />
<missing-glyph horiz-adv-x="500" 
d="M0 -200v1000h500v-1000h-500zM71 750l179 -390l179 390h-358zM50 -76l172 376l-172 376v-752zM450 676l-172 -376l172 -376v752zM250 240l-179 -390h358z" />
    <glyph glyph-name="f_b" unicode="fb" horiz-adv-x="866" 
d="M392 565c-27 4 -49 21 -49 57c0 19 12 41 24 52c-10 15 -28 30 -59 30s-52 -9 -69 -26c-20 -20 -32 -51 -32 -118v-103h185v108zM602 11c80 0 116 93 116 229c0 109 -45 189 -122 189c-40 0 -69 -15 -99 -48v-291c21 -53 63 -79 105 -79zM302 0h-271v12c57 1 71 8 71 39
v374h-86v13l86 22v38c0 78 19 134 54 169c39 39 93 55 152 55c41 0 72 -5 95 -16l94 13v-318c39 41 89 68 151 68c117 0 184 -98 184 -224c0 -139 -83 -253 -215 -253c-52 0 -107 12 -160 47l-53 -54h-15l3 91v350h-185v-375c0 -31 22 -37 95 -39v-12z" />
    <glyph glyph-name="f_f" unicode="ff" horiz-adv-x="616" 
d="M309 721c73 0 114 -22 134 -49l1 1c34 34 78 50 128 50c87 0 129 -38 129 -81c0 -36 -22 -60 -57 -60c-32 0 -61 17 -61 61c0 17 9 38 16 48c-8 8 -21 14 -37 14s-29 -5 -41 -17c-18 -18 -28 -52 -28 -130v-101h128v-31h-128v-376c0 -30 22 -36 95 -38v-12h-263v12
c47 1 63 8 63 38v376h-181v-376c0 -30 17 -37 67 -38v-12h-243v12c57 1 71 8 71 38v375h-86v13l86 22v39c0 78 20 132 56 168c38 39 92 54 151 54zM388 498c0 24 1 46 5 66c-26 4 -49 23 -49 59c0 22 11 40 21 51c-10 15 -29 29 -58 29c-30 0 -50 -9 -67 -25
c-20 -20 -33 -50 -33 -117v-104h181v41z" />
    <glyph glyph-name="f_h" unicode="fh" horiz-adv-x="868" 
d="M392 565c-27 4 -49 20 -49 57c0 19 12 41 24 52c-10 15 -28 30 -59 30s-52 -9 -69 -26c-20 -20 -32 -51 -32 -118v-103h185v108zM568 0h-239v12c45 1 63 8 63 38v376h-185v-376c0 -30 17 -37 67 -38v-12h-243v12c57 1 71 8 71 38v375h-86v13l86 22v38c0 78 19 133 54 169
c39 39 93 55 152 55c41 0 72 -6 95 -16l94 13v-364c44 71 104 111 171 111c79 0 123 -48 123 -140v-276c0 -30 13 -37 72 -38v-12h-237v12c47 1 60 8 60 38v255c0 72 -22 110 -81 110c-44 0 -81 -33 -108 -84v-281c0 -30 12 -37 71 -38v-12z" />
    <glyph glyph-name="fi" unicode="fi" horiz-adv-x="584" 
d="M31 0v12c57 1 71 8 71 38v375h-86v13l86 22v34c0 85 19 137 54 173c39 39 93 56 159 56c129 0 180 -61 180 -112c0 -37 -24 -63 -59 -63c-32 0 -63 17 -63 60c0 20 12 41 29 53c-12 23 -44 44 -86 44c-33 0 -58 -9 -76 -26c-21 -21 -33 -52 -33 -129v-93h151l136 6v-413
c0 -30 12 -37 73 -38v-12h-240v12c44 1 62 8 62 38v376h-182v-376c0 -30 17 -37 67 -38v-12h-243z" />
    <glyph glyph-name="f_j" unicode="fj" horiz-adv-x="574" 
d="M302 0h-271v12c57 1 71 8 71 39v374h-86v13l86 22v34c0 85 19 137 54 173c39 39 93 56 159 56c129 0 180 -61 180 -112c0 -37 -24 -63 -59 -63c-32 0 -63 17 -63 60c0 20 12 41 29 53c-12 23 -44 44 -86 44c-33 0 -58 -9 -76 -26c-21 -21 -33 -52 -33 -129v-93h151l136 6
v-453c0 -87 -10 -132 -49 -170c-28 -29 -74 -41 -117 -41c-76 0 -122 31 -122 76c0 35 26 60 59 60c35 0 58 -25 58 -59c0 -21 -10 -38 -23 -48c8 -7 18 -11 34 -11c39 0 55 34 55 102v507h-182v-375c0 -31 22 -37 95 -39v-12z" />
    <glyph glyph-name="f_k" unicode="fk" horiz-adv-x="838" 
d="M392 565c-27 4 -49 20 -49 57c0 19 12 41 24 52c-10 15 -28 30 -59 30s-52 -9 -69 -26c-20 -20 -32 -51 -32 -118v-103h185v108zM568 0h-239v12c45 1 63 8 63 38v376h-185v-376c0 -30 17 -37 67 -38v-12h-243v12c57 1 71 8 71 38v375h-86v13l86 22v38c0 78 19 133 54 169
c39 39 93 55 152 55c41 0 72 -6 95 -16l94 13v-508l146 151c43 45 36 74 -34 87v12h212v-12c-58 -12 -94 -35 -158 -97l-54 -54l150 -212c43 -61 54 -69 100 -74v-12h-238v12c52 5 55 23 31 58l-111 161l-44 -45v-136c0 -30 12 -37 71 -38v-12z" />
    <glyph glyph-name="fl" unicode="fl" horiz-adv-x="588" 
d="M392 426h-185v-376c0 -30 17 -37 67 -38v-12h-243v12c57 1 71 8 71 38v375h-86v13l86 22v38c0 78 19 133 54 169c39 39 93 55 152 55c41 0 72 -6 95 -16l94 13v-669c0 -30 12 -37 71 -38v-12h-239v12c45 1 63 8 63 38v376zM392 565c-27 4 -49 20 -49 57c0 19 12 41 24 52
c-10 15 -28 30 -59 30s-52 -9 -69 -26c-20 -20 -32 -51 -32 -118v-103h185v108z" />
    <glyph glyph-name="f_f_b" unicode="ffb" horiz-adv-x="1152" 
d="M588 0h-263v12c47 1 63 8 63 39v375h-181v-375c0 -31 17 -38 67 -39v-12h-243v12c57 1 71 8 71 39v374h-86v13l86 22v39c0 78 20 132 56 168c38 39 93 54 151 54c76 0 117 -23 136 -52c38 37 91 53 149 53c41 0 72 -5 95 -16l94 13v-318c39 41 89 68 151 68
c117 0 184 -98 184 -224c0 -139 -83 -253 -215 -253c-52 0 -107 12 -160 47l-53 -54h-15l3 91v350h-185v-375c0 -31 22 -37 95 -39v-12zM889 11c79 0 115 93 115 229c0 109 -45 189 -122 189c-40 0 -69 -15 -99 -48v-291c21 -53 63 -79 106 -79zM678 457v108
c-27 4 -49 21 -49 57c0 19 12 41 25 52c-11 15 -29 30 -60 30s-52 -9 -68 -26c-20 -20 -33 -51 -33 -118v-103h185zM388 498c0 24 2 46 5 66c-26 4 -49 23 -49 59c0 22 11 40 21 51c-10 15 -29 29 -58 29c-30 0 -50 -9 -67 -25c-20 -20 -33 -50 -33 -117v-104h181v41z" />
    <glyph glyph-name="f_f_h" unicode="ffh" horiz-adv-x="1154" 
d="M325 0v12c47 1 63 8 63 39v375h-181v-375c0 -31 17 -38 67 -39v-12h-243v12c57 1 71 8 71 39v374h-86v13l86 22v39c0 78 20 132 56 168c38 39 93 54 151 54c76 0 117 -23 136 -52c38 37 91 53 149 53c41 0 72 -5 95 -16l94 13v-364c44 71 104 111 171 111
c79 0 123 -48 123 -140v-275c0 -31 13 -38 72 -39v-12h-236v12c46 1 59 8 59 39v254c0 72 -22 110 -81 110c-44 0 -81 -33 -108 -84v-280c0 -31 12 -38 71 -39v-12h-238v12c44 1 62 8 62 39v375h-185v-375c0 -31 17 -38 67 -39v-12h-235zM678 457v108c-27 4 -49 21 -49 57
c0 19 12 41 25 52c-11 15 -29 30 -60 30s-52 -9 -68 -26c-20 -20 -33 -51 -33 -118v-103h185zM388 498c0 24 2 46 5 66c-26 4 -49 23 -49 59c0 22 11 40 21 51c-10 15 -29 29 -58 29c-30 0 -50 -9 -67 -25c-20 -20 -33 -50 -33 -117v-104h181v41z" />
    <glyph glyph-name="f_f_i" unicode="ffi" horiz-adv-x="870" 
d="M309 721c76 0 117 -23 136 -52c39 37 91 54 156 54c129 0 180 -61 180 -112c0 -37 -23 -63 -61 -63c-29 0 -60 17 -60 59c0 21 11 42 28 54c-12 23 -44 44 -86 44c-33 0 -58 -9 -76 -26c-21 -21 -33 -52 -33 -129v-93h151l136 6v-412c0 -31 12 -38 74 -39v-12h-241v12
c45 1 62 8 62 39v375h-182v-375c0 -31 17 -38 67 -39v-12h-235v12c47 1 63 8 63 39v375h-181v-375c0 -31 17 -38 67 -39v-12h-243v12c57 1 71 8 71 39v374h-86v13l86 22v39c0 78 20 132 56 168c38 39 93 54 151 54zM388 457v37c0 26 2 50 5 70c-32 3 -51 25 -51 59
c0 21 12 41 23 51c-10 15 -29 29 -58 29c-30 0 -50 -9 -67 -25c-20 -20 -33 -50 -33 -117v-104h181z" />
    <glyph glyph-name="f_f_j" unicode="ffj" horiz-adv-x="860" 
d="M588 0h-263v12c47 1 63 8 63 39v375h-181v-375c0 -31 17 -38 67 -39v-12h-243v12c57 1 71 8 71 39v374h-86v13l86 22v39c0 78 20 132 56 168c38 39 93 54 151 54c76 0 117 -23 136 -52c39 37 91 54 156 54c129 0 180 -61 180 -112c0 -37 -23 -63 -61 -63
c-29 0 -60 17 -60 59c0 21 11 42 28 54c-12 23 -44 44 -86 44c-33 0 -58 -9 -76 -26c-21 -21 -33 -52 -33 -129v-93h151l136 6v-453c0 -87 -10 -132 -49 -170c-28 -29 -74 -41 -117 -41c-76 0 -122 31 -122 76c0 35 26 60 59 60c35 0 58 -25 58 -59c0 -21 -10 -38 -23 -48
c8 -7 18 -11 34 -11c39 0 55 34 55 102v507h-182v-375c0 -31 22 -37 95 -39v-12zM388 494c0 26 2 50 5 70c-32 3 -51 25 -51 59c0 21 12 41 23 51c-10 15 -29 29 -58 29c-30 0 -50 -9 -67 -25c-20 -20 -33 -50 -33 -117v-104h181v37z" />
    <glyph glyph-name="f_f_k" unicode="ffk" horiz-adv-x="1124" 
d="M325 0v12c47 1 63 8 63 39v375h-181v-375c0 -31 17 -38 67 -39v-12h-243v12c57 1 71 8 71 39v374h-86v13l86 22v39c0 78 20 132 56 168c38 39 93 54 151 54c76 0 117 -23 136 -52c38 37 91 53 149 53c41 0 72 -5 95 -16l94 13v-508l146 151c43 45 36 74 -34 87v12h212
v-12c-58 -11 -93 -35 -157 -97l-55 -54l150 -212c43 -61 54 -69 100 -74v-12h-238v12c52 5 55 23 31 58l-111 161l-44 -45v-135c0 -31 12 -38 71 -39v-12h-238v12c44 1 62 8 62 39v375h-185v-375c0 -31 17 -38 67 -39v-12h-235zM678 457v108c-27 4 -49 21 -49 57
c0 19 12 41 25 52c-11 15 -29 30 -60 30s-52 -9 -68 -26c-20 -20 -33 -51 -33 -118v-103h185zM388 498c0 24 2 46 5 66c-26 4 -49 23 -49 59c0 22 11 40 21 51c-10 15 -29 29 -58 29c-30 0 -50 -9 -67 -25c-20 -20 -33 -50 -33 -117v-104h181v41z" />
    <glyph glyph-name="f_f_l" unicode="ffl" horiz-adv-x="874" 
d="M325 0v12c47 1 63 8 63 39v375h-181v-375c0 -31 17 -38 67 -39v-12h-243v12c57 1 71 8 71 39v374h-86v13l86 22v39c0 78 20 132 56 168c38 39 93 54 151 54c76 0 117 -23 136 -52c38 37 91 53 149 53c41 0 72 -5 95 -16l94 13v-668c0 -31 12 -38 71 -39v-12h-238v12
c44 1 62 8 62 39v375h-185v-375c0 -31 17 -38 67 -39v-12h-235zM678 457v108c-27 4 -49 21 -49 57c0 19 12 41 25 52c-11 15 -29 30 -60 30s-52 -9 -68 -26c-20 -20 -33 -51 -33 -118v-103h185zM388 498c0 24 2 46 5 66c-26 4 -49 23 -49 59c0 22 11 40 21 51
c-10 15 -29 29 -58 29c-30 0 -50 -9 -67 -25c-20 -20 -33 -50 -33 -117v-104h181v41z" />
    <glyph glyph-name=".notdef" horiz-adv-x="500" 
d="M0 -200v1000h500v-1000h-500zM71 750l179 -390l179 390h-358zM50 -76l172 376l-172 376v-752zM450 676l-172 -376l172 -376v752zM250 240l-179 -390h358z" />
    <glyph glyph-name="A" unicode="A" horiz-adv-x="686" 
d="M471 95l-60 172h-236l-34 -87c-45 -118 -28 -152 63 -167v-13h-234v13c66 18 102 57 144 165l213 539h42l224 -608c25 -68 40 -85 117 -96v-13h-328v13c95 5 109 26 89 82zM182 287h222l-104 295h-4z" />
    <glyph glyph-name="B" unicode="B" horiz-adv-x="686" 
d="M33 0v13c87 3 109 25 109 66v540c0 40 -22 63 -109 66v12h314c208 0 271 -81 271 -167c0 -74 -55 -146 -202 -159v-4c154 -6 230 -70 230 -169c0 -98 -71 -198 -290 -198h-323zM259 377h89c112 0 148 56 148 150c0 85 -29 151 -152 151h-85v-301zM259 19h101
c128 0 161 58 161 177c0 91 -46 162 -170 162h-92v-339z" />
    <glyph glyph-name="C" unicode="C" horiz-adv-x="712" 
d="M386 -17c-205 0 -342 139 -342 355c0 221 163 376 365 376c73 0 133 -17 180 -41l44 47h10v-243h-13c-55 141 -127 218 -234 218c-119 0 -220 -107 -220 -346c0 -234 125 -328 246 -328c115 0 195 72 239 168l17 -9c-43 -98 -131 -197 -292 -197z" />
    <glyph glyph-name="D" unicode="D" horiz-adv-x="767" 
d="M33 0v13c87 3 109 25 109 66v540c0 40 -22 63 -109 66v12h313c248 0 377 -144 377 -336c0 -185 -110 -361 -365 -361h-325zM259 19h67c200 0 265 77 265 334c0 260 -87 325 -262 325h-70v-659z" />
    <glyph glyph-name="E" unicode="E" horiz-adv-x="696" 
d="M33 0v13c87 3 109 25 109 66v540c0 40 -22 63 -109 66v12h580l3 -225l-14 -2c-58 142 -104 208 -223 208h-120v-307h54c83 0 127 31 154 137h13v-293h-13c-27 106 -71 137 -154 137h-54v-333h118c140 0 193 67 254 220l14 -1l-5 -238h-607z" />
    <glyph glyph-name="F" unicode="F" horiz-adv-x="658" 
d="M33 0v13c87 3 109 25 109 66v540c0 40 -22 62 -109 65v13h577l8 -230l-13 -1c-61 149 -112 212 -236 212h-110v-316h54c83 0 125 29 152 135h13v-291h-13c-27 106 -69 136 -152 136h-54v-263c0 -42 21 -63 111 -66v-13h-337z" />
    <glyph glyph-name="G" unicode="G" horiz-adv-x="751" 
d="M407 -17c-189 0 -363 127 -363 364c0 219 175 367 364 367c78 0 134 -17 181 -41l45 47h11v-231h-14c-55 133 -132 206 -232 206c-113 0 -222 -94 -222 -346c0 -251 116 -347 230 -347c58 0 104 15 136 42v189c0 41 -24 68 -111 71v13h303v-13c-63 -3 -78 -19 -78 -71
v-184c-68 -43 -165 -66 -250 -66z" />
    <glyph glyph-name="H" unicode="H" horiz-adv-x="830" 
d="M33 0v13c87 3 109 24 109 65v541c0 41 -22 63 -109 66v12h328v-12c-86 -3 -102 -23 -102 -66v-247h311v247c0 43 -16 63 -100 66v12h326v-12c-87 -3 -109 -25 -109 -66v-541c0 -41 22 -62 109 -65v-13h-326v13c84 3 100 22 100 65v273h-311v-273c0 -43 16 -62 102 -65
v-13h-328z" />
    <glyph glyph-name="I" unicode="I" horiz-adv-x="420" 
d="M40 0v13c91 3 112 25 112 66v540c0 40 -21 63 -112 66v12h340v-12c-91 -3 -112 -26 -112 -66v-540c0 -41 21 -63 112 -66v-13h-340z" />
    <glyph glyph-name="J" unicode="J" horiz-adv-x="565" 
d="M223 -17c-128 0 -192 59 -192 129c0 48 32 84 74 84c41 0 71 -31 71 -71s-27 -76 -78 -81c24 -22 62 -37 103 -37c84 0 118 53 118 172v440c0 41 -24 63 -115 66v12h339v-12c-87 -3 -108 -26 -108 -66v-413c0 -141 -70 -223 -212 -223z" />
    <glyph glyph-name="K" unicode="K" horiz-adv-x="756" 
d="M256 316l237 241c59 61 69 116 -34 128v12h275v-12c-84 -16 -133 -52 -235 -155l-102 -100l213 -296c67 -91 84 -110 155 -121v-13h-312v13c74 6 85 29 43 90l-175 248l-65 -64v-209c0 -43 16 -62 96 -65v-13h-322v13c87 3 109 24 109 65v541c0 41 -22 63 -109 66v12h328
v-12c-86 -3 -102 -23 -102 -66v-303z" />
    <glyph glyph-name="L" unicode="L" horiz-adv-x="633" 
d="M30 0v13c87 3 109 25 109 66v540c0 40 -22 63 -109 66v12h329v-12c-91 -3 -103 -24 -103 -66v-600h78c138 0 196 47 264 216l14 -1l-10 -234h-572z" />
    <glyph glyph-name="M" unicode="M" horiz-adv-x="976" 
d="M33 0v13c94 15 121 56 121 154v406c0 61 -35 110 -121 112v12h251l218 -539h4l206 539h230v-12c-86 -3 -109 -26 -109 -66v-540c0 -41 23 -63 109 -66v-13h-326v13c85 3 101 23 101 66v551h-5l-242 -631h-23l-263 633h-5v-465c0 -98 25 -140 126 -154v-13h-272z" />
    <glyph glyph-name="N" unicode="N" horiz-adv-x="795" 
d="M635 -15l-455 599h-1v-417c0 -98 26 -140 128 -154v-13h-274v13c94 15 122 56 122 154v402c0 62 -36 112 -122 116v12h213l397 -528h1v362c0 98 -34 140 -134 154v12h275v-12c-94 -16 -117 -56 -117 -154v-546h-33z" />
    <glyph glyph-name="O" unicode="O" 
d="M383 -17c-185 0 -339 142 -339 364c0 220 159 367 339 367c184 0 338 -142 338 -364c0 -220 -159 -367 -338 -367zM387 2c124 0 202 86 202 346c0 262 -86 347 -211 347c-124 0 -201 -86 -201 -346c0 -262 85 -347 210 -347z" />
    <glyph glyph-name="P" unicode="P" horiz-adv-x="653" 
d="M33 0v13c87 3 109 25 109 66v540c0 40 -22 63 -109 66v12h297c220 0 289 -83 289 -192c0 -102 -72 -198 -294 -198h-66v-228c0 -43 21 -63 116 -66v-13h-342zM259 326h67c137 0 166 66 166 180c0 100 -32 172 -162 172h-71v-352z" />
    <glyph glyph-name="Q" unicode="Q" 
d="M387 4c124 0 202 85 202 345c0 261 -86 346 -211 346c-124 0 -201 -85 -201 -345c0 -262 85 -346 210 -346zM424 -13c100 -35 146 -165 219 -165c20 0 27 11 27 26c0 28 -52 37 -52 80c0 29 21 56 56 56c36 0 62 -32 62 -70c0 -71 -65 -125 -157 -125
c-138 0 -188 154 -272 154c-43 0 -85 -25 -139 -76l-11 12c56 60 111 97 164 111c-156 27 -277 161 -277 358c0 219 159 366 339 366c184 0 338 -142 338 -363c0 -203 -136 -344 -297 -364z" />
    <glyph glyph-name="R" unicode="R" horiz-adv-x="714" 
d="M259 360h84c134 0 162 57 162 163c0 95 -40 155 -175 155h-71v-318zM259 341v-262c0 -43 21 -63 105 -66v-13h-331v13c87 3 109 25 109 66v540c0 40 -22 63 -109 66v12h315c206 0 284 -75 284 -169c0 -86 -58 -153 -212 -176v-3c148 -5 183 -71 197 -172l7 -57
c14 -89 30 -101 116 -102v-12c-34 -8 -70 -11 -103 -11c-108 0 -128 37 -138 127l-10 92c-11 101 -38 127 -154 127h-76z" />
    <glyph glyph-name="S" unicode="S" horiz-adv-x="580" 
d="M55 -18v250h14c60 -133 131 -226 238 -226c98 0 147 66 147 129c0 88 -60 123 -184 166c-100 35 -204 67 -204 196c0 132 101 214 236 214c59 0 114 -17 150 -34l36 40h12v-223h-14c-55 132 -119 198 -200 198c-68 0 -130 -44 -130 -123c0 -86 65 -118 180 -156
c95 -32 197 -67 197 -197c0 -110 -65 -230 -238 -230c-57 0 -124 20 -168 45l-60 -49h-12z" />
    <glyph glyph-name="T" unicode="T" horiz-adv-x="700" 
d="M174 0v13c89 3 119 25 119 66v599h-39c-74 0 -138 -68 -201 -199l-14 1l6 217h613l6 -217l-14 -1c-62 126 -126 199 -202 199h-39v-599c0 -41 30 -63 119 -66v-13h-354z" />
    <glyph glyph-name="U" unicode="U" horiz-adv-x="790" 
d="M403 -17c-173 0 -272 75 -272 220v416c0 40 -23 63 -109 66v12h327v-12c-85 -3 -101 -24 -101 -66v-404c0 -151 90 -198 203 -198c50 0 97 15 128 46c35 35 56 86 56 162v306c0 98 -33 140 -134 154v12h276v-12c-94 -16 -117 -56 -117 -154v-314
c0 -140 -79 -234 -257 -234z" />
    <glyph glyph-name="V" unicode="V" horiz-adv-x="707" 
d="M341 -18l-231 600c-27 71 -44 91 -119 103v12h327v-12c-95 -5 -109 -29 -88 -85l176 -472h5l159 417c33 87 19 123 -71 140v12h233v-12c-70 -15 -99 -49 -145 -165l-211 -538h-35z" />
    <glyph glyph-name="W" unicode="W" horiz-adv-x="1030" 
d="M513 518l-21 65c-26 79 -45 95 -112 102v12h305v-12c-83 -5 -97 -23 -77 -84l146 -449h4l123 390c30 95 10 127 -75 143v12h237v-12c-75 -13 -107 -54 -142 -163l-172 -540h-35l-169 504l-182 -504h-35l-194 601c-23 72 -42 90 -117 102v12h310v-12
c-81 -5 -90 -31 -73 -84l137 -451h4z" />
    <glyph glyph-name="X" unicode="X" horiz-adv-x="710" 
d="M388 406l107 151c51 72 35 119 -48 128v12h254v-12c-77 -12 -110 -41 -190 -149l-110 -150l190 -289c35 -52 54 -70 136 -84v-13h-329v13c93 6 96 33 63 85l-133 215l-123 -174c-51 -72 -33 -118 48 -126v-13h-255v13c77 11 108 33 191 147l125 172l-175 267
c-36 56 -54 72 -138 86v12h330v-12c-86 -4 -95 -37 -62 -89z" />
    <glyph glyph-name="Y" unicode="Y" horiz-adv-x="677" 
d="M386 333l130 228c47 80 42 107 -50 124v12h231v-12c-67 -12 -102 -37 -161 -139l-137 -235v-232c0 -41 21 -63 112 -66v-13h-340v13c92 3 112 25 112 66v212l-176 311c-30 52 -54 70 -114 83v12h322v-12c-99 -6 -105 -34 -75 -87z" />
    <glyph glyph-name="Z" unicode="Z" horiz-adv-x="650" 
d="M35 0l-1 11l435 666h-184c-72 0 -131 -56 -211 -198l-13 2l17 216h533l1 -11l-435 -666h213c79 0 125 61 210 207l14 -2l-14 -225h-565z" />
    <glyph glyph-name="a" unicode="a" horiz-adv-x="491" 
d="M168 -6c-89 0 -128 55 -128 111c0 39 18 78 60 101c74 41 191 47 214 58v72c0 75 -22 111 -81 111c-34 0 -65 -11 -83 -29c17 -16 27 -34 27 -54c0 -35 -21 -59 -60 -59c-35 0 -58 26 -58 59c0 59 73 102 186 102s173 -44 173 -147v-233c0 -49 18 -70 76 -46l4 -10
c-35 -22 -61 -34 -96 -34c-56 0 -77 23 -83 77h-4c-38 -44 -85 -79 -147 -79zM226 40c36 0 68 28 88 56v149c-133 -26 -162 -55 -162 -123c0 -48 23 -82 74 -82z" />
    <glyph glyph-name="b" unicode="b" horiz-adv-x="541" 
d="M64 -15l3 91v572c0 34 -10 49 -80 51v12l185 6v-316c40 41 90 68 151 68c117 0 184 -98 184 -224c0 -139 -82 -253 -214 -253c-52 0 -108 12 -160 47l-54 -54h-15zM278 11c80 0 115 93 115 229c0 109 -44 189 -122 189c-39 0 -68 -15 -99 -48v-291c21 -53 63 -79 106 -79
z" />
    <glyph glyph-name="c" unicode="c" horiz-adv-x="464" 
d="M251 -8c-133 0 -219 95 -219 230c0 147 105 247 241 247c116 0 169 -62 169 -108c0 -37 -21 -64 -57 -64c-41 0 -64 26 -64 59c0 29 17 51 32 59c-15 19 -39 36 -77 36c-75 0 -130 -79 -130 -211c0 -114 49 -208 154 -208c58 0 98 27 140 79l11 -8
c-43 -63 -100 -111 -200 -111z" />
    <glyph glyph-name="d" unicode="d" horiz-adv-x="545" 
d="M230 -8c-124 0 -198 101 -198 232c0 137 93 245 230 245c48 0 75 -10 102 -24v203c0 34 -10 49 -80 51v12l185 6v-666c0 -25 15 -40 72 -41v-10l-175 -4v55c-33 -34 -78 -59 -136 -59zM279 34c39 0 64 15 85 38v327c-22 31 -50 51 -96 51c-76 0 -122 -88 -122 -221
c0 -110 46 -195 133 -195z" />
    <glyph glyph-name="e" unicode="e" horiz-adv-x="484" 
d="M258 -8c-134 0 -226 95 -226 233c0 143 104 244 226 244c134 0 203 -94 195 -213h-307v-23v-2c0 -116 52 -199 157 -199c63 0 100 32 141 85l11 -8c-40 -65 -97 -117 -197 -117zM251 450c-60 0 -97 -61 -104 -176h194c10 110 -15 176 -90 176z" />
    <glyph glyph-name="f" unicode="f" horiz-adv-x="329" 
d="M31 0v12c57 1 71 8 71 38v375h-86v13l86 22v38c0 84 20 139 56 175c34 34 78 50 128 50c87 0 129 -38 129 -81c0 -36 -21 -60 -57 -60c-31 0 -61 17 -61 64c0 13 9 35 16 45c-9 8 -22 14 -37 14c-17 0 -29 -5 -41 -17c-18 -18 -28 -52 -28 -130v-101h127v-31h-127v-376
c0 -30 22 -36 95 -38v-12h-271z" />
    <glyph glyph-name="g" unicode="g" horiz-adv-x="470" 
d="M248 -184c85 0 153 43 153 108c0 40 -32 66 -131 66h-102c-48 -15 -71 -40 -71 -77c0 -56 45 -97 151 -97zM239 175c56 0 78 43 78 137c0 83 -28 136 -87 136c-57 0 -78 -43 -78 -136c0 -94 29 -137 87 -137zM235 466c31 0 63 -7 91 -19c22 44 52 82 101 82
c37 0 58 -22 58 -51c0 -24 -18 -43 -43 -43c-22 0 -45 19 -45 51c-23 -4 -43 -25 -55 -47c48 -25 82 -66 82 -125c0 -97 -91 -156 -189 -156c-22 0 -45 3 -66 8c-39 -13 -58 -28 -58 -48s17 -36 96 -36h78c121 0 183 -36 183 -122c0 -83 -86 -161 -246 -161
c-124 0 -203 43 -203 101c0 45 43 83 120 94v2c-63 17 -87 47 -87 87c0 32 31 69 92 91c-57 23 -99 67 -99 136c0 96 92 156 190 156z" />
    <glyph glyph-name="h" unicode="h" horiz-adv-x="558" 
d="M10 0v12c58 1 71 8 71 38v598c0 34 -10 49 -80 51v12l185 6v-362c45 71 105 111 172 111c79 0 123 -48 123 -140v-276c0 -30 13 -37 72 -38v-12h-237v12c47 1 60 8 60 38v255c0 72 -22 110 -82 110c-43 0 -80 -33 -108 -84v-281c0 -30 14 -37 60 -38v-12h-236z" />
    <glyph glyph-name="i" unicode="i" horiz-adv-x="292" 
d="M146 549c-39 0 -65 25 -65 65c0 41 26 69 65 69c40 0 66 -26 66 -66s-26 -68 -66 -68zM26 0v12c58 1 73 8 73 38v344c0 30 -15 49 -73 50v12l178 7v-413c0 -30 11 -37 73 -38v-12h-251z" />
    <glyph glyph-name="j" unicode="j" horiz-adv-x="283" 
d="M146 549c-39 0 -65 25 -65 65c0 41 26 69 65 69c40 0 66 -26 66 -66s-26 -68 -66 -68zM38 -201c-76 0 -122 31 -122 76c0 35 26 60 59 60c35 0 58 -24 58 -58c0 -22 -10 -39 -23 -49c8 -7 18 -11 34 -11c39 0 55 34 55 103v474c0 31 -16 49 -81 50v12l186 7v-453
c0 -87 -10 -132 -49 -170c-28 -29 -74 -41 -117 -41z" />
    <glyph glyph-name="k" unicode="k" horiz-adv-x="528" 
d="M186 186v-136c0 -30 14 -37 53 -38v-12h-229v12c58 1 71 8 71 38v598c0 34 -10 49 -80 51v12l185 6v-506l147 151c43 45 36 74 -34 87v12h212v-12c-58 -12 -94 -35 -158 -97l-54 -54l150 -212c43 -61 53 -69 99 -74v-12h-237v12c52 5 55 23 31 58l-111 161z" />
    <glyph glyph-name="l" unicode="l" horiz-adv-x="291" 
d="M23 0v12c58 1 72 8 72 38v598c0 34 -10 49 -80 51v12l185 6v-667c0 -30 13 -37 71 -38v-12h-248z" />
    <glyph glyph-name="m" unicode="m" horiz-adv-x="845" 
d="M320 0v12c46 1 58 8 58 38v255c0 72 -22 110 -79 110c-43 0 -75 -33 -102 -84v-281c0 -30 8 -37 53 -38v-12h-229v12c57 1 71 8 71 38v344c0 30 -14 49 -71 50v12l174 7v-108c44 72 100 111 167 111c66 0 109 -36 118 -104c43 64 105 104 168 104c77 0 121 -48 121 -140
v-276c0 -30 13 -37 71 -38v-12h-230v12c46 1 54 8 54 38v255c0 72 -21 110 -78 110c-33 0 -74 -27 -103 -75v-6v-284c0 -30 13 -37 64 -38v-12h-227z" />
    <glyph glyph-name="n" unicode="n" horiz-adv-x="567" 
d="M21 0v12c57 1 71 8 71 38v344c0 30 -14 49 -71 50v12l174 7v-108c45 71 106 111 173 111c79 0 123 -48 123 -140v-276c0 -30 13 -37 71 -38v-12h-236v12c46 1 60 8 60 38v257c0 72 -21 108 -81 108c-43 0 -81 -33 -108 -84v-281c0 -30 14 -37 59 -38v-12h-235z" />
    <glyph glyph-name="o" unicode="o" horiz-adv-x="531" 
d="M266 -8c-134 0 -234 94 -234 237c0 142 106 240 234 240c132 0 233 -94 233 -236c0 -143 -106 -241 -233 -241zM270 11c74 0 112 64 112 220s-45 219 -121 219c-75 0 -113 -63 -113 -219s46 -220 122 -220z" />
    <glyph glyph-name="p" unicode="p" horiz-adv-x="546" 
d="M5 -191v12c58 1 71 7 71 38v535c0 30 -14 49 -71 50v12l174 7v-66c42 42 91 72 152 72c116 0 182 -98 182 -232c0 -138 -81 -245 -212 -245c-50 0 -84 10 -120 29v-162c0 -31 19 -37 95 -38v-12h-271zM284 11c77 0 116 76 116 220c0 108 -40 197 -119 197
c-38 0 -69 -18 -100 -50v-291c21 -55 58 -76 103 -76z" />
    <glyph glyph-name="q" unicode="q" horiz-adv-x="543" 
d="M276 -191v11c71 3 92 11 92 36v198c-40 -36 -86 -62 -146 -62c-120 0 -189 99 -189 224c0 136 86 253 222 253c52 0 100 -14 153 -49l53 53h15l-3 -91v-526c0 -25 14 -34 72 -36v-11h-269zM273 34c37 0 63 14 95 41v293c-21 53 -56 82 -98 82c-84 0 -123 -96 -123 -229
c0 -105 45 -187 126 -187z" />
    <glyph glyph-name="r" unicode="r" horiz-adv-x="414" 
d="M21 0v12c57 1 71 8 71 38v344c0 30 -14 49 -71 50v12l174 7v-101c35 65 84 105 135 105c55 0 80 -34 80 -73c0 -38 -25 -65 -61 -65c-37 0 -63 26 -63 62c0 10 3 23 6 31c-39 -5 -66 -34 -95 -83v-289c0 -30 19 -36 87 -38v-12h-263z" />
    <glyph glyph-name="s" unicode="s" horiz-adv-x="417" 
d="M38 -8v166h14c64 -111 102 -147 174 -147c56 0 86 38 86 77c0 46 -28 71 -127 99c-102 29 -145 61 -145 135c0 86 66 147 169 147c44 0 86 -15 113 -31l25 31h11v-149h-14c-58 94 -87 130 -148 130c-46 0 -81 -31 -81 -77c0 -43 40 -65 117 -85c102 -28 151 -64 151 -142
c0 -84 -60 -154 -169 -154c-37 0 -102 16 -132 36l-33 -36h-11z" />
    <glyph glyph-name="t" unicode="t" horiz-adv-x="351" 
d="M216 -10c-78 0 -120 41 -120 133v302h-93v13l93 22v127l105 38v-168h142v-31h-142v-312c0 -60 17 -83 58 -83c29 0 58 20 84 67l12 -8c-32 -65 -76 -100 -139 -100z" />
    <glyph glyph-name="u" unicode="u" horiz-adv-x="558" 
d="M209 -7c-78 0 -127 46 -127 140v265c0 30 -15 48 -73 49v12l178 4v-308c0 -72 21 -111 81 -111c44 0 79 31 105 82v272c0 30 -15 47 -72 48v12l177 5v-414c0 -26 15 -36 72 -38v-11h-175v102c-43 -72 -100 -109 -166 -109z" />
    <glyph glyph-name="v" unicode="v" horiz-adv-x="490" 
d="M227 -7l-154 381c-21 52 -39 69 -87 75v12h247v-12c-43 -4 -59 -15 -59 -35c0 -8 2 -16 6 -28l107 -281h4l91 230c10 26 17 48 17 62c0 31 -23 45 -72 52v12h182v-12c-35 -5 -67 -33 -89 -86l-155 -370h-38z" />
    <glyph glyph-name="w" unicode="w" horiz-adv-x="743" 
d="M376 327l-17 47c-19 52 -37 69 -80 75v12h239v-12c-44 -4 -62 -16 -62 -41c0 -7 2 -14 5 -23l94 -276h4l73 223c10 30 16 53 16 65c0 32 -21 46 -67 52v12h182v-12c-38 -5 -75 -31 -94 -86l-131 -370h-41l-111 305l-125 -305h-39l-148 381c-20 51 -39 69 -87 75v12h245
v-12c-43 -4 -61 -17 -61 -40c0 -6 2 -15 5 -24l104 -278h4z" />
    <glyph glyph-name="x" unicode="x" horiz-adv-x="509" 
d="M281 274l57 74c46 59 37 90 -22 101v12h193v-12c-57 -10 -86 -30 -138 -94l-78 -97l119 -164c45 -62 60 -74 103 -82v-12h-239v12c64 8 63 24 34 67l-81 119l-69 -88c-47 -60 -35 -88 32 -98v-12h-195v12c49 9 78 29 129 91l91 111l-112 154c-46 64 -61 74 -108 81v12
h239v-12c-60 -9 -56 -25 -29 -66z" />
    <glyph glyph-name="y" unicode="y" horiz-adv-x="492" 
d="M248 -11l-175 385c-24 52 -41 69 -90 75v12h248v-12c-60 -5 -67 -26 -51 -63l118 -279l89 228c31 80 17 104 -55 114v12h181v-12c-35 -5 -66 -33 -89 -86l-164 -400c-53 -128 -101 -164 -158 -164c-48 0 -78 32 -78 71c0 31 19 61 57 61c31 0 56 -26 56 -60
c0 -21 -9 -39 -22 -50c40 5 78 33 127 154z" />
    <glyph glyph-name="z" unicode="z" horiz-adv-x="470" 
d="M31 0l-2 13l297 428h-102c-56 0 -93 -32 -158 -143l-15 2l14 161h378l2 -14l-296 -427h113c60 0 98 39 163 150l14 -2l-14 -168h-394z" />
    <glyph glyph-name="Aacute" unicode="&#xc1;" horiz-adv-x="686" 
d="M471 95l-60 172h-236l-34 -87c-45 -118 -28 -152 63 -167v-13h-234v13c66 18 102 57 144 165l213 539h42l224 -608c25 -68 40 -85 117 -96v-13h-328v13c95 5 109 26 89 82zM182 287h222l-104 295h-4zM311 768l47 127c19 57 32 82 63 82c26 0 47 -19 47 -44
c0 -20 -17 -41 -52 -76l-92 -89h-13z" />
    <glyph glyph-name="aacute" unicode="&#xe1;" horiz-adv-x="491" 
d="M168 -6c-89 0 -128 55 -128 111c0 39 18 78 60 101c74 41 191 47 214 58v72c0 75 -22 111 -81 111c-34 0 -65 -11 -83 -29c17 -16 27 -34 27 -54c0 -35 -21 -59 -60 -59c-35 0 -58 26 -58 59c0 59 73 102 186 102s173 -44 173 -147v-233c0 -49 18 -70 76 -46l4 -10
c-35 -22 -61 -34 -96 -34c-56 0 -77 23 -83 77h-4c-38 -44 -85 -79 -147 -79zM226 40c36 0 68 28 88 56v149c-133 -26 -162 -55 -162 -123c0 -48 23 -82 74 -82zM218 528l47 127c19 57 32 82 63 82c26 0 47 -19 47 -44c0 -20 -17 -41 -52 -76l-92 -89h-13z" />
    <glyph glyph-name="Abreve" unicode="&#x102;" horiz-adv-x="686" 
d="M471 95l-60 172h-236l-34 -87c-45 -118 -28 -152 63 -167v-13h-234v13c66 18 102 57 144 165l213 539h42l224 -608c25 -68 40 -85 117 -96v-13h-328v13c95 5 109 26 89 82zM182 287h222l-104 295h-4zM345 773c-75 0 -129 65 -137 159h15c18 -59 61 -88 121 -88
c62 0 103 29 121 88h15c-7 -94 -60 -159 -135 -159z" />
    <glyph glyph-name="abreve" unicode="&#x103;" horiz-adv-x="491" 
d="M168 -6c-89 0 -128 55 -128 111c0 39 18 78 60 101c74 41 191 47 214 58v72c0 75 -22 111 -81 111c-34 0 -65 -11 -83 -29c17 -16 27 -34 27 -54c0 -35 -21 -59 -60 -59c-35 0 -58 26 -58 59c0 59 73 102 186 102s173 -44 173 -147v-233c0 -49 18 -70 76 -46l4 -10
c-35 -22 -61 -34 -96 -34c-56 0 -77 23 -83 77h-4c-38 -44 -85 -79 -147 -79zM226 40c36 0 68 28 88 56v149c-133 -26 -162 -55 -162 -123c0 -48 23 -82 74 -82zM249 533c-75 0 -129 65 -137 159h15c18 -59 61 -88 121 -88c62 0 103 29 121 88h15c-7 -94 -60 -159 -135 -159
z" />
    <glyph glyph-name="Acircumflex" unicode="&#xc2;" horiz-adv-x="686" 
d="M471 95l-60 172h-236l-34 -87c-45 -118 -28 -152 63 -167v-13h-234v13c66 18 102 57 144 165l213 539h42l224 -608c25 -68 40 -85 117 -96v-13h-328v13c95 5 109 26 89 82zM182 287h222l-104 295h-4zM206 765l136 192h13l127 -192h-16l-121 93l-123 -93h-16z" />
    <glyph glyph-name="acircumflex" unicode="&#xe2;" horiz-adv-x="491" 
d="M168 -6c-89 0 -128 55 -128 111c0 39 18 78 60 101c74 41 191 47 214 58v72c0 75 -22 111 -81 111c-34 0 -65 -11 -83 -29c17 -16 27 -34 27 -54c0 -35 -21 -59 -60 -59c-35 0 -58 26 -58 59c0 59 73 102 186 102s173 -44 173 -147v-233c0 -49 18 -70 76 -46l4 -10
c-35 -22 -61 -34 -96 -34c-56 0 -77 23 -83 77h-4c-38 -44 -85 -79 -147 -79zM226 40c36 0 68 28 88 56v149c-133 -26 -162 -55 -162 -123c0 -48 23 -82 74 -82zM112 528l136 192h13l127 -192h-16l-121 93l-123 -93h-16z" />
    <glyph glyph-name="Adieresis" unicode="&#xc4;" horiz-adv-x="686" 
d="M471 95l-60 172h-236l-34 -87c-45 -118 -28 -152 63 -167v-13h-234v13c66 18 102 57 144 165l213 539h42l224 -608c25 -68 40 -85 117 -96v-13h-328v13c95 5 109 26 89 82zM182 287h222l-104 295h-4zM437 773c-36 0 -62 28 -62 63c0 36 26 65 62 65s62 -29 62 -65
c0 -35 -26 -63 -62 -63zM252 773c-37 0 -62 28 -62 63c0 36 25 65 62 65c36 0 61 -29 61 -65c0 -35 -25 -63 -61 -63z" />
    <glyph glyph-name="adieresis" unicode="&#xe4;" horiz-adv-x="491" 
d="M168 -6c-89 0 -128 55 -128 111c0 39 18 78 60 101c74 41 191 47 214 58v72c0 75 -22 111 -81 111c-34 0 -65 -11 -83 -29c17 -16 27 -34 27 -54c0 -35 -21 -59 -60 -59c-35 0 -58 26 -58 59c0 59 73 102 186 102s173 -44 173 -147v-233c0 -49 18 -70 76 -46l4 -10
c-35 -22 -61 -34 -96 -34c-56 0 -77 23 -83 77h-4c-38 -44 -85 -79 -147 -79zM226 40c36 0 68 28 88 56v149c-133 -26 -162 -55 -162 -123c0 -48 23 -82 74 -82zM344 533c-36 0 -62 28 -62 63c0 36 26 65 62 65s62 -29 62 -65c0 -35 -26 -63 -62 -63zM159 533
c-37 0 -62 28 -62 63c0 36 25 65 62 65c36 0 61 -29 61 -65c0 -35 -25 -63 -61 -63z" />
    <glyph glyph-name="AE" unicode="&#xc6;" horiz-adv-x="1038" 
d="M240 280l-77 -121c-23 -36 -39 -68 -39 -93c0 -26 19 -44 66 -53v-13h-232v13c70 17 130 77 186 164l272 422c9 15 14 27 14 38c0 25 -32 39 -109 48v12h634l3 -225l-14 -2c-58 142 -104 208 -223 208h-120v-307h54c83 0 126 31 153 137h13v-293h-13
c-27 106 -70 137 -153 137h-54v-333h118c140 0 193 67 254 220l14 -1l-5 -238h-607v13c87 3 109 25 109 66v201h-244zM484 300v360h-4l-228 -360h232z" />
    <glyph glyph-name="ae" unicode="&#xe6;" 
d="M540 469c134 0 203 -94 195 -213h-307v-23v-2c0 -116 52 -199 157 -199c63 0 100 32 141 85l11 -8c-40 -65 -97 -117 -197 -117c-87 0 -157 40 -189 111h-4c-34 -60 -102 -109 -180 -109c-88 0 -127 55 -127 111c0 39 18 78 60 101c73 40 201 47 224 58v72
c0 75 -32 111 -91 111c-34 0 -65 -11 -83 -29c17 -16 27 -34 27 -54c0 -35 -21 -59 -60 -59c-35 0 -58 26 -58 59c0 59 73 102 186 102c71 0 120 -20 146 -61c39 40 93 64 149 64zM533 450c-60 0 -97 -61 -104 -176h194c10 110 -15 176 -90 176zM226 40c36 0 80 27 98 62
v142c-133 -26 -172 -54 -172 -122c0 -48 23 -82 74 -82z" />
    <glyph glyph-name="AEacute" unicode="&#x1fc;" horiz-adv-x="1038" 
d="M554 768l47 127c19 57 32 82 63 82c26 0 47 -19 47 -44c0 -20 -17 -41 -52 -76l-92 -89h-13zM240 280l-77 -121c-23 -36 -39 -68 -39 -93c0 -26 19 -44 66 -53v-13h-232v13c70 17 130 77 186 164l272 422c9 15 14 27 14 38c0 25 -32 39 -109 48v12h634l3 -225l-14 -2
c-58 142 -104 208 -223 208h-120v-307h54c83 0 126 31 153 137h13v-293h-13c-27 106 -70 137 -153 137h-54v-333h118c140 0 193 67 254 220l14 -1l-5 -238h-607v13c87 3 109 25 109 66v201h-244zM484 300v360h-4l-228 -360h232z" />
    <glyph glyph-name="aeacute" unicode="&#x1fd;" 
d="M540 469c134 0 203 -94 195 -213h-307v-23v-2c0 -116 52 -199 157 -199c63 0 100 32 141 85l11 -8c-40 -65 -97 -117 -197 -117c-87 0 -157 40 -189 111h-4c-34 -60 -102 -109 -180 -109c-88 0 -127 55 -127 111c0 39 18 78 60 101c73 40 201 47 224 58v72
c0 75 -32 111 -91 111c-34 0 -65 -11 -83 -29c17 -16 27 -34 27 -54c0 -35 -21 -59 -60 -59c-35 0 -58 26 -58 59c0 59 73 102 186 102c71 0 120 -20 146 -61c39 40 93 64 149 64zM533 450c-60 0 -97 -61 -104 -176h194c10 110 -15 176 -90 176zM226 40c36 0 80 27 98 62
v142c-133 -26 -172 -54 -172 -122c0 -48 23 -82 74 -82zM372 528l47 127c19 57 32 82 63 82c26 0 47 -19 47 -44c0 -20 -17 -41 -52 -76l-92 -89h-13z" />
    <glyph glyph-name="Agrave" unicode="&#xc0;" horiz-adv-x="686" 
d="M471 95l-60 172h-236l-34 -87c-45 -118 -28 -152 63 -167v-13h-234v13c66 18 102 57 144 165l213 539h42l224 -608c25 -68 40 -85 117 -96v-13h-328v13c95 5 109 26 89 82zM182 287h222l-104 295h-4zM377 768l-93 89c-35 35 -51 56 -51 76c0 25 21 44 47 44
c31 0 44 -25 63 -82l47 -127h-13z" />
    <glyph glyph-name="agrave" unicode="&#xe0;" horiz-adv-x="491" 
d="M168 -6c-89 0 -128 55 -128 111c0 39 18 78 60 101c74 41 191 47 214 58v72c0 75 -22 111 -81 111c-34 0 -65 -11 -83 -29c17 -16 27 -34 27 -54c0 -35 -21 -59 -60 -59c-35 0 -58 26 -58 59c0 59 73 102 186 102s173 -44 173 -147v-233c0 -49 18 -70 76 -46l4 -10
c-35 -22 -61 -34 -96 -34c-56 0 -77 23 -83 77h-4c-38 -44 -85 -79 -147 -79zM226 40c36 0 68 28 88 56v149c-133 -26 -162 -55 -162 -123c0 -48 23 -82 74 -82zM261 528l-93 89c-35 35 -51 56 -51 76c0 25 21 44 47 44c31 0 44 -25 63 -82l47 -127h-13z" />
    <glyph glyph-name="Amacron" unicode="&#x100;" horiz-adv-x="686" 
d="M471 95l-60 172h-236l-34 -87c-45 -118 -28 -152 63 -167v-13h-234v13c66 18 102 57 144 165l213 539h42l224 -608c25 -68 40 -85 117 -96v-13h-328v13c95 5 109 26 89 82zM182 287h222l-104 295h-4zM202 798v43h285v-43h-285z" />
    <glyph glyph-name="amacron" unicode="&#x101;" horiz-adv-x="491" 
d="M168 -6c-89 0 -128 55 -128 111c0 39 18 78 60 101c74 41 191 47 214 58v72c0 75 -22 111 -81 111c-34 0 -65 -11 -83 -29c17 -16 27 -34 27 -54c0 -35 -21 -59 -60 -59c-35 0 -58 26 -58 59c0 59 73 102 186 102s173 -44 173 -147v-233c0 -49 18 -70 76 -46l4 -10
c-35 -22 -61 -34 -96 -34c-56 0 -77 23 -83 77h-4c-38 -44 -85 -79 -147 -79zM226 40c36 0 68 28 88 56v149c-133 -26 -162 -55 -162 -123c0 -48 23 -82 74 -82zM107 558v43h285v-43h-285z" />
    <glyph glyph-name="Aogonek" unicode="&#x104;" horiz-adv-x="686" 
d="M540 -244c-56 0 -97 31 -97 82s33 85 98 137l34 25h-193v13c95 5 109 26 89 82l-60 172h-236l-34 -87c-45 -118 -28 -152 63 -167v-13h-234v13c66 18 102 57 144 165l213 539h42l224 -608c25 -68 40 -85 117 -96v-13h-112l-23 -25c-35 -40 -53 -79 -53 -121
c0 -44 25 -65 59 -65c20 0 41 5 64 17l6 -13c-32 -23 -71 -37 -111 -37zM182 287h222l-104 295h-4z" />
    <glyph glyph-name="aogonek" unicode="&#x105;" horiz-adv-x="491" 
d="M498 30c-5 -4 -58 -52 -66 -60c-43 -41 -64 -80 -64 -118c0 -41 23 -63 58 -63c21 0 42 5 65 17l7 -13c-32 -23 -72 -37 -111 -37c-56 0 -97 32 -97 80c0 53 42 91 117 142l34 23c-12 -3 -25 -5 -39 -5c-56 0 -77 23 -83 77h-4c-38 -44 -85 -79 -147 -79
c-89 0 -128 55 -128 111c0 39 18 78 60 101c74 41 191 47 214 58v72c0 75 -22 111 -81 111c-34 0 -65 -11 -83 -29c17 -16 27 -34 27 -54c0 -35 -21 -59 -60 -59c-35 0 -58 26 -58 59c0 59 73 102 186 102s173 -44 173 -147v-233c0 -49 18 -70 76 -46zM226 40
c36 0 68 28 88 56v149c-133 -26 -162 -55 -162 -123c0 -48 23 -82 74 -82z" />
    <glyph glyph-name="Aring" unicode="&#xc5;" horiz-adv-x="686" 
d="M346 713c36 0 55 34 55 89c0 61 -19 88 -56 88c-36 0 -55 -27 -55 -88c0 -55 20 -89 56 -89zM175 267l-34 -87c-45 -118 -28 -152 63 -167v-13h-234v13c66 18 102 57 144 165l206 522c-54 9 -87 51 -87 102c0 58 44 104 113 104s112 -46 112 -104c0 -49 -32 -91 -83 -101
l218 -592c25 -68 40 -85 117 -96v-13h-328v13c95 5 109 26 89 82l-60 172h-236zM404 287l-104 295h-4l-114 -295h222z" />
    <glyph glyph-name="aring" unicode="&#xe5;" horiz-adv-x="491" 
d="M168 -6c-89 0 -128 55 -128 111c0 39 18 78 60 101c74 41 191 47 214 58v72c0 75 -22 111 -81 111c-34 0 -65 -11 -83 -29c17 -16 27 -34 27 -54c0 -35 -21 -59 -60 -59c-35 0 -58 26 -58 59c0 59 73 102 186 102s173 -44 173 -147v-233c0 -49 18 -70 76 -46l4 -10
c-35 -22 -61 -34 -96 -34c-56 0 -77 23 -83 77h-4c-38 -44 -85 -79 -147 -79zM226 40c36 0 68 28 88 56v149c-133 -26 -162 -55 -162 -123c0 -48 23 -82 74 -82zM250 533c-70 0 -113 47 -113 105c0 57 44 104 113 104s112 -46 112 -104s-43 -105 -112 -105zM250 550
c36 0 55 33 55 88c0 61 -19 87 -56 87c-36 0 -55 -26 -55 -87c0 -55 20 -88 56 -88z" />
    <glyph glyph-name="Aringacute" unicode="&#x1fa;" horiz-adv-x="686" 
d="M304 924l47 127c19 57 32 82 63 82c26 0 47 -19 47 -44c0 -20 -17 -41 -52 -76l-92 -89h-13zM346 713c36 0 55 34 55 89c0 61 -19 88 -56 88c-36 0 -55 -27 -55 -88c0 -55 20 -89 56 -89zM175 267l-34 -87c-45 -118 -28 -152 63 -167v-13h-234v13c66 18 102 57 144 165
l206 522c-54 9 -87 51 -87 102c0 58 44 104 113 104s112 -46 112 -104c0 -49 -32 -91 -83 -101l218 -592c25 -68 40 -85 117 -96v-13h-328v13c95 5 109 26 89 82l-60 172h-236zM404 287l-104 295h-4l-114 -295h222z" />
    <glyph glyph-name="aringacute" unicode="&#x1fb;" horiz-adv-x="491" 
d="M168 -6c-89 0 -128 55 -128 111c0 39 18 78 60 101c74 41 191 47 214 58v72c0 75 -22 111 -81 111c-34 0 -65 -11 -83 -29c17 -16 27 -34 27 -54c0 -35 -21 -59 -60 -59c-35 0 -58 26 -58 59c0 59 73 102 186 102s173 -44 173 -147v-233c0 -49 18 -70 76 -46l4 -10
c-35 -22 -61 -34 -96 -34c-56 0 -77 23 -83 77h-4c-38 -44 -85 -79 -147 -79zM226 40c36 0 68 28 88 56v149c-133 -26 -162 -55 -162 -123c0 -48 23 -82 74 -82zM216 776l47 127c19 57 32 82 63 82c26 0 47 -19 47 -44c0 -20 -17 -41 -52 -76l-92 -89h-13zM250 533
c-70 0 -113 47 -113 105c0 57 44 104 113 104s112 -46 112 -104s-43 -105 -112 -105zM250 550c36 0 55 33 55 88c0 61 -19 87 -56 87c-36 0 -55 -26 -55 -87c0 -55 20 -88 56 -88z" />
    <glyph glyph-name="Atilde" unicode="&#xc3;" horiz-adv-x="686" 
d="M471 95l-60 172h-236l-34 -87c-45 -118 -28 -152 63 -167v-13h-234v13c66 18 102 57 144 165l213 539h42l224 -608c25 -68 40 -85 117 -96v-13h-328v13c95 5 109 26 89 82zM182 287h222l-104 295h-4zM185 766c11 88 39 129 96 129c48 0 117 -50 154 -50c19 0 38 15 50 60
h16c-12 -88 -41 -129 -96 -129c-48 0 -117 50 -154 50c-20 0 -38 -14 -50 -60h-16z" />
    <glyph glyph-name="atilde" unicode="&#xe3;" horiz-adv-x="491" 
d="M168 -6c-89 0 -128 55 -128 111c0 39 18 78 60 101c74 41 191 47 214 58v72c0 75 -22 111 -81 111c-34 0 -65 -11 -83 -29c17 -16 27 -34 27 -54c0 -35 -21 -59 -60 -59c-35 0 -58 26 -58 59c0 59 73 102 186 102s173 -44 173 -147v-233c0 -49 18 -70 76 -46l4 -10
c-35 -22 -61 -34 -96 -34c-56 0 -77 23 -83 77h-4c-38 -44 -85 -79 -147 -79zM226 40c36 0 68 28 88 56v149c-133 -26 -162 -55 -162 -123c0 -48 23 -82 74 -82zM95 526c11 88 39 129 96 129c48 0 117 -50 154 -50c19 0 38 15 50 60h16c-12 -88 -41 -129 -96 -129
c-48 0 -117 50 -154 50c-20 0 -38 -14 -50 -60h-16z" />
    <glyph glyph-name="Cacute" unicode="&#x106;" horiz-adv-x="712" 
d="M350 768l47 127c19 57 32 82 63 82c26 0 47 -19 47 -44c0 -20 -17 -41 -52 -76l-92 -89h-13zM386 -17c-205 0 -342 139 -342 355c0 221 163 376 365 376c73 0 133 -17 180 -41l44 47h10v-243h-13c-55 141 -127 218 -234 218c-119 0 -220 -107 -220 -346
c0 -234 125 -328 246 -328c115 0 195 72 239 168l17 -9c-43 -98 -131 -197 -292 -197z" />
    <glyph glyph-name="cacute" unicode="&#x107;" horiz-adv-x="464" 
d="M212 528l47 127c19 57 32 82 63 82c26 0 47 -19 47 -44c0 -20 -17 -41 -52 -76l-92 -89h-13zM251 -8c-133 0 -219 95 -219 230c0 147 105 247 241 247c116 0 169 -62 169 -108c0 -37 -21 -64 -57 -64c-41 0 -64 26 -64 59c0 29 17 51 32 59c-15 19 -39 36 -77 36
c-75 0 -130 -79 -130 -211c0 -114 49 -208 154 -208c58 0 98 27 140 79l11 -8c-43 -63 -100 -111 -200 -111z" />
    <glyph glyph-name="Ccaron" unicode="&#x10c;" horiz-adv-x="712" 
d="M380 761l-127 192h16l121 -93l122 93h16l-135 -192h-13zM386 -17c-205 0 -342 139 -342 355c0 221 163 376 365 376c73 0 133 -17 180 -41l44 47h10v-243h-13c-55 141 -127 218 -234 218c-119 0 -220 -107 -220 -346c0 -234 125 -328 246 -328c115 0 195 72 239 168
l17 -9c-43 -98 -131 -197 -292 -197z" />
    <glyph glyph-name="ccaron" unicode="&#x10d;" horiz-adv-x="464" 
d="M250 528l-127 192h16l121 -93l122 93h16l-135 -192h-13zM251 -8c-133 0 -219 95 -219 230c0 147 105 247 241 247c116 0 169 -62 169 -108c0 -37 -21 -64 -57 -64c-41 0 -64 26 -64 59c0 29 17 51 32 59c-15 19 -39 36 -77 36c-75 0 -130 -79 -130 -211
c0 -114 49 -208 154 -208c58 0 98 27 140 79l11 -8c-43 -63 -100 -111 -200 -111z" />
    <glyph glyph-name="Ccedilla" unicode="&#xc7;" horiz-adv-x="712" 
d="M386 -17c-205 0 -342 139 -342 355c0 221 163 376 365 376c73 0 133 -17 180 -41l44 47h10v-243h-13c-55 141 -127 218 -234 218c-119 0 -220 -107 -220 -346c0 -234 125 -328 246 -328c115 0 195 72 239 168l17 -9c-41 -92 -121 -185 -264 -196l-58 -55l2 -3
c81 -1 115 -44 115 -87c0 -51 -47 -90 -116 -90c-37 0 -71 7 -103 30l10 16c27 -17 54 -24 78 -24c39 0 57 21 57 55c0 35 -31 56 -76 56c-12 0 -23 -1 -37 -5l-6 9z" />
    <glyph glyph-name="ccedilla" unicode="&#xe7;" horiz-adv-x="464" 
d="M235 -251c-37 0 -71 7 -103 30l10 16c27 -17 54 -24 78 -24c39 0 57 21 57 55c0 35 -31 56 -76 56c-12 0 -23 -1 -37 -5l-6 9l118 107c-8 0 -17 -1 -25 -1c-133 0 -219 95 -219 230c0 147 105 247 241 247c116 0 169 -62 169 -108c0 -37 -21 -64 -57 -64
c-41 0 -64 26 -64 59c0 29 17 51 32 59c-15 19 -39 36 -77 36c-75 0 -130 -79 -130 -211c0 -114 49 -208 154 -208c58 0 98 27 140 79l11 -8c-35 -51 -79 -92 -147 -106h2l-72 -68l2 -3c81 -1 115 -44 115 -87c0 -51 -47 -90 -116 -90z" />
    <glyph glyph-name="Cdotaccent" unicode="&#x10a;" horiz-adv-x="712" 
d="M386 -17c-205 0 -342 139 -342 355c0 221 163 376 365 376c73 0 133 -17 180 -41l44 47h10v-243h-13c-55 141 -127 218 -234 218c-119 0 -220 -107 -220 -346c0 -234 125 -328 246 -328c115 0 195 72 239 168l17 -9c-43 -98 -131 -197 -292 -197zM389 766
c-40 0 -66 26 -66 66c0 39 27 68 66 68c40 0 65 -27 65 -67c0 -39 -27 -67 -65 -67z" />
    <glyph glyph-name="cdotaccent" unicode="&#x10b;" horiz-adv-x="464" 
d="M251 -8c-133 0 -219 95 -219 230c0 147 105 247 241 247c116 0 169 -62 169 -108c0 -37 -21 -64 -57 -64c-41 0 -64 26 -64 59c0 29 17 51 32 59c-15 19 -39 36 -77 36c-75 0 -130 -79 -130 -211c0 -114 49 -208 154 -208c58 0 98 27 140 79l11 -8
c-43 -63 -100 -111 -200 -111zM260 533c-40 0 -66 26 -66 66c0 39 27 68 66 68c40 0 65 -27 65 -67c0 -39 -27 -67 -65 -67z" />
    <glyph glyph-name="Dcaron" unicode="&#x10e;" horiz-adv-x="767" 
d="M369 768l-127 192h16l121 -93l122 93h16l-135 -192h-13zM33 0v13c87 3 109 25 109 66v540c0 40 -22 63 -109 66v12h313c248 0 377 -144 377 -336c0 -185 -110 -361 -365 -361h-325zM259 19h67c200 0 265 77 265 334c0 260 -87 325 -262 325h-70v-659z" />
    <glyph glyph-name="dcaron" unicode="&#x10f;" horiz-adv-x="545" 
d="M564 533l-6 119c-1 18 -2 42 -2 56c0 44 26 56 46 56c23 0 42 -15 42 -42c0 -15 -5 -34 -15 -59l-53 -130h-12zM230 -8c-124 0 -198 101 -198 232c0 137 93 245 230 245c48 0 75 -10 102 -24v203c0 34 -10 49 -80 51v12l185 6v-666c0 -25 15 -40 72 -41v-10l-175 -4v55
c-33 -34 -78 -59 -136 -59zM279 34c39 0 64 15 85 38v327c-22 31 -50 51 -96 51c-76 0 -122 -88 -122 -221c0 -110 46 -195 133 -195z" />
    <glyph glyph-name="Dcroat" unicode="&#x110;" horiz-adv-x="767" 
d="M33 0v13c87 3 109 25 109 66v271h-103v26h103v243c0 40 -22 63 -109 66v12h313c248 0 377 -144 377 -336c0 -185 -110 -361 -365 -361h-325zM259 19h67c200 0 265 77 265 334c0 260 -87 325 -262 325h-70v-302h137v-26h-137v-331z" />
    <glyph glyph-name="dcroat" unicode="&#x111;" horiz-adv-x="545" 
d="M230 -8c-124 0 -198 101 -198 232c0 137 93 245 230 245c48 0 75 -10 102 -24v127h-132v22h132v54c0 34 -10 49 -80 51v12l185 6v-123h70v-22h-70v-521c0 -25 15 -40 72 -41v-10l-175 -4v55c-33 -34 -78 -59 -136 -59zM279 34c39 0 64 15 85 38v327c-22 31 -50 51 -96 51
c-76 0 -122 -88 -122 -221c0 -110 46 -195 133 -195z" />
    <glyph glyph-name="Eacute" unicode="&#xc9;" horiz-adv-x="696" 
d="M328 768l47 127c19 57 32 82 63 82c26 0 47 -19 47 -44c0 -20 -17 -41 -52 -76l-92 -89h-13zM33 0v13c87 3 109 25 109 66v540c0 40 -22 63 -109 66v12h580l3 -225l-14 -2c-58 142 -104 208 -223 208h-120v-307h54c83 0 127 31 154 137h13v-293h-13
c-27 106 -71 137 -154 137h-54v-333h118c140 0 193 67 254 220l14 -1l-5 -238h-607z" />
    <glyph glyph-name="eacute" unicode="&#xe9;" horiz-adv-x="484" 
d="M258 -8c-134 0 -226 95 -226 233c0 143 104 244 226 244c134 0 203 -94 195 -213h-307v-23v-2c0 -116 52 -199 157 -199c63 0 100 32 141 85l11 -8c-40 -65 -97 -117 -197 -117zM251 450c-60 0 -97 -61 -104 -176h194c10 110 -15 176 -90 176zM225 528l47 127
c19 57 32 82 63 82c26 0 47 -19 47 -44c0 -20 -17 -41 -52 -76l-92 -89h-13z" />
    <glyph glyph-name="Ebreve" unicode="&#x114;" horiz-adv-x="696" 
d="M33 0v13c87 3 109 25 109 66v540c0 40 -22 63 -109 66v12h580l3 -225l-14 -2c-58 142 -104 208 -223 208h-120v-307h54c83 0 127 31 154 137h13v-293h-13c-27 106 -71 137 -154 137h-54v-333h118c140 0 193 67 254 220l14 -1l-5 -238h-607zM357 773
c-75 0 -129 65 -137 159h15c18 -59 61 -88 121 -88c62 0 103 29 121 88h15c-7 -94 -60 -159 -135 -159z" />
    <glyph glyph-name="ebreve" unicode="&#x115;" horiz-adv-x="484" 
d="M258 -8c-134 0 -226 95 -226 233c0 143 104 244 226 244c134 0 203 -94 195 -213h-307v-23v-2c0 -116 52 -199 157 -199c63 0 100 32 141 85l11 -8c-40 -65 -97 -117 -197 -117zM251 450c-60 0 -97 -61 -104 -176h194c10 110 -15 176 -90 176zM255 533
c-75 0 -129 65 -137 159h15c18 -59 61 -88 121 -88c62 0 103 29 121 88h15c-7 -94 -60 -159 -135 -159z" />
    <glyph glyph-name="Ecaron" unicode="&#x11a;" horiz-adv-x="696" 
d="M346 768l-127 192h16l121 -93l122 93h16l-135 -192h-13zM33 0v13c87 3 109 25 109 66v540c0 40 -22 63 -109 66v12h580l3 -225l-14 -2c-58 142 -104 208 -223 208h-120v-307h54c83 0 127 31 154 137h13v-293h-13c-27 106 -71 137 -154 137h-54v-333h118
c140 0 193 67 254 220l14 -1l-5 -238h-607z" />
    <glyph glyph-name="ecaron" unicode="&#x11b;" horiz-adv-x="484" 
d="M258 -8c-134 0 -226 95 -226 233c0 143 104 244 226 244c134 0 203 -94 195 -213h-307v-23v-2c0 -116 52 -199 157 -199c63 0 100 32 141 85l11 -8c-40 -65 -97 -117 -197 -117zM251 450c-60 0 -97 -61 -104 -176h194c10 110 -15 176 -90 176zM246 528l-127 192h16
l121 -93l122 93h16l-135 -192h-13z" />
    <glyph glyph-name="Ecircumflex" unicode="&#xca;" horiz-adv-x="696" 
d="M204 768l136 192h13l127 -192h-16l-121 93l-123 -93h-16zM33 0v13c87 3 109 25 109 66v540c0 40 -22 63 -109 66v12h580l3 -225l-14 -2c-58 142 -104 208 -223 208h-120v-307h54c83 0 127 31 154 137h13v-293h-13c-27 106 -71 137 -154 137h-54v-333h118
c140 0 193 67 254 220l14 -1l-5 -238h-607z" />
    <glyph glyph-name="ecircumflex" unicode="&#xea;" horiz-adv-x="484" 
d="M258 -8c-134 0 -226 95 -226 233c0 143 104 244 226 244c134 0 203 -94 195 -213h-307v-23v-2c0 -116 52 -199 157 -199c63 0 100 32 141 85l11 -8c-40 -65 -97 -117 -197 -117zM251 450c-60 0 -97 -61 -104 -176h194c10 110 -15 176 -90 176zM117 528l136 192h13
l127 -192h-16l-121 93l-123 -93h-16z" />
    <glyph glyph-name="Edieresis" unicode="&#xcb;" horiz-adv-x="696" 
d="M449 773c-36 0 -62 28 -62 63c0 36 26 65 62 65s62 -29 62 -65c0 -35 -26 -63 -62 -63zM264 773c-37 0 -62 28 -62 63c0 36 25 65 62 65c36 0 61 -29 61 -65c0 -35 -25 -63 -61 -63zM33 0v13c87 3 109 25 109 66v540c0 40 -22 63 -109 66v12h580l3 -225l-14 -2
c-58 142 -104 208 -223 208h-120v-307h54c83 0 127 31 154 137h13v-293h-13c-27 106 -71 137 -154 137h-54v-333h118c140 0 193 67 254 220l14 -1l-5 -238h-607z" />
    <glyph glyph-name="edieresis" unicode="&#xeb;" horiz-adv-x="484" 
d="M258 -8c-134 0 -226 95 -226 233c0 143 104 244 226 244c134 0 203 -94 195 -213h-307v-23v-2c0 -116 52 -199 157 -199c63 0 100 32 141 85l11 -8c-40 -65 -97 -117 -197 -117zM251 450c-60 0 -97 -61 -104 -176h194c10 110 -15 176 -90 176zM348 533
c-36 0 -62 28 -62 63c0 36 26 65 62 65s62 -29 62 -65c0 -35 -26 -63 -62 -63zM163 533c-37 0 -62 28 -62 63c0 36 25 65 62 65c36 0 61 -29 61 -65c0 -35 -25 -63 -61 -63z" />
    <glyph glyph-name="Edotaccent" unicode="&#x116;" horiz-adv-x="696" 
d="M33 0v13c87 3 109 25 109 66v540c0 40 -22 63 -109 66v12h580l3 -225l-14 -2c-58 142 -104 208 -223 208h-120v-307h54c83 0 127 31 154 137h13v-293h-13c-27 106 -71 137 -154 137h-54v-333h118c140 0 193 67 254 220l14 -1l-5 -238h-607zM356 773c-40 0 -66 26 -66 66
c0 39 27 68 66 68c40 0 65 -27 65 -67c0 -39 -27 -67 -65 -67z" />
    <glyph glyph-name="edotaccent" unicode="&#x117;" horiz-adv-x="484" 
d="M258 -8c-134 0 -226 95 -226 233c0 143 104 244 226 244c134 0 203 -94 195 -213h-307v-23v-2c0 -116 52 -199 157 -199c63 0 100 32 141 85l11 -8c-40 -65 -97 -117 -197 -117zM251 450c-60 0 -97 -61 -104 -176h194c10 110 -15 176 -90 176zM255 533
c-40 0 -66 26 -66 66c0 39 27 68 66 68c40 0 65 -27 65 -67c0 -39 -27 -67 -65 -67z" />
    <glyph glyph-name="Egrave" unicode="&#xc8;" horiz-adv-x="696" 
d="M33 0v13c87 3 109 25 109 66v540c0 40 -22 63 -109 66v12h580l3 -225l-14 -2c-58 142 -104 208 -223 208h-120v-307h54c83 0 127 31 154 137h13v-293h-13c-27 106 -71 137 -154 137h-54v-333h118c140 0 193 67 254 220l14 -1l-5 -238h-607zM393 768l-93 89
c-35 35 -51 56 -51 76c0 25 21 44 47 44c31 0 44 -25 63 -82l47 -127h-13z" />
    <glyph glyph-name="egrave" unicode="&#xe8;" horiz-adv-x="484" 
d="M258 -8c-134 0 -226 95 -226 233c0 143 104 244 226 244c134 0 203 -94 195 -213h-307v-23v-2c0 -116 52 -199 157 -199c63 0 100 32 141 85l11 -8c-40 -65 -97 -117 -197 -117zM251 450c-60 0 -97 -61 -104 -176h194c10 110 -15 176 -90 176zM271 528l-93 89
c-35 35 -51 56 -51 76c0 25 21 44 47 44c31 0 44 -25 63 -82l47 -127h-13z" />
    <glyph glyph-name="Emacron" unicode="&#x112;" horiz-adv-x="696" 
d="M33 0v13c87 3 109 25 109 66v540c0 40 -22 63 -109 66v12h580l3 -225l-14 -2c-58 142 -104 208 -223 208h-120v-307h54c83 0 127 31 154 137h13v-293h-13c-27 106 -71 137 -154 137h-54v-333h118c140 0 193 67 254 220l14 -1l-5 -238h-607zM214 798v43h285v-43h-285z" />
    <glyph glyph-name="emacron" unicode="&#x113;" horiz-adv-x="484" 
d="M258 -8c-134 0 -226 95 -226 233c0 143 104 244 226 244c134 0 203 -94 195 -213h-307v-23v-2c0 -116 52 -199 157 -199c63 0 100 32 141 85l11 -8c-40 -65 -97 -117 -197 -117zM251 450c-60 0 -97 -61 -104 -176h194c10 110 -15 176 -90 176zM115 558v43h285v-43h-285z
" />
    <glyph glyph-name="Eogonek" unicode="&#x118;" horiz-adv-x="696" 
d="M33 0v13c87 3 109 25 109 66v540c0 40 -22 63 -109 66v12h580l3 -225l-14 -2c-58 142 -104 208 -223 208h-120v-307h54c83 0 127 31 154 137h13v-293h-13c-27 106 -71 137 -154 137h-54v-333h118c140 0 193 67 254 220l14 -1l-5 -238h-65l-23 -25
c-35 -40 -53 -79 -53 -121c0 -44 25 -65 59 -65c20 0 41 5 64 17l6 -13c-32 -23 -71 -37 -111 -37c-56 0 -97 31 -97 82s33 85 98 137l34 25h-519z" />
    <glyph glyph-name="eogonek" unicode="&#x119;" horiz-adv-x="484" 
d="M444 117l11 -8c-18 -28 -34 -46 -48 -61c-8 -7 -65 -68 -69 -73c-35 -39 -54 -79 -54 -121c0 -44 25 -65 59 -65c21 0 41 5 64 17l7 -13c-32 -23 -72 -37 -111 -37c-56 0 -97 31 -97 82s33 85 98 137l46 36c-25 -11 -55 -19 -92 -19c-134 0 -226 95 -226 233
c0 143 104 244 226 244c134 0 203 -94 195 -213h-307v-23v-2c0 -116 52 -199 157 -199c63 0 100 32 141 85zM251 450c-60 0 -97 -61 -104 -176h194c10 110 -15 176 -90 176z" />
    <glyph glyph-name="Eth" unicode="&#xd0;" horiz-adv-x="767" 
d="M33 0v13c87 3 109 25 109 66v271h-103v26h103v243c0 40 -22 63 -109 66v12h313c248 0 377 -144 377 -336c0 -185 -110 -361 -365 -361h-325zM259 19h67c200 0 265 77 265 334c0 260 -87 325 -262 325h-70v-302h137v-26h-137v-331z" />
    <glyph glyph-name="eth" unicode="&#xf0;" horiz-adv-x="534" 
d="M442 659l-87 -42c87 -72 143 -174 143 -307c0 -198 -88 -318 -241 -318c-116 0 -221 97 -221 233c0 140 113 243 222 243c58 0 92 -24 114 -61l4 2c-9 70 -36 131 -78 181l-122 -59l-8 18l117 56c-39 42 -88 75 -144 100l6 14c71 -19 136 -48 190 -89l97 47zM274 11
c69 0 107 74 107 238c0 134 -39 201 -109 201s-119 -70 -119 -221c0 -133 41 -218 121 -218z" />
    <glyph glyph-name="Gbreve" unicode="&#x11e;" horiz-adv-x="751" 
d="M407 -17c-189 0 -363 127 -363 364c0 219 175 367 364 367c78 0 134 -17 181 -41l45 47h11v-231h-14c-55 133 -132 206 -232 206c-113 0 -222 -94 -222 -346c0 -251 116 -347 230 -347c58 0 104 15 136 42v189c0 41 -24 68 -111 71v13h303v-13c-63 -3 -78 -19 -78 -71
v-184c-68 -43 -165 -66 -250 -66zM387 773c-75 0 -129 65 -137 159h15c18 -59 61 -88 121 -88c62 0 103 29 121 88h15c-7 -94 -60 -159 -135 -159z" />
    <glyph glyph-name="gbreve" unicode="&#x11f;" horiz-adv-x="470" 
d="M248 -184c85 0 153 43 153 108c0 40 -32 66 -131 66h-102c-48 -15 -71 -40 -71 -77c0 -56 45 -97 151 -97zM239 175c56 0 78 43 78 137c0 83 -28 136 -87 136c-57 0 -78 -43 -78 -136c0 -94 29 -137 87 -137zM235 466c31 0 63 -7 91 -19c22 44 52 82 101 82
c37 0 58 -22 58 -51c0 -24 -18 -43 -43 -43c-22 0 -45 19 -45 51c-23 -4 -43 -25 -55 -47c48 -25 82 -66 82 -125c0 -97 -91 -156 -189 -156c-22 0 -45 3 -66 8c-39 -13 -58 -28 -58 -48s17 -36 96 -36h78c121 0 183 -36 183 -122c0 -83 -86 -161 -246 -161
c-124 0 -203 43 -203 101c0 45 43 83 120 94v2c-63 17 -87 47 -87 87c0 32 31 69 92 91c-57 23 -99 67 -99 136c0 96 92 156 190 156zM241 533c-75 0 -129 65 -137 159h15c18 -59 61 -88 121 -88c62 0 103 29 121 88h15c-7 -94 -60 -159 -135 -159z" />
    <glyph glyph-name="Gcommaaccent" unicode="&#x122;" horiz-adv-x="751" 
d="M326 -292l-7 12c58 36 83 77 86 112l-4 1c-7 -4 -17 -7 -26 -7c-29 0 -53 23 -53 54c0 32 24 60 58 60c42 0 69 -31 69 -80c0 -61 -45 -117 -123 -152zM407 -17c-189 0 -363 127 -363 364c0 219 175 367 364 367c78 0 134 -17 181 -41l45 47h11v-231h-14
c-55 133 -132 206 -232 206c-113 0 -222 -94 -222 -346c0 -251 116 -347 230 -347c58 0 104 15 136 42v189c0 41 -24 68 -111 71v13h303v-13c-63 -3 -78 -19 -78 -71v-184c-68 -43 -165 -66 -250 -66z" />
    <glyph glyph-name="gcommaaccent" unicode="&#x123;" horiz-adv-x="470" 
d="M297 773l7 -12c-58 -36 -83 -77 -86 -112l4 -1c7 4 17 7 26 7c29 0 53 -23 53 -54c0 -32 -24 -60 -58 -60c-42 0 -69 31 -69 80c0 61 45 117 123 152zM248 -184c85 0 153 43 153 108c0 40 -32 66 -131 66h-102c-48 -15 -71 -40 -71 -77c0 -56 45 -97 151 -97zM239 175
c56 0 78 43 78 137c0 83 -28 136 -87 136c-57 0 -78 -43 -78 -136c0 -94 29 -137 87 -137zM235 466c31 0 63 -7 91 -19c22 44 52 82 101 82c37 0 58 -22 58 -51c0 -24 -18 -43 -43 -43c-22 0 -45 19 -45 51c-23 -4 -43 -25 -55 -47c48 -25 82 -66 82 -125
c0 -97 -91 -156 -189 -156c-22 0 -45 3 -66 8c-39 -13 -58 -28 -58 -48s17 -36 96 -36h78c121 0 183 -36 183 -122c0 -83 -86 -161 -246 -161c-124 0 -203 43 -203 101c0 45 43 83 120 94v2c-63 17 -87 47 -87 87c0 32 31 69 92 91c-57 23 -99 67 -99 136
c0 96 92 156 190 156z" />
    <glyph glyph-name="Gdotaccent" unicode="&#x120;" horiz-adv-x="751" 
d="M407 -17c-189 0 -363 127 -363 364c0 219 175 367 364 367c78 0 134 -17 181 -41l45 47h11v-231h-14c-55 133 -132 206 -232 206c-113 0 -222 -94 -222 -346c0 -251 116 -347 230 -347c58 0 104 15 136 42v189c0 41 -24 68 -111 71v13h303v-13c-63 -3 -78 -19 -78 -71
v-184c-68 -43 -165 -66 -250 -66zM390 773c-40 0 -66 26 -66 66c0 39 27 68 66 68c40 0 65 -27 65 -67c0 -39 -27 -67 -65 -67z" />
    <glyph glyph-name="gdotaccent" unicode="&#x121;" horiz-adv-x="470" 
d="M248 -184c85 0 153 43 153 108c0 40 -32 66 -131 66h-102c-48 -15 -71 -40 -71 -77c0 -56 45 -97 151 -97zM239 175c56 0 78 43 78 137c0 83 -28 136 -87 136c-57 0 -78 -43 -78 -136c0 -94 29 -137 87 -137zM235 466c31 0 63 -7 91 -19c22 44 52 82 101 82
c37 0 58 -22 58 -51c0 -24 -18 -43 -43 -43c-22 0 -45 19 -45 51c-23 -4 -43 -25 -55 -47c48 -25 82 -66 82 -125c0 -97 -91 -156 -189 -156c-22 0 -45 3 -66 8c-39 -13 -58 -28 -58 -48s17 -36 96 -36h78c121 0 183 -36 183 -122c0 -83 -86 -161 -246 -161
c-124 0 -203 43 -203 101c0 45 43 83 120 94v2c-63 17 -87 47 -87 87c0 32 31 69 92 91c-57 23 -99 67 -99 136c0 96 92 156 190 156zM241 533c-40 0 -66 26 -66 66c0 39 27 68 66 68c40 0 65 -27 65 -67c0 -39 -27 -67 -65 -67z" />
    <glyph glyph-name="Hbar" unicode="&#x126;" horiz-adv-x="830" 
d="M33 0v13c87 3 109 24 109 65v433h-102v24h102v84c0 41 -22 63 -109 66v12h328v-12c-86 -3 -102 -23 -102 -66v-84h311v84c0 43 -16 63 -100 66v12h326v-12c-87 -3 -109 -25 -109 -66v-84h102v-24h-102v-433c0 -41 22 -62 109 -65v-13h-326v13c84 3 100 22 100 65v273
h-311v-273c0 -43 16 -62 102 -65v-13h-328zM259 372h311v139h-311v-139z" />
    <glyph glyph-name="hbar" unicode="&#x127;" horiz-adv-x="558" 
d="M10 0v12c58 1 71 8 71 38v522h-69v22h69v54c0 34 -10 49 -80 51v12l185 6v-123h133v-22h-133v-217c45 71 105 111 172 111c79 0 123 -48 123 -140v-276c0 -30 13 -37 72 -38v-12h-237v12c47 1 60 8 60 38v255c0 72 -22 110 -82 110c-43 0 -80 -33 -108 -84v-281
c0 -30 14 -37 60 -38v-12h-236z" />
    <glyph glyph-name="Iacute" unicode="&#xcd;" horiz-adv-x="420" 
d="M40 0v13c91 3 112 25 112 66v540c0 40 -21 63 -112 66v12h340v-12c-91 -3 -112 -26 -112 -66v-540c0 -41 21 -63 112 -66v-13h-340zM179 768l47 127c19 57 32 82 63 82c26 0 47 -19 47 -44c0 -20 -17 -41 -52 -76l-92 -89h-13z" />
    <glyph glyph-name="iacute" unicode="&#xed;" horiz-adv-x="292" 
d="M101 528l47 127c19 57 32 82 63 82c26 0 47 -19 47 -44c0 -20 -17 -41 -52 -76l-92 -89h-13zM24 0v12c58 1 73 8 73 38v344c0 30 -15 49 -73 50v12l178 7v-413c0 -30 12 -37 73 -38v-12h-251z" />
    <glyph glyph-name="Ibreve" unicode="&#x12c;" horiz-adv-x="420" 
d="M40 0v13c91 3 112 25 112 66v540c0 40 -21 63 -112 66v12h340v-12c-91 -3 -112 -26 -112 -66v-540c0 -41 21 -63 112 -66v-13h-340zM210 773c-75 0 -129 65 -137 159h15c18 -59 61 -88 121 -88c62 0 103 29 121 88h15c-7 -94 -60 -159 -135 -159z" />
    <glyph glyph-name="ibreve" unicode="&#x12d;" horiz-adv-x="292" 
d="M24 0v12c58 1 73 8 73 38v344c0 30 -15 49 -73 50v12l178 7v-413c0 -30 12 -37 73 -38v-12h-251zM147 533c-75 0 -129 65 -137 159h15c18 -59 61 -88 121 -88c62 0 103 29 121 88h15c-7 -94 -60 -159 -135 -159z" />
    <glyph glyph-name="Icircumflex" unicode="&#xce;" horiz-adv-x="420" 
d="M40 0v13c91 3 112 25 112 66v540c0 40 -21 63 -112 66v12h340v-12c-91 -3 -112 -26 -112 -66v-540c0 -41 21 -63 112 -66v-13h-340zM72 768l136 192h13l127 -192h-16l-121 93l-123 -93h-16z" />
    <glyph glyph-name="icircumflex" unicode="&#xee;" horiz-adv-x="292" 
d="M-4 528l136 192h13l127 -192h-16l-121 93l-123 -93h-16zM24 0v12c58 1 73 8 73 38v344c0 30 -15 49 -73 50v12l178 7v-413c0 -30 12 -37 73 -38v-12h-251z" />
    <glyph glyph-name="Idieresis" unicode="&#xcf;" horiz-adv-x="420" 
d="M40 0v13c91 3 112 25 112 66v540c0 40 -21 63 -112 66v12h340v-12c-91 -3 -112 -26 -112 -66v-540c0 -41 21 -63 112 -66v-13h-340zM304 773c-36 0 -62 28 -62 63c0 36 26 65 62 65s62 -29 62 -65c0 -35 -26 -63 -62 -63zM119 773c-37 0 -62 28 -62 63c0 36 25 65 62 65
c36 0 61 -29 61 -65c0 -35 -25 -63 -61 -63z" />
    <glyph glyph-name="idieresis" unicode="&#xef;" horiz-adv-x="292" 
d="M230 533c-36 0 -62 28 -62 63c0 36 26 65 62 65s62 -29 62 -65c0 -35 -26 -63 -62 -63zM45 533c-37 0 -62 28 -62 63c0 36 25 65 62 65c36 0 61 -29 61 -65c0 -35 -25 -63 -61 -63zM24 0v12c58 1 73 8 73 38v344c0 30 -15 49 -73 50v12l178 7v-413c0 -30 12 -37 73 -38
v-12h-251z" />
    <glyph glyph-name="Idotaccent" unicode="&#x130;" horiz-adv-x="420" 
d="M40 0v13c91 3 112 25 112 66v540c0 40 -21 63 -112 66v12h340v-12c-91 -3 -112 -26 -112 -66v-540c0 -41 21 -63 112 -66v-13h-340zM210 773c-40 0 -66 26 -66 66c0 39 27 68 66 68c40 0 65 -27 65 -67c0 -39 -27 -67 -65 -67z" />
    <glyph glyph-name="dotlessi" unicode="&#x131;" horiz-adv-x="292" 
d="M24 0v12c58 1 73 8 73 38v344c0 30 -15 49 -73 50v12l178 7v-413c0 -30 12 -37 73 -38v-12h-251z" />
    <glyph glyph-name="Igrave" unicode="&#xcc;" horiz-adv-x="420" 
d="M40 0v13c91 3 112 25 112 66v540c0 40 -21 63 -112 66v12h340v-12c-91 -3 -112 -26 -112 -66v-540c0 -41 21 -63 112 -66v-13h-340zM251 768l-93 89c-35 35 -51 56 -51 76c0 25 21 44 47 44c31 0 44 -25 63 -82l47 -127h-13z" />
    <glyph glyph-name="igrave" unicode="&#xec;" horiz-adv-x="292" 
d="M24 0v12c58 1 73 8 73 38v344c0 30 -15 49 -73 50v12l178 7v-413c0 -30 12 -37 73 -38v-12h-251zM154 528l-93 89c-35 35 -51 56 -51 76c0 25 21 44 47 44c31 0 44 -25 63 -82l47 -127h-13z" />
    <glyph glyph-name="Imacron" unicode="&#x12a;" horiz-adv-x="420" 
d="M40 0v13c91 3 112 25 112 66v540c0 40 -21 63 -112 66v12h340v-12c-91 -3 -112 -26 -112 -66v-540c0 -41 21 -63 112 -66v-13h-340zM67 798v43h285v-43h-285z" />
    <glyph glyph-name="imacron" unicode="&#x12b;" horiz-adv-x="292" 
d="M18 565v43h254v-43h-254zM24 0v12c58 1 73 8 73 38v344c0 30 -15 49 -73 50v12l178 7v-413c0 -30 12 -37 73 -38v-12h-251z" />
    <glyph glyph-name="Iogonek" unicode="&#x12e;" horiz-adv-x="420" 
d="M40 0v13c91 3 112 25 112 66v540c0 40 -21 63 -112 66v12h340v-12c-91 -3 -112 -26 -112 -66v-540c0 -41 21 -63 112 -66v-13h-137l-23 -25c-35 -40 -53 -79 -53 -121c0 -44 25 -65 59 -65c20 0 41 5 64 17l6 -13c-32 -23 -71 -37 -111 -37c-56 0 -97 31 -97 82
s33 85 98 137l34 25h-180z" />
    <glyph glyph-name="iogonek" unicode="&#x12f;" horiz-adv-x="292" 
d="M26 0v12c58 1 73 8 73 38v344c0 30 -15 49 -73 50v12l178 7v-413c0 -30 11 -37 73 -38v-12h-81l-23 -25c-35 -40 -53 -79 -53 -121c0 -44 25 -65 59 -65c20 0 41 5 64 17l6 -13c-32 -23 -71 -37 -111 -37c-56 0 -97 31 -97 82s33 85 98 137l34 25h-147zM146 549
c-39 0 -65 25 -65 65c0 41 26 69 65 69c40 0 66 -26 66 -66s-26 -68 -66 -68z" />
    <glyph glyph-name="Kcommaaccent" unicode="&#x136;" horiz-adv-x="756" 
d="M322 -292l-7 12c58 36 83 77 86 112l-4 1c-7 -4 -17 -7 -26 -7c-29 0 -53 23 -53 54c0 32 24 60 58 60c42 0 69 -31 69 -80c0 -61 -45 -117 -123 -152zM256 316l237 241c59 61 69 116 -34 128v12h275v-12c-84 -16 -133 -52 -235 -155l-102 -100l213 -296
c67 -91 84 -110 155 -121v-13h-312v13c74 6 85 29 43 90l-175 248l-65 -64v-209c0 -43 16 -62 96 -65v-13h-322v13c87 3 109 24 109 65v541c0 41 -22 63 -109 66v12h328v-12c-86 -3 -102 -23 -102 -66v-303z" />
    <glyph glyph-name="kcommaaccent" unicode="&#x137;" horiz-adv-x="528" 
d="M205 -292l-7 12c58 36 83 77 86 112l-4 1c-7 -4 -17 -7 -26 -7c-29 0 -53 23 -53 54c0 32 24 60 58 60c42 0 69 -31 69 -80c0 -61 -45 -117 -123 -152zM186 186v-136c0 -30 14 -37 53 -38v-12h-229v12c58 1 71 8 71 38v598c0 34 -10 49 -80 51v12l185 6v-506l147 151
c43 45 36 74 -34 87v12h212v-12c-58 -12 -94 -35 -158 -97l-54 -54l150 -212c43 -61 53 -69 99 -74v-12h-237v12c52 5 55 23 31 58l-111 161z" />
    <glyph glyph-name="Lacute" unicode="&#x139;" horiz-adv-x="633" 
d="M201 768l47 127c19 57 32 82 63 82c26 0 47 -19 47 -44c0 -20 -17 -41 -52 -76l-92 -89h-13zM30 0v13c87 3 109 25 109 66v540c0 40 -22 63 -109 66v12h329v-12c-91 -3 -103 -24 -103 -66v-600h78c138 0 196 47 264 216l14 -1l-10 -234h-572z" />
    <glyph glyph-name="lacute" unicode="&#x13a;" horiz-adv-x="291" 
d="M111 761l47 127c19 57 32 82 63 82c26 0 47 -19 47 -44c0 -20 -17 -41 -52 -76l-92 -89h-13zM23 0v12c58 1 72 8 72 38v598c0 34 -10 49 -80 51v12l185 6v-667c0 -30 13 -37 71 -38v-12h-248z" />
    <glyph glyph-name="Lcaron" unicode="&#x13d;" horiz-adv-x="633" 
d="M439 513l-6 119c-1 18 -2 42 -2 56c0 44 26 56 46 56c23 0 42 -15 42 -42c0 -15 -5 -34 -15 -59l-53 -130h-12zM30 0v13c87 3 109 25 109 66v540c0 40 -22 63 -109 66v12h329v-12c-91 -3 -103 -24 -103 -66v-600h78c138 0 196 47 264 216l14 -1l-10 -234h-572z" />
    <glyph glyph-name="lcaron" unicode="&#x13e;" horiz-adv-x="291" 
d="M294 533l-6 119c-1 18 -2 42 -2 56c0 44 26 56 46 56c23 0 42 -15 42 -42c0 -15 -5 -34 -15 -59l-53 -130h-12zM23 0v12c58 1 72 8 72 38v598c0 34 -10 49 -80 51v12l185 6v-667c0 -30 13 -37 71 -38v-12h-248z" />
    <glyph glyph-name="Lcommaaccent" unicode="&#x13b;" horiz-adv-x="633" 
d="M275 -292l-7 12c58 36 83 77 86 112l-4 1c-7 -4 -17 -7 -26 -7c-29 0 -53 23 -53 54c0 32 24 60 58 60c42 0 69 -31 69 -80c0 -61 -45 -117 -123 -152zM30 0v13c87 3 109 25 109 66v540c0 40 -22 63 -109 66v12h329v-12c-91 -3 -103 -24 -103 -66v-600h78
c138 0 196 47 264 216l14 -1l-10 -234h-572z" />
    <glyph glyph-name="lcommaaccent" unicode="&#x13c;" horiz-adv-x="291" 
d="M86 -292l-7 12c58 36 83 77 86 112l-4 1c-7 -4 -17 -7 -26 -7c-29 0 -53 23 -53 54c0 32 24 60 58 60c42 0 69 -31 69 -80c0 -61 -45 -117 -123 -152zM23 0v12c58 1 72 8 72 38v598c0 34 -10 49 -80 51v12l185 6v-667c0 -30 13 -37 71 -38v-12h-248z" />
    <glyph glyph-name="Ldot" unicode="&#x13f;" horiz-adv-x="633" 
d="M30 0v13c87 3 109 25 109 66v540c0 40 -22 63 -109 66v12h329v-12c-91 -3 -103 -24 -103 -66v-600h78c138 0 196 46 264 210l14 -1l-10 -228h-572zM503 311c-40 0 -66 26 -66 66c0 39 27 68 66 68c40 0 65 -27 65 -67c0 -39 -27 -67 -65 -67z" />
    <glyph glyph-name="ldot" unicode="&#x140;" horiz-adv-x="375" 
d="M335 271c-40 0 -64 25 -64 65c0 38 26 67 64 67c39 0 64 -27 64 -66s-26 -66 -64 -66zM23 0v12c58 1 72 8 72 38v598c0 34 -10 49 -80 51v12l185 6v-667c0 -30 13 -37 71 -38v-12h-248z" />
    <glyph glyph-name="Lslash" unicode="&#x141;" horiz-adv-x="633" 
d="M30 0v13c87 3 109 25 109 66v237l-89 -23l-7 25l96 25v276c0 40 -22 63 -109 66v12h329v-12c-91 -3 -103 -24 -103 -66v-246l136 36l6 -24l-142 -38v-328h78c138 0 196 47 264 216l14 -1l-10 -234h-572z" />
    <glyph glyph-name="lslash" unicode="&#x142;" horiz-adv-x="321" 
d="M46 0v12c58 1 72 8 72 38v275l-84 -23l-6 22l90 24v300c0 34 -10 49 -80 51v12l185 6v-340l89 24l6 -22l-95 -26v-303c0 -30 13 -37 71 -38v-12h-248z" />
    <glyph glyph-name="Nacute" unicode="&#x143;" horiz-adv-x="795" 
d="M388 758l47 127c19 57 32 82 63 82c26 0 47 -19 47 -44c0 -20 -17 -41 -52 -76l-92 -89h-13zM635 -15l-455 599h-1v-417c0 -98 26 -140 128 -154v-13h-274v13c94 15 122 56 122 154v402c0 62 -36 112 -122 116v12h213l397 -528h1v362c0 98 -34 140 -134 154v12h275v-12
c-94 -16 -117 -56 -117 -154v-546h-33z" />
    <glyph glyph-name="nacute" unicode="&#x144;" horiz-adv-x="567" 
d="M255 528l47 127c19 57 32 82 63 82c26 0 47 -19 47 -44c0 -20 -17 -41 -52 -76l-92 -89h-13zM21 0v12c57 1 71 8 71 38v344c0 30 -14 49 -71 50v12l174 7v-108c45 71 106 111 173 111c79 0 123 -48 123 -140v-276c0 -30 13 -37 71 -38v-12h-236v12c46 1 60 8 60 38v257
c0 72 -21 108 -81 108c-43 0 -81 -33 -108 -84v-281c0 -30 14 -37 59 -38v-12h-235z" />
    <glyph glyph-name="Ncaron" unicode="&#x147;" horiz-adv-x="795" 
d="M398 758l-127 192h16l121 -93l122 93h16l-135 -192h-13zM635 -15l-455 599h-1v-417c0 -98 26 -140 128 -154v-13h-274v13c94 15 122 56 122 154v402c0 62 -36 112 -122 116v12h213l397 -528h1v362c0 98 -34 140 -134 154v12h275v-12c-94 -16 -117 -56 -117 -154v-546h-33
z" />
    <glyph glyph-name="ncaron" unicode="&#x148;" horiz-adv-x="567" 
d="M277 528l-127 192h16l121 -93l122 93h16l-135 -192h-13zM21 0v12c57 1 71 8 71 38v344c0 30 -14 49 -71 50v12l174 7v-108c45 71 106 111 173 111c79 0 123 -48 123 -140v-276c0 -30 13 -37 71 -38v-12h-236v12c46 1 60 8 60 38v257c0 72 -21 108 -81 108
c-43 0 -81 -33 -108 -84v-281c0 -30 14 -37 59 -38v-12h-235z" />
    <glyph glyph-name="Ncommaaccent" unicode="&#x145;" horiz-adv-x="795" 
d="M341 -292l-7 12c58 36 83 77 86 112l-4 1c-7 -4 -17 -7 -26 -7c-29 0 -53 23 -53 54c0 32 24 60 58 60c42 0 69 -31 69 -80c0 -61 -45 -117 -123 -152zM635 -15l-455 599h-1v-417c0 -98 26 -140 128 -154v-13h-274v13c94 15 122 56 122 154v402c0 62 -36 112 -122 116v12
h213l397 -528h1v362c0 98 -34 140 -134 154v12h275v-12c-94 -16 -117 -56 -117 -154v-546h-33z" />
    <glyph glyph-name="ncommaaccent" unicode="&#x146;" horiz-adv-x="567" 
d="M226 -292l-7 12c58 36 83 77 86 112l-4 1c-7 -4 -17 -7 -26 -7c-29 0 -53 23 -53 54c0 32 24 60 58 60c42 0 69 -31 69 -80c0 -61 -45 -117 -123 -152zM21 0v12c57 1 71 8 71 38v344c0 30 -14 49 -71 50v12l174 7v-108c45 71 106 111 173 111c79 0 123 -48 123 -140v-276
c0 -30 13 -37 71 -38v-12h-236v12c46 1 60 8 60 38v257c0 72 -21 108 -81 108c-43 0 -81 -33 -108 -84v-281c0 -30 14 -37 59 -38v-12h-235z" />
    <glyph glyph-name="Ntilde" unicode="&#xd1;" horiz-adv-x="795" 
d="M635 -15l-455 599h-1v-417c0 -98 26 -140 128 -154v-13h-274v13c94 15 122 56 122 154v402c0 62 -36 112 -122 116v12h213l397 -528h1v362c0 98 -34 140 -134 154v12h275v-12c-94 -16 -117 -56 -117 -154v-546h-33zM267 766c11 88 39 129 96 129c48 0 117 -50 154 -50
c19 0 38 15 50 60h16c-12 -88 -41 -129 -96 -129c-48 0 -117 50 -154 50c-20 0 -38 -14 -50 -60h-16z" />
    <glyph glyph-name="ntilde" unicode="&#xf1;" horiz-adv-x="567" 
d="M21 0v12c57 1 71 8 71 38v344c0 30 -14 49 -71 50v12l174 7v-108c45 71 106 111 173 111c79 0 123 -48 123 -140v-276c0 -30 13 -37 71 -38v-12h-236v12c46 1 60 8 60 38v257c0 72 -21 108 -81 108c-43 0 -81 -33 -108 -84v-281c0 -30 14 -37 59 -38v-12h-235zM125 526
c11 88 39 129 96 129c48 0 117 -50 154 -50c19 0 38 15 50 60h16c-12 -88 -41 -129 -96 -129c-48 0 -117 50 -154 50c-20 0 -38 -14 -50 -60h-16z" />
    <glyph glyph-name="Oacute" unicode="&#xd3;" 
d="M348 768l47 127c19 57 32 82 63 82c26 0 47 -19 47 -44c0 -20 -17 -41 -52 -76l-92 -89h-13zM383 -17c-185 0 -339 142 -339 364c0 220 159 367 339 367c184 0 338 -142 338 -364c0 -220 -159 -367 -338 -367zM387 2c124 0 202 86 202 346c0 262 -86 347 -211 347
c-124 0 -201 -86 -201 -346c0 -262 85 -347 210 -347z" />
    <glyph glyph-name="oacute" unicode="&#xf3;" horiz-adv-x="531" 
d="M237 528l47 127c19 57 32 82 63 82c26 0 47 -19 47 -44c0 -20 -17 -41 -52 -76l-92 -89h-13zM266 -8c-134 0 -234 94 -234 237c0 142 106 240 234 240c132 0 233 -94 233 -236c0 -143 -106 -241 -233 -241zM270 11c74 0 112 64 112 220s-45 219 -121 219
c-75 0 -113 -63 -113 -219s46 -220 122 -220z" />
    <glyph glyph-name="Obreve" unicode="&#x14e;" 
d="M383 -17c-185 0 -339 142 -339 364c0 220 159 367 339 367c184 0 338 -142 338 -364c0 -220 -159 -367 -338 -367zM387 2c124 0 202 86 202 346c0 262 -86 347 -211 347c-124 0 -201 -86 -201 -346c0 -262 85 -347 210 -347zM383 773c-75 0 -129 65 -137 159h15
c18 -59 61 -88 121 -88c62 0 103 29 121 88h15c-7 -94 -60 -159 -135 -159z" />
    <glyph glyph-name="obreve" unicode="&#x14f;" horiz-adv-x="531" 
d="M266 -8c-134 0 -234 94 -234 237c0 142 106 240 234 240c132 0 233 -94 233 -236c0 -143 -106 -241 -233 -241zM270 11c74 0 112 64 112 220s-45 219 -121 219c-75 0 -113 -63 -113 -219s46 -220 122 -220zM265 533c-75 0 -129 65 -137 159h15c18 -59 61 -88 121 -88
c62 0 103 29 121 88h15c-7 -94 -60 -159 -135 -159z" />
    <glyph glyph-name="Ocircumflex" unicode="&#xd4;" 
d="M245 768l136 192h13l127 -192h-16l-121 93l-123 -93h-16zM383 -17c-185 0 -339 142 -339 364c0 220 159 367 339 367c184 0 338 -142 338 -364c0 -220 -159 -367 -338 -367zM387 2c124 0 202 86 202 346c0 262 -86 347 -211 347c-124 0 -201 -86 -201 -346
c0 -262 85 -347 210 -347z" />
    <glyph glyph-name="ocircumflex" unicode="&#xf4;" horiz-adv-x="531" 
d="M129 528l136 192h13l127 -192h-16l-121 93l-123 -93h-16zM266 -8c-134 0 -234 94 -234 237c0 142 106 240 234 240c132 0 233 -94 233 -236c0 -143 -106 -241 -233 -241zM270 11c74 0 112 64 112 220s-45 219 -121 219c-75 0 -113 -63 -113 -219s46 -220 122 -220z" />
    <glyph glyph-name="Odieresis" unicode="&#xd6;" 
d="M475 773c-36 0 -62 28 -62 63c0 36 26 65 62 65s62 -29 62 -65c0 -35 -26 -63 -62 -63zM290 773c-37 0 -62 28 -62 63c0 36 25 65 62 65c36 0 61 -29 61 -65c0 -35 -25 -63 -61 -63zM383 -17c-185 0 -339 142 -339 364c0 220 159 367 339 367c184 0 338 -142 338 -364
c0 -220 -159 -367 -338 -367zM387 2c124 0 202 86 202 346c0 262 -86 347 -211 347c-124 0 -201 -86 -201 -346c0 -262 85 -347 210 -347z" />
    <glyph glyph-name="odieresis" unicode="&#xf6;" horiz-adv-x="531" 
d="M357 533c-36 0 -62 28 -62 63c0 36 26 65 62 65s62 -29 62 -65c0 -35 -26 -63 -62 -63zM172 533c-37 0 -62 28 -62 63c0 36 25 65 62 65c36 0 61 -29 61 -65c0 -35 -25 -63 -61 -63zM266 -8c-134 0 -234 94 -234 237c0 142 106 240 234 240c132 0 233 -94 233 -236
c0 -143 -106 -241 -233 -241zM270 11c74 0 112 64 112 220s-45 219 -121 219c-75 0 -113 -63 -113 -219s46 -220 122 -220z" />
    <glyph glyph-name="OE" unicode="&#x152;" horiz-adv-x="1065" 
d="M425 0c-248 0 -377 144 -377 336c0 185 110 361 372 361h562l3 -225l-14 -2c-58 142 -103 208 -222 208h-120v-307h54c82 0 126 31 153 137h13v-293h-13c-27 106 -71 137 -153 137h-54v-333h117c140 0 193 67 255 220l14 -1l-5 -238h-585zM419 20c63 0 93 20 93 62v534
c0 42 -32 62 -90 62c-163 0 -243 -73 -243 -333c0 -266 101 -325 240 -325z" />
    <glyph glyph-name="oe" unicode="&#x153;" horiz-adv-x="833" 
d="M608 -8c-73 0 -131 31 -169 80c-42 -50 -105 -80 -173 -80c-134 0 -234 94 -234 237c0 142 106 240 234 240c72 0 135 -31 176 -83c40 51 99 83 165 83c135 0 204 -94 196 -213h-307v-23v-2c0 -116 52 -199 156 -199c64 0 101 32 141 85l11 -8
c-40 -65 -96 -117 -196 -117zM382 231c0 156 -45 219 -121 219c-75 0 -113 -63 -113 -219s46 -220 122 -220c74 0 112 64 112 220zM601 450c-61 0 -98 -61 -104 -176h194c10 110 -16 176 -90 176z" />
    <glyph glyph-name="Ograve" unicode="&#xd2;" 
d="M383 -17c-185 0 -339 142 -339 364c0 220 159 367 339 367c184 0 338 -142 338 -364c0 -220 -159 -367 -338 -367zM387 2c124 0 202 86 202 346c0 262 -86 347 -211 347c-124 0 -201 -86 -201 -346c0 -262 85 -347 210 -347zM413 768l-93 89c-35 35 -51 56 -51 76
c0 25 21 44 47 44c31 0 44 -25 63 -82l47 -127h-13z" />
    <glyph glyph-name="ograve" unicode="&#xf2;" horiz-adv-x="531" 
d="M266 -8c-134 0 -234 94 -234 237c0 142 106 240 234 240c132 0 233 -94 233 -236c0 -143 -106 -241 -233 -241zM270 11c74 0 112 64 112 220s-45 219 -121 219c-75 0 -113 -63 -113 -219s46 -220 122 -220zM278 528l-93 89c-35 35 -51 56 -51 76c0 25 21 44 47 44
c31 0 44 -25 63 -82l47 -127h-13z" />
    <glyph glyph-name="Ohungarumlaut" unicode="&#x150;" 
d="M438 768l56 128c24 56 39 81 69 81c24 0 40 -17 40 -41c0 -20 -13 -39 -56 -79l-98 -89h-11zM283 768l55 128c24 56 39 81 69 81c25 0 41 -17 41 -41c0 -20 -15 -41 -56 -79l-98 -89h-11zM383 -17c-185 0 -339 142 -339 364c0 220 159 367 339 367
c184 0 338 -142 338 -364c0 -220 -159 -367 -338 -367zM387 2c124 0 202 86 202 346c0 262 -86 347 -211 347c-124 0 -201 -86 -201 -346c0 -262 85 -347 210 -347z" />
    <glyph glyph-name="ohungarumlaut" unicode="&#x151;" horiz-adv-x="531" 
d="M316 528l56 128c24 56 39 81 69 81c24 0 40 -17 40 -41c0 -20 -13 -39 -56 -79l-98 -89h-11zM161 528l55 128c24 56 39 81 69 81c25 0 41 -17 41 -41c0 -20 -15 -41 -56 -79l-98 -89h-11zM266 -8c-134 0 -234 94 -234 237c0 142 106 240 234 240c132 0 233 -94 233 -236
c0 -143 -106 -241 -233 -241zM270 11c74 0 112 64 112 220s-45 219 -121 219c-75 0 -113 -63 -113 -219s46 -220 122 -220z" />
    <glyph glyph-name="Omacron" unicode="&#x14c;" 
d="M239 798v43h285v-43h-285zM383 -17c-185 0 -339 142 -339 364c0 220 159 367 339 367c184 0 338 -142 338 -364c0 -220 -159 -367 -338 -367zM387 2c124 0 202 86 202 346c0 262 -86 347 -211 347c-124 0 -201 -86 -201 -346c0 -262 85 -347 210 -347z" />
    <glyph glyph-name="omacron" unicode="&#x14d;" horiz-adv-x="531" 
d="M122 558v43h285v-43h-285zM266 -8c-134 0 -234 94 -234 237c0 142 106 240 234 240c132 0 233 -94 233 -236c0 -143 -106 -241 -233 -241zM270 11c74 0 112 64 112 220s-45 219 -121 219c-75 0 -113 -63 -113 -219s46 -220 122 -220z" />
    <glyph glyph-name="Oslash" unicode="&#xd8;" 
d="M383 -17c-82 0 -158 27 -217 78l-78 -97h-34l93 115c-64 63 -103 155 -103 268c0 220 159 367 339 367c81 0 157 -28 216 -78l79 97h34l-94 -116c63 -63 103 -155 103 -267c0 -220 -159 -367 -338 -367zM387 2c124 0 202 86 202 346c0 85 -9 152 -26 203l-350 -433
c36 -84 97 -116 174 -116zM378 695c-124 0 -201 -86 -201 -346c0 -85 9 -152 25 -203l350 432c-36 85 -98 117 -174 117z" />
    <glyph glyph-name="oslash" unicode="&#xf8;" horiz-adv-x="531" 
d="M73 -25h-29l61 75c-46 42 -73 103 -73 179c0 142 106 240 234 240c54 0 103 -16 142 -45l50 62h29l-62 -76c46 -41 74 -103 74 -177c0 -143 -106 -241 -233 -241c-55 0 -104 15 -143 44zM148 231c0 -46 4 -83 11 -114l204 253c-20 56 -55 80 -102 80
c-75 0 -113 -63 -113 -219zM270 11c74 0 112 64 112 220c0 44 -4 81 -11 111l-204 -251c20 -56 56 -80 103 -80z" />
    <glyph glyph-name="Oslashacute" unicode="&#x1fe;" 
d="M383 -17c179 0 338 147 338 367c0 112 -40 204 -103 267l94 116h-34l-79 -97c-59 50 -135 78 -216 78c-180 0 -339 -147 -339 -367c0 -113 39 -205 103 -268l-93 -115h34l78 97c59 -51 135 -78 217 -78zM387 2c-77 0 -138 32 -174 116l350 433c17 -51 26 -118 26 -203
c0 -260 -78 -346 -202 -346zM378 695c76 0 138 -32 174 -117l-350 -432c-16 51 -25 118 -25 203c0 260 77 346 201 346zM348 768l47 127c19 57 32 82 63 82c26 0 47 -19 47 -44c0 -20 -17 -41 -52 -76l-92 -89h-13z" />
    <glyph glyph-name="oslashacute" unicode="&#x1ff;" horiz-adv-x="531" 
d="M73 -25h-29l61 75c-46 42 -73 103 -73 179c0 142 106 240 234 240c54 0 103 -16 142 -45l50 62h29l-62 -76c46 -41 74 -103 74 -177c0 -143 -106 -241 -233 -241c-55 0 -104 15 -143 44zM148 231c0 -46 4 -83 11 -114l204 253c-20 56 -55 80 -102 80
c-75 0 -113 -63 -113 -219zM270 11c74 0 112 64 112 220c0 44 -4 81 -11 111l-204 -251c20 -56 56 -80 103 -80zM237 528l47 127c19 57 32 82 63 82c26 0 47 -19 47 -44c0 -20 -17 -41 -52 -76l-92 -89h-13z" />
    <glyph glyph-name="Otilde" unicode="&#xd5;" 
d="M383 -17c-185 0 -339 142 -339 364c0 220 159 367 339 367c184 0 338 -142 338 -364c0 -220 -159 -367 -338 -367zM387 2c124 0 202 86 202 346c0 262 -86 347 -211 347c-124 0 -201 -86 -201 -346c0 -262 85 -347 210 -347zM238 766c11 88 39 129 96 129
c48 0 117 -50 154 -50c19 0 38 15 50 60h16c-12 -88 -41 -129 -96 -129c-48 0 -117 50 -154 50c-20 0 -38 -14 -50 -60h-16z" />
    <glyph glyph-name="otilde" unicode="&#xf5;" horiz-adv-x="531" 
d="M266 -8c-134 0 -234 94 -234 237c0 142 106 240 234 240c132 0 233 -94 233 -236c0 -143 -106 -241 -233 -241zM270 11c74 0 112 64 112 220s-45 219 -121 219c-75 0 -113 -63 -113 -219s46 -220 122 -220zM107 526c11 88 39 129 96 129c48 0 117 -50 154 -50
c19 0 38 15 50 60h16c-12 -88 -41 -129 -96 -129c-48 0 -117 50 -154 50c-20 0 -38 -14 -50 -60h-16z" />
    <glyph glyph-name="Racute" unicode="&#x154;" horiz-adv-x="714" 
d="M329 768l47 127c19 57 32 82 63 82c26 0 47 -19 47 -44c0 -20 -17 -41 -52 -76l-92 -89h-13zM259 360h84c134 0 162 57 162 163c0 95 -40 155 -175 155h-71v-318zM259 341v-262c0 -43 21 -63 105 -66v-13h-331v13c87 3 109 25 109 66v540c0 40 -22 63 -109 66v12h315
c206 0 284 -75 284 -169c0 -86 -58 -153 -212 -176v-3c148 -5 183 -71 197 -172l7 -57c14 -89 30 -101 116 -102v-12c-34 -8 -70 -11 -103 -11c-108 0 -128 37 -138 127l-10 92c-11 101 -38 127 -154 127h-76z" />
    <glyph glyph-name="racute" unicode="&#x155;" horiz-adv-x="414" 
d="M171 528l47 127c19 57 32 82 63 82c26 0 47 -19 47 -44c0 -20 -17 -41 -52 -76l-92 -89h-13zM21 0v12c57 1 71 8 71 38v344c0 30 -14 49 -71 50v12l174 7v-101c35 65 84 105 135 105c55 0 80 -34 80 -73c0 -38 -25 -65 -61 -65c-37 0 -63 26 -63 62c0 10 3 23 6 31
c-39 -5 -66 -34 -95 -83v-289c0 -30 19 -36 87 -38v-12h-263z" />
    <glyph glyph-name="Rcaron" unicode="&#x158;" horiz-adv-x="714" 
d="M348 768l-127 192h16l121 -93l122 93h16l-135 -192h-13zM259 360h84c134 0 162 57 162 163c0 95 -40 155 -175 155h-71v-318zM259 341v-262c0 -43 21 -63 105 -66v-13h-331v13c87 3 109 25 109 66v540c0 40 -22 63 -109 66v12h315c206 0 284 -75 284 -169
c0 -86 -58 -153 -212 -176v-3c148 -5 183 -71 197 -172l7 -57c14 -89 30 -101 116 -102v-12c-34 -8 -70 -11 -103 -11c-108 0 -128 37 -138 127l-10 92c-11 101 -38 127 -154 127h-76z" />
    <glyph glyph-name="rcaron" unicode="&#x159;" horiz-adv-x="414" 
d="M211 528l-127 192h16l121 -93l122 93h16l-135 -192h-13zM21 0v12c57 1 71 8 71 38v344c0 30 -14 49 -71 50v12l174 7v-101c35 65 84 105 135 105c55 0 80 -34 80 -73c0 -38 -25 -65 -61 -65c-37 0 -63 26 -63 62c0 10 3 23 6 31c-39 -5 -66 -34 -95 -83v-289
c0 -30 19 -36 87 -38v-12h-263z" />
    <glyph glyph-name="Rcommaaccent" unicode="&#x156;" horiz-adv-x="714" 
d="M310 -292l-7 12c58 36 83 77 86 112l-4 1c-7 -4 -17 -7 -26 -7c-29 0 -53 23 -53 54c0 32 24 60 58 60c42 0 69 -31 69 -80c0 -61 -45 -117 -123 -152zM259 360h84c134 0 162 57 162 163c0 95 -40 155 -175 155h-71v-318zM259 341v-262c0 -43 21 -63 105 -66v-13h-331v13
c87 3 109 25 109 66v540c0 40 -22 63 -109 66v12h315c206 0 284 -75 284 -169c0 -86 -58 -153 -212 -176v-3c148 -5 183 -71 197 -172l7 -57c14 -89 30 -101 116 -102v-12c-34 -8 -70 -11 -103 -11c-108 0 -128 37 -138 127l-10 92c-11 101 -38 127 -154 127h-76z" />
    <glyph glyph-name="rcommaaccent" unicode="&#x157;" horiz-adv-x="414" 
d="M87 -292l-7 12c58 36 83 77 86 112l-4 1c-7 -4 -17 -7 -26 -7c-29 0 -53 23 -53 54c0 32 24 60 58 60c42 0 69 -31 69 -80c0 -61 -45 -117 -123 -152zM21 0v12c57 1 71 8 71 38v344c0 30 -14 49 -71 50v12l174 7v-101c35 65 84 105 135 105c55 0 80 -34 80 -73
c0 -38 -25 -65 -61 -65c-37 0 -63 26 -63 62c0 10 3 23 6 31c-39 -5 -66 -34 -95 -83v-289c0 -30 19 -36 87 -38v-12h-263z" />
    <glyph glyph-name="Sacute" unicode="&#x15a;" horiz-adv-x="580" 
d="M265 768l47 127c19 57 32 82 63 82c26 0 47 -19 47 -44c0 -20 -17 -41 -52 -76l-92 -89h-13zM55 -18v250h14c60 -133 131 -226 238 -226c98 0 147 66 147 129c0 88 -60 123 -184 166c-100 35 -204 67 -204 196c0 132 101 214 236 214c59 0 114 -17 150 -34l36 40h12v-223
h-14c-55 132 -119 198 -200 198c-68 0 -130 -44 -130 -123c0 -86 65 -118 180 -156c95 -32 197 -67 197 -197c0 -110 -65 -230 -238 -230c-57 0 -124 20 -168 45l-60 -49h-12z" />
    <glyph glyph-name="sacute" unicode="&#x15b;" horiz-adv-x="417" 
d="M172 528l47 127c19 57 32 82 63 82c26 0 47 -19 47 -44c0 -20 -17 -41 -52 -76l-92 -89h-13zM38 -8v166h14c64 -111 102 -147 174 -147c56 0 86 38 86 77c0 46 -28 71 -127 99c-102 29 -145 61 -145 135c0 86 66 147 169 147c44 0 86 -15 113 -31l25 31h11v-149h-14
c-58 94 -87 130 -148 130c-46 0 -81 -31 -81 -77c0 -43 40 -65 117 -85c102 -28 151 -64 151 -142c0 -84 -60 -154 -169 -154c-37 0 -102 16 -132 36l-33 -36h-11z" />
    <glyph glyph-name="Scaron" unicode="&#x160;" horiz-adv-x="580" 
d="M296 768l-127 192h16l121 -93l122 93h16l-135 -192h-13zM55 -18v250h14c60 -133 131 -226 238 -226c98 0 147 66 147 129c0 88 -60 123 -184 166c-100 35 -204 67 -204 196c0 132 101 214 236 214c59 0 114 -17 150 -34l36 40h12v-223h-14c-55 132 -119 198 -200 198
c-68 0 -130 -44 -130 -123c0 -86 65 -118 180 -156c95 -32 197 -67 197 -197c0 -110 -65 -230 -238 -230c-57 0 -124 20 -168 45l-60 -49h-12z" />
    <glyph glyph-name="scaron" unicode="&#x161;" horiz-adv-x="417" 
d="M213 528l-127 192h16l121 -93l122 93h16l-135 -192h-13zM38 -8v166h14c64 -111 102 -147 174 -147c56 0 86 38 86 77c0 46 -28 71 -127 99c-102 29 -145 61 -145 135c0 86 66 147 169 147c44 0 86 -15 113 -31l25 31h11v-149h-14c-58 94 -87 130 -148 130
c-46 0 -81 -31 -81 -77c0 -43 40 -65 117 -85c102 -28 151 -64 151 -142c0 -84 -60 -154 -169 -154c-37 0 -102 16 -132 36l-33 -36h-11z" />
    <glyph glyph-name="Scedilla" unicode="&#x15e;" horiz-adv-x="580" 
d="M260 -251c-37 0 -71 7 -103 30l10 16c27 -17 54 -24 78 -24c39 0 57 21 57 55c0 35 -31 56 -76 56c-12 0 -23 -1 -37 -5l-6 9l110 100c-57 1 -123 20 -166 45l-60 -49h-12v250h14c60 -133 131 -226 238 -226c98 0 147 66 147 129c0 88 -60 123 -184 166
c-100 35 -204 67 -204 196c0 132 101 214 236 214c59 0 114 -17 150 -34l36 40h12v-223h-14c-55 132 -119 198 -200 198c-68 0 -130 -44 -130 -123c0 -86 65 -118 180 -156c95 -32 197 -67 197 -197c0 -105 -59 -217 -213 -229l-61 -58l2 -3c81 -1 115 -44 115 -87
c0 -51 -47 -90 -116 -90z" />
    <glyph glyph-name="scedilla" unicode="&#x15f;" horiz-adv-x="417" 
d="M180 -251c-37 0 -71 7 -103 30l10 16c27 -17 54 -24 78 -24c39 0 57 21 57 55c0 35 -31 56 -76 56c-12 0 -23 -1 -37 -5l-6 9l116 106h-5c-37 0 -102 16 -132 36l-33 -36h-11v166h14c64 -111 102 -147 174 -147c56 0 86 38 86 77c0 46 -28 71 -127 99
c-102 29 -145 61 -145 135c0 86 66 147 169 147c44 0 86 -15 113 -31l25 31h11v-149h-14c-58 94 -87 130 -148 130c-46 0 -81 -31 -81 -77c0 -43 40 -65 117 -85c102 -28 151 -64 151 -142c0 -75 -48 -138 -135 -151l-69 -66l2 -3c81 -1 115 -44 115 -87
c0 -51 -47 -90 -116 -90z" />
    <glyph glyph-name="Scommaaccent" unicode="&#x218;" horiz-adv-x="580" 
d="M232 -292l-7 12c58 36 83 77 86 112l-4 1c-7 -4 -17 -7 -26 -7c-29 0 -53 23 -53 54c0 32 24 60 58 60c42 0 69 -31 69 -80c0 -61 -45 -117 -123 -152zM55 -18v250h14c60 -133 131 -226 238 -226c98 0 147 66 147 129c0 88 -60 123 -184 166c-100 35 -204 67 -204 196
c0 132 101 214 236 214c59 0 114 -17 150 -34l36 40h12v-223h-14c-55 132 -119 198 -200 198c-68 0 -130 -44 -130 -123c0 -86 65 -118 180 -156c95 -32 197 -67 197 -197c0 -110 -65 -230 -238 -230c-57 0 -124 20 -168 45l-60 -49h-12z" />
    <glyph glyph-name="scommaaccent" unicode="&#x219;" horiz-adv-x="417" 
d="M149 -292l-7 12c58 36 83 77 86 112l-4 1c-7 -4 -17 -7 -26 -7c-29 0 -53 23 -53 54c0 32 24 60 58 60c42 0 69 -31 69 -80c0 -61 -45 -117 -123 -152zM38 -8v166h14c64 -111 102 -147 174 -147c56 0 86 38 86 77c0 46 -28 71 -127 99c-102 29 -145 61 -145 135
c0 86 66 147 169 147c44 0 86 -15 113 -31l25 31h11v-149h-14c-58 94 -87 130 -148 130c-46 0 -81 -31 -81 -77c0 -43 40 -65 117 -85c102 -28 151 -64 151 -142c0 -84 -60 -154 -169 -154c-37 0 -102 16 -132 36l-33 -36h-11z" />
    <glyph glyph-name="Tcaron" unicode="&#x164;" horiz-adv-x="700" 
d="M340 768l-127 192h16l121 -93l122 93h16l-135 -192h-13zM174 0v13c89 3 119 25 119 66v599h-39c-74 0 -138 -68 -201 -199l-14 1l6 217h613l6 -217l-14 -1c-62 126 -126 199 -202 199h-39v-599c0 -41 30 -63 119 -66v-13h-354z" />
    <glyph glyph-name="tcaron" unicode="&#x165;" horiz-adv-x="351" 
d="M289 533l-6 119c-1 18 -2 42 -2 56c0 44 26 56 46 56c23 0 42 -15 42 -42c0 -15 -5 -34 -15 -59l-53 -130h-12zM216 -10c-78 0 -120 41 -120 133v302h-93v13l93 22v127l105 38v-168h142v-31h-142v-312c0 -60 17 -83 58 -83c29 0 58 20 84 67l12 -8
c-32 -65 -76 -100 -139 -100z" />
    <glyph glyph-name="Tcommaaccent" unicode="&#x162;" horiz-adv-x="700" 
d="M292 -292l-7 12c58 36 83 77 86 112l-4 1c-7 -4 -17 -7 -26 -7c-29 0 -53 23 -53 54c0 32 24 60 58 60c42 0 69 -31 69 -80c0 -61 -45 -117 -123 -152zM174 0v13c89 3 119 25 119 66v599h-39c-74 0 -138 -68 -201 -199l-14 1l6 217h613l6 -217l-14 -1
c-62 126 -126 199 -202 199h-39v-599c0 -41 30 -63 119 -66v-13h-354z" />
    <glyph glyph-name="tcommaaccent" unicode="&#x163;" horiz-adv-x="351" 
d="M133 -292l-7 12c58 36 83 77 86 112l-4 1c-7 -4 -17 -7 -26 -7c-29 0 -53 23 -53 54c0 32 24 60 58 60c42 0 69 -31 69 -80c0 -61 -45 -117 -123 -152zM216 -10c-78 0 -120 41 -120 133v302h-93v13l93 22v127l105 38v-168h142v-31h-142v-312c0 -60 17 -83 58 -83
c29 0 58 20 84 67l12 -8c-32 -65 -76 -100 -139 -100z" />
    <glyph glyph-name="Thorn" unicode="&#xde;" horiz-adv-x="656" 
d="M33 0v13c87 3 109 25 109 66v540c0 41 -22 63 -109 66v12h342v-12c-95 -3 -116 -23 -116 -67v-66h71c220 0 289 -83 289 -192c0 -101 -72 -198 -294 -198h-66v-83c0 -43 21 -63 116 -66v-13h-342zM259 181h67c137 0 166 63 166 178c0 99 -32 174 -162 174h-71v-352z" />
    <glyph glyph-name="thorn" unicode="&#xfe;" horiz-adv-x="540" 
d="M172 717v-319c41 42 89 71 150 71c116 0 182 -98 182 -232c0 -138 -81 -245 -212 -245c-50 0 -84 10 -120 29v-162c0 -31 19 -37 95 -38v-12h-271v12c58 1 71 7 71 38v789c0 34 -10 49 -80 51v12zM275 11c77 0 116 76 116 220c0 108 -40 197 -119 197
c-38 0 -69 -18 -100 -50v-291c21 -55 58 -76 103 -76z" />
    <glyph glyph-name="Uacute" unicode="&#xda;" horiz-adv-x="790" 
d="M390 768l47 127c19 57 32 82 63 82c26 0 47 -19 47 -44c0 -20 -17 -41 -52 -76l-92 -89h-13zM403 -17c-173 0 -272 75 -272 220v416c0 40 -23 63 -109 66v12h327v-12c-85 -3 -101 -24 -101 -66v-404c0 -151 90 -198 203 -198c50 0 97 15 128 46c35 35 56 86 56 162v306
c0 98 -33 140 -134 154v12h276v-12c-94 -16 -117 -56 -117 -154v-314c0 -140 -79 -234 -257 -234z" />
    <glyph glyph-name="uacute" unicode="&#xfa;" horiz-adv-x="558" 
d="M222 528l47 127c19 57 32 82 63 82c26 0 47 -19 47 -44c0 -20 -17 -41 -52 -76l-92 -89h-13zM209 -7c-78 0 -127 46 -127 140v265c0 30 -15 48 -73 49v12l178 4v-308c0 -72 21 -111 81 -111c44 0 79 31 105 82v272c0 30 -15 47 -72 48v12l177 5v-414c0 -26 15 -36 72 -38
v-11h-175v102c-43 -72 -100 -109 -166 -109z" />
    <glyph glyph-name="Ubreve" unicode="&#x16c;" horiz-adv-x="790" 
d="M403 -17c-173 0 -272 75 -272 220v416c0 40 -23 63 -109 66v12h327v-12c-85 -3 -101 -24 -101 -66v-404c0 -151 90 -198 203 -198c50 0 97 15 128 46c35 35 56 86 56 162v306c0 98 -33 140 -134 154v12h276v-12c-94 -16 -117 -56 -117 -154v-314
c0 -140 -79 -234 -257 -234zM415 773c-75 0 -129 65 -137 159h15c18 -59 61 -88 121 -88c62 0 103 29 121 88h15c-7 -94 -60 -159 -135 -159z" />
    <glyph glyph-name="ubreve" unicode="&#x16d;" horiz-adv-x="558" 
d="M209 -7c-78 0 -127 46 -127 140v265c0 30 -15 48 -73 49v12l178 4v-308c0 -72 21 -111 81 -111c44 0 79 31 105 82v272c0 30 -15 47 -72 48v12l177 5v-414c0 -26 15 -36 72 -38v-11h-175v102c-43 -72 -100 -109 -166 -109zM279 533c-75 0 -129 65 -137 159h15
c18 -59 61 -88 121 -88c62 0 103 29 121 88h15c-7 -94 -60 -159 -135 -159z" />
    <glyph glyph-name="Ucircumflex" unicode="&#xdb;" horiz-adv-x="790" 
d="M293 768l136 192h13l127 -192h-16l-121 93l-123 -93h-16zM403 -17c-173 0 -272 75 -272 220v416c0 40 -23 63 -109 66v12h327v-12c-85 -3 -101 -24 -101 -66v-404c0 -151 90 -198 203 -198c50 0 97 15 128 46c35 35 56 86 56 162v306c0 98 -33 140 -134 154v12h276v-12
c-94 -16 -117 -56 -117 -154v-314c0 -140 -79 -234 -257 -234z" />
    <glyph glyph-name="ucircumflex" unicode="&#xfb;" horiz-adv-x="558" 
d="M127 528l136 192h13l127 -192h-16l-121 93l-123 -93h-16zM209 -7c-78 0 -127 46 -127 140v265c0 30 -15 48 -73 49v12l178 4v-308c0 -72 21 -111 81 -111c44 0 79 31 105 82v272c0 30 -15 47 -72 48v12l177 5v-414c0 -26 15 -36 72 -38v-11h-175v102
c-43 -72 -100 -109 -166 -109z" />
    <glyph glyph-name="Udieresis" unicode="&#xdc;" horiz-adv-x="790" 
d="M509 773c-36 0 -62 28 -62 63c0 36 26 65 62 65s62 -29 62 -65c0 -35 -26 -63 -62 -63zM324 773c-37 0 -62 28 -62 63c0 36 25 65 62 65c36 0 61 -29 61 -65c0 -35 -25 -63 -61 -63zM403 -17c-173 0 -272 75 -272 220v416c0 40 -23 63 -109 66v12h327v-12
c-85 -3 -101 -24 -101 -66v-404c0 -151 90 -198 203 -198c50 0 97 15 128 46c35 35 56 86 56 162v306c0 98 -33 140 -134 154v12h276v-12c-94 -16 -117 -56 -117 -154v-314c0 -140 -79 -234 -257 -234z" />
    <glyph glyph-name="udieresis" unicode="&#xfc;" horiz-adv-x="558" 
d="M357 533c-36 0 -62 28 -62 63c0 36 26 65 62 65s62 -29 62 -65c0 -35 -26 -63 -62 -63zM172 533c-37 0 -62 28 -62 63c0 36 25 65 62 65c36 0 61 -29 61 -65c0 -35 -25 -63 -61 -63zM209 -7c-78 0 -127 46 -127 140v265c0 30 -15 48 -73 49v12l178 4v-308
c0 -72 21 -111 81 -111c44 0 79 31 105 82v272c0 30 -15 47 -72 48v12l177 5v-414c0 -26 15 -36 72 -38v-11h-175v102c-43 -72 -100 -109 -166 -109z" />
    <glyph glyph-name="Ugrave" unicode="&#xd9;" horiz-adv-x="790" 
d="M403 -17c-173 0 -272 75 -272 220v416c0 40 -23 63 -109 66v12h327v-12c-85 -3 -101 -24 -101 -66v-404c0 -151 90 -198 203 -198c50 0 97 15 128 46c35 35 56 86 56 162v306c0 98 -33 140 -134 154v12h276v-12c-94 -16 -117 -56 -117 -154v-314
c0 -140 -79 -234 -257 -234zM443 768l-93 89c-35 35 -51 56 -51 76c0 25 21 44 47 44c31 0 44 -25 63 -82l47 -127h-13z" />
    <glyph glyph-name="ugrave" unicode="&#xf9;" horiz-adv-x="558" 
d="M209 -7c-78 0 -127 46 -127 140v265c0 30 -15 48 -73 49v12l178 4v-308c0 -72 21 -111 81 -111c44 0 79 31 105 82v272c0 30 -15 47 -72 48v12l177 5v-414c0 -26 15 -36 72 -38v-11h-175v102c-43 -72 -100 -109 -166 -109zM295 528l-93 89c-35 35 -51 56 -51 76
c0 25 21 44 47 44c31 0 44 -25 63 -82l47 -127h-13z" />
    <glyph glyph-name="Uhungarumlaut" unicode="&#x170;" horiz-adv-x="790" 
d="M403 -17c-173 0 -272 75 -272 220v416c0 40 -23 63 -109 66v12h327v-12c-85 -3 -101 -24 -101 -66v-404c0 -151 90 -198 203 -198c50 0 97 15 128 46c35 35 56 86 56 162v306c0 98 -33 140 -134 154v12h276v-12c-94 -16 -117 -56 -117 -154v-314
c0 -140 -79 -234 -257 -234zM460 768l56 128c24 56 39 81 69 81c24 0 40 -17 40 -41c0 -20 -13 -39 -56 -79l-98 -89h-11zM305 768l55 128c24 56 39 81 69 81c25 0 41 -17 41 -41c0 -20 -15 -41 -56 -79l-98 -89h-11z" />
    <glyph glyph-name="uhungarumlaut" unicode="&#x171;" horiz-adv-x="558" 
d="M209 -7c-78 0 -127 46 -127 140v265c0 30 -15 48 -73 49v12l178 4v-308c0 -72 21 -111 81 -111c44 0 79 31 105 82v272c0 30 -15 47 -72 48v12l177 5v-414c0 -26 15 -36 72 -38v-11h-175v102c-43 -72 -100 -109 -166 -109zM325 528l56 128c24 56 39 81 69 81
c24 0 40 -17 40 -41c0 -20 -13 -39 -56 -79l-98 -89h-11zM170 528l55 128c24 56 39 81 69 81c25 0 41 -17 41 -41c0 -20 -15 -41 -56 -79l-98 -89h-11z" />
    <glyph glyph-name="Umacron" unicode="&#x16a;" horiz-adv-x="790" 
d="M403 -17c-173 0 -272 75 -272 220v416c0 40 -23 63 -109 66v12h327v-12c-85 -3 -101 -24 -101 -66v-404c0 -151 90 -198 203 -198c50 0 97 15 128 46c35 35 56 86 56 162v306c0 98 -33 140 -134 154v12h276v-12c-94 -16 -117 -56 -117 -154v-314
c0 -140 -79 -234 -257 -234zM269 798v43h285v-43h-285z" />
    <glyph glyph-name="umacron" unicode="&#x16b;" horiz-adv-x="558" 
d="M209 -7c-78 0 -127 46 -127 140v265c0 30 -15 48 -73 49v12l178 4v-308c0 -72 21 -111 81 -111c44 0 79 31 105 82v272c0 30 -15 47 -72 48v12l177 5v-414c0 -26 15 -36 72 -38v-11h-175v102c-43 -72 -100 -109 -166 -109zM138 558v43h285v-43h-285z" />
    <glyph glyph-name="Uogonek" unicode="&#x172;" horiz-adv-x="790" 
d="M403 -17c-173 0 -272 75 -272 220v416c0 40 -23 63 -109 66v12h327v-12c-85 -3 -101 -24 -101 -66v-404c0 -151 90 -198 203 -198c50 0 97 15 128 46c35 35 56 86 56 162v306c0 98 -33 140 -134 154v12h276v-12c-94 -16 -117 -56 -117 -154v-314
c0 -128 -66 -217 -212 -231l-9 -11c-35 -40 -53 -79 -53 -121c0 -44 25 -65 59 -65c20 0 41 5 64 17l6 -13c-32 -23 -71 -37 -111 -37c-56 0 -97 31 -97 82s33 85 98 137l11 8h-13z" />
    <glyph glyph-name="uogonek" unicode="&#x173;" horiz-adv-x="558" 
d="M209 -7c-78 0 -127 46 -127 140v265c0 30 -15 48 -73 49v12l178 4v-308c0 -72 21 -111 81 -111c44 0 79 31 105 82v272c0 30 -15 47 -72 48v12l177 5v-414c0 -26 15 -36 72 -38v-11h-54l-23 -25c-35 -40 -53 -79 -53 -121c0 -44 25 -65 59 -65c21 0 41 5 64 17l7 -13
c-33 -23 -72 -37 -112 -37c-56 0 -97 31 -97 82s33 85 98 137l33 25h-97v102c-43 -72 -100 -109 -166 -109z" />
    <glyph glyph-name="Uring" unicode="&#x16e;" horiz-adv-x="790" 
d="M416 773c-70 0 -113 47 -113 105c0 57 44 104 113 104s112 -46 112 -104s-43 -105 -112 -105zM416 790c36 0 55 33 55 88c0 61 -19 87 -56 87c-36 0 -55 -26 -55 -87c0 -55 20 -88 56 -88zM403 -17c-173 0 -272 75 -272 220v416c0 40 -23 63 -109 66v12h327v-12
c-85 -3 -101 -24 -101 -66v-404c0 -151 90 -198 203 -198c50 0 97 15 128 46c35 35 56 86 56 162v306c0 98 -33 140 -134 154v12h276v-12c-94 -16 -117 -56 -117 -154v-314c0 -140 -79 -234 -257 -234z" />
    <glyph glyph-name="uring" unicode="&#x16f;" horiz-adv-x="558" 
d="M279 533c-70 0 -113 47 -113 105c0 57 44 104 113 104s112 -46 112 -104s-43 -105 -112 -105zM279 550c36 0 55 33 55 88c0 61 -19 87 -56 87c-36 0 -55 -26 -55 -87c0 -55 20 -88 56 -88zM209 -7c-78 0 -127 46 -127 140v265c0 30 -15 48 -73 49v12l178 4v-308
c0 -72 21 -111 81 -111c44 0 79 31 105 82v272c0 30 -15 47 -72 48v12l177 5v-414c0 -26 15 -36 72 -38v-11h-175v102c-43 -72 -100 -109 -166 -109z" />
    <glyph glyph-name="Wacute" unicode="&#x1e82;" horiz-adv-x="1030" 
d="M511 768l47 127c19 57 32 82 63 82c26 0 47 -19 47 -44c0 -20 -17 -41 -52 -76l-92 -89h-13zM513 518l-21 65c-26 79 -45 95 -112 102v12h305v-12c-83 -5 -97 -23 -77 -84l146 -449h4l123 390c30 95 10 127 -75 143v12h237v-12c-75 -13 -107 -54 -142 -163l-172 -540h-35
l-169 504l-182 -504h-35l-194 601c-23 72 -42 90 -117 102v12h310v-12c-81 -5 -90 -31 -73 -84l137 -451h4z" />
    <glyph glyph-name="wacute" unicode="&#x1e83;" horiz-adv-x="743" 
d="M383 528l47 127c19 57 32 82 63 82c26 0 47 -19 47 -44c0 -20 -17 -41 -52 -76l-92 -89h-13zM376 327l-17 47c-19 52 -37 69 -80 75v12h239v-12c-44 -4 -62 -16 -62 -41c0 -7 2 -14 5 -23l94 -276h4l73 223c10 30 16 53 16 65c0 32 -21 46 -67 52v12h182v-12
c-38 -5 -75 -31 -94 -86l-131 -370h-41l-111 305l-125 -305h-39l-148 381c-20 51 -39 69 -87 75v12h245v-12c-43 -4 -61 -17 -61 -40c0 -6 2 -15 5 -24l104 -278h4z" />
    <glyph glyph-name="Wcircumflex" unicode="&#x174;" horiz-adv-x="1030" 
d="M395 768l136 192h13l127 -192h-16l-121 93l-123 -93h-16zM513 518l-21 65c-26 79 -45 95 -112 102v12h305v-12c-83 -5 -97 -23 -77 -84l146 -449h4l123 390c30 95 10 127 -75 143v12h237v-12c-75 -13 -107 -54 -142 -163l-172 -540h-35l-169 504l-182 -504h-35l-194 601
c-23 72 -42 90 -117 102v12h310v-12c-81 -5 -90 -31 -73 -84l137 -451h4z" />
    <glyph glyph-name="wcircumflex" unicode="&#x175;" horiz-adv-x="743" 
d="M259 528l136 192h13l127 -192h-16l-121 93l-123 -93h-16zM376 327l-17 47c-19 52 -37 69 -80 75v12h239v-12c-44 -4 -62 -16 -62 -41c0 -7 2 -14 5 -23l94 -276h4l73 223c10 30 16 53 16 65c0 32 -21 46 -67 52v12h182v-12c-38 -5 -75 -31 -94 -86l-131 -370h-41
l-111 305l-125 -305h-39l-148 381c-20 51 -39 69 -87 75v12h245v-12c-43 -4 -61 -17 -61 -40c0 -6 2 -15 5 -24l104 -278h4z" />
    <glyph glyph-name="Wdieresis" unicode="&#x1e84;" horiz-adv-x="1030" 
d="M625 773c-36 0 -62 28 -62 63c0 36 26 65 62 65s62 -29 62 -65c0 -35 -26 -63 -62 -63zM440 773c-37 0 -62 28 -62 63c0 36 25 65 62 65c36 0 61 -29 61 -65c0 -35 -25 -63 -61 -63zM513 518l-21 65c-26 79 -45 95 -112 102v12h305v-12c-83 -5 -97 -23 -77 -84l146 -449
h4l123 390c30 95 10 127 -75 143v12h237v-12c-75 -13 -107 -54 -142 -163l-172 -540h-35l-169 504l-182 -504h-35l-194 601c-23 72 -42 90 -117 102v12h310v-12c-81 -5 -90 -31 -73 -84l137 -451h4z" />
    <glyph glyph-name="wdieresis" unicode="&#x1e85;" horiz-adv-x="743" 
d="M490 533c-36 0 -62 28 -62 63c0 36 26 65 62 65s62 -29 62 -65c0 -35 -26 -63 -62 -63zM305 533c-37 0 -62 28 -62 63c0 36 25 65 62 65c36 0 61 -29 61 -65c0 -35 -25 -63 -61 -63zM376 327l-17 47c-19 52 -37 69 -80 75v12h239v-12c-44 -4 -62 -16 -62 -41
c0 -7 2 -14 5 -23l94 -276h4l73 223c10 30 16 53 16 65c0 32 -21 46 -67 52v12h182v-12c-38 -5 -75 -31 -94 -86l-131 -370h-41l-111 305l-125 -305h-39l-148 381c-20 51 -39 69 -87 75v12h245v-12c-43 -4 -61 -17 -61 -40c0 -6 2 -15 5 -24l104 -278h4z" />
    <glyph glyph-name="Wgrave" unicode="&#x1e80;" horiz-adv-x="1030" 
d="M513 518l-21 65c-26 79 -45 95 -112 102v12h305v-12c-83 -5 -97 -23 -77 -84l146 -449h4l123 390c30 95 10 127 -75 143v12h237v-12c-75 -13 -107 -54 -142 -163l-172 -540h-35l-169 504l-182 -504h-35l-194 601c-23 72 -42 90 -117 102v12h310v-12
c-81 -5 -90 -31 -73 -84l137 -451h4zM540 768l-93 89c-35 35 -51 56 -51 76c0 25 21 44 47 44c31 0 44 -25 63 -82l47 -127h-13z" />
    <glyph glyph-name="wgrave" unicode="&#x1e81;" horiz-adv-x="743" 
d="M376 327l-17 47c-19 52 -37 69 -80 75v12h239v-12c-44 -4 -62 -16 -62 -41c0 -7 2 -14 5 -23l94 -276h4l73 223c10 30 16 53 16 65c0 32 -21 46 -67 52v12h182v-12c-38 -5 -75 -31 -94 -86l-131 -370h-41l-111 305l-125 -305h-39l-148 381c-20 51 -39 69 -87 75v12h245
v-12c-43 -4 -61 -17 -61 -40c0 -6 2 -15 5 -24l104 -278h4zM391 528l-93 89c-35 35 -51 56 -51 76c0 25 21 44 47 44c31 0 44 -25 63 -82l47 -127h-13z" />
    <glyph glyph-name="Yacute" unicode="&#xdd;" horiz-adv-x="677" 
d="M386 333l130 228c47 80 42 107 -50 124v12h231v-12c-67 -12 -102 -37 -161 -139l-137 -235v-232c0 -41 21 -63 112 -66v-13h-340v13c92 3 112 25 112 66v212l-176 311c-30 52 -54 70 -114 83v12h322v-12c-99 -6 -105 -34 -75 -87zM356 768l47 127c19 57 32 82 63 82
c26 0 47 -19 47 -44c0 -20 -17 -41 -52 -76l-92 -89h-13z" />
    <glyph glyph-name="yacute" unicode="&#xfd;" horiz-adv-x="492" 
d="M248 -11l-175 385c-24 52 -41 69 -90 75v12h248v-12c-60 -5 -67 -26 -51 -63l118 -279l89 228c31 80 17 104 -55 114v12h181v-12c-35 -5 -66 -33 -89 -86l-164 -400c-53 -128 -101 -164 -158 -164c-48 0 -78 32 -78 71c0 31 19 61 57 61c31 0 56 -26 56 -60
c0 -21 -9 -39 -22 -50c40 5 78 33 127 154zM263 528l47 127c19 57 32 82 63 82c26 0 47 -19 47 -44c0 -20 -17 -41 -52 -76l-92 -89h-13z" />
    <glyph glyph-name="Ycircumflex" unicode="&#x176;" horiz-adv-x="677" 
d="M386 333l130 228c47 80 42 107 -50 124v12h231v-12c-67 -12 -102 -37 -161 -139l-137 -235v-232c0 -41 21 -63 112 -66v-13h-340v13c92 3 112 25 112 66v212l-176 311c-30 52 -54 70 -114 83v12h322v-12c-99 -6 -105 -34 -75 -87zM217 768l136 192h13l127 -192h-16
l-121 93l-123 -93h-16z" />
    <glyph glyph-name="ycircumflex" unicode="&#x177;" horiz-adv-x="492" 
d="M248 -11l-175 385c-24 52 -41 69 -90 75v12h248v-12c-60 -5 -67 -26 -51 -63l118 -279l89 228c31 80 17 104 -55 114v12h181v-12c-35 -5 -66 -33 -89 -86l-164 -400c-53 -128 -101 -164 -158 -164c-48 0 -78 32 -78 71c0 31 19 61 57 61c31 0 56 -26 56 -60
c0 -21 -9 -39 -22 -50c40 5 78 33 127 154zM127 528l136 192h13l127 -192h-16l-121 93l-123 -93h-16z" />
    <glyph glyph-name="Ydieresis" unicode="&#x178;" horiz-adv-x="677" 
d="M386 333l130 228c47 80 42 107 -50 124v12h231v-12c-67 -12 -102 -37 -161 -139l-137 -235v-232c0 -41 21 -63 112 -66v-13h-340v13c92 3 112 25 112 66v212l-176 311c-30 52 -54 70 -114 83v12h322v-12c-99 -6 -105 -34 -75 -87zM482 773c-36 0 -62 28 -62 63
c0 36 26 65 62 65s62 -29 62 -65c0 -35 -26 -63 -62 -63zM297 773c-37 0 -62 28 -62 63c0 36 25 65 62 65c36 0 61 -29 61 -65c0 -35 -25 -63 -61 -63z" />
    <glyph glyph-name="ydieresis" unicode="&#xff;" horiz-adv-x="492" 
d="M248 -11l-175 385c-24 52 -41 69 -90 75v12h248v-12c-60 -5 -67 -26 -51 -63l118 -279l89 228c31 80 17 104 -55 114v12h181v-12c-35 -5 -66 -33 -89 -86l-164 -400c-53 -128 -101 -164 -158 -164c-48 0 -78 32 -78 71c0 31 19 61 57 61c31 0 56 -26 56 -60
c0 -21 -9 -39 -22 -50c40 5 78 33 127 154zM370 533c-36 0 -62 28 -62 63c0 36 26 65 62 65s62 -29 62 -65c0 -35 -26 -63 -62 -63zM185 533c-37 0 -62 28 -62 63c0 36 25 65 62 65c36 0 61 -29 61 -65c0 -35 -25 -63 -61 -63z" />
    <glyph glyph-name="Ygrave" unicode="&#x1ef2;" horiz-adv-x="677" 
d="M386 333l130 228c47 80 42 107 -50 124v12h231v-12c-67 -12 -102 -37 -161 -139l-137 -235v-232c0 -41 21 -63 112 -66v-13h-340v13c92 3 112 25 112 66v212l-176 311c-30 52 -54 70 -114 83v12h322v-12c-99 -6 -105 -34 -75 -87zM365 768l-93 89c-35 35 -51 56 -51 76
c0 25 21 44 47 44c31 0 44 -25 63 -82l47 -127h-13z" />
    <glyph glyph-name="ygrave" unicode="&#x1ef3;" horiz-adv-x="492" 
d="M248 -11l-175 385c-24 52 -41 69 -90 75v12h248v-12c-60 -5 -67 -26 -51 -63l118 -279l89 228c31 80 17 104 -55 114v12h181v-12c-35 -5 -66 -33 -89 -86l-164 -400c-53 -128 -101 -164 -158 -164c-48 0 -78 32 -78 71c0 31 19 61 57 61c31 0 56 -26 56 -60
c0 -21 -9 -39 -22 -50c40 5 78 33 127 154zM262 528l-93 89c-35 35 -51 56 -51 76c0 25 21 44 47 44c31 0 44 -25 63 -82l47 -127h-13z" />
    <glyph glyph-name="Zacute" unicode="&#x179;" horiz-adv-x="650" 
d="M291 768l47 127c19 57 32 82 63 82c26 0 47 -19 47 -44c0 -20 -17 -41 -52 -76l-92 -89h-13zM35 0l-1 11l435 666h-184c-72 0 -131 -56 -211 -198l-13 2l17 216h533l1 -11l-435 -666h213c79 0 125 61 210 207l14 -2l-14 -225h-565z" />
    <glyph glyph-name="zacute" unicode="&#x17a;" horiz-adv-x="470" 
d="M211 528l47 127c19 57 32 82 63 82c26 0 47 -19 47 -44c0 -20 -17 -41 -52 -76l-92 -89h-13zM31 0l-2 13l297 428h-102c-56 0 -93 -32 -158 -143l-15 2l14 161h378l2 -14l-296 -427h113c60 0 98 39 163 150l14 -2l-14 -168h-394z" />
    <glyph glyph-name="Zcaron" unicode="&#x17d;" horiz-adv-x="650" 
d="M328 768l-127 192h16l121 -93l122 93h16l-135 -192h-13zM35 0l-1 11l435 666h-184c-72 0 -131 -56 -211 -198l-13 2l17 216h533l1 -11l-435 -666h213c79 0 125 61 210 207l14 -2l-14 -225h-565z" />
    <glyph glyph-name="zcaron" unicode="&#x17e;" horiz-adv-x="470" 
d="M239 528l-127 192h16l121 -93l122 93h16l-135 -192h-13zM31 0l-2 13l297 428h-102c-56 0 -93 -32 -158 -143l-15 2l14 161h378l2 -14l-296 -427h113c60 0 98 39 163 150l14 -2l-14 -168h-394z" />
    <glyph glyph-name="Zdotaccent" unicode="&#x17b;" horiz-adv-x="650" 
d="M35 0l-1 11l435 666h-184c-72 0 -131 -56 -211 -198l-13 2l17 216h533l1 -11l-435 -666h213c79 0 125 61 210 207l14 -2l-14 -225h-565zM332 773c-40 0 -66 26 -66 66c0 39 27 68 66 68c40 0 65 -27 65 -67c0 -39 -27 -67 -65 -67z" />
    <glyph glyph-name="zdotaccent" unicode="&#x17c;" horiz-adv-x="470" 
d="M31 0l-2 13l297 428h-102c-56 0 -93 -32 -158 -143l-15 2l14 161h378l2 -14l-296 -427h113c60 0 98 39 163 150l14 -2l-14 -168h-394zM248 533c-40 0 -66 26 -66 66c0 39 27 68 66 68c40 0 65 -27 65 -67c0 -39 -27 -67 -65 -67z" />
    <glyph glyph-name="schwa" unicode="&#x259;" horiz-adv-x="484" 
d="M225 468c134 0 226 -95 226 -233c0 -143 -104 -244 -226 -244c-134 0 -203 94 -195 213h306c0 7 1 15 1 23v2c0 116 -52 199 -157 199c-63 0 -100 -32 -141 -85l-11 8c40 65 97 117 197 117zM232 10c60 0 97 60 104 176h-194c-10 -110 15 -176 90 -176z" />
    <glyph glyph-name="germandbls" unicode="&#xdf;" horiz-adv-x="591" 
d="M412 -8c-75 0 -144 36 -144 95c0 29 18 55 52 55c32 0 49 -25 49 -51c0 -20 -15 -38 -34 -50c13 -18 43 -31 81 -31c53 0 82 33 82 82c0 51 -41 81 -99 112c-68 37 -111 69 -111 131c0 35 20 62 62 102c47 43 56 73 56 141c0 85 -37 127 -102 127c-68 0 -97 -36 -97 -145
v-560h-176v12c57 1 71 8 71 38v375h-86v13l86 22v40c0 143 71 223 211 223c128 0 195 -58 195 -133c0 -50 -31 -83 -105 -137c-37 -26 -48 -42 -48 -69c0 -42 47 -67 96 -96c63 -35 121 -71 121 -146c0 -74 -58 -150 -160 -150z" />
    <glyph glyph-name="zero" unicode="0" horiz-adv-x="613" 
d="M306 -14c-157 0 -267 149 -267 343c0 193 116 347 268 347c157 0 267 -150 267 -343s-116 -347 -268 -347zM311 4c99 0 134 94 134 327c0 232 -43 327 -143 327c-99 0 -135 -94 -135 -327s44 -327 144 -327z" />
    <glyph glyph-name="one" unicode="1" horiz-adv-x="425" 
d="M37 0v13c94 1 126 17 126 63v481c0 60 -18 78 -128 81v12l240 20v-594c0 -46 30 -62 126 -63v-13h-364z" />
    <glyph glyph-name="two" unicode="2" horiz-adv-x="560" 
d="M51 0v70l156 129c136 109 177 180 177 297c0 116 -49 162 -122 162c-46 0 -101 -25 -121 -63c40 -17 57 -41 57 -76c0 -38 -24 -75 -70 -75c-45 0 -74 34 -74 77c0 93 107 155 221 155c151 0 229 -81 229 -181c0 -89 -63 -157 -233 -281l-151 -115v-5h259
c73 0 92 17 122 106l13 -1l-3 -199h-460z" />
    <glyph glyph-name="three" unicode="3" horiz-adv-x="557" 
d="M260 -14c-120 0 -224 53 -224 134c0 42 29 77 73 77s66 -35 66 -70c0 -34 -24 -58 -46 -70c17 -26 68 -53 132 -53c94 0 136 55 136 169c0 105 -50 155 -178 155h-29v22h18c134 0 172 55 172 165c0 99 -41 143 -124 143c-45 0 -91 -22 -113 -51c23 -8 50 -33 50 -69
c0 -35 -22 -70 -66 -70c-41 0 -70 30 -70 71c0 80 96 137 214 137c152 0 230 -68 230 -158c0 -74 -61 -145 -212 -176v-3c145 -5 229 -64 229 -163c0 -108 -91 -190 -258 -190z" />
    <glyph glyph-name="four" unicode="4" horiz-adv-x="581" 
d="M565 206h-141v-132c0 -44 29 -60 93 -61v-13h-302v13c62 1 97 17 97 61v132h-290v46l332 410h70v-389h141v-67zM308 565l-233 -292h237v292h-4z" />
    <glyph glyph-name="five" unicode="5" horiz-adv-x="549" 
d="M262 -14c-109 0 -216 48 -216 133c0 42 28 77 73 77c43 0 65 -33 65 -66c0 -37 -30 -65 -51 -75c18 -25 65 -51 121 -51c100 0 135 69 135 198c0 126 -52 175 -136 175c-59 0 -104 -21 -146 -50l-19 9l12 326h391l-14 -100h-357l-8 -210c48 32 110 49 163 49
c166 0 236 -86 236 -197c0 -112 -93 -218 -249 -218z" />
    <glyph glyph-name="six" unicode="6" horiz-adv-x="572" 
d="M296 -14c-149 0 -253 113 -253 276c0 114 38 205 107 273c80 80 171 125 340 144v-12c-188 -46 -303 -141 -328 -336l4 -1c26 66 98 104 170 104c118 0 201 -81 201 -200c0 -136 -91 -248 -241 -248zM301 3c85 0 116 77 116 215c0 131 -35 191 -109 191
c-73 0 -145 -61 -145 -206c0 -132 59 -200 138 -200z" />
    <glyph glyph-name="seven" unicode="7" horiz-adv-x="523" 
d="M102 -10v7l347 572h-279c-62 0 -78 -21 -106 -119h-12l7 212h451v-11l-173 -380l-124 -281h-111z" />
    <glyph glyph-name="eight" unicode="8" horiz-adv-x="558" 
d="M41 155c0 70 61 132 152 167c-83 39 -133 91 -133 169c0 107 102 185 220 185c122 0 220 -64 220 -154c0 -72 -55 -118 -144 -156c110 -44 165 -101 165 -187c0 -111 -119 -193 -235 -193c-152 0 -245 70 -245 169zM245 301c-9 3 -18 6 -26 10c-49 -32 -80 -86 -80 -150
c0 -95 52 -157 140 -157c79 0 137 36 137 133c0 77 -57 122 -171 164zM161 532c0 -75 58 -116 163 -154l12 -5c49 34 66 79 66 141c0 86 -46 143 -125 143c-68 0 -116 -37 -116 -125z" />
    <glyph glyph-name="nine" unicode="9" horiz-adv-x="572" 
d="M83 -18v12c183 43 302 142 327 337l-4 1c-25 -66 -93 -104 -160 -104c-118 0 -211 81 -211 208c0 128 99 240 249 240c152 0 245 -113 245 -279c0 -114 -38 -202 -106 -270c-80 -80 -171 -126 -340 -145zM275 253c63 0 135 69 135 205c0 131 -52 201 -129 201
c-85 0 -126 -78 -126 -212s42 -194 120 -194z" />
    <glyph glyph-name="period" unicode="." horiz-adv-x="233" 
d="M117 -16c-39 0 -69 30 -69 66c0 37 30 67 69 67c38 0 67 -30 67 -66c0 -37 -29 -67 -67 -67z" />
    <glyph glyph-name="comma" unicode="," horiz-adv-x="233" 
d="M29 -151l-7 12c72 36 112 94 117 135l-4 2c-8 -5 -19 -8 -29 -8c-32 0 -59 25 -59 60c0 36 27 67 64 67c48 0 77 -35 77 -86c0 -77 -54 -142 -159 -182z" />
    <glyph glyph-name="colon" unicode=":" horiz-adv-x="239" 
d="M120 274c-39 0 -68 29 -68 66s29 67 68 67c38 0 67 -30 67 -66c0 -37 -29 -67 -67 -67zM120 -16c-39 0 -68 30 -68 66c0 37 29 67 68 67c38 0 67 -30 67 -66c0 -37 -29 -67 -67 -67z" />
    <glyph glyph-name="semicolon" unicode=";" horiz-adv-x="239" 
d="M120 274c-39 0 -68 29 -68 66s29 67 68 67c38 0 67 -30 67 -66c0 -37 -29 -67 -67 -67zM32 -151l-7 12c72 36 112 94 117 135l-4 2c-8 -5 -19 -8 -29 -8c-32 0 -58 25 -58 60c0 36 26 67 63 67c48 0 77 -35 77 -86c0 -77 -54 -142 -159 -182z" />
    <glyph glyph-name="ellipsis" unicode="&#x2026;" horiz-adv-x="685" 
d="M568 -16c-39 0 -68 30 -68 66c0 37 30 67 69 67c38 0 67 -30 67 -66c0 -37 -30 -67 -68 -67zM342 -16c-38 0 -68 30 -68 66c0 37 30 67 69 67c38 0 67 -30 67 -66c0 -37 -30 -67 -68 -67zM117 -16c-39 0 -69 30 -69 66c0 37 30 67 69 67c38 0 67 -30 67 -66
c0 -37 -29 -67 -67 -67z" />
    <glyph glyph-name="periodcentered" unicode="&#xb7;" horiz-adv-x="233" 
d="M117 258c-39 0 -69 30 -69 67c0 36 30 67 69 67c38 0 67 -30 67 -67c0 -36 -29 -67 -67 -67z" />
    <glyph glyph-name="bullet" unicode="&#x2022;" horiz-adv-x="473" 
d="M237 198c-74 0 -132 59 -132 131s58 132 132 132c73 0 131 -60 131 -132s-58 -131 -131 -131z" />
    <glyph glyph-name="ampersand" unicode="&#x26;" horiz-adv-x="763" 
d="M334 387c62 48 80 89 80 158c0 67 -29 107 -85 107c-52 0 -88 -41 -88 -101c0 -54 33 -103 93 -164zM247 335c-60 -38 -88 -85 -88 -159c0 -83 59 -136 140 -136c55 0 96 24 136 72c-41 71 -117 161 -188 223zM500 200c46 104 105 166 161 166c50 0 77 -30 77 -73
c0 -35 -25 -63 -62 -63c-32 0 -58 25 -58 56c0 9 2 17 6 23l-3 3c-38 -17 -74 -59 -108 -127c59 -104 99 -139 148 -139c19 0 37 6 67 29l8 -9c-52 -54 -99 -83 -147 -83c-67 0 -100 35 -144 113c-48 -68 -113 -113 -204 -113c-125 0 -191 79 -191 173s70 153 184 192
c-49 52 -81 94 -81 153c0 96 69 166 186 166c102 0 163 -59 163 -130c0 -67 -46 -114 -151 -164c59 -52 116 -115 149 -173z" />
    <glyph glyph-name="exclam" unicode="!" horiz-adv-x="280" 
d="M132 194c-13 193 -55 363 -55 450c0 53 22 81 63 81c40 0 64 -28 64 -81c0 -87 -42 -257 -56 -450h-16zM140 -16c-39 0 -68 30 -68 66c0 37 30 67 68 67s68 -30 68 -66c0 -37 -30 -67 -68 -67z" />
    <glyph glyph-name="exclamdown" unicode="&#xa1;" horiz-adv-x="280" 
d="M138 592c-38 0 -67 29 -67 66c0 36 30 67 68 67c39 0 68 -30 68 -66c0 -37 -30 -67 -69 -67zM138 -16c-40 0 -63 28 -63 81c0 86 42 257 56 450h15c14 -193 56 -364 56 -450c0 -53 -23 -81 -64 -81z" />
    <glyph glyph-name="question" unicode="?" horiz-adv-x="481" 
d="M192 194v159c123 34 153 91 153 194c0 112 -49 159 -130 159c-53 0 -97 -26 -116 -58c39 -11 59 -39 59 -73c0 -36 -23 -72 -69 -72c-44 0 -75 34 -75 77c0 86 97 144 216 144c147 0 231 -82 231 -177c0 -105 -89 -173 -242 -207v-146h-27zM207 -16c-39 0 -68 30 -68 66
c0 37 30 67 69 67c38 0 67 -30 67 -66c0 -37 -30 -67 -68 -67z" />
    <glyph glyph-name="questiondown" unicode="&#xbf;" horiz-adv-x="481" 
d="M273 591c-38 0 -68 30 -68 66c0 37 30 67 68 67c39 0 68 -30 68 -66c0 -37 -30 -67 -68 -67zM250 -16c-146 0 -231 82 -231 177c0 105 89 173 243 207v146h27v-159c-124 -34 -153 -91 -153 -194c0 -112 48 -159 129 -159c54 0 98 26 117 58c-40 11 -60 39 -60 73
c0 36 24 72 70 72c43 0 74 -34 74 -77c0 -86 -96 -144 -216 -144z" />
    <glyph glyph-name="quotedblleft" unicode="&#x201c;" horiz-adv-x="420" 
d="M308 444c-48 0 -77 35 -77 86c0 77 54 143 159 183l7 -12c-73 -36 -112 -95 -117 -136l4 -2c8 5 19 8 28 8c33 0 59 -25 59 -60c0 -36 -26 -67 -63 -67zM120 444c-47 0 -77 35 -77 86c0 77 55 143 160 183l7 -12c-73 -36 -112 -95 -117 -136l4 -2c8 5 19 8 28 8
c33 0 59 -25 59 -60c0 -36 -26 -67 -64 -67z" />
    <glyph glyph-name="quotedblright" unicode="&#x201d;" horiz-adv-x="420" 
d="M216 442l-7 12c73 36 112 94 117 136l-4 2c-8 -6 -19 -9 -28 -9c-33 0 -59 25 -59 60c0 36 26 67 64 67c47 0 77 -35 77 -86c0 -77 -55 -142 -160 -182zM29 442l-7 12c72 36 112 94 117 136l-4 2c-8 -6 -19 -9 -29 -9c-32 0 -59 25 -59 60c0 36 27 67 64 67
c48 0 77 -35 77 -86c0 -77 -54 -142 -159 -182z" />
    <glyph glyph-name="quoteleft" unicode="&#x2018;" horiz-adv-x="233" 
d="M120 444c-47 0 -77 35 -77 86c0 77 55 143 160 183l7 -12c-73 -36 -112 -95 -117 -136l4 -2c8 5 19 8 28 8c33 0 59 -25 59 -60c0 -36 -26 -67 -64 -67z" />
    <glyph glyph-name="quoteright" unicode="&#x2019;" horiz-adv-x="233" 
d="M29 442l-7 12c72 36 112 94 117 136l-4 2c-8 -6 -19 -9 -29 -9c-32 0 -59 25 -59 60c0 36 27 67 64 67c48 0 77 -35 77 -86c0 -77 -54 -142 -159 -182z" />
    <glyph glyph-name="quotedblbase" unicode="&#x201e;" horiz-adv-x="420" 
d="M216 -151l-7 12c73 36 112 94 117 136l-4 2c-8 -6 -19 -9 -28 -9c-33 0 -59 25 -59 60c0 36 26 67 64 67c47 0 77 -35 77 -86c0 -77 -55 -142 -160 -182zM29 -151l-7 12c72 36 112 94 117 136l-4 2c-8 -6 -19 -9 -29 -9c-32 0 -59 25 -59 60c0 36 27 67 64 67
c48 0 77 -35 77 -86c0 -77 -54 -142 -159 -182z" />
    <glyph glyph-name="quotesinglbase" unicode="&#x201a;" horiz-adv-x="233" 
d="M29 -151l-7 12c72 36 112 94 117 136l-4 2c-8 -6 -19 -9 -29 -9c-32 0 -59 25 -59 60c0 36 27 67 64 67c48 0 77 -35 77 -86c0 -77 -54 -142 -159 -182z" />
    <glyph glyph-name="guillemotleft" unicode="&#xab;" horiz-adv-x="506" 
d="M447 28l-188 170c-17 16 -20 20 -20 27c0 6 3 11 20 26l188 170l12 -9l-129 -187l129 -189zM244 28l-187 170c-18 16 -21 20 -21 27c0 6 3 11 21 26l187 170l12 -9l-129 -187l129 -189z" />
    <glyph glyph-name="guillemotright" unicode="&#xbb;" horiz-adv-x="506" 
d="M261 28l-12 9l130 187l-130 189l12 8l188 -170c17 -16 20 -20 20 -27c0 -6 -3 -11 -20 -26zM59 28l-12 9l129 187l-129 189l12 8l187 -170c18 -16 21 -20 21 -27c0 -6 -3 -11 -21 -26z" />
    <glyph glyph-name="guilsinglleft" unicode="&#x2039;" horiz-adv-x="303" 
d="M244 28l-187 170c-18 16 -21 20 -21 27c0 6 3 11 21 26l187 170l12 -9l-129 -187l129 -189z" />
    <glyph glyph-name="guilsinglright" unicode="&#x203a;" horiz-adv-x="303" 
d="M59 28l-12 9l129 187l-129 189l12 8l187 -170c18 -16 21 -20 21 -27c0 -6 -3 -11 -21 -26z" />
    <glyph glyph-name="hyphen" unicode="-" horiz-adv-x="366" 
d="M55 239v41h256v-41h-256z" />
    <glyph glyph-name="endash" unicode="&#x2013;" horiz-adv-x="540" 
d="M55 252v22h430v-22h-430z" />
    <glyph glyph-name="emdash" unicode="&#x2014;" horiz-adv-x="790" 
d="M55 252v22h680v-22h-680z" />
    <glyph glyph-name="underscore" unicode="_" horiz-adv-x="440" 
d="M-2 0v31h444v-31h-444z" />
    <glyph glyph-name="slash" unicode="/" horiz-adv-x="457" 
d="M8 -215l212 480l208 481h30l-212 -481l-208 -480h-30z" />
    <glyph glyph-name="backslash" unicode="\" horiz-adv-x="457" 
d="M418 -215l-208 480l-212 481h30l208 -481l212 -480h-30z" />
    <glyph glyph-name="bar" unicode="|" horiz-adv-x="306" 
d="M140 -215v961h26v-961h-26z" />
    <glyph glyph-name="brokenbar" unicode="&#xa6;" horiz-adv-x="306" 
d="M166 337h-26v409h26v-409zM140 194h26v-409h-26v409z" />
    <glyph glyph-name="parenleft" unicode="(" horiz-adv-x="383" 
d="M406 -166c-156 63 -333 217 -333 465s177 402 333 465l6 -12c-139 -81 -230 -199 -230 -453s91 -372 230 -453z" />
    <glyph glyph-name="parenright" unicode=")" horiz-adv-x="383" 
d="M-24 -166l-6 12c140 81 231 199 231 453s-91 372 -231 453l6 12c156 -63 333 -217 333 -465s-177 -402 -333 -465z" />
    <glyph glyph-name="bracketleft" unicode="[" horiz-adv-x="367" 
d="M99 -165v929h291v-21h-197v-887h197v-21h-291z" />
    <glyph glyph-name="bracketright" unicode="]" horiz-adv-x="367" 
d="M-23 -165v21h197v887h-197v21h291v-929h-291z" />
    <glyph glyph-name="braceleft" unicode="{" horiz-adv-x="408" 
d="M424 -159c-154 0 -248 68 -248 192c0 50 18 107 18 141c0 77 -36 119 -168 127v16c132 9 168 46 168 123c0 34 -18 87 -18 136c0 124 94 183 248 188v-13c-123 -10 -139 -72 -139 -166c0 -29 5 -70 5 -114c0 -101 -44 -142 -204 -160v-5c156 -14 204 -62 204 -163
c0 -44 -5 -90 -5 -119c0 -94 16 -160 139 -169v-14z" />
    <glyph glyph-name="braceright" unicode="}" horiz-adv-x="408" 
d="M-15 -159v14c123 9 139 75 139 169c0 29 -5 75 -5 119c0 101 48 149 204 163v5c-161 18 -204 59 -204 160c0 44 5 85 5 114c0 94 -16 156 -139 166v13c154 -5 248 -64 248 -188c0 -49 -18 -102 -18 -136c0 -77 35 -114 167 -123v-16c-132 -8 -167 -50 -167 -127
c0 -34 18 -91 18 -141c0 -124 -94 -192 -248 -192z" />
    <glyph glyph-name="at" unicode="@" horiz-adv-x="909" 
d="M469 -146c-236 0 -408 161 -408 407c0 244 177 423 427 423c198 0 360 -142 360 -338c0 -190 -119 -286 -228 -286c-89 0 -119 33 -125 83h-3c-37 -47 -74 -74 -125 -74c-72 0 -118 52 -118 138c0 126 112 271 232 271c50 0 72 -22 87 -55h3l15 47l90 9l-48 -141
l-41 -146c-21 -69 -1 -109 52 -109c85 0 187 99 187 262c0 179 -146 320 -343 320c-237 0 -400 -179 -400 -399c0 -223 149 -392 391 -392c108 0 180 32 249 82l11 -14c-72 -53 -150 -88 -265 -88zM407 109c33 0 62 25 88 69l63 212c-10 44 -32 65 -64 65
c-86 0 -153 -162 -153 -250c0 -60 23 -96 66 -96z" />
    <glyph glyph-name="copyright" unicode="&#xa9;" horiz-adv-x="834" 
d="M417 -34c-216 0 -383 165 -383 383c0 215 167 382 383 382s383 -167 383 -382c0 -218 -167 -383 -383 -383zM417 -17c207 0 363 164 363 366s-156 365 -363 365s-363 -163 -363 -365s156 -366 363 -366zM422 149c-117 0 -193 71 -193 196c0 131 93 210 205 210
c40 0 77 -12 100 -27l21 28h12v-146h-15c-34 86 -70 129 -126 129c-64 0 -111 -64 -111 -182c0 -121 59 -181 126 -181c60 0 100 31 126 92l15 -7c-23 -55 -72 -112 -160 -112z" />
    <glyph glyph-name="published" unicode="&#x2117;" horiz-adv-x="834" 
d="M417 -34c-216 0 -383 165 -383 383c0 215 167 382 383 382s383 -167 383 -382c0 -218 -167 -383 -383 -383zM417 -17c207 0 363 164 363 366s-156 365 -363 365s-363 -163 -363 -365s156 -366 363 -366zM251 157v12c48 2 58 9 58 28v311c0 19 -10 27 -58 29v11h173
c122 0 168 -47 168 -112c0 -62 -48 -114 -171 -114h-35v-125c0 -20 10 -27 61 -29v-11h-196zM386 336h35c67 0 91 29 91 100c0 62 -26 98 -89 98h-37v-198z" />
    <glyph glyph-name="registered.alt" horiz-adv-x="834" 
d="M417 -34c-216 0 -383 165 -383 383c0 215 167 382 383 382s383 -167 383 -382c0 -218 -167 -383 -383 -383zM417 -17c207 0 363 164 363 366s-156 365 -363 365s-363 -163 -363 -365s156 -366 363 -366zM372 361h38c72 0 89 20 89 85c0 56 -20 88 -87 88h-40v-173z
M372 348v-151c0 -20 13 -26 56 -28v-12h-191v12c47 2 58 9 58 28v311c0 20 -11 27 -58 29v11h188c117 0 156 -45 156 -96c0 -47 -29 -82 -110 -95v-3c76 -1 94 -34 101 -83l6 -52c6 -41 14 -50 56 -51v-11c-13 -2 -28 -2 -38 -2c-81 0 -95 23 -99 71l-4 47
c-5 56 -21 75 -86 75h-35z" />
    <glyph glyph-name="registered" unicode="&#xae;" horiz-adv-x="385" 
d="M191 423c-87 0 -153 66 -153 155c0 90 66 153 153 153c90 0 155 -63 155 -153c0 -89 -65 -155 -155 -155zM191 435c84 0 140 62 140 143s-56 141 -140 141s-138 -60 -138 -141s54 -143 138 -143zM175 587h16c28 0 36 11 36 37c0 23 -10 32 -39 32h-13v-69zM175 579v-59
c0 -9 5 -13 24 -13v-7h-80v7c19 0 24 5 24 13v125c0 8 -5 11 -24 11v8h73c53 0 70 -18 70 -39s-11 -35 -46 -40v-2c31 -3 39 -14 41 -35l2 -22c1 -15 9 -19 25 -19v-7c-6 -1 -13 -2 -21 -2c-31 0 -36 9 -37 31l-1 18c-1 24 -11 32 -35 32h-15z" />
    <glyph glyph-name="servicemark" unicode="&#x2120;" horiz-adv-x="572" 
d="M51 549h11c21 -41 47 -66 78 -66c32 0 47 21 47 39c0 22 -19 32 -61 46c-35 11 -71 22 -71 66c0 43 36 70 82 70c19 0 38 -5 51 -10l10 11h9v-71h-11c-16 35 -37 57 -64 57c-23 0 -42 -14 -42 -36s20 -30 59 -43c33 -11 69 -23 69 -67c0 -35 -24 -74 -83 -74
c-19 0 -42 4 -58 11l-16 -12h-10v79zM242 475v9c30 3 35 14 35 45v130c0 16 -7 29 -35 30v10h94l58 -157h4l56 157h91v-10c-27 -2 -35 -5 -35 -16v-172c0 -11 8 -14 35 -15v-11h-113v11c24 1 30 4 30 15v166h-5l-67 -192h-19l-73 192h-5v-138c0 -31 5 -41 36 -45v-9h-87z
" />
    <glyph glyph-name="trademark" unicode="&#x2122;" horiz-adv-x="609" 
d="M279 475v9c30 3 35 14 35 45v130c0 16 -7 29 -35 30v10h94l58 -157h4l56 157h91v-10c-27 -2 -35 -5 -35 -16v-172c0 -11 8 -14 35 -15v-11h-113v11c24 1 30 4 30 15v166h-5l-67 -192h-19l-73 192h-5v-138c0 -31 5 -41 36 -45v-9h-87zM88 475v11c30 0 38 4 38 15v186h-8
c-27 0 -44 -25 -61 -67h-11l3 79h203l3 -79h-11c-16 43 -33 67 -63 67h-6v-186c0 -11 8 -15 38 -15v-11h-125z" />
    <glyph glyph-name="asterisk" unicode="*" horiz-adv-x="423" 
d="M266 386c-22 -7 -40 5 -49 33c-6 19 -5 99 -5 122l-9 3c-14 -19 -58 -83 -76 -96c-23 -16 -44 -15 -57 3s-9 39 14 56c17 12 94 36 115 42v10c-21 7 -97 30 -114 42c-23 16 -28 39 -15 56c14 19 35 19 57 2c18 -13 62 -77 76 -96l9 3c0 23 -1 103 5 123c9 27 27 38 49 32
c21 -6 28 -27 20 -55c-5 -19 -54 -83 -69 -102l6 -6c22 5 96 32 118 32c28 0 45 -13 45 -36c0 -24 -17 -36 -45 -36c-22 0 -96 26 -118 32l-6 -6c15 -20 63 -83 69 -104c8 -26 1 -46 -20 -54z" />
    <glyph glyph-name="dagger" unicode="&#x2020;" horiz-adv-x="560" 
d="M273 -107c-9 176 -39 370 -56 418l41 63c8 11 12 25 12 36c0 33 -20 54 -55 54c-52 0 -95 -41 -133 -41c-26 0 -53 13 -53 43s34 52 83 52c46 0 103 -27 158 -57l3 3l-22 103c-11 47 -20 88 -20 116c0 38 18 66 49 66s49 -28 49 -66c0 -28 -10 -69 -20 -116l-22 -103
l3 -3c55 30 112 57 158 57c49 0 83 -22 83 -52s-27 -43 -53 -43c-38 0 -81 41 -133 41c-35 0 -55 -21 -55 -54c0 -11 4 -25 12 -36l41 -63c-17 -48 -46 -242 -56 -418h-14z" />
    <glyph glyph-name="daggerdbl" unicode="&#x2021;" horiz-adv-x="566" 
d="M283 -109c-31 0 -49 24 -49 62c0 27 10 61 20 107l22 102l-3 3c-55 -31 -112 -58 -158 -58c-49 0 -83 21 -83 53c0 29 27 42 53 42c38 0 81 -41 133 -41c35 0 54 16 54 46c0 11 -4 32 -12 46l-31 67l31 66c8 14 12 33 12 44c0 30 -19 48 -54 48c-52 0 -95 -41 -133 -41
c-26 0 -53 13 -53 43s34 52 83 52c46 0 103 -27 158 -57l3 3l-22 101c-10 46 -20 80 -20 108c0 38 18 62 49 62s49 -24 49 -62c0 -28 -10 -62 -20 -108l-22 -101l3 -3c55 30 112 57 158 57c49 0 83 -22 83 -52s-27 -43 -53 -43c-38 0 -81 41 -133 41c-35 0 -54 -16 -54 -45
c0 -12 4 -33 12 -47l31 -66l-31 -67c-8 -14 -12 -35 -12 -46c0 -30 19 -46 54 -46c52 0 95 41 133 41c26 0 53 -13 53 -42c0 -30 -34 -53 -83 -53c-46 0 -103 27 -158 58l-3 -3l22 -102c10 -46 20 -80 20 -107c0 -38 -18 -62 -49 -62z" />
    <glyph glyph-name="asciicircum" unicode="^" horiz-adv-x="355" 
d="M23 535l149 227h17l144 -227h-24l-131 135l-131 -135h-24z" />
    <glyph glyph-name="asciitilde" unicode="~" horiz-adv-x="397" 
d="M45 276c12 89 39 129 97 129c48 0 110 -52 147 -52c19 0 35 14 47 60h19c-12 -89 -42 -129 -97 -129c-48 0 -110 52 -147 52c-19 0 -35 -13 -47 -60h-19z" />
    <glyph glyph-name="dollar" unicode="$" horiz-adv-x="565" 
d="M274 -64v83c-124 3 -223 59 -223 138c0 31 22 68 69 68c39 0 63 -30 63 -63c0 -26 -16 -50 -46 -64c19 -28 76 -55 137 -59v246l-17 6c-93 31 -187 65 -187 173c0 106 99 172 207 178v73h26v-72c114 -3 200 -58 200 -127c0 -33 -21 -64 -59 -64c-44 0 -64 28 -64 61
c0 23 17 48 38 57c-22 26 -61 50 -115 53v-230l27 -9c89 -30 185 -61 185 -177c0 -90 -66 -182 -215 -188v-83h-26zM424 149c0 65 -34 92 -124 126v-236c85 4 124 48 124 110zM167 514c0 -56 36 -83 110 -111v219c-65 -4 -110 -40 -110 -108z" />
    <glyph glyph-name="sterling" unicode="&#xa3;" horiz-adv-x="607" 
d="M460 351v-21h-158c8 -22 13 -45 13 -70c0 -55 -31 -102 -83 -140c57 -12 123 -36 209 -36c65 0 106 24 117 115l17 -1c0 -126 -59 -213 -155 -213c-58 0 -134 46 -205 111c-22 -65 -59 -111 -110 -111c-38 0 -60 26 -60 56c0 46 49 86 131 86c10 0 21 -1 32 -3
c8 17 11 35 11 61c0 56 -23 100 -45 145h-115v21h105c-17 36 -31 72 -31 117c0 132 103 208 236 208c100 0 179 -57 179 -133c0 -40 -24 -73 -63 -73c-42 0 -71 25 -71 71c0 32 23 56 47 69c-21 27 -54 48 -102 48c-64 0 -117 -38 -117 -132c0 -69 31 -121 53 -175h165z" />
    <glyph glyph-name="Euro" unicode="&#x20ac;" horiz-adv-x="683" 
d="M447 264h-212c22 -137 102 -217 214 -217c79 0 145 45 184 114l16 -9c-44 -86 -111 -169 -243 -169c-174 0 -273 127 -293 281h-84v21h81c-1 12 -1 24 -1 37c0 21 1 41 5 62h-85v21h89c32 151 153 274 320 274c120 0 201 -65 201 -137c0 -42 -28 -75 -67 -75
c-42 0 -73 25 -73 72c0 37 25 62 49 73c-13 22 -60 49 -113 49c-110 0 -188 -79 -203 -256h215v-21h-216c-1 -13 -1 -27 -1 -41c0 -20 1 -40 3 -58h214v-21z" />
    <glyph glyph-name="yen" unicode="&#xa5;" horiz-adv-x="689" 
d="M81 309v21h179l-137 237c-29 49 -54 68 -113 82v13h317v-13c-99 -5 -96 -38 -71 -86l131 -240l104 186c50 89 40 120 -46 140v13h227v-13c-57 -11 -101 -48 -148 -131l-106 -188h180v-21h-192l-9 -17v-58h201v-21h-201v-132c0 -40 18 -65 112 -68v-13h-338v13
c94 3 112 28 112 68v132h-202v21h202v57l-11 18h-191z" />
    <glyph glyph-name="cent" unicode="&#xa2;" horiz-adv-x="532" 
d="M281 -86v78c-136 5 -217 100 -217 233c0 134 95 231 217 243v69h26v-68c116 -1 180 -66 180 -117c0 -36 -21 -66 -57 -66c-41 0 -62 26 -62 59c0 29 16 49 32 59c-12 22 -46 47 -92 47h-1v-417c8 -1 16 -2 25 -2c61 0 103 30 145 82l11 -8c-40 -60 -92 -108 -181 -113
v-79h-26zM178 243c0 -100 33 -178 103 -203v408c-60 -16 -103 -84 -103 -205z" />
    <glyph glyph-name="numbersign" unicode="#" horiz-adv-x="705" 
d="M321 705l-44 -223h210l45 223h26l-44 -223h157v-21h-161l-50 -251h168v-21h-172l-46 -231h-26l46 231h-211l-46 -231h-26l46 231h-155v21h159l49 251h-164v21h168l45 223h26zM273 461l-50 -251h211l49 251h-210z" />
    <glyph glyph-name="paragraph" unicode="&#xb6;" horiz-adv-x="673" 
d="M371 -100v281c-181 4 -317 91 -317 241c0 139 114 240 315 240h265v-12c-98 -5 -117 -16 -117 -57v-693h-26v742h-93v-742h-27z" />
    <glyph glyph-name="section" unicode="&#xa7;" horiz-adv-x="558" 
d="M71 241c0 63 45 118 129 142v1c-72 32 -114 69 -114 132c0 98 89 160 205 160c93 0 180 -46 180 -109c0 -38 -23 -64 -58 -64c-39 0 -61 28 -61 58c0 24 12 46 38 57c-12 17 -46 38 -105 38c-70 0 -124 -34 -124 -93c0 -47 50 -73 167 -117c107 -39 161 -71 161 -150
c0 -60 -35 -112 -116 -140v-1c75 -32 105 -66 105 -133c0 -100 -75 -165 -203 -165c-106 0 -210 39 -210 118c0 37 21 70 64 70c41 0 62 -29 62 -61c0 -26 -15 -50 -43 -64c19 -24 70 -43 134 -43c80 0 127 43 127 94c0 48 -33 76 -166 121c-109 38 -172 71 -172 149z
M345 167c52 17 78 44 78 74c0 47 -39 74 -140 111c-16 5 -42 14 -57 21c-56 -16 -85 -43 -85 -81c0 -51 42 -70 163 -111z" />
    <glyph glyph-name="ordfeminine" unicode="&#xaa;" horiz-adv-x="440" 
d="M150 333c-68 0 -101 42 -101 86c0 33 14 62 46 79c55 31 144 34 164 43v58c0 54 -15 78 -59 78c-24 0 -48 -5 -61 -18c13 -13 20 -26 20 -42c0 -28 -16 -48 -48 -48c-26 0 -45 22 -45 47c0 45 54 77 146 77c88 0 134 -33 134 -112v-175c0 -36 15 -52 57 -34l4 -10
c-27 -17 -49 -27 -76 -27c-45 0 -62 17 -67 58h-3c-29 -33 -64 -60 -111 -60zM197 373c24 0 49 18 62 38v113c-95 -18 -117 -39 -117 -91c0 -36 18 -60 55 -60z" />
    <glyph glyph-name="ordmasculine" unicode="&#xba;" horiz-adv-x="450" 
d="M226 333c-108 0 -182 70 -182 178s78 182 182 182c106 0 180 -71 180 -179s-78 -181 -180 -181zM229 349c57 0 82 50 82 164s-30 163 -89 163s-82 -49 -82 -163s29 -164 89 -164z" />
    <glyph glyph-name="degree" unicode="&#xb0;" horiz-adv-x="382" 
d="M192 430c-90 0 -149 61 -149 142s63 144 148 144c89 0 147 -60 147 -141c0 -82 -62 -145 -146 -145zM193 449c50 0 78 41 78 124s-33 124 -83 124c-49 0 -77 -41 -77 -123c0 -84 33 -125 82 -125z" />
    <glyph glyph-name="percent" unicode="%" horiz-adv-x="814" 
d="M591 10c90 0 153 143 153 231c0 64 -25 97 -68 97c-91 0 -149 -142 -149 -243c0 -59 28 -85 64 -85zM580 -14c-89 0 -139 59 -139 148c0 114 101 239 214 239c70 0 114 -48 114 -131c0 -82 -66 -256 -189 -256zM353 544c0 12 -1 23 -3 33c-35 11 -68 29 -99 55
c-72 -29 -115 -148 -115 -234c0 -59 28 -85 64 -85c90 0 153 142 153 231zM265 676c46 0 82 -23 100 -63c25 -11 54 -18 90 -18c57 0 119 28 184 96h27l-480 -717h-45l455 650l-3 3c-40 -37 -97 -61 -165 -61c-18 0 -35 2 -51 5c1 -8 1 -17 1 -26c0 -83 -65 -256 -189 -256
c-88 0 -139 59 -139 148c0 114 102 239 215 239z" />
    <glyph glyph-name="percent.alt" horiz-adv-x="856" 
d="M385 502c0 -103 -78 -177 -172 -177c-101 0 -174 71 -174 174s78 177 173 177c100 0 173 -71 173 -174zM154 -10l267 352l245 330h37l-266 -349l-246 -333h-37zM209 658c-54 0 -81 -43 -81 -157c0 -115 32 -158 87 -158c54 0 81 43 81 157c0 115 -32 158 -87 158z
M472 161c0 102 78 176 172 176c100 0 174 -71 174 -174s-78 -177 -172 -177c-101 0 -174 71 -174 175zM648 4c54 0 81 44 81 157c0 115 -32 158 -87 158c-54 0 -81 -43 -81 -156c0 -115 32 -159 87 -159z" />
    <glyph glyph-name="quotedbl" unicode="&#x22;" horiz-adv-x="434" 
d="M264 430l-14 5l20 114c15 73 21 103 28 121c11 23 27 34 49 34c33 0 53 -26 53 -53c0 -6 -2 -16 -5 -24c-6 -16 -23 -45 -65 -104zM81 430l-13 5l20 114c15 73 20 103 28 121c10 23 27 34 48 34c33 0 54 -26 54 -53c0 -6 -2 -16 -5 -24c-7 -16 -24 -45 -66 -104z" />
    <glyph glyph-name="quotesingle" unicode="'" horiz-adv-x="252" 
d="M81 430l-13 5l20 114c15 73 20 103 28 121c10 23 27 34 48 34c33 0 54 -26 54 -53c0 -6 -2 -16 -5 -24c-7 -16 -24 -45 -66 -104z" />
    <glyph glyph-name="plus" unicode="+" horiz-adv-x="556" 
d="M54 315v22h212v211h26v-211h210v-22h-210v-214h-26v214h-212z" />
    <glyph glyph-name="minus" unicode="&#x2212;" horiz-adv-x="536" 
d="M54 315v22h428v-22h-428z" />
    <glyph glyph-name="divide" unicode="&#xf7;" horiz-adv-x="576" 
d="M54 315v22h468v-22h-468zM289 413c-33 0 -59 26 -59 58s26 58 59 58c32 0 58 -26 58 -58s-26 -58 -58 -58zM289 123c-33 0 -59 26 -59 58s26 58 59 58c32 0 58 -26 58 -58s-26 -58 -58 -58z" />
    <glyph glyph-name="equal" unicode="=" horiz-adv-x="556" 
d="M59 215v22h438v-22h-438zM59 413v22h438v-22h-438z" />
    <glyph glyph-name="multiply" unicode="&#xd7;" horiz-adv-x="556" 
d="M456 519l17 -17l-178 -178l178 -178l-17 -17l-178 178l-178 -178l-17 17l178 178l-178 178l17 17l178 -178z" />
    <glyph glyph-name="less" unicode="&#x3c;" horiz-adv-x="555" 
d="M84 313v24l388 213v-30l-358 -195l358 -194v-30z" />
    <glyph glyph-name="greater" unicode="&#x3e;" horiz-adv-x="555" 
d="M472 314l-388 -213v30l357 195l-357 194v30l388 -212v-24z" />
    <glyph glyph-name="plusminus" unicode="&#xb1;" horiz-adv-x="530" 
d="M59 314v22h194v193h26v-193h192v-22h-192v-196h-26v196h-194zM59 0v22h412v-22h-412z" />
    <glyph glyph-name="space" unicode=" " horiz-adv-x="187" 
 />
    <glyph glyph-name="uni00A0" unicode="&#xa0;" horiz-adv-x="187" 
 />
    <glyph glyph-name="emspace" unicode="&#x2003;" horiz-adv-x="1000" 
 />
    <glyph glyph-name="enspace" unicode="&#x2002;" horiz-adv-x="500" 
 />
    <glyph glyph-name="threeperemspace" unicode="&#x2004;" horiz-adv-x="333" 
 />
    <glyph glyph-name="fourperemspace" unicode="&#x2005;" horiz-adv-x="250" 
 />
    <glyph glyph-name="thinspace" unicode="&#x2009;" horiz-adv-x="133" 
 />
    <glyph glyph-name="hairspace" unicode="&#x200a;" horiz-adv-x="75" 
 />
    <glyph glyph-name="NUL" horiz-adv-x="0" 
 />
    <glyph glyph-name="hfjslug" horiz-adv-x="694" 
d="M644 -200h-208l-8 14h-163l-8 -14h-207v303c18 0 32 14 32 32c0 17 -14 32 -32 32v554h100l30 79h334l29 -79h101v-921zM400 563v-172h15v78h38v14h-38v66h43v14h-58zM184 563v-172h15v79h47v-79h15v172h-15v-79h-47v79h-15zM460 394c5 -2 14 -4 21 -4c20 0 31 11 31 36
v137h-16v-137c0 -16 -5 -22 -16 -22c-6 0 -15 3 -20 5v-15zM371 465l-13 3c-2 -9 -5 -21 -8 -30h-1l-16 31c13 12 23 26 23 42c0 15 -9 31 -27 31c-17 0 -28 -16 -28 -31s6 -24 14 -39c-15 -12 -23 -28 -23 -47c0 -22 12 -37 29 -37c13 0 23 9 29 24h1l12 -24l12 6l-17 32
c5 12 9 25 13 39zM523 323v-46h8v12l8 8l15 -20h10l-20 26l18 20h-10l-20 -24h-1v24h-8zM488 292l10 -15h9l-12 17c5 2 10 6 10 14c0 9 -7 15 -17 15h-20v-46h8v15h12zM426 276c14 0 24 11 24 24c0 12 -10 24 -24 24s-24 -12 -24 -24c0 -13 10 -24 24 -24zM370 301l-13 22
h-9l18 -29v-17h8v17l18 29h-9zM193 323v-46h34v7h-26v13h23v7h-23v12h26v7h-34zM132 323v-46h8v32l25 -32h7v46h-8v-32l-25 32h-7zM241 323l14 -47h8l11 34h1l11 -34h8l14 47h-8l-10 -35h-1l-11 35h-7l-11 -35h-1l-10 35h-8zM327 479c-7 13 -12 22 -12 32s6 19 14 19
s13 -9 13 -19c0 -12 -5 -21 -15 -32zM342 423c-5 -13 -12 -21 -20 -21c-9 0 -16 10 -16 25c0 13 7 26 16 35zM487 299h-11v17h11c6 0 10 -3 10 -8s-4 -9 -10 -9zM426 283c-10 0 -16 8 -16 17c0 8 6 17 16 17s16 -9 16 -17c0 -9 -6 -17 -16 -17z" />
    <glyph glyph-name="i.dot" horiz-adv-x="292" 
d="M146 549c-39 0 -65 25 -65 65c0 41 26 69 65 69c40 0 66 -26 66 -66s-26 -68 -66 -68zM26 0v12c58 1 73 8 73 38v344c0 30 -15 49 -73 50v12l178 7v-413c0 -30 11 -37 73 -38v-12h-251z" />
    <glyph glyph-name="fraction" unicode="&#x2044;" horiz-adv-x="607" 
d="M43 -31l246 355l243 355h32l-245 -355l-244 -355h-32z" />
    <glyph glyph-name="acute" unicode="&#xb4;" horiz-adv-x="238" 
d="M50 528l47 127c19 57 32 82 63 82c26 0 47 -19 47 -44c0 -20 -17 -41 -52 -76l-92 -89h-13z" />
    <glyph glyph-name="hungarumlaut" unicode="&#x2dd;" horiz-adv-x="300" 
d="M143 528l56 128c24 56 39 81 69 81c24 0 40 -17 40 -41c0 -20 -13 -39 -56 -79l-98 -89h-11zM-12 528l55 128c24 56 39 81 69 81c25 0 41 -17 41 -41c0 -20 -15 -41 -56 -79l-98 -89h-11z" />
    <glyph glyph-name="caron.alt" horiz-adv-x="138" 
d="M40 533l-6 119c-1 18 -2 42 -2 56c0 44 26 56 46 56c23 0 42 -15 42 -42c0 -15 -5 -34 -15 -59l-53 -130h-12z" />
    <glyph glyph-name="grave" unicode="`" horiz-adv-x="238" 
d="M166 528l-93 89c-35 35 -51 56 -51 76c0 25 21 44 47 44c31 0 44 -25 63 -82l47 -127h-13z" />
    <glyph glyph-name="circumflex" unicode="&#x2c6;" horiz-adv-x="308" 
d="M16 528l136 192h13l127 -192h-16l-121 93l-123 -93h-16z" />
    <glyph glyph-name="caron" unicode="&#x2c7;" horiz-adv-x="308" 
d="M144 528l-127 192h16l121 -93l122 93h16l-135 -192h-13z" />
    <glyph glyph-name="breve" unicode="&#x2d8;" horiz-adv-x="336" 
d="M169 533c-75 0 -129 65 -137 159h15c18 -59 61 -88 121 -88c62 0 103 29 121 88h15c-7 -94 -60 -159 -135 -159z" />
    <glyph glyph-name="tilde" unicode="&#x2dc;" horiz-adv-x="342" 
d="M13 526c11 88 39 129 96 129c48 0 117 -50 154 -50c19 0 38 15 50 60h16c-12 -88 -41 -129 -96 -129c-48 0 -117 50 -154 50c-20 0 -38 -14 -50 -60h-16z" />
    <glyph glyph-name="macron" unicode="&#xaf;" horiz-adv-x="321" 
d="M18 558v43h285v-43h-285z" />
    <glyph glyph-name="dieresis" unicode="&#xa8;" horiz-adv-x="351" 
d="M268 533c-36 0 -62 28 -62 63c0 36 26 65 62 65s62 -29 62 -65c0 -35 -26 -63 -62 -63zM83 533c-37 0 -62 28 -62 63c0 36 25 65 62 65c36 0 61 -29 61 -65c0 -35 -25 -63 -61 -63z" />
    <glyph glyph-name="dotaccent" unicode="&#x2d9;" horiz-adv-x="209" 
d="M105 533c-40 0 -66 26 -66 66c0 39 27 68 66 68c40 0 65 -27 65 -67c0 -39 -27 -67 -65 -67z" />
    <glyph glyph-name="ring" unicode="&#x2da;" horiz-adv-x="265" 
d="M133 533c-70 0 -113 47 -113 105c0 57 44 104 113 104s112 -46 112 -104s-43 -105 -112 -105zM133 550c36 0 55 33 55 88c0 61 -19 87 -56 87c-36 0 -55 -26 -55 -87c0 -55 20 -88 56 -88z" />
    <glyph glyph-name="commaaccent" unicode="&#x326;" horiz-adv-x="233" 
d="M58 -292l-7 12c58 36 83 77 86 112l-4 1c-7 -4 -17 -7 -26 -7c-29 0 -53 23 -53 54c0 32 24 60 58 60c42 0 69 -31 69 -80c0 -61 -45 -117 -123 -152z" />
    <glyph glyph-name="cedilla" unicode="&#xb8;" horiz-adv-x="282" 
d="M112 -251c-37 0 -71 7 -103 30l10 16c27 -17 54 -24 78 -24c39 0 57 21 57 55c0 35 -31 56 -76 56c-12 0 -23 -1 -37 -5l-6 9l122 111h26l-72 -68l2 -3c81 -1 115 -44 115 -87c0 -51 -47 -90 -116 -90z" />
    <glyph glyph-name="ogonek" unicode="&#x2db;" horiz-adv-x="269" 
d="M119 -244c-56 0 -97 31 -97 82s33 85 98 137l49 36h18l-33 -36c-35 -40 -53 -79 -53 -121c0 -44 25 -65 59 -65c20 0 41 5 64 17l6 -13c-32 -23 -71 -37 -111 -37z" />
    </font>
</defs>
</svg>
